<?xml version="1.0"?>
<svg xmlns="http://www.w3.org/2000/svg" xmlns:xlink="http://www.w3.org/1999/xlink" viewBox="0 0 1920 1080" width="1920" height="1080">
<defs></defs>
<g isolation="isolate">

<g id="bg" data-layer="world">
&#x9;<rect y="0" fill="#F5F4F9" width="1920" height="1080"></rect>
</g>
<g id="part_1">
&#x9;
</g>
<g id="part_2">
</g>
<g id="x3f">
&#x9;<g opacity="0.09">
&#x9;&#x9;<path fill="#6182EE" d="M1045.19,771.24h-175.7c2.22-1.76,5.03-2.8,8.08-2.8h159.54C1040.16,768.44,1042.97,769.48,1045.19,771.24&#xA;&#x9;&#x9;&#x9;z"></path>
&#x9;</g>
&#x9;<g>
&#x9;&#x9;<path opacity="0.13" fill="#6182EE" d="M892.43,684.9c-6.44,0-11.67-5.22-11.67-11.67v-8.61c0-74.18,29.51-128.66,111.67-201.82&#xA;&#x9;&#x9;&#x9;c46.13-41.29,59.88-74.6,59.88-113.77c0-42.45-24.31-76.41-77.92-76.41c-58.3,0-80.93,37.71-88.27,86.79&#xA;&#x9;&#x9;&#x9;c-0.86,5.71-5.76,9.95-11.53,9.95H741.5c-6.96,0-12.35-6.04-11.6-12.96c9.87-91.4,71.7-207.14,247.56-206.21&#xA;&#x9;&#x9;&#x9;c181.81,0.98,235.18,118.45,235.18,204.56c0,69.51-22.71,117.73-102.83,191.91c-47.33,44.58-63.26,80.6-63.26,126.56l0,0&#xA;&#x9;&#x9;&#x9;c0,6.44-5.22,11.67-11.67,11.67H892.43z"></path>
&#x9;&#x9;<circle opacity="0.13" fill="#6182EE" cx="961.19" cy="855.04" r="74.77"></circle>
&#x9;</g>
</g>
<g id="box">
&#x9;<g>
&#x9;&#x9;<g>
&#x9;&#x9;&#x9;<g>
&#x9;&#x9;&#x9;&#x9;
&#x9;&#x9;&#x9;&#x9;&#x9;
&#x9;&#x9;&#x9;&#x9;<g>
&#x9;&#x9;&#x9;&#x9;&#x9;<linearGradient id="SVGID_1_" gradientUnits="userSpaceOnUse" x1="379.964" y1="-499.4785" x2="1319.3115" y2="1127.519">
&#x9;&#x9;&#x9;&#x9;&#x9;&#x9;<stop offset="0.0953" style="stop-color:#FEFEFE"></stop>
&#x9;&#x9;&#x9;&#x9;&#x9;&#x9;<stop offset="0.4064" style="stop-color:#FAFAFD"></stop>
&#x9;&#x9;&#x9;&#x9;&#x9;&#x9;<stop offset="0.7317" style="stop-color:#EDEEFB"></stop>
&#x9;&#x9;&#x9;&#x9;&#x9;&#x9;<stop offset="1" style="stop-color:#DDDFF9"></stop>
&#x9;&#x9;&#x9;&#x9;&#x9;</linearGradient>
&#x9;&#x9;&#x9;&#x9;&#x9;<path fill="url(#SVGID_1_)" d="M1427.77,258.02H487.35c-22.24,0-40.26,10.95-40.26,24.44v436.95&#xA;&#x9;&#x9;&#x9;&#x9;&#x9;&#x9;c0,13.52,18.03,24.47,40.26,24.47h940.42c22.24,0,40.26-10.95,40.26-24.47V282.46&#xA;&#x9;&#x9;&#x9;&#x9;&#x9;&#x9;C1468.03,268.96,1450.01,258.02,1427.77,258.02z"></path>
&#x9;&#x9;&#x9;&#x9;</g>
&#x9;&#x9;&#x9;</g>
&#x9;&#x9;</g>
&#x9;</g>
</g>
<g id="x3f_2">
&#x9;<g opacity="0.09">
&#x9;&#x9;<path fill="#6182EE" d="M1212.62,354.76c0,69.52-22.7,117.74-102.83,191.92c-47.33,44.58-63.26,80.6-63.26,126.56&#xA;&#x9;&#x9;&#x9;c0,3.21-1.3,6.13-3.42,8.25c-2.11,2.11-5.03,3.42-8.25,3.42H892.43c-6.45,0-11.67-5.23-11.67-11.67v-8.61&#xA;&#x9;&#x9;&#x9;c0-74.19,29.51-128.67,111.67-201.82c46.12-41.29,59.88-74.61,59.88-113.77c0-42.45-24.3-76.42-77.92-76.42&#xA;&#x9;&#x9;&#x9;c-58.31,0-80.93,37.71-88.27,86.79c-0.86,5.71-5.76,9.95-11.54,9.95H741.49c-6.96,0-12.35-6.04-11.6-12.96&#xA;&#x9;&#x9;&#x9;c3.45-31.9,13.22-66.78,31.98-98.61h427.2C1205.89,289.65,1212.62,324.18,1212.62,354.76z"></path>
&#x9;</g>
</g>
<g id="text" data-layer="content" data-beat="1" data-cue="why influence" data-t="550" data-enter="typewriter">
&#x9;<g>
&#x9;&#x9;<g>
&#x9;&#x9;&#x9;<text transform="matrix(1 0 0 1 564.4937 465.9217)"><tspan x="0" y="0" fill="#0840A5" font-family="DM Sans" font-size="70px">Why is</tspan><tspan x="226.03" y="0" fill="#6084F0" font-family="DM Sans" font-size="70px"> influencing</tspan><tspan x="616.42" y="0" fill="#0840A5" font-family="DM Sans" font-size="70px"> vital</tspan><tspan x="-56.07" y="100.04" fill="#0840A5" font-family="DM Sans" font-size="70px">during </tspan><tspan x="178.01" y="100.04" fill="#6084F0" font-family="DM Sans" font-size="70px">critical operations?</tspan></text>
&#x9;&#x9;</g>
&#x9;</g>
</g>
<g id="stars">
&#x9;<g>
&#x9;&#x9;<g opacity="0.57">
&#x9;&#x9;&#x9;
&#x9;&#x9;&#x9;&#x9;<linearGradient id="SVGID_00000020366031102793044430000002394232643719355016_" gradientUnits="userSpaceOnUse" x1="544.4438" y1="98.5326" x2="543.0444" y2="184.3236">
&#x9;&#x9;&#x9;&#x9;<stop offset="0.1707" style="stop-color:#417DFF"></stop>
&#x9;&#x9;&#x9;&#x9;<stop offset="0.7421" style="stop-color:#1B9ADA"></stop>
&#x9;&#x9;&#x9;</linearGradient>
&#x9;&#x9;&#x9;<path opacity="0.56" fill="url(#SVGID_00000020366031102793044430000002394232643719355016_)" d="M544.61,127.62&#xA;&#x9;&#x9;&#x9;&#x9;c0,0,0,15.09-15.72,19.49c0,0,13.83-0.63,14.46,16.98c0,0,1.26-15.09,15.09-18.86C558.44,145.22,543.35,143.97,544.61,127.62z"></path>
&#x9;&#x9;</g>
&#x9;&#x9;<g opacity="0.57">
&#x9;&#x9;&#x9;
&#x9;&#x9;&#x9;&#x9;<linearGradient id="SVGID_00000176736283660464780600000009460406243916762542_" gradientUnits="userSpaceOnUse" x1="754.8268" y1="780.7453" x2="753.4274" y2="866.5364">
&#x9;&#x9;&#x9;&#x9;<stop offset="0.1707" style="stop-color:#417DFF"></stop>
&#x9;&#x9;&#x9;&#x9;<stop offset="0.7421" style="stop-color:#1B9ADA"></stop>
&#x9;&#x9;&#x9;</linearGradient>
&#x9;&#x9;&#x9;<path opacity="0.56" fill="url(#SVGID_00000176736283660464780600000009460406243916762542_)" d="M754.99,809.83&#xA;&#x9;&#x9;&#x9;&#x9;c0,0,0,15.09-15.72,19.49c0,0,13.83-0.63,14.46,16.98c0,0,1.26-15.09,15.09-18.86C768.82,827.44,753.74,826.18,754.99,809.83z"></path>
&#x9;&#x9;</g>
&#x9;&#x9;<g opacity="0.57">
&#x9;&#x9;&#x9;
&#x9;&#x9;&#x9;&#x9;<linearGradient id="SVGID_00000127757988330782811540000004796407967025328532_" gradientUnits="userSpaceOnUse" x1="268.0993" y1="313.7285" x2="266.8049" y2="393.0853">
&#x9;&#x9;&#x9;&#x9;<stop offset="0.1707" style="stop-color:#417DFF"></stop>
&#x9;&#x9;&#x9;&#x9;<stop offset="0.7421" style="stop-color:#1B9ADA"></stop>
&#x9;&#x9;&#x9;</linearGradient>
&#x9;&#x9;&#x9;<path opacity="0.56" fill="url(#SVGID_00000127757988330782811540000004796407967025328532_)" d="M268.25,340.63&#xA;&#x9;&#x9;&#x9;&#x9;c0,0,0,13.96-14.54,18.03c0,0,12.79-0.58,13.38,15.7c0,0,1.16-13.96,13.96-17.45C281.05,356.92,267.09,355.75,268.25,340.63z"></path>
&#x9;&#x9;</g>
&#x9;</g>
</g>
<g id="clouds1">
&#x9;<g>
&#x9;&#x9;<g opacity="0.47">
&#x9;&#x9;&#x9;
&#x9;&#x9;&#x9;&#x9;<linearGradient id="SVGID_00000017474352949122734900000007266878390819802785_" gradientUnits="userSpaceOnUse" x1="1568.3652" y1="354.9955" x2="1777.217" y2="354.9955">
&#x9;&#x9;&#x9;&#x9;<stop offset="5.052579e-08" style="stop-color:#E9E8FA"></stop>
&#x9;&#x9;&#x9;&#x9;<stop offset="1" style="stop-color:#B3D2FF"></stop>
&#x9;&#x9;&#x9;</linearGradient>
&#x9;&#x9;&#x9;<path fill="url(#SVGID_00000017474352949122734900000007266878390819802785_)" d="M1763.4,387.37c0.15-1.06,0.24-2.14,0.24-3.23&#xA;&#x9;&#x9;&#x9;&#x9;c0-15.29-14.58-27.69-32.56-27.69c-3.39,0-6.66,0.44-9.73,1.26c0-0.1,0.02-0.19,0.02-0.29c0-22.54-21.49-40.81-47.99-40.81&#xA;&#x9;&#x9;&#x9;&#x9;c-25.12,0-45.7,16.42-47.78,37.33c-4.61-2.7-10.18-4.3-16.2-4.3c-15.78,0-28.56,10.87-28.56,24.29c0,4.85,1.69,9.37,4.58,13.16&#xA;&#x9;&#x9;&#x9;&#x9;c-7.32,0.98-13.43,3.26-17.04,6.27h23.94h15.5h10.62h8.05h24.19h45.42h2.57h1.75h17.98h43.37h15.47&#xA;&#x9;&#x9;&#x9;&#x9;C1774.52,390.98,1769.68,388.9,1763.4,387.37z"></path>
&#x9;&#x9;</g>
&#x9;</g>
</g>
<g id="clouds2">
&#x9;
&#x9;&#x9;<linearGradient id="SVGID_00000071535419805986064920000013308987914856096129_" gradientUnits="userSpaceOnUse" x1="1670.8892" y1="118.0222" x2="1818.7305" y2="118.0222">
&#x9;&#x9;<stop offset="5.052579e-08" style="stop-color:#E9E8FA"></stop>
&#x9;&#x9;<stop offset="1" style="stop-color:#B3D2FF"></stop>
&#x9;</linearGradient>
&#x9;<path opacity="0.47" fill="url(#SVGID_00000071535419805986064920000013308987914856096129_)" d="M1791.85,130.92&#xA;&#x9;&#x9;c-0.66-3.26-3.01-6-6.16-7.15c-1.47-0.54-2.89-0.67-4.23-0.53c-0.57-8.21-7.41-14.7-15.77-14.7c-7.05,0-13.01,4.61-15.06,10.98&#xA;&#x9;&#x9;c-2.83-4.35-7.73-7.23-13.3-7.23c-2.9,0-5.61,0.79-7.94,2.15c-2.88-8.5-10.92-14.61-20.39-14.61c-11.89,0-21.53,9.64-21.53,21.53&#xA;&#x9;&#x9;c0,3.61,0.89,7.01,2.46,10c-10.15,1.1-17.28,2.86-19.03,4.89H1757h32.98h28.75C1813.2,133.35,1803.35,131.31,1791.85,130.92z"></path>
</g>
<g id="arrow">
&#x9;<g>
&#x9;&#x9;<g>
&#x9;&#x9;&#x9;<g>
&#x9;&#x9;&#x9;&#x9;<path fill="none" stroke="#17479E" stroke-width="2.7867" stroke-miterlimit="10" d="M1605.08,552.69c0,1.88,0,3.77,0,5.65"></path>
&#x9;&#x9;&#x9;&#x9;<path fill="none" stroke="#17479E" stroke-width="2.7867" stroke-miterlimit="10" stroke-dasharray="11.354,11.354" d="&#xA;&#x9;&#x9;&#x9;&#x9;&#x9;M1605.08,569.69c0,140.64,0,273.81,0,273.81c0,26.65-21.6,48.26-48.26,48.26H361.93c-26.65,0-48.26-21.6-48.26-48.26&#xA;&#x9;&#x9;&#x9;&#x9;&#x9;c0,0,0-138.08,0-281.53"></path>
&#x9;&#x9;&#x9;&#x9;<path fill="none" stroke="#17479E" stroke-width="2.7867" stroke-miterlimit="10" d="M313.68,556.3c0-1.88,0-3.76,0-5.65"></path>
&#x9;&#x9;&#x9;</g>
&#x9;&#x9;</g>
&#x9;&#x9;<g>
&#x9;&#x9;&#x9;<polygon fill="#19499C" points="652.23,880.52 669.08,892.01 653,905.8 &#x9;&#x9;&#x9;"></polygon>
&#x9;&#x9;&#x9;<polygon fill="#19499C" points="1220.06,880.52 1236.91,892.01 1220.83,905.8 &#x9;&#x9;&#x9;"></polygon>
&#x9;&#x9;</g>
&#x9;&#x9;<g>
&#x9;&#x9;&#x9;<g>
&#x9;&#x9;&#x9;&#x9;<g>
&#x9;&#x9;&#x9;&#x9;&#x9;<path fill="none" stroke="#17479E" stroke-width="2.7867" stroke-miterlimit="10" d="M313.68,449.67c0-1.88,0-3.77,0-5.65"></path>
&#x9;&#x9;&#x9;&#x9;&#x9;<path fill="none" stroke="#17479E" stroke-width="2.7867" stroke-miterlimit="10" stroke-dasharray="11.354,11.354" d="&#xA;&#x9;&#x9;&#x9;&#x9;&#x9;&#x9;M313.68,432.67c0-140.64,0-273.81,0-273.81c0-26.65,21.6-48.26,48.26-48.26h1194.89c26.65,0,48.26,21.6,48.26,48.26&#xA;&#x9;&#x9;&#x9;&#x9;&#x9;&#x9;c0,0,0,138.08,0,281.53"></path>
&#x9;&#x9;&#x9;&#x9;&#x9;<path fill="none" stroke="#17479E" stroke-width="2.7867" stroke-miterlimit="10" d="M1605.08,446.07c0,1.88,0,3.76,0,5.65"></path>
&#x9;&#x9;&#x9;&#x9;</g>
&#x9;&#x9;&#x9;</g>
&#x9;&#x9;&#x9;<g>
&#x9;&#x9;&#x9;&#x9;<polygon fill="#19499C" points="1266.53,121.84 1249.68,110.35 1265.76,96.56 &#x9;&#x9;&#x9;&#x9;"></polygon>
&#x9;&#x9;&#x9;&#x9;<polygon fill="#19499C" points="698.7,121.84 681.85,110.35 697.93,96.56 &#x9;&#x9;&#x9;&#x9;"></polygon>
&#x9;&#x9;&#x9;</g>
&#x9;&#x9;</g>
&#x9;</g>
</g>
<g id="part_3">
</g>
<g id="waves" data-layer="world">
&#x9;<g>
&#x9;&#x9;<defs>
&#x9;&#x9;&#x9;<rect id="SVGID_00000168814697644826689340000005365166351631084971_" x="-0.36" y="-57.55" width="1921.02" height="1142.55"></rect>
&#x9;&#x9;</defs>
&#x9;&#x9;<clipPath id="SVGID_00000105407338550118346480000009718703442569130943_">
&#x9;&#x9;&#x9;<use xlink:href="#SVGID_00000168814697644826689340000005365166351631084971_" overflow="visible"></use>
&#x9;&#x9;</clipPath>
&#x9;&#x9;<g clip-path="url(#SVGID_00000105407338550118346480000009718703442569130943_)">
&#x9;&#x9;&#x9;
&#x9;&#x9;&#x9;&#x9;<linearGradient id="SVGID_00000134222689968386448660000006872443577450993854_" gradientUnits="userSpaceOnUse" x1="345.9236" y1="1396.5404" x2="345.9236" y2="700.9163">
&#x9;&#x9;&#x9;&#x9;<stop offset="0.3161" style="stop-color:#F3F7FA"></stop>
&#x9;&#x9;&#x9;&#x9;<stop offset="0.4663" style="stop-color:#F5F7FA"></stop>
&#x9;&#x9;&#x9;&#x9;<stop offset="0.5412" style="stop-color:#E7F0F8"></stop>
&#x9;&#x9;&#x9;&#x9;<stop offset="0.6175" style="stop-color:#DDECF7"></stop>
&#x9;&#x9;&#x9;</linearGradient>
&#x9;&#x9;&#x9;<path fill="url(#SVGID_00000134222689968386448660000006872443577450993854_)" d="M1022.13,1095.58H717.07v131.92H-330.29&#xA;&#x9;&#x9;&#x9;&#x9;c1.4-29.17,9.89-39.78,9.28-68.97c39.77-64.67,96.68-122.4,162.5-160.24c111.54-64.13,245.69-104.85,373.58-90.75&#xA;&#x9;&#x9;&#x9;&#x9;c36.14,3.99,88.97,25.1,123.37,37.04c75.06,26.04,141.06,6.06,200.43-5.87c70.8-14.24,116.66-24.58,163.91-18.38&#xA;&#x9;&#x9;&#x9;&#x9;C826.85,936.59,937.28,1027.5,1022.13,1095.58z"></path>
&#x9;&#x9;&#x9;<g>
&#x9;&#x9;&#x9;&#x9;
&#x9;&#x9;&#x9;&#x9;&#x9;<linearGradient id="SVGID_00000026855773924050589320000001491403585188786056_" gradientUnits="userSpaceOnUse" x1="-93.4496" y1="966.3698" x2="941.3154" y2="966.3698">
&#x9;&#x9;&#x9;&#x9;&#x9;<stop offset="0" style="stop-color:#F2F4F9"></stop>
&#x9;&#x9;&#x9;&#x9;&#x9;<stop offset="0.4157" style="stop-color:#F9F9F9"></stop>
&#x9;&#x9;&#x9;&#x9;&#x9;<stop offset="1" style="stop-color:#F2F4F9"></stop>
&#x9;&#x9;&#x9;&#x9;</linearGradient>
&#x9;&#x9;&#x9;&#x9;<path fill="url(#SVGID_00000026855773924050589320000001491403585188786056_)" d="M-92.28,963.98&#xA;&#x9;&#x9;&#x9;&#x9;&#x9;c20.28-9.71,41.23-17.97,62.46-25.41c21.24-7.42,42.81-13.9,64.66-19.35c21.87-5.38,44.02-9.67,66.36-12.64&#xA;&#x9;&#x9;&#x9;&#x9;&#x9;c11.17-1.48,22.4-2.62,33.65-3.4c11.26-0.75,22.54-1.12,33.83-1.05c11.29,0.06,22.59,0.58,33.85,1.62l4.22,0.4l4.21,0.48&#xA;&#x9;&#x9;&#x9;&#x9;&#x9;c2.81,0.31,5.61,0.7,8.41,1.09c2.81,0.36,5.59,0.86,8.39,1.29l1.05,0.17c0.38,0.07,0.77,0.14,1.14,0.23&#xA;&#x9;&#x9;&#x9;&#x9;&#x9;c0.75,0.17,1.47,0.36,2.18,0.56c1.41,0.4,2.73,0.83,4,1.16c0.64,0.17,1.26,0.31,1.87,0.42l2.1,0.38&#xA;&#x9;&#x9;&#x9;&#x9;&#x9;c1.43,0.25,2.81,0.58,4.22,0.87c2.78,0.65,5.54,1.33,8.27,2.08c5.47,1.49,10.87,3.11,16.26,4.8&#xA;&#x9;&#x9;&#x9;&#x9;&#x9;c10.76,3.37,21.43,6.97,32.07,10.61l31.86,11.02c5.31,1.82,10.62,3.63,15.94,5.36c5.32,1.71,10.65,3.43,15.95,4.63&#xA;&#x9;&#x9;&#x9;&#x9;&#x9;c5.48,1.24,10.91,2.42,16.38,3.35c5.47,0.95,10.97,1.63,16.49,2.11c11.05,0.96,22.19,0.99,33.31,0.42&#xA;&#x9;&#x9;&#x9;&#x9;&#x9;c22.26-1.13,44.41-4.59,66.32-9.11c10.96-2.25,21.84-4.88,32.78-7.5c10.94-2.6,21.88-5.21,32.88-7.63&#xA;&#x9;&#x9;&#x9;&#x9;&#x9;c21.99-4.85,44.18-9.11,66.64-11.64c11.23-1.26,22.52-2.09,33.83-2.33c11.31-0.22,22.64,0.13,33.91,1.14&#xA;&#x9;&#x9;&#x9;&#x9;&#x9;c22.55,1.99,44.84,6.68,66.29,13.8c10.74,3.51,21.23,7.75,31.51,12.41c5.17,2.28,10.19,4.81,15.26,7.24l7.6,3.68l7.53,3.81&#xA;&#x9;&#x9;&#x9;&#x9;&#x9;c20.07,10.18,39.83,20.98,59.06,32.66c9.63,5.82,19.09,11.9,28.34,18.31l3.46,2.41l3.42,2.47c2.29,1.63,4.53,3.33,6.77,5.03&#xA;&#x9;&#x9;&#x9;&#x9;&#x9;c4.46,3.42,8.88,6.91,13.02,10.71c-4.23-3.7-8.73-7.07-13.27-10.38c-2.28-1.64-4.56-3.28-6.88-4.86l-3.47-2.39l-3.51-2.32&#xA;&#x9;&#x9;&#x9;&#x9;&#x9;c-4.66-3.13-9.42-6.11-14.17-9.1c-4.8-2.91-9.57-5.87-14.45-8.65c-19.4-11.31-39.31-21.72-59.5-31.52l-7.56-3.7l-7.62-3.58&#xA;&#x9;&#x9;&#x9;&#x9;&#x9;c-5.08-2.37-10.14-4.84-15.27-7.04c-10.24-4.5-20.67-8.59-31.33-11.94c-21.29-6.8-43.32-11.19-65.57-12.9&#xA;&#x9;&#x9;&#x9;&#x9;&#x9;c-22.26-1.74-44.67-0.86-66.85,1.76c-22.21,2.62-44.2,6.98-66.07,11.93c-10.94,2.49-21.86,5.07-32.78,7.71&#xA;&#x9;&#x9;&#x9;&#x9;&#x9;c-10.91,2.63-21.88,5.31-32.93,7.6c-22.08,4.6-44.47,8.15-67.12,9.34c-11.32,0.56-22.71,0.51-34.05-0.49&#xA;&#x9;&#x9;&#x9;&#x9;&#x9;c-5.67-0.5-11.33-1.22-16.93-2.2c-5.61-0.96-11.17-2.18-16.64-3.43c-5.66-1.3-11.03-3.06-16.41-4.79&#xA;&#x9;&#x9;&#x9;&#x9;&#x9;c-5.37-1.75-10.69-3.58-16.01-5.41l-31.83-11.12c-10.6-3.69-21.21-7.34-31.88-10.75c-5.33-1.7-10.68-3.34-16.05-4.83&#xA;&#x9;&#x9;&#x9;&#x9;&#x9;c-2.68-0.76-5.37-1.44-8.06-2.08c-1.34-0.29-2.69-0.62-4.03-0.86l-2.05-0.38c-0.77-0.14-1.52-0.32-2.24-0.51&#xA;&#x9;&#x9;&#x9;&#x9;&#x9;c-1.44-0.39-2.79-0.83-4.09-1.21c-0.65-0.19-1.28-0.36-1.9-0.5c-0.31-0.07-0.62-0.13-0.92-0.19l-1.03-0.17&#xA;&#x9;&#x9;&#x9;&#x9;&#x9;c-2.76-0.44-5.5-0.95-8.27-1.32c-2.76-0.4-5.52-0.8-8.3-1.12c-2.77-0.36-5.54-0.66-8.32-0.94c-11.11-1.15-22.28-1.79-33.46-1.97&#xA;&#x9;&#x9;&#x9;&#x9;&#x9;c-11.18-0.19-22.38,0.05-33.55,0.68c-11.18,0.65-22.33,1.66-33.46,3.01c-22.25,2.7-44.33,6.77-66.18,11.83&#xA;&#x9;&#x9;&#x9;&#x9;&#x9;c-21.86,5.04-43.49,11.12-64.82,18.14c-10.66,3.51-21.25,7.26-31.75,11.26C-71.61,955.16-82.04,959.33-92.28,963.98z"></path>
&#x9;&#x9;&#x9;</g>
&#x9;&#x9;</g>
&#x9;&#x9;<g clip-path="url(#SVGID_00000105407338550118346480000009718703442569130943_)">
&#x9;&#x9;&#x9;
&#x9;&#x9;&#x9;&#x9;<linearGradient id="SVGID_00000062883735495575380470000007154962794179695537_" gradientUnits="userSpaceOnUse" x1="9738.583" y1="948.3289" x2="9738.583" y2="252.7046" gradientTransform="matrix(-0.9925 0.1223 0.1223 0.9925 11092.0361 -679.729)">
&#x9;&#x9;&#x9;&#x9;<stop offset="0.3161" style="stop-color:#F3F7FA"></stop>
&#x9;&#x9;&#x9;&#x9;<stop offset="0.4663" style="stop-color:#F5F7FA"></stop>
&#x9;&#x9;&#x9;&#x9;<stop offset="0.5412" style="stop-color:#E7F0F8"></stop>
&#x9;&#x9;&#x9;&#x9;<stop offset="0.6175" style="stop-color:#DDECF7"></stop>
&#x9;&#x9;&#x9;</linearGradient>
&#x9;&#x9;&#x9;<path fill="url(#SVGID_00000062883735495575380470000007154962794179695537_)" d="M834.55,1236.24l302.77-37.3l16.13,130.93&#xA;&#x9;&#x9;&#x9;&#x9;l1039.5-128.07c-4.96-28.78-14.68-38.27-17.64-67.32c-47.38-59.32-110.92-109.66-180.87-139.17&#xA;&#x9;&#x9;&#x9;&#x9;c-118.54-50.01-256.67-74.02-381.87-44.39c-35.38,8.38-85.23,35.79-117.92,51.85c-71.32,35.03-139.26,23.27-199.64,18.68&#xA;&#x9;&#x9;&#x9;&#x9;c-72.01-5.47-118.79-10.13-164.93,1.8C1008.93,1054.57,910.44,1158.3,834.55,1236.24z"></path>
&#x9;&#x9;&#x9;<g>
&#x9;&#x9;&#x9;&#x9;
&#x9;&#x9;&#x9;&#x9;&#x9;<linearGradient id="SVGID_00000090285793472216707530000014638169832578094240_" gradientUnits="userSpaceOnUse" x1="1902.3618" y1="859.2885" x2="900.7113" y2="1118.9707">
&#x9;&#x9;&#x9;&#x9;&#x9;<stop offset="0" style="stop-color:#F2F4F9"></stop>
&#x9;&#x9;&#x9;&#x9;&#x9;<stop offset="0.4157" style="stop-color:#F9F9F9"></stop>
&#x9;&#x9;&#x9;&#x9;&#x9;<stop offset="1" style="stop-color:#F2F4F9"></stop>
&#x9;&#x9;&#x9;&#x9;</linearGradient>
&#x9;&#x9;&#x9;&#x9;<path fill="url(#SVGID_00000090285793472216707530000014638169832578094240_)" d="M1900.63,857.27&#xA;&#x9;&#x9;&#x9;&#x9;&#x9;c-11.07-1.93-22.22-3.35-33.39-4.57c-11.16-1.23-22.35-2.2-33.56-2.93c-22.41-1.44-44.87-1.9-67.3-1.29&#xA;&#x9;&#x9;&#x9;&#x9;&#x9;c-22.42,0.58-44.82,2.19-67.03,5.15c-11.1,1.49-22.16,3.3-33.14,5.48c-10.98,2.2-21.87,4.78-32.65,7.77&#xA;&#x9;&#x9;&#x9;&#x9;&#x9;c-10.78,2.98-21.43,6.4-31.89,10.3c-2.62,0.97-5.23,1.96-7.82,3c-2.61,1-5.18,2.09-7.75,3.17c-2.59,1.05-5.11,2.24-7.67,3.35&#xA;&#x9;&#x9;&#x9;&#x9;&#x9;l-0.96,0.42c-0.28,0.13-0.56,0.27-0.85,0.41c-0.57,0.29-1.14,0.62-1.72,0.96c-1.16,0.69-2.35,1.46-3.65,2.19&#xA;&#x9;&#x9;&#x9;&#x9;&#x9;c-0.65,0.37-1.33,0.73-2.04,1.06l-1.89,0.89c-1.24,0.57-2.46,1.22-3.69,1.84c-2.44,1.3-4.88,2.63-7.28,4.04&#xA;&#x9;&#x9;&#x9;&#x9;&#x9;c-4.82,2.79-9.59,5.72-14.32,8.71c-9.47,5.98-18.83,12.17-28.16,18.41l-28.02,18.75c-4.69,3.11-9.38,6.21-14.14,9.26&#xA;&#x9;&#x9;&#x9;&#x9;&#x9;c-4.77,3.03-9.53,6.08-14.68,8.76c-4.99,2.59-10.06,5.16-15.25,7.5c-5.18,2.36-10.48,4.47-15.84,6.38&#xA;&#x9;&#x9;&#x9;&#x9;&#x9;c-10.73,3.82-21.74,6.72-32.84,9.02c-22.23,4.54-44.79,6.72-67.32,7.81c-11.27,0.56-22.56,0.72-33.78,0.91&#xA;&#x9;&#x9;&#x9;&#x9;&#x9;c-11.23,0.19-22.45,0.43-33.66,0.77c-22.41,0.7-44.79,2-66.95,5.04c-22.14,3.04-44.05,7.8-65.16,15.08&#xA;&#x9;&#x9;&#x9;&#x9;&#x9;c-21.11,7.24-41.34,17.02-60.24,28.94c-9.48,5.93-18.55,12.49-27.33,19.42c-4.42,3.42-8.69,7.08-13.02,10.65l-6.47,5.38&#xA;&#x9;&#x9;&#x9;&#x9;&#x9;l-6.39,5.47c-17.09,14.55-33.75,29.62-49.69,45.44c-4.02,3.92-7.89,7.98-11.81,12c-3.85,4.09-7.71,8.16-11.43,12.36l-2.82,3.13&#xA;&#x9;&#x9;&#x9;&#x9;&#x9;l-2.76,3.18c-1.86,2.11-3.65,4.27-5.44,6.43c-3.56,4.34-7.06,8.74-10.24,13.38c3.06-4.72,6.46-9.2,9.92-13.63&#xA;&#x9;&#x9;&#x9;&#x9;&#x9;c1.74-2.21,3.48-4.41,5.29-6.57l2.69-3.25l2.75-3.2c7.34-8.52,14.98-16.79,22.84-24.83c15.68-16.13,32.1-31.54,48.97-46.43&#xA;&#x9;&#x9;&#x9;&#x9;&#x9;l6.34-5.57l6.43-5.46c4.3-3.63,8.52-7.33,12.96-10.84c8.78-7.09,17.87-13.82,27.39-19.92c18.98-12.27,39.38-22.41,60.71-29.99&#xA;&#x9;&#x9;&#x9;&#x9;&#x9;c10.66-3.8,21.54-6.99,32.54-9.61c11.01-2.61,22.15-4.63,33.33-6.23c22.38-3.2,44.93-4.63,67.43-5.46&#xA;&#x9;&#x9;&#x9;&#x9;&#x9;c11.25-0.42,22.5-0.64,33.74-0.87c11.25-0.21,22.44-0.39,33.62-0.97c22.34-1.12,44.66-3.33,66.49-7.82&#xA;&#x9;&#x9;&#x9;&#x9;&#x9;c10.91-2.24,21.69-5.06,32.14-8.77c5.23-1.85,10.38-3.9,15.44-6.19c5.06-2.27,10.02-4.77,15.01-7.35&#xA;&#x9;&#x9;&#x9;&#x9;&#x9;c4.82-2.49,9.55-5.5,14.27-8.49c4.71-3.01,9.4-6.09,14.08-9.18l28.08-18.66c9.39-6.2,18.81-12.36,28.38-18.32&#xA;&#x9;&#x9;&#x9;&#x9;&#x9;c4.79-2.98,9.61-5.91,14.53-8.72c2.45-1.41,4.95-2.77,7.48-4.09c1.28-0.64,2.54-1.3,3.86-1.9l1.93-0.89&#xA;&#x9;&#x9;&#x9;&#x9;&#x9;c0.56-0.26,1.13-0.55,1.7-0.87c1.15-0.64,2.32-1.39,3.58-2.13c0.63-0.37,1.29-0.74,1.97-1.08c0.34-0.17,0.7-0.34,1.05-0.5&#xA;&#x9;&#x9;&#x9;&#x9;&#x9;l0.97-0.42c2.6-1.12,5.17-2.3,7.79-3.35c2.61-1.08,5.23-2.16,7.87-3.17l3.96-1.53l3.99-1.44c10.64-3.83,21.44-7.18,32.36-10.06&#xA;&#x9;&#x9;&#x9;&#x9;&#x9;c10.91-2.9,21.93-5.37,33.02-7.47c11.09-2.08,22.24-3.78,33.43-5.16c22.38-2.73,44.9-4.13,67.41-4.42&#xA;&#x9;&#x9;&#x9;&#x9;&#x9;c22.52-0.21,45.03,0.65,67.45,2.5C1856.2,850.22,1878.56,852.96,1900.63,857.27z"></path>
&#x9;&#x9;&#x9;</g>
&#x9;&#x9;</g>
&#x9;&#x9;<g clip-path="url(#SVGID_00000105407338550118346480000009718703442569130943_)">
&#x9;&#x9;&#x9;
&#x9;&#x9;&#x9;&#x9;<linearGradient id="SVGID_00000139978133225882142520000018225403853336047520_" gradientUnits="userSpaceOnUse" x1="711.1434" y1="679.771" x2="584.0881" y2="1306.0206">
&#x9;&#x9;&#x9;&#x9;<stop offset="0.0251" style="stop-color:#E6F2F8"></stop>
&#x9;&#x9;&#x9;&#x9;<stop offset="0.1988" style="stop-color:#EFF5FA"></stop>
&#x9;&#x9;&#x9;&#x9;<stop offset="0.4212" style="stop-color:#F3F7FB"></stop>
&#x9;&#x9;&#x9;&#x9;<stop offset="0.5462" style="stop-color:#E2EFF8"></stop>
&#x9;&#x9;&#x9;&#x9;<stop offset="0.6835" style="stop-color:#D7EBF7"></stop>
&#x9;&#x9;&#x9;&#x9;<stop offset="0.8427" style="stop-color:#D4E9F6"></stop>
&#x9;&#x9;&#x9;</linearGradient>
&#x9;&#x9;&#x9;<path fill="url(#SVGID_00000139978133225882142520000018225403853336047520_)" d="M-176.53,1057.68&#xA;&#x9;&#x9;&#x9;&#x9;c94.98-88.85,321.43-84.71,418.59-57.35c100.56,28.31,192.08,85.95,296.15,99.07c174.55,22,349.14-84.87,524.28-67.03&#xA;&#x9;&#x9;&#x9;&#x9;c124.31,12.66,270.67,94.24,355.69,159.85l-1608.5,42.81L-176.53,1057.68z"></path>
&#x9;&#x9;&#x9;<g>
&#x9;&#x9;&#x9;&#x9;
&#x9;&#x9;&#x9;&#x9;&#x9;<linearGradient id="SVGID_00000158744455592253922080000003333907667244210825_" gradientUnits="userSpaceOnUse" x1="-172.5449" y1="1112.0848" x2="1434.7395" y2="1080.3523">
&#x9;&#x9;&#x9;&#x9;&#x9;<stop offset="0" style="stop-color:#F2F4F9"></stop>
&#x9;&#x9;&#x9;&#x9;&#x9;<stop offset="0.4157" style="stop-color:#F9F9F9"></stop>
&#x9;&#x9;&#x9;&#x9;&#x9;<stop offset="1" style="stop-color:#F2F4F9"></stop>
&#x9;&#x9;&#x9;&#x9;</linearGradient>
&#x9;&#x9;&#x9;&#x9;<path fill="url(#SVGID_00000158744455592253922080000003333907667244210825_)" d="M-171.94,1053.09&#xA;&#x9;&#x9;&#x9;&#x9;&#x9;c6.52-5.93,13.53-11.32,20.86-16.23c7.34-4.89,15-9.3,22.85-13.33c15.71-8.06,32.2-14.52,49.02-19.87&#xA;&#x9;&#x9;&#x9;&#x9;&#x9;c16.83-5.35,34-9.58,51.33-12.95c17.33-3.36,34.83-5.88,52.4-7.64c35.14-3.47,70.57-4.14,105.84-1.99&#xA;&#x9;&#x9;&#x9;&#x9;&#x9;c17.63,1.06,35.23,2.81,52.73,5.28c17.5,2.45,34.9,5.66,52.13,9.63c17.23,3.95,34.26,8.83,51.04,14.42&#xA;&#x9;&#x9;&#x9;&#x9;&#x9;c16.79,5.55,33.3,11.86,49.7,18.41c16.38,6.58,32.63,13.45,48.89,20.24c16.26,6.8,32.52,13.53,48.97,19.73&#xA;&#x9;&#x9;&#x9;&#x9;&#x9;c8.22,3.13,16.5,6.06,24.81,8.89c8.33,2.78,16.7,5.4,25.14,7.79c8.45,2.33,16.93,4.57,25.5,6.38l3.21,0.71l3.22,0.63l6.45,1.26&#xA;&#x9;&#x9;&#x9;&#x9;&#x9;c4.32,0.71,8.62,1.54,12.96,2.11c34.64,5.2,69.95,4.74,104.82,1.02c34.92-3.7,69.48-10.49,103.83-18.16&#xA;&#x9;&#x9;&#x9;&#x9;&#x9;c34.35-7.71,68.52-16.4,102.89-24.43c34.36-8.04,68.97-15.36,104.01-20.24c35.02-4.83,70.55-7.24,105.95-4.82&#xA;&#x9;&#x9;&#x9;&#x9;&#x9;c8.84,0.63,17.67,1.47,26.45,2.73c8.78,1.25,17.51,2.84,26.16,4.72c17.32,3.76,34.35,8.64,51.11,14.28&#xA;&#x9;&#x9;&#x9;&#x9;&#x9;c33.52,11.32,65.94,25.58,97.43,41.54c31.47,16.02,61.99,33.83,91.67,52.9c29.67,19.08,58.51,39.48,86.11,61.43&#xA;&#x9;&#x9;&#x9;&#x9;&#x9;c-13.98-10.74-28.26-21.08-42.77-31.08c-14.49-10.03-29.21-19.72-44.15-29.06c-29.87-18.69-60.58-36.04-92.11-51.7&#xA;&#x9;&#x9;&#x9;&#x9;&#x9;c-31.52-15.67-63.92-29.63-97.31-40.63c-33.37-10.97-67.84-18.88-102.88-20.76c-35.02-2.08-70.22,0.31-104.99,5.29&#xA;&#x9;&#x9;&#x9;&#x9;&#x9;c-34.8,4.97-69.22,12.45-103.51,20.48c-34.29,8.05-68.46,16.8-102.9,24.57c-34.43,7.78-69.21,14.52-104.45,18.22&#xA;&#x9;&#x9;&#x9;&#x9;&#x9;c-35.19,3.7-70.98,4.14-106.14-1.19c-4.4-0.6-8.76-1.45-13.13-2.19l-6.53-1.3l-3.26-0.66l-3.24-0.73&#xA;&#x9;&#x9;&#x9;&#x9;&#x9;c-8.67-1.87-17.24-4.17-25.77-6.56c-8.52-2.45-16.96-5.13-25.34-7.96c-8.36-2.89-16.69-5.87-24.94-9.04&#xA;&#x9;&#x9;&#x9;&#x9;&#x9;c-16.51-6.31-32.81-13.11-49.04-20.01c-16.22-6.92-32.4-13.9-48.68-20.59c-32.55-13.36-65.69-25.4-99.96-33.36&#xA;&#x9;&#x9;&#x9;&#x9;&#x9;c-17.11-4.04-34.4-7.32-51.8-9.85c-17.4-2.55-34.91-4.38-52.47-5.53c-35.11-2.28-70.41-2.03-105.47,1.17&#xA;&#x9;&#x9;&#x9;&#x9;&#x9;c-17.53,1.6-34.99,3.97-52.3,7.17c-17.3,3.21-34.46,7.29-51.29,12.48c-16.81,5.2-33.31,11.51-49.08,19.35&#xA;&#x9;&#x9;&#x9;&#x9;&#x9;c-7.88,3.93-15.57,8.24-22.96,13.04C-158.28,1041.93-165.35,1047.23-171.94,1053.09z"></path>
&#x9;&#x9;&#x9;</g>
&#x9;&#x9;</g>
&#x9;&#x9;<g clip-path="url(#SVGID_00000105407338550118346480000009718703442569130943_)">
&#x9;&#x9;&#x9;
&#x9;&#x9;&#x9;&#x9;<linearGradient id="SVGID_00000023970680784720358740000015608810013737459637_" gradientUnits="userSpaceOnUse" x1="1469.2388" y1="1655.4952" x2="1515.8774" y2="950.0858">
&#x9;&#x9;&#x9;&#x9;<stop offset="0.3454" style="stop-color:#F3F7FA"></stop>
&#x9;&#x9;&#x9;&#x9;<stop offset="0.5467" style="stop-color:#F5F7FA"></stop>
&#x9;&#x9;&#x9;&#x9;<stop offset="0.7844" style="stop-color:#CAE4F9"></stop>
&#x9;&#x9;&#x9;</linearGradient>
&#x9;&#x9;&#x9;<path fill="url(#SVGID_00000023970680784720358740000015608810013737459637_)" d="M929.93,1240.72&#xA;&#x9;&#x9;&#x9;&#x9;c27.4-30.54,65.81-48.48,103.21-65.34c61.7-27.82,123.92-54.97,188.75-74.4c102.44-30.7,210.77-41.63,317.28-32.02&#xA;&#x9;&#x9;&#x9;&#x9;c45.3,4.09,90.43,12.71,135.9,11.41c150.61-4.31,309.25-97.78,391.12-128.29l-1.53,269.51L929.93,1240.72z"></path>
&#x9;&#x9;&#x9;<g>
&#x9;&#x9;&#x9;&#x9;
&#x9;&#x9;&#x9;&#x9;&#x9;<linearGradient id="SVGID_00000168833495327494942390000004121253776403290814_" gradientUnits="userSpaceOnUse" x1="2066.1917" y1="1096.406" x2="923.9116" y2="1096.406">
&#x9;&#x9;&#x9;&#x9;&#x9;<stop offset="0" style="stop-color:#F2F4F9"></stop>
&#x9;&#x9;&#x9;&#x9;&#x9;<stop offset="0.4157" style="stop-color:#F9F9F9"></stop>
&#x9;&#x9;&#x9;&#x9;&#x9;<stop offset="1" style="stop-color:#F2F4F9"></stop>
&#x9;&#x9;&#x9;&#x9;</linearGradient>
&#x9;&#x9;&#x9;&#x9;<path fill="url(#SVGID_00000168833495327494942390000004121253776403290814_)" d="M926.86,1240.72&#xA;&#x9;&#x9;&#x9;&#x9;&#x9;c8.26-9.41,17.65-17.81,27.74-25.26c10.1-7.44,20.83-14,31.83-20.01c11-6.02,22.29-11.48,33.63-16.8&#xA;&#x9;&#x9;&#x9;&#x9;&#x9;c11.35-5.3,22.72-10.51,34.13-15.66c45.63-20.59,91.74-40.36,139.3-56.41c47.6-15.87,96.59-27.75,146.29-34.91&#xA;&#x9;&#x9;&#x9;&#x9;&#x9;c24.84-3.61,49.84-6.17,74.91-7.53c25.07-1.33,50.2-1.54,75.29-0.64c25.08,0.88,50.15,2.99,75.02,5.89&#xA;&#x9;&#x9;&#x9;&#x9;&#x9;c24.89,2.79,49.7,5.89,74.59,7.56c12.44,0.86,24.9,1.38,37.35,1.31c12.45-0.06,24.89-0.84,37.28-2.07&#xA;&#x9;&#x9;&#x9;&#x9;&#x9;c12.4-1.25,24.74-3.07,37.01-5.27c12.27-2.25,24.46-4.92,36.56-7.96c24.2-6.11,48.05-13.65,71.53-22.18&#xA;&#x9;&#x9;&#x9;&#x9;&#x9;c23.5-8.5,46.68-17.91,69.61-27.88c22.95-9.96,45.65-20.49,68.35-31.01c11.36-5.26,22.72-10.51,34.17-15.56&#xA;&#x9;&#x9;&#x9;&#x9;&#x9;c11.45-5.04,22.98-9.96,34.73-14.25c-11.69,4.48-23.12,9.57-34.49,14.79c-11.36,5.24-22.65,10.63-33.95,16.01&#xA;&#x9;&#x9;&#x9;&#x9;&#x9;c-22.58,10.78-45.17,21.58-68.02,31.82c-22.86,10.23-45.94,20-69.45,28.7c-23.5,8.72-47.38,16.46-71.67,22.78&#xA;&#x9;&#x9;&#x9;&#x9;&#x9;c-12.15,3.15-24.39,5.92-36.73,8.28c-12.34,2.31-24.77,4.23-37.26,5.58c-12.5,1.33-25.06,2.2-37.64,2.36&#xA;&#x9;&#x9;&#x9;&#x9;&#x9;c-12.58,0.17-25.15-0.18-37.68-0.92c-25.07-1.51-49.97-4.5-74.84-7.13c-12.43-1.3-24.86-2.63-37.3-3.49l-9.33-0.72&#xA;&#x9;&#x9;&#x9;&#x9;&#x9;c-3.11-0.26-6.23-0.36-9.34-0.54c-6.23-0.31-12.45-0.73-18.69-0.84c-24.93-0.85-49.9-0.58-74.81,0.78&#xA;&#x9;&#x9;&#x9;&#x9;&#x9;c-24.91,1.31-49.76,3.8-74.46,7.34c-24.69,3.55-49.23,8.2-73.53,13.85l-9.11,2.12l-9.06,2.33l-9.06,2.33&#xA;&#x9;&#x9;&#x9;&#x9;&#x9;c-3.01,0.8-6.01,1.69-9.01,2.53c-12.03,3.31-23.95,7.02-35.82,10.87c-47.5,15.45-93.75,34.64-139.57,54.71l-34.35,15.12&#xA;&#x9;&#x9;&#x9;&#x9;&#x9;c-11.42,5.09-22.77,10.33-33.83,16.12c-11.07,5.78-21.86,12.11-32.05,19.33c-5.08,3.62-10.05,7.42-14.78,11.51&#xA;&#x9;&#x9;&#x9;&#x9;&#x9;C935.63,1231.79,931.11,1236.13,926.86,1240.72z"></path>
&#x9;&#x9;&#x9;</g>
&#x9;&#x9;</g>
&#x9;</g>
</g>
<g id="icon5" data-layer="content" data-beat="2" data-cue="persuade them" data-t="560" data-enter="pop" data-cx="314" data-cy="337">
&#x9;<g>
&#x9;&#x9;<g>
&#x9;&#x9;&#x9;<g>
&#x9;&#x9;&#x9;&#x9;<g>
&#x9;&#x9;&#x9;&#x9;&#x9;<g>
&#x9;&#x9;&#x9;&#x9;&#x9;&#x9;<path fill="#9ac7fd" d="M235.5,295.2c-20.11,23.91-28.71,56.98-22.21,87.58c2.32,11.94,6.91,23.44,13.25,33.8&#xA;&#x9;&#x9;&#x9;&#x9;&#x9;&#x9;&#x9;c0,0-0.81,0.49-0.81,0.49c-6.32-10.5-10.86-22.11-13.11-34.16C206.33,352.15,215.15,319.05,235.5,295.2L235.5,295.2z"></path>
&#x9;&#x9;&#x9;&#x9;&#x9;</g>
&#x9;&#x9;&#x9;&#x9;&#x9;<g>
&#x9;&#x9;&#x9;&#x9;&#x9;&#x9;<g>
&#x9;&#x9;&#x9;&#x9;&#x9;&#x9;&#x9;<polygon fill="#71afd8" points="382.03,282.66 377.58,279.12 377.85,278.76 382.34,282.29 &#x9;&#x9;&#x9;&#x9;&#x9;&#x9;&#x9;"></polygon>
&#x9;&#x9;&#x9;&#x9;&#x9;&#x9;&#x9;<polygon fill="#71afd8" points="372.93,275.84 368.12,272.81 368.33,272.45 373.17,275.48 &#x9;&#x9;&#x9;&#x9;&#x9;&#x9;&#x9;"></polygon>
&#x9;&#x9;&#x9;&#x9;&#x9;&#x9;&#x9;<polygon fill="#71afd8" points="363.15,270.04 358.03,267.55 358.19,267.21 363.33,269.69 &#x9;&#x9;&#x9;&#x9;&#x9;&#x9;&#x9;"></polygon>
&#x9;&#x9;&#x9;&#x9;&#x9;&#x9;&#x9;<polygon fill="#71afd8" points="352.79,265.34 347.43,263.42 347.54,263.1 352.92,265.01 &#x9;&#x9;&#x9;&#x9;&#x9;&#x9;&#x9;"></polygon>
&#x9;&#x9;&#x9;&#x9;&#x9;&#x9;&#x9;<polygon fill="#71afd8" points="341.98,261.79 336.44,260.47 336.5,260.19 342.06,261.49 &#x9;&#x9;&#x9;&#x9;&#x9;&#x9;&#x9;"></polygon>
&#x9;&#x9;&#x9;&#x9;&#x9;&#x9;&#x9;<polygon fill="#71afd8" points="330.84,259.45 325.19,258.74 325.22,258.49 330.88,259.18 &#x9;&#x9;&#x9;&#x9;&#x9;&#x9;&#x9;"></polygon>
&#x9;&#x9;&#x9;&#x9;&#x9;&#x9;&#x9;<polygon fill="#71afd8" points="319.51,258.35 313.82,258.26 313.82,258.05 319.52,258.12 &#x9;&#x9;&#x9;&#x9;&#x9;&#x9;&#x9;"></polygon>
&#x9;&#x9;&#x9;&#x9;&#x9;&#x9;&#x9;<polygon fill="#71afd8" points="308.13,258.49 302.45,259.03 302.43,258.86 308.11,258.3 &#x9;&#x9;&#x9;&#x9;&#x9;&#x9;&#x9;"></polygon>
&#x9;&#x9;&#x9;&#x9;&#x9;&#x9;&#x9;<path fill="#71afd8" d="M296.82,259.88c-1.86,0.39-3.73,0.72-5.58,1.15l-0.03-0.12c1.85-0.44,3.72-0.78,5.58-1.17&#xA;&#x9;&#x9;&#x9;&#x9;&#x9;&#x9;&#x9;&#x9;L296.82,259.88z"></path>
&#x9;&#x9;&#x9;&#x9;&#x9;&#x9;&#x9;<polygon fill="#71afd8" points="285.72,262.48 280.3,264.23 280.27,264.15 285.69,262.38 &#x9;&#x9;&#x9;&#x9;&#x9;&#x9;&#x9;"></polygon>
&#x9;&#x9;&#x9;&#x9;&#x9;&#x9;&#x9;<polygon fill="#71afd8" points="274.97,266.27 269.77,268.6 269.75,268.55 274.95,266.21 &#x9;&#x9;&#x9;&#x9;&#x9;&#x9;&#x9;"></polygon>
&#x9;&#x9;&#x9;&#x9;&#x9;&#x9;&#x9;<polygon fill="#71afd8" points="264.7,271.21 259.78,274.1 259.77,274.09 264.69,271.19 &#x9;&#x9;&#x9;&#x9;&#x9;&#x9;&#x9;"></polygon>
&#x9;&#x9;&#x9;&#x9;&#x9;&#x9;</g>
&#x9;&#x9;&#x9;&#x9;&#x9;</g>
&#x9;&#x9;&#x9;&#x9;&#x9;<circle fill="none" stroke="#71afd8" stroke-width="0.4753" stroke-miterlimit="10" cx="227.06" cy="418.35" r="1.79"></circle>
&#x9;&#x9;&#x9;&#x9;&#x9;<circle fill="none" stroke="#71afd8" stroke-width="0.4753" stroke-miterlimit="10" cx="384.41" cy="284.55" r="3.37"></circle>
&#x9;&#x9;&#x9;&#x9;&#x9;<g>
&#x9;&#x9;&#x9;&#x9;&#x9;&#x9;<g>
&#x9;&#x9;&#x9;&#x9;&#x9;&#x9;&#x9;<g>
&#x9;&#x9;&#x9;&#x9;&#x9;&#x9;&#x9;&#x9;<g>
&#x9;&#x9;&#x9;&#x9;&#x9;&#x9;&#x9;&#x9;&#x9;<g>
&#x9;&#x9;&#x9;&#x9;&#x9;&#x9;&#x9;&#x9;&#x9;&#x9;<g>
&#x9;&#x9;&#x9;&#x9;&#x9;&#x9;&#x9;&#x9;&#x9;&#x9;&#x9;<g>
&#x9;&#x9;&#x9;&#x9;&#x9;&#x9;&#x9;&#x9;&#x9;&#x9;&#x9;&#x9;<g>
&#x9;&#x9;&#x9;&#x9;&#x9;&#x9;&#x9;&#x9;&#x9;&#x9;&#x9;&#x9;&#x9;<g>
&#x9;&#x9;&#x9;&#x9;&#x9;&#x9;&#x9;&#x9;&#x9;&#x9;&#x9;&#x9;&#x9;&#x9;
&#x9;&#x9;&#x9;&#x9;&#x9;&#x9;&#x9;&#x9;&#x9;&#x9;&#x9;&#x9;&#x9;&#x9;&#x9;<path fill="none" stroke="#838D9C" stroke-width="0.9505" stroke-linecap="round" stroke-miterlimit="10" stroke-dasharray="11.4066" d="&#xA;&#x9;&#x9;&#x9;&#x9;&#x9;&#x9;&#x9;&#x9;&#x9;&#x9;&#x9;&#x9;&#x9;&#x9;&#x9;M392.2,292.49c44.95,47.8,31.48,130.45-25.93,161.13c-41.73,22.3-92.03,13.81-123.1-14.76"></path>
&#x9;&#x9;&#x9;&#x9;&#x9;&#x9;&#x9;&#x9;&#x9;&#x9;&#x9;&#x9;&#x9;</g>
&#x9;&#x9;&#x9;&#x9;&#x9;&#x9;&#x9;&#x9;&#x9;&#x9;&#x9;&#x9;</g>
&#x9;&#x9;&#x9;&#x9;&#x9;&#x9;&#x9;&#x9;&#x9;&#x9;&#x9;</g>
&#x9;&#x9;&#x9;&#x9;&#x9;&#x9;&#x9;&#x9;&#x9;&#x9;</g>
&#x9;&#x9;&#x9;&#x9;&#x9;&#x9;&#x9;&#x9;&#x9;</g>
&#x9;&#x9;&#x9;&#x9;&#x9;&#x9;&#x9;&#x9;</g>
&#x9;&#x9;&#x9;&#x9;&#x9;&#x9;&#x9;</g>
&#x9;&#x9;&#x9;&#x9;&#x9;&#x9;</g>
&#x9;&#x9;&#x9;&#x9;&#x9;&#x9;<circle fill="#5B8AFF" cx="240.4" cy="436.13" r="4.13"></circle>
&#x9;&#x9;&#x9;&#x9;&#x9;</g>
&#x9;&#x9;&#x9;&#x9;&#x9;<circle fill="#F3F4FA" stroke="#71AFD8" stroke-width="1.9011" stroke-miterlimit="10" cx="315.13" cy="362.66" r="91.63"></circle>
&#x9;&#x9;&#x9;&#x9;</g>
&#x9;&#x9;&#x9;</g>
&#x9;&#x9;&#x9;<g>
&#x9;&#x9;&#x9;&#x9;<defs>
&#x9;&#x9;&#x9;&#x9;&#x9;<circle id="SVGID_00000154422013211409795830000000189671204371240104_" cx="315.13" cy="362.66" r="91.63"></circle>
&#x9;&#x9;&#x9;&#x9;</defs>
&#x9;&#x9;&#x9;&#x9;<clipPath id="SVGID_00000180354638032491580460000014767015151607589528_">
&#x9;&#x9;&#x9;&#x9;&#x9;<use xlink:href="#SVGID_00000154422013211409795830000000189671204371240104_" overflow="visible"></use>
&#x9;&#x9;&#x9;&#x9;</clipPath>
&#x9;&#x9;&#x9;</g>
&#x9;&#x9;&#x9;<circle fill="none" stroke="#71AFD8" stroke-width="1.9011" stroke-miterlimit="10" cx="315.13" cy="362.66" r="91.63"></circle>
&#x9;&#x9;&#x9;<g>
&#x9;&#x9;&#x9;&#x9;<g>
&#x9;&#x9;&#x9;&#x9;&#x9;<path fill="none" stroke="#495A6B" stroke-width="0.3964" stroke-miterlimit="10" d="M286.28,347.37c0,0,2.46-0.72,2.75,0&#xA;&#x9;&#x9;&#x9;&#x9;&#x9;&#x9;s0.43,6.23,0.43,6.23"></path>
&#x9;&#x9;&#x9;&#x9;&#x9;<path fill="#6696DE" d="M371.8,358.09c0,0-20.2,21.29-21.07,28.67l-4.13,1.74c0,0-1.25-5.59,1.13-12.71&#xA;&#x9;&#x9;&#x9;&#x9;&#x9;&#x9;c2.84-8.51,13.86-32.05,13.86-32.04L371.8,358.09z"></path>
&#x9;&#x9;&#x9;&#x9;&#x9;<path fill="#0840A5" d="M346.6,388.5c0,0-0.37-3.76,0.43-7.39c2.68-12.02,14.55-37.36,14.55-37.36&#xA;&#x9;&#x9;&#x9;&#x9;&#x9;&#x9;c-36.71-0.43-101.23,33.45-101.23,33.45c0.22,5.21,5.87,14.99,5.87,14.99L346.6,388.5z"></path>
&#x9;&#x9;&#x9;&#x9;&#x9;<polygon fill="#BAEAFF" points="306.52,334.45 339.06,338.72 338.74,346.54 321.33,351.55 306.64,356.61 &#x9;&#x9;&#x9;&#x9;&#x9;"></polygon>
&#x9;&#x9;&#x9;&#x9;&#x9;<polygon fill="#BAEAFF" points="296.67,345.69 285.38,351.05 285.56,355.47 296.58,351.17 &#x9;&#x9;&#x9;&#x9;&#x9;"></polygon>
&#x9;&#x9;&#x9;&#x9;&#x9;<polygon fill="#80A9DA" points="296.58,351.17 281.18,357.42 281.51,366.99 296.7,360.54 &#x9;&#x9;&#x9;&#x9;&#x9;"></polygon>
&#x9;&#x9;&#x9;&#x9;&#x9;<polygon fill="#343493" points="306.45,334.45 306.56,331.77 329.44,334.67 330.31,336.26 336.82,337.13 338.04,338.5 &#x9;&#x9;&#x9;&#x9;&#x9;"></polygon>
&#x9;&#x9;&#x9;&#x9;&#x9;
&#x9;&#x9;&#x9;&#x9;&#x9;&#x9;<line fill="none" stroke="#495A6B" stroke-width="0.3964" stroke-miterlimit="10" x1="315.25" y1="332.6" x2="315.25" y2="321.01"></line>
&#x9;&#x9;&#x9;&#x9;&#x9;
&#x9;&#x9;&#x9;&#x9;&#x9;&#x9;<line fill="none" stroke="#495A6B" stroke-width="0.3964" stroke-miterlimit="10" x1="311.48" y1="331.87" x2="311.63" y2="323.76"></line>
&#x9;&#x9;&#x9;&#x9;&#x9;
&#x9;&#x9;&#x9;&#x9;&#x9;&#x9;<line fill="none" stroke="#495A6B" stroke-width="0.3964" stroke-miterlimit="10" x1="308.58" y1="326.51" x2="321.62" y2="326.95"></line>
&#x9;&#x9;&#x9;&#x9;&#x9;<ellipse fill="#12206F" cx="333.93" cy="358.59" rx="2.53" ry="2.39"></ellipse>
&#x9;&#x9;&#x9;&#x9;&#x9;<ellipse fill="#12206F" cx="342.04" cy="357.94" rx="2.61" ry="2.46"></ellipse>
&#x9;&#x9;&#x9;&#x9;&#x9;
&#x9;&#x9;&#x9;&#x9;&#x9;&#x9;<ellipse transform="matrix(0.3681 -0.9298 0.9298 0.3681 -107.2063 562.8699)" fill="#265382" cx="360.51" cy="360.31" rx="2.06" ry="1.58"></ellipse>
&#x9;&#x9;&#x9;&#x9;&#x9;
&#x9;&#x9;&#x9;&#x9;&#x9;&#x9;<ellipse transform="matrix(0.3681 -0.9298 0.9298 0.3681 -106.669 567.4258)" fill="#265382" cx="364.14" cy="362.19" rx="2.06" ry="1.58"></ellipse>
&#x9;&#x9;&#x9;&#x9;&#x9;<polygon fill="#8FBDEA" points="296.45,360.66 296.56,340.46 306.45,334.45 306.58,356.61 &#x9;&#x9;&#x9;&#x9;&#x9;"></polygon>
&#x9;&#x9;&#x9;&#x9;&#x9;<polygon fill="#343493" points="303.75,347.42 299.87,349.58 299.87,346.42 303.75,344.25 &#x9;&#x9;&#x9;&#x9;&#x9;"></polygon>
&#x9;&#x9;&#x9;&#x9;&#x9;<polygon fill="#343493" points="315.52,341.96 310.54,341.34 310.54,338.2 315.52,338.82 &#x9;&#x9;&#x9;&#x9;&#x9;"></polygon>
&#x9;&#x9;&#x9;&#x9;&#x9;<polygon fill="#343493" points="325.16,343.14 320.18,342.52 320.18,339.39 325.16,340.01 &#x9;&#x9;&#x9;&#x9;&#x9;"></polygon>
&#x9;&#x9;&#x9;&#x9;&#x9;<polygon fill="#343493" points="315.63,349.08 310.54,348.63 310.54,345.49 315.63,345.94 &#x9;&#x9;&#x9;&#x9;&#x9;"></polygon>
&#x9;&#x9;&#x9;&#x9;&#x9;<polygon fill="#343493" points="325.13,349.77 320.03,349.34 320.03,346.2 325.13,346.64 &#x9;&#x9;&#x9;&#x9;&#x9;"></polygon>
&#x9;&#x9;&#x9;&#x9;&#x9;<polygon fill="#343493" points="334.47,344.28 329.48,343.66 329.48,340.53 334.47,341.15 &#x9;&#x9;&#x9;&#x9;&#x9;"></polygon>
&#x9;&#x9;&#x9;&#x9;&#x9;<polygon fill="#343493" points="329.12,349.52 329.31,346.99 333.99,347.24 333.99,348 &#x9;&#x9;&#x9;&#x9;&#x9;"></polygon>
&#x9;&#x9;&#x9;&#x9;&#x9;<polygon fill="#12216F" points="296.56,340.59 296.58,338.13 306.56,331.9 306.45,334.58 &#x9;&#x9;&#x9;&#x9;&#x9;"></polygon>
&#x9;&#x9;&#x9;&#x9;</g>
&#x9;&#x9;&#x9;&#x9;<g>
&#x9;&#x9;&#x9;&#x9;&#x9;<g>
&#x9;&#x9;&#x9;&#x9;&#x9;&#x9;
&#x9;&#x9;&#x9;&#x9;&#x9;&#x9;&#x9;<linearGradient id="SVGID_00000121971857608938161410000007565624122390701215_" gradientUnits="userSpaceOnUse" x1="312.4648" y1="417.0917" x2="312.4648" y2="370.0986">
&#x9;&#x9;&#x9;&#x9;&#x9;&#x9;&#x9;<stop offset="0.3161" style="stop-color:#F3F7FA"></stop>
&#x9;&#x9;&#x9;&#x9;&#x9;&#x9;&#x9;<stop offset="0.53" style="stop-color:#F5F7FA"></stop>
&#x9;&#x9;&#x9;&#x9;&#x9;&#x9;&#x9;<stop offset="0.6317" style="stop-color:#DDECF7"></stop>
&#x9;&#x9;&#x9;&#x9;&#x9;&#x9;</linearGradient>
&#x9;&#x9;&#x9;&#x9;&#x9;&#x9;<path fill="url(#SVGID_00000121971857608938161410000007565624122390701215_)" d="M232.8,393.06&#xA;&#x9;&#x9;&#x9;&#x9;&#x9;&#x9;&#x9;c2.92-1.27,9.78-10.79,31.32-8.58c1.21,0.12,2.35,0.65,3.55,0.86c3.83,0.67,7.07-1.61,10.75-2.13&#xA;&#x9;&#x9;&#x9;&#x9;&#x9;&#x9;&#x9;c7.03-0.99,13.26,4.85,20.12,6.83c3.6,1.04,7.45,1,11.03-0.12c1.81-0.57,3.58-1.41,5.45-1.6c3.72-0.37,7.52,1.86,11.11,0.69&#xA;&#x9;&#x9;&#x9;&#x9;&#x9;&#x9;&#x9;c2.81-0.91,4.82-3.72,7.52-4.97c4.55-2.12,9.61,0.59,14.47,1.53c4.17,0.81,8.53,0.25,12.44-1.56&#xA;&#x9;&#x9;&#x9;&#x9;&#x9;&#x9;&#x9;c2.04-0.94,3.74-1.35,5.99-1.49c2.28-0.14,12.84-1.1,19.94,3.78c0,0,6.49,4.89,5.56,8.26c0,0-159.25,1.82-159.25,1.82&#xA;&#x9;&#x9;&#x9;&#x9;&#x9;&#x9;&#x9;C232.79,393.77,232.79,393.06,232.8,393.06z"></path>
&#x9;&#x9;&#x9;&#x9;&#x9;&#x9;<g>
&#x9;&#x9;&#x9;&#x9;&#x9;&#x9;&#x9;<path fill="#FFFFFF" d="M233.05,393.57c7.14-7.34,17.81-10.13,27.83-9.38c3.36-0.05,6.6,1.56,9.94,0.94&#xA;&#x9;&#x9;&#x9;&#x9;&#x9;&#x9;&#x9;&#x9;c3.27-0.62,6.38-2.46,9.82-2.19c6.89,0.45,12.23,5.57,18.77,7.12c3.23,0.77,6.66,0.7,9.84-0.26&#xA;&#x9;&#x9;&#x9;&#x9;&#x9;&#x9;&#x9;&#x9;c1.59-0.46,3.13-1.18,4.82-1.52c3.4-0.72,6.67,0.96,10.02,0.9c3.54,0,5.75-3.05,8.55-4.77c9-4.81,15,6.02,29.35-1.1&#xA;&#x9;&#x9;&#x9;&#x9;&#x9;&#x9;&#x9;&#x9;c1.59-0.59,3.29-0.83,4.97-0.9c6.6-0.4,13.83-0.07,19.41,3.87c-5.61-3.88-12.82-4.13-19.4-3.66&#xA;&#x9;&#x9;&#x9;&#x9;&#x9;&#x9;&#x9;&#x9;c-1.67,0.09-3.34,0.34-4.9,0.92c-14.4,7.17-20.45-3.55-29.25,1.16c-2.77,1.74-5.13,4.87-8.72,4.86&#xA;&#x9;&#x9;&#x9;&#x9;&#x9;&#x9;&#x9;&#x9;c-3.36,0.08-6.61-1.58-9.94-0.87c-1.62,0.33-3.15,1.05-4.78,1.53c-3.25,0.98-6.77,1.09-10.07,0.28&#xA;&#x9;&#x9;&#x9;&#x9;&#x9;&#x9;&#x9;&#x9;c-6.56-1.57-11.87-6.69-18.68-7.17c-3.41-0.26-6.45,1.54-9.74,2.15c-3.37,0.62-6.65-0.99-10.02-0.96&#xA;&#x9;&#x9;&#x9;&#x9;&#x9;&#x9;&#x9;&#x9;C250.9,383.73,240.29,386.39,233.05,393.57L233.05,393.57z"></path>
&#x9;&#x9;&#x9;&#x9;&#x9;&#x9;</g>
&#x9;&#x9;&#x9;&#x9;&#x9;</g>
&#x9;&#x9;&#x9;&#x9;&#x9;<g>
&#x9;&#x9;&#x9;&#x9;&#x9;&#x9;
&#x9;&#x9;&#x9;&#x9;&#x9;&#x9;&#x9;<linearGradient id="SVGID_00000116222279294871864730000006904115415228796300_" gradientUnits="userSpaceOnUse" x1="-7862.0542" y1="419.8011" x2="-7862.0542" y2="382.8683" gradientTransform="matrix(-1 0 0 1 -7550.2939 0)">
&#x9;&#x9;&#x9;&#x9;&#x9;&#x9;&#x9;<stop offset="0.3161" style="stop-color:#F3F7FA"></stop>
&#x9;&#x9;&#x9;&#x9;&#x9;&#x9;&#x9;<stop offset="0.5722" style="stop-color:#F3F7FB"></stop>
&#x9;&#x9;&#x9;&#x9;&#x9;&#x9;&#x9;<stop offset="0.6837" style="stop-color:#E7F1F8"></stop>
&#x9;&#x9;&#x9;&#x9;&#x9;&#x9;</linearGradient>
&#x9;&#x9;&#x9;&#x9;&#x9;&#x9;<path fill="url(#SVGID_00000116222279294871864730000006904115415228796300_)" d="M395.73,400.33c0,0,0.35-3.79-2.94-6.09&#xA;&#x9;&#x9;&#x9;&#x9;&#x9;&#x9;&#x9;c-2.99-2.09-10.13-4.47-15.57-2.14c-5.95,2.55-14.34-0.33-17.12-0.95c-2.79-0.63-7.17-1.58-11.41,1.27&#xA;&#x9;&#x9;&#x9;&#x9;&#x9;&#x9;&#x9;c-4.25,2.85-11.02,1.38-13.8-0.34c-2.79-1.72-10.84-2.54-14.03-1.12c-8.51,3.77-10.53-0.49-15.57,0.51&#xA;&#x9;&#x9;&#x9;&#x9;&#x9;&#x9;&#x9;c-8.95,3.38-15.92,0.52-19.11-0.99c-5.2-2.46-15.97-1.06-22.05,2.73c0,0-19.93-7.97-36.34,7.88l164.58,0.5L395.73,400.33z"></path>
&#x9;&#x9;&#x9;&#x9;&#x9;&#x9;<g>
&#x9;&#x9;&#x9;&#x9;&#x9;&#x9;&#x9;<path fill="#FFFFFF" d="M392.36,393.69c-5.05-2.14-11.08-3.73-16.19-1.03c-3.6,1.24-7.51,0.72-11.14-0.08&#xA;&#x9;&#x9;&#x9;&#x9;&#x9;&#x9;&#x9;&#x9;c-5.23-1.33-11.22-3.49-16.12-0.08c-1.58,1.08-3.49,1.58-5.37,1.69c-2.83,0.14-5.72-0.39-8.26-1.66&#xA;&#x9;&#x9;&#x9;&#x9;&#x9;&#x9;&#x9;&#x9;c-0.83-0.49-1.62-0.85-2.52-1.12c-3.52-0.93-7.41-1.34-10.98-0.52c-2.59,0.97-5.35,2.1-8.2,1.84&#xA;&#x9;&#x9;&#x9;&#x9;&#x9;&#x9;&#x9;&#x9;c-2.78-0.2-5.42-1.67-8.23-1.07c-3.18,1.19-6.99,1.83-10.51,1.47c-3.6-0.23-6.89-1.77-10.18-3.07&#xA;&#x9;&#x9;&#x9;&#x9;&#x9;&#x9;&#x9;&#x9;c-6.82-1.65-14.4-0.17-20.47,3.22c-4.95-1.52-10.26-2.27-15.45-1.8c-5.18,0.42-10.29,2.22-14.36,5.5&#xA;&#x9;&#x9;&#x9;&#x9;&#x9;&#x9;&#x9;&#x9;c4.06-3.3,9.17-5.12,14.36-5.57c5.07-0.46,10.78,0.18,15.38,1.75c6.1-3.52,13.74-5.01,20.64-3.37&#xA;&#x9;&#x9;&#x9;&#x9;&#x9;&#x9;&#x9;&#x9;c3.3,1.28,6.53,2.8,10.13,3.01c3.53,0.34,7.09-0.28,10.4-1.51c2.85-0.64,5.55,0.82,8.34,1.02c2.85,0.24,5.43-0.88,8.05-1.86&#xA;&#x9;&#x9;&#x9;&#x9;&#x9;&#x9;&#x9;&#x9;c3.7-0.84,7.59-0.4,11.22,0.56c0.9,0.26,1.81,0.68,2.59,1.16c2.46,1.24,5.3,1.77,8.06,1.65c1.84-0.1,3.68-0.58,5.21-1.61&#xA;&#x9;&#x9;&#x9;&#x9;&#x9;&#x9;&#x9;&#x9;c4.98-3.45,11.09-1.28,16.37,0.11c3.59,0.82,7.45,1.33,11.01,0.15C381.24,389.81,387.34,391.48,392.36,393.69L392.36,393.69z&#xA;&#x9;&#x9;&#x9;&#x9;&#x9;&#x9;&#x9;&#x9;"></path>
&#x9;&#x9;&#x9;&#x9;&#x9;&#x9;</g>
&#x9;&#x9;&#x9;&#x9;&#x9;</g>
&#x9;&#x9;&#x9;&#x9;</g>
&#x9;&#x9;&#x9;&#x9;<g>
&#x9;&#x9;&#x9;&#x9;&#x9;<defs>
&#x9;&#x9;&#x9;&#x9;&#x9;&#x9;<path id="SVGID_00000110471139055668967200000012973077787903834544_" d="M251.91,409.57c15.06,0,9.27,2.46,27.23,5.72&#xA;&#x9;&#x9;&#x9;&#x9;&#x9;&#x9;&#x9;s53.67-11.06,67.01-5.94c66.24,25.42,40.17-8.91,30.32-12.6c-9.85-3.69-41.9-1.3-62.95-1.74c-21.05-0.43-50.4-6.95-57.55-1.96&#xA;&#x9;&#x9;&#x9;&#x9;&#x9;&#x9;&#x9;S251.91,409.57,251.91,409.57z"></path>
&#x9;&#x9;&#x9;&#x9;&#x9;</defs>
&#x9;&#x9;&#x9;&#x9;&#x9;<clipPath id="SVGID_00000133507255592581131890000000812619194653391237_">
&#x9;&#x9;&#x9;&#x9;&#x9;&#x9;<use xlink:href="#SVGID_00000110471139055668967200000012973077787903834544_" overflow="visible"></use>
&#x9;&#x9;&#x9;&#x9;&#x9;</clipPath>
&#x9;&#x9;&#x9;&#x9;&#x9;<g clip-path="url(#SVGID_00000133507255592581131890000000812619194653391237_)">
&#x9;&#x9;&#x9;&#x9;&#x9;&#x9;<g>
&#x9;&#x9;&#x9;&#x9;&#x9;&#x9;&#x9;<path fill="#FFFFFF" d="M253.65,408.92c5.74-10.09,16.63-14.1,27.76-11.75c3.5,0.69,7.09,1.35,10.64,0.73&#xA;&#x9;&#x9;&#x9;&#x9;&#x9;&#x9;&#x9;&#x9;c3.48-0.68,6.86-2.59,10.54-1.94c7.21,1.02,12.78,6.82,20.08,7.42c1.77,0.17,3.57,0.1,5.32-0.23&#xA;&#x9;&#x9;&#x9;&#x9;&#x9;&#x9;&#x9;&#x9;c2.66-0.4,5.07-1.88,7.78-2.16c4.37-0.34,9.05,2.6,13.03-0.3c2.24-1.42,4.12-3.63,6.77-4.42c6.29-1.52,12.28,3.04,18.55,2.34&#xA;&#x9;&#x9;&#x9;&#x9;&#x9;&#x9;&#x9;&#x9;c3.55-0.35,6.75-2.24,10.3-2.98c8.99-2.18,18.33,1.39,24.92,7.58c0,0,1,0.91,1,0.91c0.86,0.88,1.51,2,2.33,2.9&#xA;&#x9;&#x9;&#x9;&#x9;&#x9;&#x9;&#x9;&#x9;c0.05,0.05,0.1,0.11,0.15,0.15c0.02,0.01-0.04-0.03-0.06-0.01l0,0.45l-79.55,0.72C310.28,408.5,276.28,408.94,253.65,408.92&#xA;&#x9;&#x9;&#x9;&#x9;&#x9;&#x9;&#x9;&#x9;L253.65,408.92z M253.65,408.92c44.18-0.12,116.18-1.89,158.81-1.45c-0.05-0.05-0.09-0.09-0.13-0.13l-0.23-0.26l-0.43-0.53&#xA;&#x9;&#x9;&#x9;&#x9;&#x9;&#x9;&#x9;&#x9;c-0.48-0.64-1.14-1.53-1.66-2.07c-1.65-1.5-3.36-2.96-5.2-4.21c-5.83-4.14-13.32-5.81-20.32-4.21&#xA;&#x9;&#x9;&#x9;&#x9;&#x9;&#x9;&#x9;&#x9;c-3.49,0.71-6.69,2.6-10.36,2.96c-3.68,0.35-7.18-0.92-10.62-1.82c-12.17-3.75-10.93,5.35-19.77,5.13&#xA;&#x9;&#x9;&#x9;&#x9;&#x9;&#x9;&#x9;&#x9;c-3.55-0.34-7.07-1.85-10.55-0.42c-7.38,3.15-13.89,2.1-20.71-1.8c-4.65-2.45-9.88-5.18-15.22-3.45&#xA;&#x9;&#x9;&#x9;&#x9;&#x9;&#x9;&#x9;&#x9;c-1.72,0.49-3.39,1.18-5.19,1.48c-3.59,0.61-7.21-0.08-10.72-0.79C270.31,394.94,259.42,398.89,253.65,408.92L253.65,408.92z&#xA;&#x9;&#x9;&#x9;&#x9;&#x9;&#x9;&#x9;&#x9;"></path>
&#x9;&#x9;&#x9;&#x9;&#x9;&#x9;</g>
&#x9;&#x9;&#x9;&#x9;&#x9;&#x9;
&#x9;&#x9;&#x9;&#x9;&#x9;&#x9;&#x9;<linearGradient id="SVGID_00000026158813910149511500000003892760119124087975_" gradientUnits="userSpaceOnUse" x1="332.6489" y1="425.0439" x2="333.5001" y2="382.485">
&#x9;&#x9;&#x9;&#x9;&#x9;&#x9;&#x9;<stop offset="0.4327" style="stop-color:#F5F6FA"></stop>
&#x9;&#x9;&#x9;&#x9;&#x9;&#x9;&#x9;<stop offset="0.7475" style="stop-color:#D8EAF7"></stop>
&#x9;&#x9;&#x9;&#x9;&#x9;&#x9;</linearGradient>
&#x9;&#x9;&#x9;&#x9;&#x9;&#x9;<path fill="url(#SVGID_00000026158813910149511500000003892760119124087975_)" d="M253.43,409.35&#xA;&#x9;&#x9;&#x9;&#x9;&#x9;&#x9;&#x9;c0.22-0.1,7.72-16.08,28.5-11.54c4.03,0.88,6.79,1.07,9.58,0.69c2.29-0.31,4.45-1.36,6.71-1.84&#xA;&#x9;&#x9;&#x9;&#x9;&#x9;&#x9;&#x9;c7.52-1.58,13.83,4.63,20.79,6.64c3.6,1.04,7.45,1,11.03-0.12c1.81-0.57,3.58-1.41,5.45-1.6c3.72-0.37,7.52,1.86,11.11,0.69&#xA;&#x9;&#x9;&#x9;&#x9;&#x9;&#x9;&#x9;c3.69-1.2,5.87-5.11,9.84-5.63c1.85-0.24,3.73,0.03,5.56,0.46c3.8,0.88,7.56,2.41,11.44,2.18c3.27-0.19,6.11-1.7,9.22-2.61&#xA;&#x9;&#x9;&#x9;&#x9;&#x9;&#x9;&#x9;c2.96-0.86,6.05-1.16,9.1-0.93c7.17,0.54,12.87,4.02,18.28,9.07c0.37,0.34,2.24,3.01,2.48,3.01c0,0-152.53,1.52-152.53,1.52&#xA;&#x9;&#x9;&#x9;&#x9;&#x9;&#x9;&#x9;H253.43z"></path>
&#x9;&#x9;&#x9;&#x9;&#x9;</g>
&#x9;&#x9;&#x9;&#x9;</g>
&#x9;&#x9;&#x9;</g>
&#x9;&#x9;</g>
&#x9;&#x9;<g opacity="0.47">
&#x9;&#x9;&#x9;
&#x9;&#x9;&#x9;&#x9;<linearGradient id="SVGID_00000006680329664314269000000001849461163485615787_" gradientUnits="userSpaceOnUse" x1="280.2099" y1="318.0103" x2="297.8206" y2="318.0103">
&#x9;&#x9;&#x9;&#x9;<stop offset="5.052579e-08" style="stop-color:#E9E8FA"></stop>
&#x9;&#x9;&#x9;&#x9;<stop offset="1" style="stop-color:#B3D2FF"></stop>
&#x9;&#x9;&#x9;</linearGradient>
&#x9;&#x9;&#x9;<path fill="url(#SVGID_00000006680329664314269000000001849461163485615787_)" d="M296.66,320.74c0.01-0.09,0.02-0.18,0.02-0.27&#xA;&#x9;&#x9;&#x9;&#x9;c0-1.29-1.23-2.33-2.75-2.33c-0.29,0-0.56,0.04-0.82,0.11c0-0.01,0-0.02,0-0.02c0-1.9-1.81-3.44-4.05-3.44&#xA;&#x9;&#x9;&#x9;&#x9;c-2.12,0-3.85,1.38-4.03,3.15c-0.39-0.23-0.86-0.36-1.37-0.36c-1.33,0-2.41,0.92-2.41,2.05c0,0.41,0.14,0.79,0.39,1.11&#xA;&#x9;&#x9;&#x9;&#x9;c-0.62,0.08-1.13,0.27-1.44,0.53h2.02h1.31h0.9h0.68h2.04h3.83h0.22h0.15h1.52h3.66h1.3&#xA;&#x9;&#x9;&#x9;&#x9;C297.59,321.04,297.19,320.87,296.66,320.74z"></path>
&#x9;&#x9;&#x9;
&#x9;&#x9;&#x9;&#x9;<linearGradient id="SVGID_00000136410627304844159830000017734536648911901104_" gradientUnits="userSpaceOnUse" x1="261.8426" y1="323.6083" x2="289.7245" y2="323.6083">
&#x9;&#x9;&#x9;&#x9;<stop offset="5.052579e-08" style="stop-color:#E9E8FA"></stop>
&#x9;&#x9;&#x9;&#x9;<stop offset="1" style="stop-color:#B3D2FF"></stop>
&#x9;&#x9;&#x9;</linearGradient>
&#x9;&#x9;&#x9;<path fill="url(#SVGID_00000136410627304844159830000017734536648911901104_)" d="M287.88,327.93c0.02-0.14,0.03-0.29,0.03-0.43&#xA;&#x9;&#x9;&#x9;&#x9;c0-2.04-1.95-3.7-4.35-3.7c-0.45,0-0.89,0.06-1.3,0.17c0-0.01,0-0.03,0-0.04c0-3.01-2.87-5.45-6.41-5.45&#xA;&#x9;&#x9;&#x9;&#x9;c-3.35,0-6.1,2.19-6.38,4.98c-0.61-0.36-1.36-0.57-2.16-0.57c-2.11,0-3.81,1.45-3.81,3.24c0,0.65,0.23,1.25,0.61,1.76&#xA;&#x9;&#x9;&#x9;&#x9;c-0.98,0.13-1.79,0.44-2.28,0.84h3.2h2.07h1.42h1.07h3.23h6.06h0.34h0.23h2.4h5.79h2.06&#xA;&#x9;&#x9;&#x9;&#x9;C289.36,328.41,288.72,328.13,287.88,327.93z"></path>
&#x9;&#x9;</g>
&#x9;</g>
</g>
<g id="icon4" data-layer="content" data-beat="2" data-cue="persuade them" data-t="560" data-enter="pop" data-cx="315" data-cy="603">
&#x9;<g>
&#x9;&#x9;<g>
&#x9;&#x9;&#x9;<g>
&#x9;&#x9;&#x9;&#x9;<g>
&#x9;&#x9;&#x9;&#x9;&#x9;<path fill="#9ac7fd" d="M235.5,569.36c-20.11,23.91-28.71,56.98-22.21,87.58c2.32,11.94,6.91,23.44,13.25,33.8&#xA;&#x9;&#x9;&#x9;&#x9;&#x9;&#x9;c0,0-0.81,0.49-0.81,0.49c-6.32-10.5-10.86-22.11-13.11-34.16C206.33,626.31,215.15,593.21,235.5,569.36L235.5,569.36z"></path>
&#x9;&#x9;&#x9;&#x9;</g>
&#x9;&#x9;&#x9;&#x9;<g>
&#x9;&#x9;&#x9;&#x9;&#x9;<g>
&#x9;&#x9;&#x9;&#x9;&#x9;&#x9;<polygon fill="#71afd8" points="382.03,556.82 377.58,553.28 377.85,552.92 382.34,556.45 &#x9;&#x9;&#x9;&#x9;&#x9;&#x9;"></polygon>
&#x9;&#x9;&#x9;&#x9;&#x9;&#x9;<polygon fill="#71afd8" points="372.93,549.99 368.12,546.96 368.33,546.61 373.17,549.63 &#x9;&#x9;&#x9;&#x9;&#x9;&#x9;"></polygon>
&#x9;&#x9;&#x9;&#x9;&#x9;&#x9;<polygon fill="#71afd8" points="363.15,544.2 358.03,541.71 358.19,541.37 363.33,543.85 &#x9;&#x9;&#x9;&#x9;&#x9;&#x9;"></polygon>
&#x9;&#x9;&#x9;&#x9;&#x9;&#x9;<polygon fill="#71afd8" points="352.79,539.5 347.43,537.58 347.54,537.26 352.92,539.17 &#x9;&#x9;&#x9;&#x9;&#x9;&#x9;"></polygon>
&#x9;&#x9;&#x9;&#x9;&#x9;&#x9;<polygon fill="#71afd8" points="341.98,535.95 336.44,534.63 336.5,534.34 342.06,535.65 &#x9;&#x9;&#x9;&#x9;&#x9;&#x9;"></polygon>
&#x9;&#x9;&#x9;&#x9;&#x9;&#x9;<polygon fill="#71afd8" points="330.84,533.61 325.19,532.9 325.22,532.65 330.88,533.34 &#x9;&#x9;&#x9;&#x9;&#x9;&#x9;"></polygon>
&#x9;&#x9;&#x9;&#x9;&#x9;&#x9;<polygon fill="#71afd8" points="319.51,532.5 313.82,532.42 313.82,532.21 319.52,532.27 &#x9;&#x9;&#x9;&#x9;&#x9;&#x9;"></polygon>
&#x9;&#x9;&#x9;&#x9;&#x9;&#x9;<polygon fill="#71afd8" points="308.13,532.65 302.45,533.19 302.43,533.02 308.11,532.46 &#x9;&#x9;&#x9;&#x9;&#x9;&#x9;"></polygon>
&#x9;&#x9;&#x9;&#x9;&#x9;&#x9;<path fill="#71afd8" d="M296.82,534.04c-1.86,0.39-3.73,0.72-5.58,1.15l-0.03-0.12c1.85-0.44,3.72-0.78,5.58-1.17&#xA;&#x9;&#x9;&#x9;&#x9;&#x9;&#x9;&#x9;L296.82,534.04z"></path>
&#x9;&#x9;&#x9;&#x9;&#x9;&#x9;<polygon fill="#71afd8" points="285.72,536.64 280.3,538.38 280.27,538.3 285.69,536.53 &#x9;&#x9;&#x9;&#x9;&#x9;&#x9;"></polygon>
&#x9;&#x9;&#x9;&#x9;&#x9;&#x9;<polygon fill="#71afd8" points="274.97,540.42 269.77,542.75 269.75,542.71 274.95,540.36 &#x9;&#x9;&#x9;&#x9;&#x9;&#x9;"></polygon>
&#x9;&#x9;&#x9;&#x9;&#x9;&#x9;<polygon fill="#71afd8" points="264.7,545.36 259.78,548.25 259.77,548.25 264.69,545.34 &#x9;&#x9;&#x9;&#x9;&#x9;&#x9;"></polygon>
&#x9;&#x9;&#x9;&#x9;&#x9;</g>
&#x9;&#x9;&#x9;&#x9;</g>
&#x9;&#x9;&#x9;&#x9;<circle fill="none" stroke="#71afd8" stroke-width="0.4753" stroke-miterlimit="10" cx="227.06" cy="692.51" r="1.79"></circle>
&#x9;&#x9;&#x9;&#x9;<circle fill="none" stroke="#71afd8" stroke-width="0.4753" stroke-miterlimit="10" cx="384.41" cy="558.71" r="3.37"></circle>
&#x9;&#x9;&#x9;&#x9;<g>
&#x9;&#x9;&#x9;&#x9;&#x9;<g>
&#x9;&#x9;&#x9;&#x9;&#x9;&#x9;<g>
&#x9;&#x9;&#x9;&#x9;&#x9;&#x9;&#x9;<g>
&#x9;&#x9;&#x9;&#x9;&#x9;&#x9;&#x9;&#x9;<g>
&#x9;&#x9;&#x9;&#x9;&#x9;&#x9;&#x9;&#x9;&#x9;<g>
&#x9;&#x9;&#x9;&#x9;&#x9;&#x9;&#x9;&#x9;&#x9;&#x9;<g>
&#x9;&#x9;&#x9;&#x9;&#x9;&#x9;&#x9;&#x9;&#x9;&#x9;&#x9;<g>
&#x9;&#x9;&#x9;&#x9;&#x9;&#x9;&#x9;&#x9;&#x9;&#x9;&#x9;&#x9;<g>
&#x9;&#x9;&#x9;&#x9;&#x9;&#x9;&#x9;&#x9;&#x9;&#x9;&#x9;&#x9;&#x9;
&#x9;&#x9;&#x9;&#x9;&#x9;&#x9;&#x9;&#x9;&#x9;&#x9;&#x9;&#x9;&#x9;&#x9;<path fill="none" stroke="#838D9C" stroke-width="0.9505" stroke-linecap="round" stroke-miterlimit="10" stroke-dasharray="11.4066" d="&#xA;&#x9;&#x9;&#x9;&#x9;&#x9;&#x9;&#x9;&#x9;&#x9;&#x9;&#x9;&#x9;&#x9;&#x9;M392.2,566.65c44.95,47.8,31.48,130.45-25.93,161.13c-41.73,22.3-92.03,13.81-123.1-14.76"></path>
&#x9;&#x9;&#x9;&#x9;&#x9;&#x9;&#x9;&#x9;&#x9;&#x9;&#x9;&#x9;</g>
&#x9;&#x9;&#x9;&#x9;&#x9;&#x9;&#x9;&#x9;&#x9;&#x9;&#x9;</g>
&#x9;&#x9;&#x9;&#x9;&#x9;&#x9;&#x9;&#x9;&#x9;&#x9;</g>
&#x9;&#x9;&#x9;&#x9;&#x9;&#x9;&#x9;&#x9;&#x9;</g>
&#x9;&#x9;&#x9;&#x9;&#x9;&#x9;&#x9;&#x9;</g>
&#x9;&#x9;&#x9;&#x9;&#x9;&#x9;&#x9;</g>
&#x9;&#x9;&#x9;&#x9;&#x9;&#x9;</g>
&#x9;&#x9;&#x9;&#x9;&#x9;</g>
&#x9;&#x9;&#x9;&#x9;&#x9;<circle fill="#5B8AFF" cx="240.4" cy="710.29" r="4.13"></circle>
&#x9;&#x9;&#x9;&#x9;</g>
&#x9;&#x9;&#x9;&#x9;<circle fill="#F3F4FA" stroke="#71AFD8" stroke-width="1.9011" stroke-miterlimit="10" cx="315.13" cy="636.81" r="91.63"></circle>
&#x9;&#x9;&#x9;</g>
&#x9;&#x9;</g>
&#x9;&#x9;<g>
&#x9;&#x9;&#x9;<defs>
&#x9;&#x9;&#x9;&#x9;<circle id="SVGID_00000003096170694045711670000017514364488753512116_" cx="315.13" cy="636.81" r="91.63"></circle>
&#x9;&#x9;&#x9;</defs>
&#x9;&#x9;&#x9;<clipPath id="SVGID_00000063591186785891553040000015594008236705947041_">
&#x9;&#x9;&#x9;&#x9;<use xlink:href="#SVGID_00000003096170694045711670000017514364488753512116_" overflow="visible"></use>
&#x9;&#x9;&#x9;</clipPath>
&#x9;&#x9;</g>
&#x9;&#x9;<circle fill="none" stroke="#71AFD8" stroke-width="1.9011" stroke-miterlimit="10" cx="315.13" cy="636.81" r="91.63"></circle>
&#x9;&#x9;<g>
&#x9;&#x9;&#x9;<path fill="#6696DE" d="M311.71,620.01h15.72l8.84,66.55c0,0-3.44,1.96-6.14,1.23c-2.7-0.74-6.38-1.39-10.07,0.17&#xA;&#x9;&#x9;&#x9;&#x9;c-3.68,1.55-5.16,3.03-5.16,3.03s-5.16-5.65-8.6-6.63c-3.44-0.98-3.44-0.98-3.44-0.98L311.71,620.01z"></path>
&#x9;&#x9;&#x9;<polygon fill="#0840A3" points="310.04,632.51 329.16,632.51 330.14,639.89 309.01,639.89 &#x9;&#x9;&#x9;"></polygon>
&#x9;&#x9;&#x9;<polygon fill="#0840A3" points="307.93,648.02 331.27,648.02 332.42,656.65 306.72,656.65 &#x9;&#x9;&#x9;"></polygon>
&#x9;&#x9;&#x9;<polygon fill="#0840A3" points="333.62,665.28 305.58,665.28 304.39,673.76 334.75,673.76 &#x9;&#x9;&#x9;"></polygon>
&#x9;&#x9;&#x9;<rect x="305.9" y="614.48" fill="#0840A3" width="27.34" height="6.45"></rect>
&#x9;&#x9;&#x9;<rect x="308.49" y="600.67" fill="#6696DE" width="22.16" height="13.81"></rect>
&#x9;&#x9;&#x9;<polygon fill="#0840A3" points="304.39,600.67 333.24,600.67 319.57,585.38 &#x9;&#x9;&#x9;"></polygon>
&#x9;&#x9;&#x9;
&#x9;&#x9;&#x9;&#x9;<line fill="none" stroke="#6696DE" stroke-width="1.4428" stroke-miterlimit="10" x1="319.57" y1="587.04" x2="319.57" y2="581.33"></line>
&#x9;&#x9;&#x9;<rect x="312.64" y="600.67" fill="#0840A3" width="2.76" height="13.81"></rect>
&#x9;&#x9;&#x9;<rect x="322.59" y="600.67" fill="#0840A3" width="2.76" height="13.81"></rect>
&#x9;&#x9;&#x9;<g>
&#x9;&#x9;&#x9;&#x9;<g>
&#x9;&#x9;&#x9;&#x9;&#x9;
&#x9;&#x9;&#x9;&#x9;&#x9;&#x9;<line fill="none" stroke="#0840A3" stroke-width="0.7214" stroke-miterlimit="10" x1="304.39" y1="605.52" x2="302.38" y2="604.72"></line>
&#x9;&#x9;&#x9;&#x9;&#x9;
&#x9;&#x9;&#x9;&#x9;&#x9;&#x9;<line fill="none" stroke="#0840A3" stroke-width="0.7214" stroke-miterlimit="10" stroke-dasharray="4.1668,4.1668" x1="298.51" y1="603.19" x2="261.71" y2="588.61"></line>
&#x9;&#x9;&#x9;&#x9;&#x9;
&#x9;&#x9;&#x9;&#x9;&#x9;&#x9;<line fill="none" stroke="#0840A3" stroke-width="0.7214" stroke-miterlimit="10" x1="259.77" y1="587.84" x2="257.76" y2="587.04"></line>
&#x9;&#x9;&#x9;&#x9;</g>
&#x9;&#x9;&#x9;</g>
&#x9;&#x9;&#x9;<g>
&#x9;&#x9;&#x9;&#x9;<g>
&#x9;&#x9;&#x9;&#x9;&#x9;
&#x9;&#x9;&#x9;&#x9;&#x9;&#x9;<line fill="none" stroke="#0840A3" stroke-width="0.7214" stroke-miterlimit="10" x1="305.38" y1="611.51" x2="303.28" y2="612.05"></line>
&#x9;&#x9;&#x9;&#x9;&#x9;
&#x9;&#x9;&#x9;&#x9;&#x9;&#x9;<line fill="none" stroke="#0840A3" stroke-width="0.7214" stroke-miterlimit="10" stroke-dasharray="4.1668,4.1668" x1="299.25" y1="613.08" x2="260.89" y2="622.85"></line>
&#x9;&#x9;&#x9;&#x9;&#x9;
&#x9;&#x9;&#x9;&#x9;&#x9;&#x9;<line fill="none" stroke="#0840A3" stroke-width="0.7214" stroke-miterlimit="10" x1="258.87" y1="623.37" x2="256.77" y2="623.9"></line>
&#x9;&#x9;&#x9;&#x9;</g>
&#x9;&#x9;&#x9;</g>
&#x9;&#x9;&#x9;<g>
&#x9;&#x9;&#x9;&#x9;<g>
&#x9;&#x9;&#x9;&#x9;&#x9;
&#x9;&#x9;&#x9;&#x9;&#x9;&#x9;<line fill="none" stroke="#0840A3" stroke-width="0.7214" stroke-miterlimit="10" x1="303.23" y1="609.29" x2="301.07" y2="609.44"></line>
&#x9;&#x9;&#x9;&#x9;&#x9;
&#x9;&#x9;&#x9;&#x9;&#x9;&#x9;<line fill="none" stroke="#0840A3" stroke-width="0.7214" stroke-miterlimit="10" stroke-dasharray="4.1668,4.1668" x1="296.91" y1="609.73" x2="257.42" y2="612.45"></line>
&#x9;&#x9;&#x9;&#x9;&#x9;
&#x9;&#x9;&#x9;&#x9;&#x9;&#x9;<line fill="none" stroke="#0840A3" stroke-width="0.7214" stroke-miterlimit="10" x1="255.34" y1="612.59" x2="253.18" y2="612.74"></line>
&#x9;&#x9;&#x9;&#x9;</g>
&#x9;&#x9;&#x9;</g>
&#x9;&#x9;&#x9;<g>
&#x9;&#x9;&#x9;&#x9;<g>
&#x9;&#x9;&#x9;&#x9;&#x9;
&#x9;&#x9;&#x9;&#x9;&#x9;&#x9;<line fill="none" stroke="#0840A3" stroke-width="0.7214" stroke-miterlimit="10" x1="303.23" y1="607.58" x2="301.11" y2="607.15"></line>
&#x9;&#x9;&#x9;&#x9;&#x9;
&#x9;&#x9;&#x9;&#x9;&#x9;&#x9;<line fill="none" stroke="#0840A3" stroke-width="0.7214" stroke-miterlimit="10" stroke-dasharray="4.1668,4.1668" x1="297.02" y1="606.33" x2="258.21" y2="598.56"></line>
&#x9;&#x9;&#x9;&#x9;&#x9;
&#x9;&#x9;&#x9;&#x9;&#x9;&#x9;<line fill="none" stroke="#0840A3" stroke-width="0.7214" stroke-miterlimit="10" x1="256.16" y1="598.15" x2="254.04" y2="597.72"></line>
&#x9;&#x9;&#x9;&#x9;</g>
&#x9;&#x9;&#x9;</g>
&#x9;&#x9;&#x9;<path fill="none" stroke="#0840A3" stroke-width="0.7214" stroke-miterlimit="10" d="M281.08,692.7c0,0,9.2-12.28,21.8-9.33&#xA;&#x9;&#x9;&#x9;&#x9;c0,0,7.2,1.32,12.03,7.61c0,0,5.38-4.77,13.67-3.57s7.69-1.37,7.69-1.37"></path>
&#x9;&#x9;&#x9;<path fill="none" stroke="#0840A3" stroke-width="0.7214" stroke-miterlimit="10" d="M336.27,686.56c0,0,7.13-5.77,13.02-1.72&#xA;&#x9;&#x9;&#x9;&#x9;s7.18,6.75,12.16,6.14"></path>
&#x9;&#x9;&#x9;<path fill="none" stroke="#0840A3" stroke-width="0.7214" stroke-miterlimit="10" d="M314.91,690.98c0,0,3.45,3.25,9.06,3.81"></path>
&#x9;&#x9;&#x9;<path fill="none" stroke="#0840A3" stroke-width="0.7214" stroke-miterlimit="10" d="M334.75,687.81c0,0,1.28,4.28,7.55,4.89"></path>
&#x9;&#x9;&#x9;<path fill="none" stroke="#0840A3" stroke-width="0.7214" stroke-miterlimit="10" d="M311.11,687.23c0,0-5.47,7.37-9.7,7.55&#xA;&#x9;&#x9;&#x9;&#x9;c-4.24,0.18-8.47-0.92-8.47-0.92"></path>
&#x9;&#x9;</g>
&#x9;</g>
</g>
<g id="icon3" data-layer="content" data-beat="2" data-cue="persuade them" data-t="560" data-enter="pop" data-cx="1605" data-cy="304">
&#x9;<g>
&#x9;&#x9;<g>
&#x9;&#x9;&#x9;<defs>
&#x9;&#x9;&#x9;&#x9;<circle id="SVGID_00000085240234326650485450000017848348824462927510_" cx="1604.56" cy="362.66" r="91.63"></circle>
&#x9;&#x9;&#x9;</defs>
&#x9;&#x9;&#x9;<clipPath id="SVGID_00000122707065391077564750000004889328097228537748_">
&#x9;&#x9;&#x9;&#x9;<use xlink:href="#SVGID_00000085240234326650485450000017848348824462927510_" overflow="visible"></use>
&#x9;&#x9;&#x9;</clipPath>
&#x9;&#x9;</g>
&#x9;&#x9;<circle fill="none" stroke="#71AFD8" stroke-width="1.9011" stroke-miterlimit="10" cx="1604.56" cy="362.66" r="91.63"></circle>
&#x9;&#x9;<g>
&#x9;&#x9;&#x9;<g>
&#x9;&#x9;&#x9;&#x9;<g>
&#x9;&#x9;&#x9;&#x9;&#x9;<g>
&#x9;&#x9;&#x9;&#x9;&#x9;&#x9;<path fill="#9ac7fd" d="M1524.93,295.2c-20.11,23.91-28.71,56.98-22.21,87.58c2.32,11.94,6.91,23.44,13.25,33.8&#xA;&#x9;&#x9;&#x9;&#x9;&#x9;&#x9;&#x9;c0,0-0.81,0.49-0.81,0.49c-6.32-10.5-10.86-22.11-13.11-34.16C1495.76,352.15,1504.58,319.05,1524.93,295.2L1524.93,295.2z"></path>
&#x9;&#x9;&#x9;&#x9;&#x9;</g>
&#x9;&#x9;&#x9;&#x9;&#x9;<g>
&#x9;&#x9;&#x9;&#x9;&#x9;&#x9;<g>
&#x9;&#x9;&#x9;&#x9;&#x9;&#x9;&#x9;<polygon fill="#71afd8" points="1671.46,282.66 1667,279.12 1667.28,278.76 1671.77,282.29 &#x9;&#x9;&#x9;&#x9;&#x9;&#x9;&#x9;"></polygon>
&#x9;&#x9;&#x9;&#x9;&#x9;&#x9;&#x9;<polygon fill="#71afd8" points="1662.36,275.84 1657.55,272.81 1657.76,272.45 1662.6,275.48 &#x9;&#x9;&#x9;&#x9;&#x9;&#x9;&#x9;"></polygon>
&#x9;&#x9;&#x9;&#x9;&#x9;&#x9;&#x9;<polygon fill="#71afd8" points="1652.58,270.04 1647.46,267.55 1647.61,267.21 1652.76,269.69 &#x9;&#x9;&#x9;&#x9;&#x9;&#x9;&#x9;"></polygon>
&#x9;&#x9;&#x9;&#x9;&#x9;&#x9;&#x9;<polygon fill="#71afd8" points="1642.22,265.34 1636.86,263.42 1636.96,263.1 1642.35,265.01 &#x9;&#x9;&#x9;&#x9;&#x9;&#x9;&#x9;"></polygon>
&#x9;&#x9;&#x9;&#x9;&#x9;&#x9;&#x9;<polygon fill="#71afd8" points="1631.41,261.79 1625.87,260.47 1625.93,260.19 1631.49,261.49 &#x9;&#x9;&#x9;&#x9;&#x9;&#x9;&#x9;"></polygon>
&#x9;&#x9;&#x9;&#x9;&#x9;&#x9;&#x9;<polygon fill="#71afd8" points="1620.27,259.45 1614.62,258.74 1614.65,258.49 1620.31,259.18 &#x9;&#x9;&#x9;&#x9;&#x9;&#x9;&#x9;"></polygon>
&#x9;&#x9;&#x9;&#x9;&#x9;&#x9;&#x9;<polygon fill="#71afd8" points="1608.94,258.35 1603.25,258.26 1603.24,258.05 1608.95,258.12 &#x9;&#x9;&#x9;&#x9;&#x9;&#x9;&#x9;"></polygon>
&#x9;&#x9;&#x9;&#x9;&#x9;&#x9;&#x9;<polygon fill="#71afd8" points="1597.56,258.49 1591.88,259.03 1591.86,258.86 1597.54,258.3 &#x9;&#x9;&#x9;&#x9;&#x9;&#x9;&#x9;"></polygon>
&#x9;&#x9;&#x9;&#x9;&#x9;&#x9;&#x9;<path fill="#71afd8" d="M1586.25,259.88c-1.86,0.39-3.73,0.72-5.58,1.15l-0.03-0.12c1.85-0.44,3.72-0.78,5.58-1.17&#xA;&#x9;&#x9;&#x9;&#x9;&#x9;&#x9;&#x9;&#x9;L1586.25,259.88z"></path>
&#x9;&#x9;&#x9;&#x9;&#x9;&#x9;&#x9;<polygon fill="#71afd8" points="1575.15,262.48 1569.73,264.23 1569.7,264.15 1575.12,262.38 &#x9;&#x9;&#x9;&#x9;&#x9;&#x9;&#x9;"></polygon>
&#x9;&#x9;&#x9;&#x9;&#x9;&#x9;&#x9;<polygon fill="#71afd8" points="1564.4,266.27 1559.2,268.6 1559.18,268.55 1564.38,266.21 &#x9;&#x9;&#x9;&#x9;&#x9;&#x9;&#x9;"></polygon>
&#x9;&#x9;&#x9;&#x9;&#x9;&#x9;&#x9;<polygon fill="#71afd8" points="1554.13,271.21 1549.21,274.1 1549.2,274.09 1554.11,271.19 &#x9;&#x9;&#x9;&#x9;&#x9;&#x9;&#x9;"></polygon>
&#x9;&#x9;&#x9;&#x9;&#x9;&#x9;</g>
&#x9;&#x9;&#x9;&#x9;&#x9;</g>
&#x9;&#x9;&#x9;&#x9;&#x9;<circle fill="none" stroke="#71afd8" stroke-width="0.4753" stroke-miterlimit="10" cx="1516.49" cy="418.35" r="1.79"></circle>
&#x9;&#x9;&#x9;&#x9;&#x9;<circle fill="none" stroke="#71afd8" stroke-width="0.4753" stroke-miterlimit="10" cx="1673.84" cy="284.55" r="3.37"></circle>
&#x9;&#x9;&#x9;&#x9;&#x9;<g>
&#x9;&#x9;&#x9;&#x9;&#x9;&#x9;<g>
&#x9;&#x9;&#x9;&#x9;&#x9;&#x9;&#x9;<g>
&#x9;&#x9;&#x9;&#x9;&#x9;&#x9;&#x9;&#x9;<g>
&#x9;&#x9;&#x9;&#x9;&#x9;&#x9;&#x9;&#x9;&#x9;<g>
&#x9;&#x9;&#x9;&#x9;&#x9;&#x9;&#x9;&#x9;&#x9;&#x9;<g>
&#x9;&#x9;&#x9;&#x9;&#x9;&#x9;&#x9;&#x9;&#x9;&#x9;&#x9;<g>
&#x9;&#x9;&#x9;&#x9;&#x9;&#x9;&#x9;&#x9;&#x9;&#x9;&#x9;&#x9;<g>
&#x9;&#x9;&#x9;&#x9;&#x9;&#x9;&#x9;&#x9;&#x9;&#x9;&#x9;&#x9;&#x9;<g>
&#x9;&#x9;&#x9;&#x9;&#x9;&#x9;&#x9;&#x9;&#x9;&#x9;&#x9;&#x9;&#x9;&#x9;
&#x9;&#x9;&#x9;&#x9;&#x9;&#x9;&#x9;&#x9;&#x9;&#x9;&#x9;&#x9;&#x9;&#x9;&#x9;<path fill="none" stroke="#838D9C" stroke-width="0.9505" stroke-linecap="round" stroke-miterlimit="10" stroke-dasharray="11.4066" d="&#xA;&#x9;&#x9;&#x9;&#x9;&#x9;&#x9;&#x9;&#x9;&#x9;&#x9;&#x9;&#x9;&#x9;&#x9;&#x9;M1681.63,292.49c44.95,47.8,31.48,130.45-25.93,161.13c-41.73,22.3-92.03,13.81-123.1-14.76"></path>
&#x9;&#x9;&#x9;&#x9;&#x9;&#x9;&#x9;&#x9;&#x9;&#x9;&#x9;&#x9;&#x9;</g>
&#x9;&#x9;&#x9;&#x9;&#x9;&#x9;&#x9;&#x9;&#x9;&#x9;&#x9;&#x9;</g>
&#x9;&#x9;&#x9;&#x9;&#x9;&#x9;&#x9;&#x9;&#x9;&#x9;&#x9;</g>
&#x9;&#x9;&#x9;&#x9;&#x9;&#x9;&#x9;&#x9;&#x9;&#x9;</g>
&#x9;&#x9;&#x9;&#x9;&#x9;&#x9;&#x9;&#x9;&#x9;</g>
&#x9;&#x9;&#x9;&#x9;&#x9;&#x9;&#x9;&#x9;</g>
&#x9;&#x9;&#x9;&#x9;&#x9;&#x9;&#x9;</g>
&#x9;&#x9;&#x9;&#x9;&#x9;&#x9;</g>
&#x9;&#x9;&#x9;&#x9;&#x9;&#x9;<circle fill="#5B8AFF" cx="1529.83" cy="436.13" r="4.13"></circle>
&#x9;&#x9;&#x9;&#x9;&#x9;</g>
&#x9;&#x9;&#x9;&#x9;&#x9;<circle fill="#F3F4FA" stroke="#71AFD8" stroke-width="1.9011" stroke-miterlimit="10" cx="1604.56" cy="362.66" r="91.63"></circle>
&#x9;&#x9;&#x9;&#x9;</g>
&#x9;&#x9;&#x9;</g>
&#x9;&#x9;&#x9;<g>
&#x9;&#x9;&#x9;&#x9;
&#x9;&#x9;&#x9;&#x9;&#x9;<ellipse fill-rule="evenodd" clip-rule="evenodd" fill="#71AFD8" stroke="#2D5FBB" stroke-width="0.2066" stroke-miterlimit="10" cx="1603" cy="360.95" rx="46.75" ry="46.67"></ellipse>
&#x9;&#x9;&#x9;&#x9;<path fill-rule="evenodd" clip-rule="evenodd" fill="#18469D" d="M1603.41,314.28c12.15,0,23.23,4.6,31.57,12.2l-1.72,0.68&#xA;&#x9;&#x9;&#x9;&#x9;&#x9;l-0.95,1.01l0.22,1.17l1.14,0.16l0.71,1.72l1.96-0.79l0.33,2.32h-0.6l-1.61-0.24l-1.8,0.3l-1.74,2.45l-2.48,0.38l-0.35,2.12&#xA;&#x9;&#x9;&#x9;&#x9;&#x9;l1.04,0.24l-0.3,1.36l-2.45-0.49l-2.26,0.49l-0.49,1.25l0.41,2.64l1.31,0.63l2.23-0.03l1.5-0.14l0.46-1.2l2.34-3.05l1.55,0.33&#xA;&#x9;&#x9;&#x9;&#x9;&#x9;l1.5-1.36l0.3,1.06l3.73,2.53l-0.44,0.6l-1.69-0.08l0.63,0.93l1.06,0.22l1.2-0.52l-0.03-1.44l0.55-0.27l-0.44-0.46l-2.48-1.39&#xA;&#x9;&#x9;&#x9;&#x9;&#x9;l-0.65-1.85h2.07l0.65,0.65l1.8,1.55l0.05,1.85l1.85,1.96l0.71-2.7l1.28-0.71l0.24,2.21l1.25,1.39h0.52&#xA;&#x9;&#x9;&#x9;&#x9;&#x9;c0.52,1.31,0.98,2.64,1.36,4h-2.18l-2.34-1.74l-2.45,0.24v1.5h-0.76l-0.84-0.6l-4.25-1.09v-2.72l-5.39,0.41l-1.66,0.9h-2.12&#xA;&#x9;&#x9;&#x9;&#x9;&#x9;l-1.06-0.11l-2.59,1.44v2.7l-5.29,3.84l0.44,1.63h1.06l-0.27,1.55l-0.76,0.27l-0.03,4.06l4.58,5.23h1.99l0.11-0.33h3.6&#xA;&#x9;&#x9;&#x9;&#x9;&#x9;l1.04-0.95h2.04l1.12,1.12l3.02,0.3l-0.41,4.03l3.38,5.94l-1.77,3.41l0.11,1.58l1.39,1.39v3.84l1.85,2.45v2.45&#xA;&#x9;&#x9;&#x9;&#x9;&#x9;c-8.64,10.65-21.82,17.49-36.58,17.49c-24.33,0-44.32-18.47-46.74-42.17l0,0c-0.03-0.35-0.05-0.74-0.08-1.12l0,0&#xA;&#x9;&#x9;&#x9;&#x9;&#x9;c-0.11-1.23-0.14-2.45-0.14-3.68v-0.3v-0.55v-0.68l0.03-0.68l0.03-0.41c0.03-0.3,0.03-0.6,0.06-0.87l0.03-0.22&#xA;&#x9;&#x9;&#x9;&#x9;&#x9;c0.41-5.26,1.69-10.27,3.68-14.9v2.56l1.99,0.95v3.81l1.91,3.24l1.55,0.24l0.22-1.12l-1.85-2.83l-0.35-2.75h1.09l0.44,2.83&#xA;&#x9;&#x9;&#x9;&#x9;&#x9;l2.67,3.87l-0.68,1.25l1.66,2.56l4.19,1.06v-0.68l1.69,0.25l-0.16,1.17l1.31,0.24l2.02,0.57l2.89,3.27l3.65,0.27l0.35,3&#xA;&#x9;&#x9;&#x9;&#x9;&#x9;l-2.51,1.74l-0.11,2.67l-0.35,1.63l3.62,4.55l0.27,1.55c0,0,1.31,0.35,1.47,0.35c0.16,0,2.97,2.12,2.97,2.12v8.2l0.98,0.27&#xA;&#x9;&#x9;&#x9;&#x9;&#x9;l-0.68,3.79l1.69,2.23l-0.33,3.76l2.23,3.87l2.83,2.48l2.83,0.05l0.3-0.9l-2.1-1.77l0.11-0.87l0.38-1.09l0.08-1.09l-1.42-0.03&#xA;&#x9;&#x9;&#x9;&#x9;&#x9;l-0.71-0.9l1.17-1.14l0.16-0.87l-1.33-0.35l0.08-0.82l1.88-0.27l2.86-1.36l0.95-1.77l3-3.81l-0.68-3l0.9-1.58l2.75,0.08&#xA;&#x9;&#x9;&#x9;&#x9;&#x9;l1.85-1.47l0.6-5.78l2.04-2.61l0.38-1.66l-1.88-0.6l-1.25-2.04l-4.22-0.03l-3.32-1.28l-0.16-2.4l-1.12-1.93l-3.02-0.05&#xA;&#x9;&#x9;&#x9;&#x9;&#x9;l-1.77-2.75l-1.55-0.76l-0.08,0.84l-2.83,0.16l-1.04-1.44l-2.94-0.6l-2.42,2.83l-3.84-0.65l-0.27-4.33l-2.78-0.46l1.12-2.12&#xA;&#x9;&#x9;&#x9;&#x9;&#x9;l-0.33-1.2l-3.68,2.45l-2.29-0.3l-0.84-1.8l0.52-1.85l1.28-2.34l2.91-1.5h5.67l-0.03,1.74l2.04,0.93l-0.16-2.94l1.47-1.47&#xA;&#x9;&#x9;&#x9;&#x9;&#x9;l2.94-1.93l0.22-1.36l2.94-3.08l3.13-1.74l-0.27-0.22l2.12-1.99l0.76,0.19l0.35,0.44l0.82-0.87l0.19-0.11l-0.87-0.11l-0.9-0.3&#xA;&#x9;&#x9;&#x9;&#x9;&#x9;v-0.87l0.46-0.38h1.06l0.46,0.19l0.44,0.84l0.49-0.08v-0.05l0.16,0.03l1.47-0.22l0.19-0.71l0.84,0.19v0.79l-0.79,0.54h0.03&#xA;&#x9;&#x9;&#x9;&#x9;&#x9;l0.11,0.84l2.64,0.82l0.03,0.03l0.6-0.03l0.05-1.17l-2.12-0.95l-0.11-0.57l1.74-0.57l0.08-1.69l-1.83-1.12l-0.14-2.83&#xA;&#x9;&#x9;&#x9;&#x9;&#x9;l-2.51,1.25h-0.9l0.22-2.15l-3.41-0.82l-1.42,1.06v3.27l-2.53,0.79l-1.04,2.12l-1.09,0.19v-2.72l-2.4-0.33l-1.2-0.79l-0.46-1.74&#xA;&#x9;&#x9;&#x9;&#x9;&#x9;l4.28-2.51l2.07-0.65l0.22,1.42l1.17-0.05l0.08-0.71l1.23-0.19l0.03-0.25l-0.54-0.22l-0.11-0.74l1.5-0.11l0.9-0.95l0.05-0.05&#xA;&#x9;&#x9;&#x9;&#x9;&#x9;h0.03l0.27-0.3l3.13-0.38l1.39,1.17l-3.65,1.93l4.63,1.12l0.63-1.55h2.02l0.74-1.36l-1.44-0.35v-1.72l-4.5-1.99l-3.11,0.35&#xA;&#x9;&#x9;&#x9;&#x9;&#x9;l-1.77,0.9l0.14,2.23l-1.85-0.27l-0.27-1.23l1.77-1.61l-3.19-0.16l-0.93,0.3l-0.41,1.06l1.2,0.22l-0.24,1.17l-2.02,0.14&#xA;&#x9;&#x9;&#x9;&#x9;&#x9;l-0.33,0.79l-2.94,0.08c0,0-0.08-1.66-0.19-1.66c-0.14,0,2.29-0.05,2.29-0.05l1.77-1.72l-0.95-0.49l-1.28,1.25l-2.12-0.11&#xA;&#x9;&#x9;&#x9;&#x9;&#x9;l-1.25-1.77h-2.72l-2.83,2.12h2.59l0.24,0.74l-0.68,0.65l2.89,0.08l0.44,1.04l-3.24-0.14l-0.16-0.79l-2.02-0.44l-1.09-0.6&#xA;&#x9;&#x9;&#x9;&#x9;&#x9;l-1.74,0.03C1584.42,317.3,1593.55,314.28,1603.41,314.28L1603.41,314.28z M1626.43,330.27l0.44-0.65l1.58-0.33l0.41,1.91&#xA;&#x9;&#x9;&#x9;&#x9;&#x9;l0.82,1.36l0.57,0.63l1.01,0.41l-0.95,1.14l-1.85,0.16h-1.39l0.16-1.66l1.14-0.22l-0.08-0.79l-1.09-0.68l-0.76-0.52V330.27&#xA;&#x9;&#x9;&#x9;&#x9;&#x9;L1626.43,330.27z M1623.84,333.27l0.95-1.53l1.31-0.3l0.93,0.38l-0.11,1.06l-1.96,1.39h-1.12V333.27L1623.84,333.27z&#xA;&#x9;&#x9;&#x9;&#x9;&#x9; M1597.8,339.18l-1.01,0.08l0.05-0.71l0.46-0.55l0.6,0.46L1597.8,339.18z M1601.31,337.95l-0.68,0.05l-0.14,0.65l-0.55,0.33&#xA;&#x9;&#x9;&#x9;&#x9;&#x9;l-0.84,0.08c-0.03-0.22-0.03-0.35-0.03-0.35h-0.33v-0.71h1.36l0.27-0.74h0.54l0.63,0.11L1601.31,337.95z"></path>
&#x9;&#x9;&#x9;</g>
&#x9;&#x9;</g>
&#x9;</g>
</g>
<g id="icon2" data-layer="content" data-beat="2" data-cue="persuade them" data-t="560" data-enter="pop" data-cx="954" data-cy="824">
&#x9;<g>
&#x9;&#x9;<g>
&#x9;&#x9;&#x9;<g>
&#x9;&#x9;&#x9;&#x9;<g>
&#x9;&#x9;&#x9;&#x9;&#x9;<path fill="#9ac7fd" d="M873.51,796.69c-20.11,23.91-28.71,56.98-22.21,87.58c2.32,11.94,6.91,23.44,13.25,33.8&#xA;&#x9;&#x9;&#x9;&#x9;&#x9;&#x9;c0,0-0.81,0.49-0.81,0.49c-6.32-10.5-10.86-22.11-13.11-34.16C844.34,853.63,853.16,820.54,873.51,796.69L873.51,796.69z"></path>
&#x9;&#x9;&#x9;&#x9;</g>
&#x9;&#x9;&#x9;&#x9;<g>
&#x9;&#x9;&#x9;&#x9;&#x9;<g>
&#x9;&#x9;&#x9;&#x9;&#x9;&#x9;<polygon fill="#71afd8" points="1020.05,784.14 1015.59,780.61 1015.86,780.24 1020.35,783.78 &#x9;&#x9;&#x9;&#x9;&#x9;&#x9;"></polygon>
&#x9;&#x9;&#x9;&#x9;&#x9;&#x9;<polygon fill="#71afd8" points="1010.95,777.32 1006.13,774.29 1006.34,773.93 1011.19,776.96 &#x9;&#x9;&#x9;&#x9;&#x9;&#x9;"></polygon>
&#x9;&#x9;&#x9;&#x9;&#x9;&#x9;<polygon fill="#71afd8" points="1001.16,771.53 996.05,769.03 996.2,768.69 1001.34,771.18 &#x9;&#x9;&#x9;&#x9;&#x9;&#x9;"></polygon>
&#x9;&#x9;&#x9;&#x9;&#x9;&#x9;<polygon fill="#71afd8" points="990.8,766.82 985.45,764.9 985.55,764.59 990.93,766.5 &#x9;&#x9;&#x9;&#x9;&#x9;&#x9;"></polygon>
&#x9;&#x9;&#x9;&#x9;&#x9;&#x9;<polygon fill="#71afd8" points="979.99,763.28 974.46,761.96 974.52,761.67 980.07,762.98 &#x9;&#x9;&#x9;&#x9;&#x9;&#x9;"></polygon>
&#x9;&#x9;&#x9;&#x9;&#x9;&#x9;<polygon fill="#71afd8" points="968.86,760.94 963.21,760.23 963.23,759.98 968.9,760.67 &#x9;&#x9;&#x9;&#x9;&#x9;&#x9;"></polygon>
&#x9;&#x9;&#x9;&#x9;&#x9;&#x9;<polygon fill="#71afd8" points="957.53,759.83 951.83,759.75 951.83,759.54 957.54,759.6 &#x9;&#x9;&#x9;&#x9;&#x9;&#x9;"></polygon>
&#x9;&#x9;&#x9;&#x9;&#x9;&#x9;<polygon fill="#71afd8" points="946.14,759.98 940.47,760.52 940.45,760.35 946.13,759.79 &#x9;&#x9;&#x9;&#x9;&#x9;&#x9;"></polygon>
&#x9;&#x9;&#x9;&#x9;&#x9;&#x9;<path fill="#71afd8" d="M934.83,761.37c-1.86,0.39-3.73,0.72-5.58,1.15l-0.03-0.12c1.85-0.44,3.72-0.78,5.58-1.17&#xA;&#x9;&#x9;&#x9;&#x9;&#x9;&#x9;&#x9;L934.83,761.37z"></path>
&#x9;&#x9;&#x9;&#x9;&#x9;&#x9;<polygon fill="#71afd8" points="923.74,763.97 918.31,765.71 918.28,765.63 923.71,763.86 &#x9;&#x9;&#x9;&#x9;&#x9;&#x9;"></polygon>
&#x9;&#x9;&#x9;&#x9;&#x9;&#x9;<polygon fill="#71afd8" points="912.99,767.75 907.78,770.08 907.76,770.04 912.96,767.69 &#x9;&#x9;&#x9;&#x9;&#x9;&#x9;"></polygon>
&#x9;&#x9;&#x9;&#x9;&#x9;&#x9;<polygon fill="#71afd8" points="902.71,772.69 897.79,775.58 897.79,775.58 902.7,772.67 &#x9;&#x9;&#x9;&#x9;&#x9;&#x9;"></polygon>
&#x9;&#x9;&#x9;&#x9;&#x9;</g>
&#x9;&#x9;&#x9;&#x9;</g>
&#x9;&#x9;&#x9;&#x9;<circle fill="none" stroke="#71afd8" stroke-width="0.4753" stroke-miterlimit="10" cx="865.08" cy="919.84" r="1.79"></circle>
&#x9;&#x9;&#x9;&#x9;<circle fill="none" stroke="#71afd8" stroke-width="0.4753" stroke-miterlimit="10" cx="1022.43" cy="786.04" r="3.37"></circle>
&#x9;&#x9;&#x9;&#x9;<g>
&#x9;&#x9;&#x9;&#x9;&#x9;<g>
&#x9;&#x9;&#x9;&#x9;&#x9;&#x9;<g>
&#x9;&#x9;&#x9;&#x9;&#x9;&#x9;&#x9;<g>
&#x9;&#x9;&#x9;&#x9;&#x9;&#x9;&#x9;&#x9;<g>
&#x9;&#x9;&#x9;&#x9;&#x9;&#x9;&#x9;&#x9;&#x9;<g>
&#x9;&#x9;&#x9;&#x9;&#x9;&#x9;&#x9;&#x9;&#x9;&#x9;<g>
&#x9;&#x9;&#x9;&#x9;&#x9;&#x9;&#x9;&#x9;&#x9;&#x9;&#x9;<g>
&#x9;&#x9;&#x9;&#x9;&#x9;&#x9;&#x9;&#x9;&#x9;&#x9;&#x9;&#x9;<g>
&#x9;&#x9;&#x9;&#x9;&#x9;&#x9;&#x9;&#x9;&#x9;&#x9;&#x9;&#x9;&#x9;
&#x9;&#x9;&#x9;&#x9;&#x9;&#x9;&#x9;&#x9;&#x9;&#x9;&#x9;&#x9;&#x9;&#x9;<path fill="none" stroke="#838D9C" stroke-width="0.9505" stroke-linecap="round" stroke-miterlimit="10" stroke-dasharray="11.4066" d="&#xA;&#x9;&#x9;&#x9;&#x9;&#x9;&#x9;&#x9;&#x9;&#x9;&#x9;&#x9;&#x9;&#x9;&#x9;M1030.21,793.98c44.95,47.8,31.48,130.45-25.93,161.13c-41.73,22.3-92.03,13.81-123.1-14.76"></path>
&#x9;&#x9;&#x9;&#x9;&#x9;&#x9;&#x9;&#x9;&#x9;&#x9;&#x9;&#x9;</g>
&#x9;&#x9;&#x9;&#x9;&#x9;&#x9;&#x9;&#x9;&#x9;&#x9;&#x9;</g>
&#x9;&#x9;&#x9;&#x9;&#x9;&#x9;&#x9;&#x9;&#x9;&#x9;</g>
&#x9;&#x9;&#x9;&#x9;&#x9;&#x9;&#x9;&#x9;&#x9;</g>
&#x9;&#x9;&#x9;&#x9;&#x9;&#x9;&#x9;&#x9;</g>
&#x9;&#x9;&#x9;&#x9;&#x9;&#x9;&#x9;</g>
&#x9;&#x9;&#x9;&#x9;&#x9;&#x9;</g>
&#x9;&#x9;&#x9;&#x9;&#x9;</g>
&#x9;&#x9;&#x9;&#x9;&#x9;<circle fill="#5B8AFF" cx="878.41" cy="937.62" r="4.13"></circle>
&#x9;&#x9;&#x9;&#x9;</g>
&#x9;&#x9;&#x9;&#x9;<circle fill="#F3F4FA" stroke="#71AFD8" stroke-width="1.9011" stroke-miterlimit="10" cx="953.15" cy="864.14" r="91.63"></circle>
&#x9;&#x9;&#x9;</g>
&#x9;&#x9;</g>
&#x9;&#x9;<g>
&#x9;&#x9;&#x9;<defs>
&#x9;&#x9;&#x9;&#x9;<circle id="SVGID_00000018941389029444282850000009033563762106553234_" cx="953.15" cy="864.14" r="91.63"></circle>
&#x9;&#x9;&#x9;</defs>
&#x9;&#x9;&#x9;<clipPath id="SVGID_00000118390760383334628390000005711026576230103988_">
&#x9;&#x9;&#x9;&#x9;<use xlink:href="#SVGID_00000018941389029444282850000009033563762106553234_" overflow="visible"></use>
&#x9;&#x9;&#x9;</clipPath>
&#x9;&#x9;</g>
&#x9;&#x9;<circle fill="none" stroke="#71AFD8" stroke-width="1.9011" stroke-miterlimit="10" cx="953.15" cy="864.14" r="91.63"></circle>
&#x9;&#x9;<g>
&#x9;&#x9;&#x9;<path fill="#18469D" d="M922.51,842.86c0.37-0.35,1.02-0.48,1.82-0.61c1.47-0.24,2.93-0.48,4.4-0.72l0.53-0.09&#xA;&#x9;&#x9;&#x9;&#x9;c1.83-0.3,3.52-1.12,4.89-2.37c1.02-0.93,1.83-1.79,2.48-2.48c1.32-1.4,1.99-2.07,2.86-2.18c1.23-0.15,2.47,0.04,3.78,0.25&#xA;&#x9;&#x9;&#x9;&#x9;c1.27,0.2,2.59,0.41,4.11,0.36c0.41-0.01,0.82-0.02,1.22-0.04c2.55-0.08,4.97-0.16,7.58,0.11c3.02,0.3,5.41,2.47,7.95,4.76&#xA;&#x9;&#x9;&#x9;&#x9;c0.88,0.79,1.78,1.61,2.72,2.36c0.26,0.21,0.6,0.29,0.93,0.23c8.49-1.62,22.1-5.19,33.4-8.77c5.8,9.26,8.86,19.93,8.86,30.92&#xA;&#x9;&#x9;&#x9;&#x9;c0,0.15,0,0.29,0,0.43c-6.33,0.95-11.55,1.89-15.87,2.85c-0.3-4.27-3.85-7.46-10.57-9.49c-1.44-0.51-27.56-9.74-32.73-11.18&#xA;&#x9;&#x9;&#x9;&#x9;c-2.01-0.56-4.16-1.09-6.35-0.8c-1.86,0.24-3.5,1.03-5.09,1.79c-1.16,0.55-2.35,1.13-3.61,1.47c-2.87,0.78-6.07,0.83-8.77,0.13&#xA;&#x9;&#x9;&#x9;&#x9;c-2.17-0.56-4.47-2.33-4.92-4.62c0,0,0,0,0,0c-0.05-0.25-0.08-0.51-0.08-0.78C922.02,843.71,922.19,843.16,922.51,842.86z"></path>
&#x9;&#x9;&#x9;<path fill="#18469D" d="M928.17,892.1c-1.84-0.74-3.59-1.62-3.96-3.07c-0.31-1.2,0.39-2.57,1.18-3.87&#xA;&#x9;&#x9;&#x9;&#x9;c1.05-1.71,2.24-3.44,3.85-4.46c0,0,0.03-0.02,0.03-0.02c0.9-0.56,2.01-0.64,2.97-0.21c0.93,0.42,1.73,1.08,2.27,1.86&#xA;&#x9;&#x9;&#x9;&#x9;c0.38,0.55,0.66,1.16,0.86,1.83c-0.36,0.61-0.71,1.24-1.04,1.89c-1.13,2.18-2.15,4.51-2.02,6.81&#xA;&#x9;&#x9;&#x9;&#x9;C931.11,893.21,929.67,892.7,928.17,892.1z"></path>
&#x9;&#x9;&#x9;<path fill="#18469D" d="M938.33,896.83c-2.12-0.94-3.48-1.9-3.7-3.81c-0.22-1.83,0.71-3.92,1.74-5.9&#xA;&#x9;&#x9;&#x9;&#x9;c1.17-2.26,2.58-4.42,3.87-5.94c0.81-0.96,1.77-1.24,2.62-1.24c0.93,0,1.73,0.34,2.08,0.51c1.76,0.88,2.6,2.71,2.52,5.27&#xA;&#x9;&#x9;&#x9;&#x9;c0,0.02,0,0.03,0,0.05c-0.07,2.05-0.72,4.56-1.96,7.43c-0.94,2.17-1.93,3.56-2.96,4.12&#xA;&#x9;&#x9;&#x9;&#x9;C941.26,898.02,939.88,897.51,938.33,896.83z"></path>
&#x9;&#x9;&#x9;<path fill="#18469D" d="M952.73,901.36c-1.27,0.69-2.66,0.18-4.2-0.5c-1.63-0.72-2.86-1.48-3.41-2.7&#xA;&#x9;&#x9;&#x9;&#x9;c0.89-0.95,1.71-2.28,2.47-4.04c1.4-3.26,2.02-5.87,2.13-7.95c0.94-1.31,1.77-2.35,2.32-2.87c2.03-1.93,4.17-1.1,4.77-0.79&#xA;&#x9;&#x9;&#x9;&#x9;c1.34,0.67,1.87,3.03,1.41,6.31c-0.34,2.47-1.23,5.4-2.56,8.48c-0.49,1.13-0.97,2.01-1.48,2.7c0,0,0,0,0,0c0,0,0,0,0,0&#xA;&#x9;&#x9;&#x9;&#x9;C953.72,900.63,953.23,901.09,952.73,901.36z"></path>
&#x9;&#x9;&#x9;<path fill="#18469D" d="M963.95,903.77c-1.27,0.67-2.66,0.16-4.21-0.52c-1.55-0.68-2.73-1.38-3.33-2.47&#xA;&#x9;&#x9;&#x9;&#x9;c0.47-0.72,0.92-1.58,1.36-2.59c1.36-3.14,2.28-6.17,2.68-8.77c0.35-0.48,0.7-0.91,1.04-1.3c1.67-1.93,4.01-0.99,4.68-0.66&#xA;&#x9;&#x9;&#x9;&#x9;c3.17,1.56,3.41,6.06,0.67,12.35C965.94,901.91,964.96,903.24,963.95,903.77z"></path>
&#x9;&#x9;&#x9;<path fill="#71AFD8" stroke="#2D5FBB" stroke-width="0.4715" stroke-miterlimit="10" d="M975.39,899.3c-0.49,1.46-1.3,2.47-2.4,3&#xA;&#x9;&#x9;&#x9;&#x9;c-1.24,0.6-2.9,0.63-4.87,0.12c0.28-0.51,0.56-1.07,0.83-1.68c1.33-3.07,1.93-5.54,2.06-7.55c1.22,0.49,2.43,0.97,3.6,1.42&#xA;&#x9;&#x9;&#x9;&#x9;c0.37,0.57,0.65,1.18,0.82,1.81C975.69,897.41,975.68,898.43,975.39,899.3z"></path>
&#x9;&#x9;&#x9;<path fill="#71AFD8" stroke="#2D5FBB" stroke-width="0.4715" stroke-miterlimit="10" d="M990.13,871.79&#xA;&#x9;&#x9;&#x9;&#x9;c-0.97,0.65-2.15,0.79-3.5,0.4c-4.77-1.5-9.7-3.28-13.01-4.52c-0.59-0.22-1.25,0.08-1.48,0.67c-0.22,0.59,0.08,1.25,0.67,1.48&#xA;&#x9;&#x9;&#x9;&#x9;c3.32,1.24,8.28,3.04,13.09,4.55c2.79,1.17,4.02,2.9,3.67,5.15c-0.19,1.2-0.82,2.16-1.82,2.76c-1.42,0.86-3.47,0.94-5.61,0.21&#xA;&#x9;&#x9;&#x9;&#x9;c0,0-0.01,0-0.01,0c-0.01,0-0.01,0-0.02-0.01c-5.31-1.66-10.54-3.58-13.99-4.9c-0.59-0.23-1.25,0.07-1.48,0.66&#xA;&#x9;&#x9;&#x9;&#x9;c-0.23,0.59,0.07,1.25,0.66,1.48c3.43,1.31,8.61,3.21,13.9,4.87c1.86,1.54,2.59,3.27,2.23,5.28c-0.21,1.14-0.91,2.1-1.99,2.69&#xA;&#x9;&#x9;&#x9;&#x9;c-1.55,0.85-3.61,0.87-5.67,0.04c0,0,0,0,0,0c0,0-0.01,0-0.01-0.01c-1.57-0.61-3.21-1.26-4.87-1.94&#xA;&#x9;&#x9;&#x9;&#x9;c-0.53-3.21-2.5-4.66-3.71-5.26c-2.7-1.33-5-0.78-6.53,0.37c-0.16-2.65-1.12-4.5-2.81-5.35c-1.94-0.97-4.9-1.16-7.37,1.18&#xA;&#x9;&#x9;&#x9;&#x9;c-0.33,0.31-0.69,0.72-1.05,1.15c-0.7-2.6-2.39-3.84-3.47-4.38c-2.16-1.08-5.26-1.31-7.47,1.3c-0.53,0.63-1.07,1.34-1.61,2.11&#xA;&#x9;&#x9;&#x9;&#x9;c-0.14-0.27-0.3-0.53-0.47-0.77c-0.78-1.13-1.89-2.05-3.21-2.64c-1.66-0.75-3.58-0.62-5.12,0.34c-0.01,0-0.03,0.02-0.04,0.02&#xA;&#x9;&#x9;&#x9;&#x9;c-2.03,1.28-3.41,3.26-4.6,5.21c-0.38,0.61-0.74,1.27-1.03,1.96c-1.13-0.71-2.28-1.54-3.5-2.51c-1.43-1.15-2.46-2.61-3.46-4.02&#xA;&#x9;&#x9;&#x9;&#x9;c-1.39-1.97-2.82-4-5.34-5.26c-2.66-1.33-9.59-3.76-16.67-5.85c-0.08-1.22-0.12-2.46-0.12-3.7c0-9.41,2.28-18.72,6.61-27&#xA;&#x9;&#x9;&#x9;&#x9;c6.69,2.87,13.38,5.74,20.06,8.61c0.86,2.94,3.68,5.08,6.45,5.8c3.07,0.8,6.69,0.75,9.94-0.14c1.46-0.4,2.75-1.02,4-1.61&#xA;&#x9;&#x9;&#x9;&#x9;c1.49-0.71,2.9-1.39,4.4-1.58c1.77-0.23,3.66,0.24,5.44,0.74c5.12,1.43,32.33,11.05,32.6,11.15c0.02,0.01,0.03,0.01,0.05,0.02&#xA;&#x9;&#x9;&#x9;&#x9;c6.44,1.94,9.37,4.78,8.95,8.66C991.78,869.82,991.26,871.03,990.13,871.79z"></path>
&#x9;&#x9;</g>
&#x9;</g>
</g>
<g id="icon1" data-layer="content" data-beat="2" data-cue="persuade them" data-t="560" data-enter="pop" data-cx="1605" data-cy="592">
&#x9;<g>
&#x9;&#x9;<g>
&#x9;&#x9;&#x9;<defs>
&#x9;&#x9;&#x9;&#x9;<circle id="SVGID_00000070084627929192358140000002320473320343824801_" cx="1604.56" cy="636.81" r="91.63"></circle>
&#x9;&#x9;&#x9;</defs>
&#x9;&#x9;&#x9;<clipPath id="SVGID_00000152230794593406890100000007575657057449158846_">
&#x9;&#x9;&#x9;&#x9;<use xlink:href="#SVGID_00000070084627929192358140000002320473320343824801_" overflow="visible"></use>
&#x9;&#x9;&#x9;</clipPath>
&#x9;&#x9;</g>
&#x9;&#x9;<circle fill="none" stroke="#71AFD8" stroke-width="1.9011" stroke-miterlimit="10" cx="1604.56" cy="636.81" r="91.63"></circle>
&#x9;&#x9;<g>
&#x9;&#x9;&#x9;<g>
&#x9;&#x9;&#x9;&#x9;<g>
&#x9;&#x9;&#x9;&#x9;&#x9;<g>
&#x9;&#x9;&#x9;&#x9;&#x9;&#x9;<path fill="#9ac7fd" d="M1524.93,569.36c-20.11,23.91-28.71,56.98-22.21,87.58c2.32,11.94,6.91,23.44,13.25,33.8&#xA;&#x9;&#x9;&#x9;&#x9;&#x9;&#x9;&#x9;c0,0-0.81,0.49-0.81,0.49c-6.32-10.5-10.86-22.11-13.11-34.16C1495.76,626.31,1504.58,593.21,1524.93,569.36L1524.93,569.36z"></path>
&#x9;&#x9;&#x9;&#x9;&#x9;</g>
&#x9;&#x9;&#x9;&#x9;&#x9;<g>
&#x9;&#x9;&#x9;&#x9;&#x9;&#x9;<g>
&#x9;&#x9;&#x9;&#x9;&#x9;&#x9;&#x9;<polygon fill="#71afd8" points="1671.46,556.82 1667,553.28 1667.28,552.92 1671.77,556.45 &#x9;&#x9;&#x9;&#x9;&#x9;&#x9;&#x9;"></polygon>
&#x9;&#x9;&#x9;&#x9;&#x9;&#x9;&#x9;<polygon fill="#71afd8" points="1662.36,549.99 1657.55,546.96 1657.76,546.61 1662.6,549.63 &#x9;&#x9;&#x9;&#x9;&#x9;&#x9;&#x9;"></polygon>
&#x9;&#x9;&#x9;&#x9;&#x9;&#x9;&#x9;<polygon fill="#71afd8" points="1652.58,544.2 1647.46,541.71 1647.61,541.37 1652.76,543.85 &#x9;&#x9;&#x9;&#x9;&#x9;&#x9;&#x9;"></polygon>
&#x9;&#x9;&#x9;&#x9;&#x9;&#x9;&#x9;<polygon fill="#71afd8" points="1642.22,539.5 1636.86,537.58 1636.96,537.26 1642.35,539.17 &#x9;&#x9;&#x9;&#x9;&#x9;&#x9;&#x9;"></polygon>
&#x9;&#x9;&#x9;&#x9;&#x9;&#x9;&#x9;<polygon fill="#71afd8" points="1631.41,535.95 1625.87,534.63 1625.93,534.34 1631.49,535.65 &#x9;&#x9;&#x9;&#x9;&#x9;&#x9;&#x9;"></polygon>
&#x9;&#x9;&#x9;&#x9;&#x9;&#x9;&#x9;<polygon fill="#71afd8" points="1620.27,533.61 1614.62,532.9 1614.65,532.65 1620.31,533.34 &#x9;&#x9;&#x9;&#x9;&#x9;&#x9;&#x9;"></polygon>
&#x9;&#x9;&#x9;&#x9;&#x9;&#x9;&#x9;<polygon fill="#71afd8" points="1608.94,532.5 1603.25,532.42 1603.24,532.21 1608.95,532.27 &#x9;&#x9;&#x9;&#x9;&#x9;&#x9;&#x9;"></polygon>
&#x9;&#x9;&#x9;&#x9;&#x9;&#x9;&#x9;<polygon fill="#71afd8" points="1597.56,532.65 1591.88,533.19 1591.86,533.02 1597.54,532.46 &#x9;&#x9;&#x9;&#x9;&#x9;&#x9;&#x9;"></polygon>
&#x9;&#x9;&#x9;&#x9;&#x9;&#x9;&#x9;<path fill="#71afd8" d="M1586.25,534.04c-1.86,0.39-3.73,0.72-5.58,1.15l-0.03-0.12c1.85-0.44,3.72-0.78,5.58-1.17&#xA;&#x9;&#x9;&#x9;&#x9;&#x9;&#x9;&#x9;&#x9;L1586.25,534.04z"></path>
&#x9;&#x9;&#x9;&#x9;&#x9;&#x9;&#x9;<polygon fill="#71afd8" points="1575.15,536.64 1569.73,538.38 1569.7,538.3 1575.12,536.53 &#x9;&#x9;&#x9;&#x9;&#x9;&#x9;&#x9;"></polygon>
&#x9;&#x9;&#x9;&#x9;&#x9;&#x9;&#x9;<polygon fill="#71afd8" points="1564.4,540.42 1559.2,542.75 1559.18,542.71 1564.38,540.36 &#x9;&#x9;&#x9;&#x9;&#x9;&#x9;&#x9;"></polygon>
&#x9;&#x9;&#x9;&#x9;&#x9;&#x9;&#x9;<polygon fill="#71afd8" points="1554.13,545.36 1549.21,548.25 1549.2,548.25 1554.11,545.34 &#x9;&#x9;&#x9;&#x9;&#x9;&#x9;&#x9;"></polygon>
&#x9;&#x9;&#x9;&#x9;&#x9;&#x9;</g>
&#x9;&#x9;&#x9;&#x9;&#x9;</g>
&#x9;&#x9;&#x9;&#x9;&#x9;<circle fill="none" stroke="#71afd8" stroke-width="0.4753" stroke-miterlimit="10" cx="1516.49" cy="692.51" r="1.79"></circle>
&#x9;&#x9;&#x9;&#x9;&#x9;<circle fill="none" stroke="#71afd8" stroke-width="0.4753" stroke-miterlimit="10" cx="1673.84" cy="558.71" r="3.37"></circle>
&#x9;&#x9;&#x9;&#x9;&#x9;<g>
&#x9;&#x9;&#x9;&#x9;&#x9;&#x9;<g>
&#x9;&#x9;&#x9;&#x9;&#x9;&#x9;&#x9;<g>
&#x9;&#x9;&#x9;&#x9;&#x9;&#x9;&#x9;&#x9;<g>
&#x9;&#x9;&#x9;&#x9;&#x9;&#x9;&#x9;&#x9;&#x9;<g>
&#x9;&#x9;&#x9;&#x9;&#x9;&#x9;&#x9;&#x9;&#x9;&#x9;<g>
&#x9;&#x9;&#x9;&#x9;&#x9;&#x9;&#x9;&#x9;&#x9;&#x9;&#x9;<g>
&#x9;&#x9;&#x9;&#x9;&#x9;&#x9;&#x9;&#x9;&#x9;&#x9;&#x9;&#x9;<g>
&#x9;&#x9;&#x9;&#x9;&#x9;&#x9;&#x9;&#x9;&#x9;&#x9;&#x9;&#x9;&#x9;<g>
&#x9;&#x9;&#x9;&#x9;&#x9;&#x9;&#x9;&#x9;&#x9;&#x9;&#x9;&#x9;&#x9;&#x9;
&#x9;&#x9;&#x9;&#x9;&#x9;&#x9;&#x9;&#x9;&#x9;&#x9;&#x9;&#x9;&#x9;&#x9;&#x9;<path fill="none" stroke="#838D9C" stroke-width="0.9505" stroke-linecap="round" stroke-miterlimit="10" stroke-dasharray="11.4066" d="&#xA;&#x9;&#x9;&#x9;&#x9;&#x9;&#x9;&#x9;&#x9;&#x9;&#x9;&#x9;&#x9;&#x9;&#x9;&#x9;M1681.63,566.65c44.95,47.8,31.48,130.45-25.93,161.13c-41.73,22.3-92.03,13.81-123.1-14.76"></path>
&#x9;&#x9;&#x9;&#x9;&#x9;&#x9;&#x9;&#x9;&#x9;&#x9;&#x9;&#x9;&#x9;</g>
&#x9;&#x9;&#x9;&#x9;&#x9;&#x9;&#x9;&#x9;&#x9;&#x9;&#x9;&#x9;</g>
&#x9;&#x9;&#x9;&#x9;&#x9;&#x9;&#x9;&#x9;&#x9;&#x9;&#x9;</g>
&#x9;&#x9;&#x9;&#x9;&#x9;&#x9;&#x9;&#x9;&#x9;&#x9;</g>
&#x9;&#x9;&#x9;&#x9;&#x9;&#x9;&#x9;&#x9;&#x9;</g>
&#x9;&#x9;&#x9;&#x9;&#x9;&#x9;&#x9;&#x9;</g>
&#x9;&#x9;&#x9;&#x9;&#x9;&#x9;&#x9;</g>
&#x9;&#x9;&#x9;&#x9;&#x9;&#x9;</g>
&#x9;&#x9;&#x9;&#x9;&#x9;&#x9;<circle fill="#5B8AFF" cx="1529.83" cy="710.29" r="4.13"></circle>
&#x9;&#x9;&#x9;&#x9;&#x9;</g>
&#x9;&#x9;&#x9;&#x9;&#x9;<circle fill="#F3F4FA" stroke="#71AFD8" stroke-width="1.9011" stroke-miterlimit="10" cx="1604.56" cy="636.81" r="91.63"></circle>
&#x9;&#x9;&#x9;&#x9;</g>
&#x9;&#x9;&#x9;</g>
&#x9;&#x9;&#x9;<g>
&#x9;&#x9;&#x9;&#x9;<path fill="none" d="M1577.39,608.18c-8.36,0.73-14.54,8.1-13.82,16.45c0.73,8.36,8.1,14.55,16.46,13.82&#xA;&#x9;&#x9;&#x9;&#x9;&#x9;c8.36-0.73,14.54-8.09,13.81-16.46C1593.12,613.64,1585.75,607.45,1577.39,608.18z"></path>
&#x9;&#x9;&#x9;&#x9;<path fill="none" d="M1628.78,643.35c-4.72,2.92-6.35,9.28-3.62,14.11c2.91,5.14,9.45,6.88,14.51,3.89&#xA;&#x9;&#x9;&#x9;&#x9;&#x9;c5-2.96,6.65-9.41,3.7-14.41C1640.37,641.88,1633.8,640.24,1628.78,643.35z"></path>
&#x9;&#x9;&#x9;&#x9;<path fill="#71AFD8" stroke="#2D5FBB" stroke-width="0.509" stroke-miterlimit="10" d="M1613.61,635.12&#xA;&#x9;&#x9;&#x9;&#x9;&#x9;c0.94-2.77,1.55-5.67,1.8-8.66l-5.97-2.89c0.01-0.97-0.03-1.94-0.12-2.92c-0.02-0.34-0.07-0.67-0.11-1.01l5.62-3.55&#xA;&#x9;&#x9;&#x9;&#x9;&#x9;c-0.58-2.95-1.51-5.77-2.75-8.4l-6.64,0.48c-0.65-1.15-1.37-2.25-2.16-3.3l3.09-5.87c-1.95-2.22-4.17-4.2-6.59-5.9l-5.5,3.73&#xA;&#x9;&#x9;&#x9;&#x9;&#x9;c-1.13-0.66-2.3-1.26-3.51-1.78l-0.26-6.63c-2.76-0.94-5.67-1.55-8.66-1.81l-2.89,5.98c-0.97-0.01-1.94,0.03-2.92,0.11&#xA;&#x9;&#x9;&#x9;&#x9;&#x9;c-0.34,0.03-0.68,0.07-1.01,0.11l-3.55-5.62c-2.95,0.59-5.77,1.52-8.41,2.75l0.48,6.64c-1.15,0.65-2.25,1.37-3.3,2.16&#xA;&#x9;&#x9;&#x9;&#x9;&#x9;l-5.88-3.09c-2.22,1.95-4.2,4.17-5.89,6.59l3.73,5.5c-0.67,1.13-1.27,2.3-1.79,3.51l-6.63,0.26c-0.94,2.77-1.55,5.67-1.8,8.66&#xA;&#x9;&#x9;&#x9;&#x9;&#x9;l5.97,2.89c-0.01,0.97,0.03,1.94,0.11,2.92c0.03,0.34,0.07,0.67,0.12,1.01l-5.62,3.55c0.59,2.95,1.52,5.77,2.75,8.4l6.63-0.48&#xA;&#x9;&#x9;&#x9;&#x9;&#x9;c0.65,1.15,1.37,2.25,2.16,3.3l-3.09,5.87c1.95,2.23,4.17,4.2,6.59,5.9l5.5-3.73c1.13,0.67,2.3,1.27,3.51,1.79l0.26,6.63&#xA;&#x9;&#x9;&#x9;&#x9;&#x9;c2.76,0.94,5.66,1.55,8.65,1.8l2.9-5.98c0.96,0.01,1.94-0.03,2.92-0.11c0.34-0.03,0.67-0.07,1-0.12l3.55,5.63&#xA;&#x9;&#x9;&#x9;&#x9;&#x9;c2.96-0.59,5.77-1.52,8.41-2.75l-0.48-6.64c1.14-0.65,2.25-1.37,3.3-2.16l5.87,3.09c2.22-1.95,4.2-4.17,5.89-6.59l-3.73-5.5&#xA;&#x9;&#x9;&#x9;&#x9;&#x9;c0.66-1.13,1.26-2.3,1.79-3.51L1613.61,635.12z M1578.71,644.97c-11.94,0-21.66-9.72-21.66-21.66&#xA;&#x9;&#x9;&#x9;&#x9;&#x9;c0-11.94,9.71-21.66,21.66-21.66c11.94,0,21.66,9.72,21.66,21.66C1600.37,635.25,1590.65,644.97,1578.71,644.97z"></path>
&#x9;&#x9;&#x9;&#x9;<path fill="#71AFD8" stroke="#2D5FBB" stroke-width="0.509" stroke-miterlimit="10" d="M1558.6,623.31&#xA;&#x9;&#x9;&#x9;&#x9;&#x9;c0,11.09,9.02,20.11,20.11,20.11c11.09,0,20.11-9.02,20.11-20.11c0-11.09-9.02-20.11-20.11-20.11&#xA;&#x9;&#x9;&#x9;&#x9;&#x9;C1567.62,603.2,1558.6,612.22,1558.6,623.31z M1593.85,621.99c0.73,8.36-5.46,15.73-13.81,16.46&#xA;&#x9;&#x9;&#x9;&#x9;&#x9;c-8.36,0.73-15.73-5.46-16.46-13.82c-0.72-8.36,5.46-15.73,13.82-16.45C1585.75,607.45,1593.12,613.64,1593.85,621.99z"></path>
&#x9;&#x9;&#x9;&#x9;<path fill="#71AFD8" stroke="#2D5FBB" stroke-width="0.509" stroke-miterlimit="10" d="M1617.05,652.21&#xA;&#x9;&#x9;&#x9;&#x9;&#x9;c-0.2,9.5,7.37,17.4,16.87,17.59c9.5,0.2,17.4-7.37,17.59-16.87c0.2-9.5-7.37-17.4-16.87-17.6&#xA;&#x9;&#x9;&#x9;&#x9;&#x9;C1625.14,635.14,1617.25,642.71,1617.05,652.21z M1643.37,646.94c2.96,5,1.3,11.45-3.7,14.41c-5.06,2.99-11.61,1.26-14.51-3.89&#xA;&#x9;&#x9;&#x9;&#x9;&#x9;c-2.73-4.83-1.09-11.19,3.62-14.11C1633.8,640.24,1640.37,641.88,1643.37,646.94z"></path>
&#x9;&#x9;&#x9;&#x9;<path fill="#71AFD8" stroke="#2D5FBB" stroke-width="0.509" stroke-miterlimit="10" d="M1661.99,655.31&#xA;&#x9;&#x9;&#x9;&#x9;&#x9;c0.19-2.01,0.18-4.03-0.06-6.05l-4.69-1.12c-0.25-1.23-0.59-2.46-1.03-3.66l3.44-3.39c-0.41-0.91-0.88-1.81-1.4-2.69&#xA;&#x9;&#x9;&#x9;&#x9;&#x9;c-0.52-0.87-1.08-1.71-1.68-2.52l-4.63,1.38c-0.84-0.97-1.75-1.86-2.71-2.66l1.28-4.65c-1.66-1.18-3.42-2.17-5.27-2.97&#xA;&#x9;&#x9;&#x9;&#x9;&#x9;l-3.32,3.51c-1.2-0.41-2.43-0.73-3.67-0.95l-1.23-4.68c-2-0.19-4.02-0.17-6.03,0.07l-1.13,4.69c-1.23,0.24-2.45,0.59-3.65,1.03&#xA;&#x9;&#x9;&#x9;&#x9;&#x9;l-3.39-3.43c-0.9,0.41-1.81,0.87-2.69,1.39c-0.88,0.52-1.71,1.08-2.52,1.68l1.38,4.63c-0.97,0.84-1.86,1.75-2.66,2.71&#xA;&#x9;&#x9;&#x9;&#x9;&#x9;l-4.65-1.28c-1.19,1.65-2.17,3.42-2.97,5.26l3.51,3.33c-0.41,1.2-0.72,2.43-0.94,3.67l-4.67,1.23c-0.2,2-0.18,4.03,0.06,6.04&#xA;&#x9;&#x9;&#x9;&#x9;&#x9;l4.7,1.12c0.24,1.24,0.58,2.46,1.02,3.66l-3.43,3.39c0.41,0.91,0.87,1.81,1.39,2.68c0.52,0.88,1.08,1.72,1.68,2.52l4.63-1.38&#xA;&#x9;&#x9;&#x9;&#x9;&#x9;c0.84,0.97,1.75,1.86,2.71,2.66l-1.27,4.66c1.65,1.18,3.41,2.18,5.26,2.96l3.33-3.51c1.2,0.42,2.42,0.73,3.67,0.94l1.22,4.68&#xA;&#x9;&#x9;&#x9;&#x9;&#x9;c2,0.19,4.03,0.18,6.04-0.06l1.12-4.69c1.23-0.24,2.45-0.59,3.66-1.03l3.41,3.44c0.9-0.41,1.8-0.87,2.68-1.39&#xA;&#x9;&#x9;&#x9;&#x9;&#x9;c0.88-0.52,1.71-1.08,2.51-1.68l-1.38-4.63c0.97-0.84,1.86-1.75,2.66-2.71l4.65,1.28c1.18-1.65,2.18-3.42,2.96-5.26l-3.51-3.33&#xA;&#x9;&#x9;&#x9;&#x9;&#x9;c0.41-1.19,0.73-2.42,0.95-3.67L1661.99,655.31z M1633.91,670.56c-9.91-0.21-17.81-8.44-17.6-18.36&#xA;&#x9;&#x9;&#x9;&#x9;&#x9;c0.2-9.91,8.44-17.81,18.35-17.6c9.91,0.21,17.81,8.44,17.6,18.36C1652.06,662.87,1643.83,670.76,1633.91,670.56z"></path>
&#x9;&#x9;&#x9;&#x9;<path fill="#18469D" d="M1557.05,623.31c0,11.94,9.71,21.66,21.66,21.66c11.94,0,21.66-9.72,21.66-21.66&#xA;&#x9;&#x9;&#x9;&#x9;&#x9;c0-11.94-9.71-21.66-21.66-21.66C1566.77,601.65,1557.05,611.37,1557.05,623.31z M1598.82,623.31&#xA;&#x9;&#x9;&#x9;&#x9;&#x9;c0,11.09-9.02,20.11-20.11,20.11c-11.09,0-20.11-9.02-20.11-20.11c0-11.09,9.02-20.11,20.11-20.11&#xA;&#x9;&#x9;&#x9;&#x9;&#x9;C1589.8,603.2,1598.82,612.22,1598.82,623.31z"></path>
&#x9;&#x9;&#x9;&#x9;<path fill="#18469D" d="M1616.31,652.2c-0.21,9.91,7.69,18.15,17.6,18.36c9.92,0.21,18.15-7.69,18.36-17.6&#xA;&#x9;&#x9;&#x9;&#x9;&#x9;c0.2-9.91-7.69-18.15-17.6-18.36C1624.75,634.39,1616.51,642.29,1616.31,652.2z M1651.52,652.94&#xA;&#x9;&#x9;&#x9;&#x9;&#x9;c-0.2,9.5-8.09,17.07-17.59,16.87c-9.5-0.2-17.07-8.09-16.87-17.59c0.2-9.5,8.09-17.07,17.59-16.87&#xA;&#x9;&#x9;&#x9;&#x9;&#x9;C1644.15,635.54,1651.72,643.44,1651.52,652.94z"></path>
&#x9;&#x9;&#x9;</g>
&#x9;&#x9;</g>
&#x9;</g>
</g>

<g id="part_4">
&#x9;<g>
&#x9;&#x9;
&#x9;&#x9;&#x9;<rect x="0" y="0" transform="matrix(1 4.174457e-03 -4.174457e-03 1 2.2626 -4.0028)" fill="none" stroke="#9ac7fd" stroke-width="0.5" stroke-miterlimit="10" width="1920" height="1080"></rect>
&#x9;&#x9;
&#x9;&#x9;&#x9;<rect x="520" y="-320" transform="matrix(-4.174457e-03 1 -1 -4.174457e-03 1504.0028 -417.7374)" fill="none" stroke="#9ac7fd" stroke-width="0.5" stroke-miterlimit="10" width="880" height="1720"></rect>
&#x9;&#x9;<g>
&#x9;&#x9;&#x9;<g>
&#x9;&#x9;&#x9;&#x9;<line fill="none" stroke="#9ac7fd" stroke-width="0.5" stroke-miterlimit="10" x1="962.25" y1="0" x2="961.44" y2="195.7"></line>
&#x9;&#x9;&#x9;</g>
&#x9;&#x9;&#x9;<g>
&#x9;&#x9;&#x9;&#x9;<line fill="none" stroke="#9ac7fd" stroke-width="0.5" stroke-miterlimit="10" x1="958.56" y1="884.3" x2="957.75" y2="1080"></line>
&#x9;&#x9;&#x9;</g>
&#x9;&#x9;&#x9;<g>
&#x9;&#x9;&#x9;&#x9;
&#x9;&#x9;&#x9;&#x9;&#x9;<line fill="none" stroke="#9ac7fd" stroke-width="0.5" stroke-miterlimit="10" x1="1724.3" y1="543.19" x2="1919.99" y2="544.01"></line>
&#x9;&#x9;&#x9;</g>
&#x9;&#x9;&#x9;<g>
&#x9;&#x9;&#x9;&#x9;<line fill="none" stroke="#9ac7fd" stroke-width="0.5" stroke-miterlimit="10" x1="0.01" y1="535.99" x2="195.7" y2="536.81"></line>
&#x9;&#x9;&#x9;</g>
&#x9;&#x9;</g>
&#x9;</g>
</g>


</g>
</svg>