<?xml version="1.0"?>
<svg xmlns="http://www.w3.org/2000/svg" xmlns:xlink="http://www.w3.org/1999/xlink" viewBox="0 0 1920 1080" width="1920" height="1080">
<defs><filter id="cardShadow" x="-12%" y="-12%" width="124%" height="124%"><feDropShadow dx="0" dy="12" stdDeviation="24" flood-color="#253761" flood-opacity="0.10"></feDropShadow></filter>
<filter id="softGlow" x="-40%" y="-40%" width="180%" height="180%"><feGaussianBlur stdDeviation="16"></feGaussianBlur></filter></defs>
<g isolation="isolate">
<g id="bg"><rect width="1920" height="1080" fill="#f5f6fa"></rect></g>

<text transform="translate(430,220)" font-family="DM Sans" font-weight="700" font-size="30" letter-spacing="5" fill="#3761b6">DEBRIEF, DON&#39;T DETONATE</text><ellipse cx="280" cy="410" rx="110" ry="15.4" fill="#5c8ed9" opacity="0.14" id="shadow_1"></ellipse><g id="row_positive" transform="translate(280,300) scale(0.8088) translate(-225.00,-225.00)"><defs xmlns="http://www.w3.org/2000/svg"><linearGradient id="ci17__linear-gradient" x1="381.98" y1="1154.96" x2="1550.32" y2="1093.69" gradientUnits="userSpaceOnUse"><stop offset="0.29" stop-color="#c9e5f8"></stop><stop offset="0.74" stop-color="#f3f7fb"></stop><stop offset="0.86" stop-color="#f3f7fa"></stop></linearGradient><radialGradient id="ci17__radial-gradient" cx="-717.23" cy="-1525.08" r="233.47" gradientTransform="matrix(0, 1.23, -0.7, 0, -359.71, 2000.69)" gradientUnits="userSpaceOnUse"><stop offset="0.14" stop-color="#cadbf0" stop-opacity="0.86"></stop><stop offset="0.21" stop-color="#cddcf1" stop-opacity="0.81"></stop><stop offset="0.33" stop-color="#d3e0f2" stop-opacity="0.68"></stop><stop offset="0.49" stop-color="#dee7f5" stop-opacity="0.47"></stop><stop offset="0.69" stop-color="#edf0f8" stop-opacity="0.18"></stop><stop offset="0.8" stop-color="#f6f5fa" stop-opacity="0"></stop></radialGradient><radialGradient id="ci17__radial-gradient-2" cx="-10548.07" cy="1557.28" r="542.2" gradientTransform="matrix(-1, 0.09, 0.09, 1, -10465.66, 427.99)" gradientUnits="userSpaceOnUse"><stop offset="0.14" stop-color="#f6f5fa"></stop><stop offset="0.24" stop-color="#f6f5fa" stop-opacity="0.99"></stop><stop offset="0.33" stop-color="#f6f5fa" stop-opacity="0.95"></stop><stop offset="0.41" stop-color="#f6f5fa" stop-opacity="0.88"></stop><stop offset="0.49" stop-color="#f6f5fa" stop-opacity="0.78"></stop><stop offset="0.56" stop-color="#f6f5fa" stop-opacity="0.66"></stop><stop offset="0.63" stop-color="#f6f5fa" stop-opacity="0.5"></stop><stop offset="0.7" stop-color="#f6f5fa" stop-opacity="0.32"></stop><stop offset="0.77" stop-color="#f6f5fa" stop-opacity="0.11"></stop><stop offset="0.8" stop-color="#f6f5fa" stop-opacity="0"></stop></radialGradient><linearGradient id="ci17__linear-gradient-2" x1="-10852.58" y1="1534.85" x2="-10787.12" y2="1883.45" gradientTransform="matrix(-1, 0.09, 0.09, 1, -10465.66, 427.99)" gradientUnits="userSpaceOnUse"><stop offset="0" stop-color="#c3e0f7"></stop><stop offset="0.39" stop-color="#e3ebf2" stop-opacity="0.86"></stop><stop offset="0.77" stop-color="#cfe6f7"></stop><stop offset="1" stop-color="#dbddf9"></stop></linearGradient><linearGradient id="ci17__linear-gradient-3" x1="6069.56" y1="2240.88" x2="6070.06" y2="2245.68" gradientTransform="translate(-6181.47 -311.45) rotate(-8.8)" gradientUnits="userSpaceOnUse"><stop offset="0.1" stop-color="#c7c0f6"></stop><stop offset="0.61" stop-color="#ada6f8"></stop><stop offset="0.96" stop-color="#c7c0f6"></stop></linearGradient><linearGradient xmlns:xlink="http://www.w3.org/1999/xlink" id="ci17__linear-gradient-4" x1="6069.86" y1="2238.99" x2="6069.88" y2="2239.15" xlink:href="#ci17__linear-gradient-3"></linearGradient><linearGradient id="ci17__linear-gradient-5" x1="883.38" y1="187.85" x2="1031.22" y2="187.85" gradientUnits="userSpaceOnUse"><stop offset="0" stop-color="#e9e8fa"></stop><stop offset="1" stop-color="#b3d2ff"></stop></linearGradient><linearGradient xmlns:xlink="http://www.w3.org/1999/xlink" id="ci17__linear-gradient-6" x1="147.82" y1="618.45" x2="295.66" y2="618.45" xlink:href="#ci17__linear-gradient-5"></linearGradient><linearGradient id="ci17__linear-gradient-7" x1="1147.05" y1="264.58" x2="1147.05" y2="1125.3" gradientUnits="userSpaceOnUse"><stop offset="0.29" stop-color="#c9e5f8"></stop><stop offset="0.34" stop-color="#cbe6f8" stop-opacity="0.95"></stop><stop offset="0.42" stop-color="#d1e8f9" stop-opacity="0.81"></stop><stop offset="0.54" stop-color="#dbedf9" stop-opacity="0.58"></stop><stop offset="0.67" stop-color="#e7f2fa" stop-opacity="0.28"></stop><stop offset="0.79" stop-color="#f3f7fb" stop-opacity="0"></stop><stop offset="0.95" stop-color="#f3f7fa" stop-opacity="0"></stop></linearGradient><linearGradient xmlns:xlink="http://www.w3.org/1999/xlink" id="ci17__linear-gradient-8" x1="761.01" y1="264.58" x2="761.01" y2="1125.3" xlink:href="#ci17__linear-gradient-7"></linearGradient><linearGradient id="ci17__linear-gradient-9" x1="1660.56" y1="925.58" x2="1660.85" y2="1016.94" gradientUnits="userSpaceOnUse"><stop offset="0.19" stop-color="#c5e2f9"></stop><stop offset="0.3" stop-color="#d1e7f9"></stop><stop offset="0.53" stop-color="#e4eff9"></stop><stop offset="0.76" stop-color="#f0f4f9"></stop><stop offset="1" stop-color="#f4f6f9"></stop></linearGradient><linearGradient xmlns:xlink="http://www.w3.org/1999/xlink" id="ci17__linear-gradient-10" x1="1684.62" y1="925.5" x2="1684.91" y2="1016.86" xlink:href="#ci17__linear-gradient-9"></linearGradient><linearGradient xmlns:xlink="http://www.w3.org/1999/xlink" id="ci17__linear-gradient-11" x1="1676.32" y1="837.95" x2="1676.32" y2="945.35" xlink:href="#ci17__linear-gradient-9"></linearGradient><linearGradient xmlns:xlink="http://www.w3.org/1999/xlink" id="ci17__linear-gradient-12" x1="1874.74" y1="898.79" x2="2030.05" y2="762.54" gradientTransform="matrix(0.97, 0.24, -0.24, 0.97, 19.12, -428.91)" xlink:href="#ci17__linear-gradient-9"></linearGradient><linearGradient xmlns:xlink="http://www.w3.org/1999/xlink" id="ci17__linear-gradient-13" x1="1661.6" y1="834.15" x2="1661.6" y2="922.48" xlink:href="#ci17__linear-gradient-9"></linearGradient><linearGradient xmlns:xlink="http://www.w3.org/1999/xlink" id="ci17__linear-gradient-14" x1="1684" y1="834.15" x2="1684" y2="922.48" xlink:href="#ci17__linear-gradient-9"></linearGradient><linearGradient xmlns:xlink="http://www.w3.org/1999/xlink" id="ci17__linear-gradient-15" x1="1718.34" y1="931.19" x2="1611.88" y2="836.85" xlink:href="#ci17__linear-gradient-9"></linearGradient><linearGradient xmlns:xlink="http://www.w3.org/1999/xlink" id="ci17__linear-gradient-16" x1="1641.99" y1="913.3" x2="1794.89" y2="779.15" xlink:href="#ci17__linear-gradient-9"></linearGradient><linearGradient xmlns:xlink="http://www.w3.org/1999/xlink" id="ci17__linear-gradient-17" x1="1736.92" y1="908.16" x2="1634.05" y2="817.01" xlink:href="#ci17__linear-gradient-9"></linearGradient><linearGradient id="ci17__linear-gradient-18" x1="518.91" y1="-56.59" x2="490.24" y2="155.3" gradientTransform="matrix(0.22, -0.98, 0.98, 0.22, 1398.17, 1363.17)" gradientUnits="userSpaceOnUse"><stop offset="0.36" stop-color="#c5e2f9"></stop><stop offset="0.39" stop-color="#cfe6f9"></stop><stop offset="0.46" stop-color="#e0edf9"></stop><stop offset="0.54" stop-color="#ebf2f9"></stop><stop offset="0.66" stop-color="#f2f5f9"></stop><stop offset="1" stop-color="#f4f6f9"></stop></linearGradient><linearGradient xmlns:xlink="http://www.w3.org/1999/xlink" id="ci17__linear-gradient-19" x1="1474.74" y1="812.49" x2="1446.15" y2="1023.79" gradientTransform="matrix(1, 0, 0, 1, 0, 0)" xlink:href="#ci17__linear-gradient-18"></linearGradient><linearGradient xmlns:xlink="http://www.w3.org/1999/xlink" id="ci17__linear-gradient-20" x1="1496.41" y1="835.72" x2="1491.16" y2="909.74" gradientTransform="matrix(1, 0, 0, 1, 0, 0)" xlink:href="#ci17__linear-gradient-18"></linearGradient><linearGradient xmlns:xlink="http://www.w3.org/1999/xlink" id="ci17__linear-gradient-21" x1="1477.49" y1="834.38" x2="1472.24" y2="908.4" gradientTransform="matrix(1, 0, 0, 1, 0, 0)" xlink:href="#ci17__linear-gradient-18"></linearGradient><linearGradient xmlns:xlink="http://www.w3.org/1999/xlink" id="ci17__linear-gradient-22" x1="1428.91" y1="815.16" x2="1410.39" y2="952.01" gradientTransform="matrix(1, 0, 0, 1, 0, 0)" xlink:href="#ci17__linear-gradient-18"></linearGradient><linearGradient id="ci17__linear-gradient-23" x1="1418.74" y1="854.43" x2="1403.41" y2="967.74" gradientUnits="userSpaceOnUse"><stop offset="0" stop-color="#f4f6f9"></stop><stop offset="0.39" stop-color="#c5e2f9"></stop></linearGradient><linearGradient id="ci17__linear-gradient-24" x1="291.06" y1="182.54" x2="223.81" y2="241.88" gradientUnits="userSpaceOnUse"><stop offset="0.2" stop-color="#c5e2f9"></stop><stop offset="0.23" stop-color="#cfe6f9"></stop><stop offset="0.3" stop-color="#e0edf9"></stop><stop offset="0.39" stop-color="#ebf2f9"></stop><stop offset="0.52" stop-color="#f2f5f9"></stop><stop offset="0.87" stop-color="#f4f6f9"></stop></linearGradient><linearGradient xmlns:xlink="http://www.w3.org/1999/xlink" id="ci17__linear-gradient-25" x1="301.96" y1="176.56" x2="301.96" y2="319.74" xlink:href="#ci17__linear-gradient-24"></linearGradient><linearGradient xmlns:xlink="http://www.w3.org/1999/xlink" id="ci17__linear-gradient-26" x1="303.08" y1="185.72" x2="301.1" y2="257.37" xlink:href="#ci17__linear-gradient-24"></linearGradient><linearGradient xmlns:xlink="http://www.w3.org/1999/xlink" id="ci17__linear-gradient-27" x1="289.34" y1="196.58" x2="287.36" y2="268.23" xlink:href="#ci17__linear-gradient-24"></linearGradient><linearGradient xmlns:xlink="http://www.w3.org/1999/xlink" id="ci17__linear-gradient-28" x1="290.81" y1="182.26" x2="223.56" y2="241.6" xlink:href="#ci17__linear-gradient-24"></linearGradient><linearGradient xmlns:xlink="http://www.w3.org/1999/xlink" id="ci17__linear-gradient-29" x1="320.16" y1="171.22" x2="352.93" y2="241.83" xlink:href="#ci17__linear-gradient-24"></linearGradient><linearGradient xmlns:xlink="http://www.w3.org/1999/xlink" id="ci17__linear-gradient-30" x1="323.78" y1="202.53" x2="338.24" y2="233.69" xlink:href="#ci17__linear-gradient-24"></linearGradient><linearGradient id="ci17__linear-gradient-31" x1="185.03" y1="174.25" x2="242.34" y2="174.25" gradientUnits="userSpaceOnUse"><stop offset="0.2" stop-color="#c5e2f9"></stop><stop offset="0.34" stop-color="#d6e9f9"></stop><stop offset="0.53" stop-color="#e7f0f9"></stop><stop offset="0.74" stop-color="#f1f5f9"></stop><stop offset="1" stop-color="#f4f6f9"></stop></linearGradient><linearGradient xmlns:xlink="http://www.w3.org/1999/xlink" id="ci17__linear-gradient-32" x1="155.8" y1="154.46" x2="156.77" y2="270.38" xlink:href="#ci17__linear-gradient-31"></linearGradient><linearGradient xmlns:xlink="http://www.w3.org/1999/xlink" id="ci17__linear-gradient-33" x1="146.71" y1="147.62" x2="91.32" y2="235.93" xlink:href="#ci17__linear-gradient-31"></linearGradient><linearGradient xmlns:xlink="http://www.w3.org/1999/xlink" id="ci17__linear-gradient-34" x1="153.41" y1="150.54" x2="96.84" y2="240.73" xlink:href="#ci17__linear-gradient-31"></linearGradient><linearGradient xmlns:xlink="http://www.w3.org/1999/xlink" id="ci17__linear-gradient-35" x1="157.51" y1="147.36" x2="162.45" y2="209.33" xlink:href="#ci17__linear-gradient-24"></linearGradient><linearGradient xmlns:xlink="http://www.w3.org/1999/xlink" id="ci17__linear-gradient-36" x1="173.9" y1="146.52" x2="179" y2="210.38" xlink:href="#ci17__linear-gradient-24"></linearGradient><image id="ci17__image" width="5301" height="2393"></image></defs><g xmlns="http://www.w3.org/2000/svg" id="ci17__ch_2shadow"><ellipse cx="291.43" cy="340.19" rx="43.02" ry="7.01" fill="#1a4a9a" opacity="0.2"></ellipse></g>
<g xmlns="http://www.w3.org/2000/svg" id="ci17__ch_2bisep2"><path d="M282.08,175.93s-3.8-2.24-7.43,4.15-14.16,24.17-14.16,24.17a14,14,0,0,0,.35,11.74c3.11,6,6.56,5.35,6.56,5.35l14.68-14.67Z" stroke="#0840a5" stroke-linecap="round" stroke-linejoin="round" stroke-width="0.65" fill="url(#ci17__linear-gradient-24)"></path></g>
<g xmlns="http://www.w3.org/2000/svg" id="ci17__ch_2leg2"><path d="M299.21,323.48l-.13,9.85a14.09,14.09,0,0,1-9.07,1l-.13-1.17-1.43.26-.26,1.56s-11.53,1.94-19.18.26c0,0-.91-2.86.26-4.41s6.48-2.59,9.2-3.5,5.19-3.89,5.19-5.45,15.68,0,15.68,0Z" fill="#1b1959"></path><path d="M282.49,322.31l-2.72-71a13.17,13.17,0,0,1,12.05-11.15C302.71,239,301.68,260,301.68,260l-1.3,63.78S289.1,325.81,282.49,322.31Z" fill="#18469d"></path></g>
<g xmlns="http://www.w3.org/2000/svg" id="ci17__ch_2leg1"><path d="M311.66,324c0,.52-.39,11.41-.39,11.41s2.46,3.37,9.59,4.66,11.28-.65,11-2.85-6-9.07-6-9.07.13-5.45,0-5.06S311.66,324,311.66,324Z" fill="#1b1959"></path><path d="M279.71,251.57l-.48-8.55-.37-6.4,48.74-1.16v89.19c-7,4-18.41.25-18.41.25L301.68,260l-5-1.69" fill="#18469d"></path><path d="M327.6,234.43v7.32c-27.22,8.32-44.63,1.77-48.37.24l-.37-6.39Z" fill="#1b1959"></path><rect x="292.86" y="240.4" width="8.94" height="4.15" fill="#f4f6f9" stroke="#0840a5" stroke-miterlimit="10" stroke-width="0.65"></rect></g>
<g xmlns="http://www.w3.org/2000/svg" id="ci17__ch_2torso"><path d="M307,168.53c.75.09,1.53.2,2.34.32,13.46,2.08,17.26,4.84,17.26,4.84s2.07,58,2.42,60.43-.52,3.28-11.22,5.52-30.22,2.08-36.09-.34-5-6.74-4-9.84,1.21-24.69,0-30.91S275,184.22,274.83,182s2.24-4.84,2.24-4.84c3.66-3.52,9.54-6.19,11.91-7.18l1,4.07a10.92,10.92,0,0,0,7.37,1.91,8.86,8.86,0,0,0,6.59-3.29A45.59,45.59,0,0,0,307,168.53Z" stroke="#0840a5" stroke-linecap="round" stroke-linejoin="round" stroke-width="0.65" fill="url(#ci17__linear-gradient-25)"></path><polygon points="306.94 166.09 311.43 169.54 309.53 184.74 304 181.11 295.03 191.3 307.46 169.89 306.94 166.09" stroke="#0840a5" stroke-linecap="round" stroke-linejoin="round" stroke-width="0.65" fill="url(#ci17__linear-gradient-26)"></polygon><path d="M311,169.41l-1,5.18L323.3,178,326,173.3S315.79,168.25,311,169.41Z" fill="#18469d"></path><path d="M276.16,178.09l3.5,2.33s5.44-5.31,8.42-7L286.52,171S279.53,174.59,276.16,178.09Z" fill="#18469d"></path><polygon points="288.81 169.72 286.74 171.79 284.15 183.87 288.29 180.94 295.03 191.3 290.02 174.03 288.81 169.72" stroke="#0840a5" stroke-linecap="round" stroke-linejoin="round" stroke-width="0.65" fill="url(#ci17__linear-gradient-27)"></polygon></g>
<g xmlns="http://www.w3.org/2000/svg" id="ci17__ch_2arm2"><path d="M267.38,221.36c-.19.15-1.87,1.36-6.89,1.36-5.35,0-18.82-4.66-18.82-4.66L246,203.38s16.23-1.72,17.78,3.11c0,.07.05.13.07.19" stroke="#0840a5" stroke-linecap="round" stroke-linejoin="round" stroke-width="0.65" fill="url(#ci17__linear-gradient-28)"></path><path d="M237,188a2.29,2.29,0,0,1,3.58,2.34,10.79,10.79,0,0,0,0,4.74c.78,2.85,3.89,6.87,4.92,9.33s0,10.75-3.1,12.3-10.49,1.17-10.49,1.17l-1-17.49s3.63,0,3.89-.77-1.3-6.09.12-8.94A7.58,7.58,0,0,1,237,188Z" fill="#f4f6f9" stroke="#0840a5" stroke-miterlimit="10" stroke-width="0.65"></path><path d="M236.93,201.14s-6.87-2.33-9.46-.91-2.2,3.63-1.16,4.54,8.67,1.68,10.49.64S239.39,202.31,236.93,201.14Z" fill="#f4f6f9" stroke="#0840a5" stroke-miterlimit="10" stroke-width="0.65"></path><path d="M238.09,209.17s-.26,1.68-5.7,1.68c-2.46,0-7.25-.77-7.25-2.46s-.13-3.11,3.24-3S239.65,205.41,238.09,209.17Z" fill="#f4f6f9" stroke="#0840a5" stroke-miterlimit="10" stroke-width="0.65"></path><path d="M238.09,214.09a26.08,26.08,0,0,1-5.7,1,17.72,17.72,0,0,1-6.34-.78s-2.85-2.85.13-4.53,11-.26,12,1.68S238.09,214.09,238.09,214.09Z" fill="#f4f6f9" stroke="#0840a5" stroke-miterlimit="10" stroke-width="0.65"></path><path d="M237.57,217.72s.26,2.2-4.14,2.46-8.93-3-6.73-5.31S239.26,214.22,237.57,217.72Z" fill="#f4f6f9" stroke="#0840a5" stroke-miterlimit="10" stroke-width="0.65"></path></g>
<g xmlns="http://www.w3.org/2000/svg" id="ci17__ch_2_head"><path d="M299.61,164.88c-.17.1-.34.2-.52.29-7.24,3.86-15.84,1.45-18.33-3-1.9-3.44-3-11-2.89-24l.56-3.61s5.55-7.64,18.17-4,10.21,15.27,10.21,15.27l.31-.17c.92-.44,3.56-1.45,5.07.65,1.85,2.57-1,8.6-5.38,8.12" fill="none" stroke="#0840a5" stroke-miterlimit="10" stroke-width="0.65"></path><path d="M311.23,136.56s5.22-.17,5.3-3.54-1.36-3-6.11-5.23-16.15-9.48-19.45-11.65-9-1.21-12.62,1.2a6.63,6.63,0,0,0-2.73,7.88,5.46,5.46,0,0,0,2.17,2.65L296,129.48Z" fill="#f4f6f9" stroke="#0840a5" stroke-miterlimit="10" stroke-width="0.65"></path><path d="M301.5,136s-3.13,1.69-12.94,2-17.36-.24-17.61-1.44,7.72-4.75,7.72-4.75S295.79,129.64,301.5,136Z" fill="#f4f6f9" stroke="#0840a5" stroke-miterlimit="10" stroke-width="0.65"></path><path d="M310.74,137.6c0,.32.13,7.55.13,7.55l-1.23-.5h0a22.94,22.94,0,0,0-6.09,4.12l-.68.65v-6.19s-2-1-2.25-2.09,1.85-3.86,1-4.75a12.87,12.87,0,0,1-1.37-1.84l10.45,2.73Z" fill="#1b1959"></path><ellipse cx="291.01" cy="146.32" rx="0.84" ry="1.57" fill="#1b1959"></ellipse><ellipse cx="280.64" cy="146.32" rx="0.84" ry="1.57" fill="#1b1959"></ellipse><path d="M295.79,143a9.3,9.3,0,0,0-7.63-.81" fill="none" stroke="#0840a5" stroke-linecap="round" stroke-miterlimit="10" stroke-width="0.65"></path><path d="M283.74,142.66s-3.22-1.36-5.71.17" fill="none" stroke="#0840a5" stroke-linecap="round" stroke-miterlimit="10" stroke-width="0.65"></path><path d="M284,144.84s-.14,4.88-2.09,8.11a1.2,1.2,0,0,0,.39,1.68,5.58,5.58,0,0,0,4,.41" fill="none" stroke="#0840a5" stroke-linecap="round" stroke-miterlimit="10" stroke-width="0.65"></path><path d="M294.43,157.38a7.92,7.92,0,0,1-8,2.57,16.48,16.48,0,0,0,8-2.57Z" fill="#242058"></path><path d="M306.81,154.46v13a11.75,11.75,0,0,1-8.5,8.26c-7,1.69-8.38-2-8.38-2a38.45,38.45,0,0,1-1.39-7.2" fill="none" stroke="#0840a5" stroke-miterlimit="10" stroke-width="0.65"></path><path d="M311.23,140.25v-3.69s-7.8-11.1-33.68-9.09l-.08,4.83S290.25,129.16,311.23,140.25Z" fill="#18469d"></path><ellipse cx="283.45" cy="126.43" rx="3.01" ry="4.18" fill="#f4f6f9" stroke="#0840a5" stroke-miterlimit="10" stroke-width="0.65"></ellipse></g>
<g xmlns="http://www.w3.org/2000/svg" id="ci17__ch_2bisep1"><path d="M340.9,220.55c7-4.49,5.21-14.91,4-16.69-1.29-1.94-12.56-25.64-15.28-28.49a11.72,11.72,0,0,0-7-3.11c-7.51,7.25-1.68,21.5-1.68,21.5s6.39,11.93,6.22,12l4.86,9.08s2.81,5.27,5.11,6.26A3.35,3.35,0,0,0,340.9,220.55Z" stroke="#0840a5" stroke-linecap="round" stroke-linejoin="round" stroke-width="0.65" fill="url(#ci17__linear-gradient-29)"></path></g>
<g xmlns="http://www.w3.org/2000/svg" id="ci17__ch_2arm1"><path d="M307.42,195.81a1.41,1.41,0,0,0-1.34-1.35,3.92,3.92,0,0,0-4.15,2.67c-1.42,3.75.65,7.77.65,7.77H296.8a3.4,3.4,0,0,0-3.14,2,3.44,3.44,0,0,0-.27,1,4.25,4.25,0,0,0,1.29,3.37,2.54,2.54,0,0,0-1.16,2.59,4.09,4.09,0,0,0,1.68,2.72,2.37,2.37,0,0,0-.13,3.24,3.49,3.49,0,0,0,2.46,3.88c3,1,13.08-.13,15.28-1.55s2.85-5.18,2.85-5.18l-.39-6.74s-7.25-8.93-7.51-10.35C307.59,198.93,307.48,197,307.42,195.81Z" fill="#f4f6f9" stroke="#0840a5" stroke-miterlimit="10" stroke-width="0.65"></path><path d="M346,210.33c-.16,4.19-1.78,9.17-7.18,11.27l-24.35,1,.13-14.9,12.82-2.07,6.76-.91" stroke="#0840a5" stroke-linecap="round" stroke-linejoin="round" stroke-width="0.65" fill="url(#ci17__linear-gradient-30)"></path></g>
<g xmlns="http://www.w3.org/2000/svg" id="ci17__ch_1shadow"><ellipse cx="158.99" cy="343.39" rx="43.02" ry="7.01" fill="#1a4a9a" opacity="0.2"></ellipse></g>
<g xmlns="http://www.w3.org/2000/svg" id="ci17__ch_1leg1"><path d="M161.57,328.27v13.2s5.7.91,8.94,0v-1a5.29,5.29,0,0,1,3,.78c1.42.9,14.37,2.2,21.36.38a4.43,4.43,0,0,0,.39-3.75s.65-1.43-7-3.37-9.07-5.83-9.46-7.64S161.57,328.27,161.57,328.27Z" fill="#1b1959"></path><path d="M156.78,253.29c.13.91,3.63,75.75,3.63,75.75s13.33,3.37,19.94-.9l3.37-89L156,238.4Z" fill="#18469d"></path></g>
<g xmlns="http://www.w3.org/2000/svg" id="ci17__ch_1leg2"><path d="M123,328.78s-2.07,7.39-2.85,9.59-3.23,7.25-.51,9.45,10.74,2.33,14.24.78,4.92-3.37,4.79-4.41-.13-15.79-.26-15S123,328.78,123,328.78Z" fill="#1b1959"></path><path d="M168.72,237.86s0,0,0,0c-.38.65-41.56,1.16-41.56,1.16s-.39,40.15-1.95,57.11-4,33.54-4,33.54,12.82,5.18,19.55.26l17-74.33,8-3.63s.09-.42.25-1.12" fill="#18469d"></path></g>
<g xmlns="http://www.w3.org/2000/svg" id="ci17__ch_1hand1"><path d="M256.84,184.31a11.21,11.21,0,0,0,3.54-3.28c1.12-1.9.77-7.34.77-7.34s-10.44.09-10.44.44v5.35Z" fill="#f4f6f9" stroke="#0840a5" stroke-linecap="round" stroke-miterlimit="10" stroke-width="0.65"></path><path d="M272,169.12c-.18-.21-32.8-.35-32.8-.35s-2.16,6-1,8.81,14.68,8.37,17.26,8.11,2.85-1.9,1.56-2.85-4.92-3.1-3.8-5.26c.73-1.41,2.6-3,7.34-2.76C267.11,175.16,276.43,174.3,272,169.12Z" fill="#f4f6f9" stroke="#0840a5" stroke-linecap="round" stroke-miterlimit="10" stroke-width="0.65"></path><path d="M240.82,183.75,187.08,186s-4.49-16.88-.17-23.39c0,0,36.3,5.13,53.78,5C240.69,167.56,244.32,174.43,240.82,183.75Z" stroke="#0840a5" stroke-linecap="round" stroke-linejoin="round" stroke-width="0.65" fill="url(#ci17__linear-gradient-31)"></path><path d="M234.87,167.82s2.33,10.36-2.08,16.19" fill="none" stroke="#0840a5" stroke-linecap="round" stroke-miterlimit="10" stroke-width="0.69"></path></g>
<g xmlns="http://www.w3.org/2000/svg" id="ci17__ch_1torso"><path d="M187.47,181.89c0,7.92-.24,16.07-.73,20-1,8.29-1.21,38-1.21,38-3.11,3.62-15.2,6.21-15.2,6.21l-3.1-7.08-4.15,6.74a85.5,85.5,0,0,1-38-3.28s2.24-23,2.93-31.6-2.07-32.8-1.21-42.3,20.64-9.67,20.64-9.67l.52-.19,21.66,23.81,8.13-22.24c4.58,1,8,1.93,8.91,2.18" stroke="#0840a5" stroke-linecap="round" stroke-linejoin="round" stroke-width="0.65" fill="url(#ci17__linear-gradient-32)"></path><path d="M170.51,187.07s.51,35.92-2.25,47.49" fill="none" stroke="#0840a5" stroke-linecap="round" stroke-miterlimit="10" stroke-width="0.69"></path><rect x="144.95" y="186.21" width="14.5" height="3.8" fill="#18469d"></rect><rect x="177.07" y="185.18" width="9.84" height="3.11" fill="#18469d"></rect><path d="M130.28,163.59l5.26,4.58a44.2,44.2,0,0,1,14-3.89l-1.81-5.44S133.73,159.71,130.28,163.59Z" fill="#f4f6f9" stroke="#0840a5" stroke-linecap="round" stroke-miterlimit="10" stroke-width="0.69"></path><line x1="139.34" y1="166.53" x2="133.82" y2="161.26" fill="none" stroke="#0840a5" stroke-linecap="round" stroke-miterlimit="10" stroke-width="0.69"></line><path d="M177.33,160.4v5.78l11,1,.17-4.23S181,160.74,177.33,160.4Z" fill="#f4f6f9" stroke="#0840a5" stroke-linecap="round" stroke-miterlimit="10" stroke-width="0.69"></path></g>
<g xmlns="http://www.w3.org/2000/svg" id="ci17__ch_1bisep1"><path d="M129.62,163.89c-1.62,1.07-4.25,3.34-8.45,8.08-9.19,10.36-20.46,26.41-20.46,26.41s-1.68,4.28,5.83,8.16,14.76-2.2,14.76-2.2l12.47-13.52" stroke="#0840a5" stroke-linecap="round" stroke-linejoin="round" stroke-width="0.65" fill="url(#ci17__linear-gradient-33)"></path></g>
<g xmlns="http://www.w3.org/2000/svg" id="ci17__ch_1arm1"><path d="M129.33,236.58s3.49,3.24,5,3.11,1.55-2.07,1.55-2.07-3.49-6.73-9.84-7.12-13.21,5.95-13.34,6.34.26,10.36,4.79,13.08,5.44.91,5.44.91,2.46,1.94,4.53.65a5.82,5.82,0,0,0,4.15-1.56s3.24-.39,4.27-2.46.39-4.53-.39-4.4a9.74,9.74,0,0,0-2.59,1.81S128.68,240.86,129.33,236.58Z" fill="#f4f6f9" stroke="#0840a5" stroke-linecap="round" stroke-miterlimit="10" stroke-width="0.65"></path><path d="M119.29,201.78c2.63,5.11,6.8,28.72,6.8,28.72s-3.63,4.53-14.24,5.7c0,0-6.22-12.82-9.33-22.92s-2.85-14.77-.77-16.45a.83.83,0,0,1,.15-.11" stroke="#0840a5" stroke-linecap="round" stroke-linejoin="round" stroke-width="0.65" fill="url(#ci17__linear-gradient-34)"></path><path d="M108.61,228.56s9.84.77,16.19-6" fill="none" stroke="#0840a5" stroke-linecap="round" stroke-miterlimit="10" stroke-width="0.69"></path></g>
<g xmlns="http://www.w3.org/2000/svg" id="ci17__ch_1_head"><path d="M162.9,153.58c.18.11.37.21.56.31,7.69,4.1,16.83,1.54,19.48-3.25,2-3.65,3.16-11.7,3.07-25.46l-.59-3.84s-5.9-8.12-19.31-4.28-10.86,16.24-10.86,16.24a2.64,2.64,0,0,0-.34-.18c-1-.47-3.77-1.55-5.38.69-2,2.73,1,9.14,5.72,8.63" fill="none" stroke="#0840a5" stroke-linecap="round" stroke-miterlimit="10" stroke-width="0.69"></path><path d="M150.55,123.47s-5.55-.17-5.64-3.76,1.46-3.16,6.5-5.55,17.17-10.08,20.68-12.39,9.57-1.28,13.41,1.28a7.05,7.05,0,0,1,2.91,8.37,5.88,5.88,0,0,1-2.31,2.82L166.79,116Z" fill="#f4f6f9" stroke="#0840a5" stroke-linecap="round" stroke-miterlimit="10" stroke-width="0.69"></path><path d="M160.89,122.87s3.34,1.8,13.76,2.14,18.46-.26,18.71-1.54-8.2-5-8.2-5S167,116.12,160.89,122.87Z" fill="#f4f6f9" stroke="#0840a5" stroke-linecap="round" stroke-miterlimit="10" stroke-width="0.69"></path><path d="M151.07,124.58c0,.34-.14,8-.14,8l1.31-.52h0a24.13,24.13,0,0,1,6.47,4.38l.73.68v-6.58s2.14-1.11,2.39-2.22-2-4.1-1.11-5a12.73,12.73,0,0,0,1.45-2l-11.1,2.9Z" fill="#1b1959"></path><path d="M155.25,142.5v13.87a12.46,12.46,0,0,0,9,8.77c7.43,1.8,10.28-3.85,10.28-3.85s.1-3.44.1-5.91" fill="none" stroke="#0840a5" stroke-linecap="round" stroke-miterlimit="10" stroke-width="0.69"></path><path d="M150.55,127.4v-3.93s8.29-11.79,35.81-9.65l.08,5.12S172.86,115.61,150.55,127.4Z" fill="#18469d"></path><ellipse cx="180.08" cy="112.71" rx="3.2" ry="4.44" fill="#f4f6f9" stroke="#0840a5" stroke-linecap="round" stroke-miterlimit="10" stroke-width="0.69"></ellipse><polygon points="165.16 167.56 167.66 169.98 170.94 169.98 172.58 167.05 168.52 163.16 167.4 163.07 165.16 167.56" fill="#18469d"></polygon><polygon points="166.54 181.55 167.66 169.98 170.94 169.98 173.44 182.76 171.63 186.81 166.54 181.55" fill="#18469d"></polygon><polygon points="155.05 153.23 151 156.94 162.56 171.88 167.4 163.07 155.05 155.65 155.05 153.23" fill="#f4f6f9" stroke="#0840a5" stroke-linecap="round" stroke-miterlimit="10" stroke-width="0.69"></polygon><polygon points="168.52 163.16 174.31 168.77 175.34 159.62 174.92 156.4 168.52 163.16" fill="#f4f6f9" stroke="#0840a5" stroke-linecap="round" stroke-miterlimit="10" stroke-width="0.69"></polygon><polygon points="152.38 156.17 147.46 158.93 152.03 174.38 159.11 171.71 158.25 178.96 171.63 186.81 152.38 156.17" stroke="#0840a5" stroke-linecap="round" stroke-linejoin="round" stroke-width="0.65" fill="url(#ci17__linear-gradient-35)"></polygon><path d="M175.08,157.16l-3.45,29.66,7.42-9.16L176.29,171l5-.61S177.5,156.3,175.08,157.16Z" stroke="#0840a5" stroke-linecap="round" stroke-linejoin="round" stroke-width="0.65" fill="url(#ci17__linear-gradient-36)"></path></g>
<g xmlns="http://www.w3.org/2000/svg" id="ci17__ch_1eye1"><ellipse cx="172.04" cy="133.85" rx="0.9" ry="1.67" fill="#1b1959"></ellipse></g>
<g xmlns="http://www.w3.org/2000/svg" id="ci17__ch_1eye2"><ellipse cx="183.07" cy="133.85" rx="0.9" ry="1.67" fill="#1b1959"></ellipse></g>
<g xmlns="http://www.w3.org/2000/svg" id="ci17__ch_1eyebrow1"><path d="M179.78,130s3.41-1.46,6.06.17" fill="none" stroke="#0840a5" stroke-linecap="round" stroke-miterlimit="10" stroke-width="0.69"></path></g>
<g xmlns="http://www.w3.org/2000/svg" id="ci17__ch_1eyebrow2"><path d="M168.42,129.45s3.41-1.45,6.06.18" fill="none" stroke="#0840a5" stroke-linecap="round" stroke-miterlimit="10" stroke-width="0.69"></path></g>
<g xmlns="http://www.w3.org/2000/svg" id="ci17__ch_1nose"><path d="M179.52,132.27s.14,5.2,2.22,8.62a1.28,1.28,0,0,1-.41,1.79,6,6,0,0,1-4.2.44" fill="none" stroke="#0840a5" stroke-linecap="round" stroke-miterlimit="10" stroke-width="0.69"></path></g>
<g xmlns="http://www.w3.org/2000/svg" id="ci17__ch_1lip"><path d="M168.41,145.6a17.37,17.37,0,0,0,8.46,2.74,8.4,8.4,0,0,1-8.46-2.74Z" fill="#242058"></path></g>
<g xmlns="http://www.w3.org/2000/svg" id="ci17__icon3"><path d="M349.91,178.53a12,12,0,0,1-3.45-1.34,1.38,1.38,0,0,1-.75-1.63,2.87,2.87,0,0,0-2.74-3.37c-1.09,0-1.45-.29-1.75-1.3a8.81,8.81,0,0,1-.37-3,1.37,1.37,0,0,1,1-1.33,2.88,2.88,0,0,0,2-3.56,3.4,3.4,0,0,0-.23-.57,1.37,1.37,0,0,1,.19-1.6,10.85,10.85,0,0,1,2.56-2.17,1.21,1.21,0,0,1,1.57.2,2.65,2.65,0,0,0,3.64-.13,4.23,4.23,0,0,0,.51-.67,1.21,1.21,0,0,1,1.36-.57,11,11,0,0,1,3.35,1.36,1.38,1.38,0,0,1,.68,1.4,2.87,2.87,0,0,0,2.88,3.31,1.39,1.39,0,0,1,1.32,1,8.13,8.13,0,0,1,.55,3.3,1.36,1.36,0,0,1-1,1.39,2.81,2.81,0,0,0-2,2.66,3.42,3.42,0,0,0,.31,1.36,1.49,1.49,0,0,1-.22,1.77A11.3,11.3,0,0,1,357,177.1a1.23,1.23,0,0,1-1.63-.11,2.67,2.67,0,0,0-4.31.8,3.32,3.32,0,0,1-.64.66Zm2.2-7a3.58,3.58,0,1,0-4.1-3A3.6,3.6,0,0,0,352.11,171.52Z" fill="#71afd8"></path><path d="M371.36,150.11c0,.25,0,.51,0,.77a1.13,1.13,0,0,1-.8,1.13,2.29,2.29,0,0,0-1.33,3.31,1.12,1.12,0,0,1-.13,1.27,9.2,9.2,0,0,1-2,1.79,1,1,0,0,1-1.25-.1,2.13,2.13,0,0,0-3.48.63,1,1,0,0,1-1.16.53,8.47,8.47,0,0,1-2.66-1.08,1.07,1.07,0,0,1-.52-1.19,2.29,2.29,0,0,0-2.31-2.77,1.13,1.13,0,0,1-1.23-.88,6.71,6.71,0,0,1-.36-2.55,1.07,1.07,0,0,1,.83-1.1,2.36,2.36,0,0,0,1.4-3.35,1,1,0,0,1,.14-1.24,8.3,8.3,0,0,1,2.09-1.78.9.9,0,0,1,1.16.1,2.18,2.18,0,0,0,3.43-.57.91.91,0,0,1,1.1-.47,9,9,0,0,1,2.64,1.06,1.19,1.19,0,0,1,.61,1.25,2.29,2.29,0,0,0,2.11,2.57c.9.09,1.15.29,1.41,1.16,0,.12.09.23.13.35Zm-8.17,3.73a2.87,2.87,0,0,0,2.4-3.26,2.88,2.88,0,1,0-5.7.86A2.87,2.87,0,0,0,363.19,153.84Z" fill="#3660b7"></path><path d="M374,166.11c-.23.58-.44,1.16-.7,1.73a.72.72,0,0,1-.87.38,1.5,1.5,0,0,0-1.86,1.4.73.73,0,0,1-.56.68c-.56.12-1.12.22-1.69.29a.61.61,0,0,1-.66-.46,1.4,1.4,0,0,0-2.2-.85.61.61,0,0,1-.8-.13c-.38-.48-.76-1-1.1-1.5a.67.67,0,0,1,.09-.84,1.51,1.51,0,0,0-.35-2.39.68.68,0,0,1-.35-.88,12.3,12.3,0,0,1,.66-1.54.71.71,0,0,1,.85-.37,1.5,1.5,0,0,0,1.93-1.37.75.75,0,0,1,.6-.68c.51-.1,1-.19,1.54-.24s.66.11.82.55a1.4,1.4,0,0,0,1.95.82c.49-.22.69-.21,1,.22s.69.93,1,1.4l.08.45c-.09.15-.17.3-.26.44a1.53,1.53,0,0,0,.31,2.13l.44.37Zm-3.71-1.46a1.89,1.89,0,1,0-1.55,2.19A1.9,1.9,0,0,0,370.31,164.65Z" fill="#3660b7"></path></g>
<g xmlns="http://www.w3.org/2000/svg" id="ci17__icon2"><path d="M231.5,112.77a.31.31,0,0,0,.31-.31V108.2a.32.32,0,1,0-.63,0v4.26A.31.31,0,0,0,231.5,112.77Z" fill="#18469d"></path><path d="M224.21,114.5a.31.31,0,0,0,.27.15.32.32,0,0,0,.16,0,.3.3,0,0,0,.11-.42l-2.13-3.7a.31.31,0,0,0-.43-.11.3.3,0,0,0-.11.42Z" fill="#18469d"></path><path d="M215.49,117.62l3.7,2.13a.28.28,0,0,0,.15,0,.29.29,0,0,0,.27-.15.31.31,0,0,0-.11-.43l-3.69-2.14a.32.32,0,0,0-.43.12A.31.31,0,0,0,215.49,117.62Z" fill="#18469d"></path><path d="M217.78,126.5a.32.32,0,0,0-.32-.32H213.2a.32.32,0,1,0,0,.63h4.26A.31.31,0,0,0,217.78,126.5Z" fill="#18469d"></path><path d="M219.19,133.24l-3.7,2.13a.31.31,0,0,0-.11.43.32.32,0,0,0,.27.16.47.47,0,0,0,.16,0l3.69-2.14a.3.3,0,0,0,.11-.42A.31.31,0,0,0,219.19,133.24Z" fill="#18469d"></path><path d="M247.5,135.37l-3.69-2.13a.32.32,0,0,0-.43.12.3.3,0,0,0,.11.42l3.7,2.14a.42.42,0,0,0,.16,0,.33.33,0,0,0,.27-.16A.32.32,0,0,0,247.5,135.37Z" fill="#18469d"></path><path d="M249.8,126.18h-4.27a.32.32,0,0,0,0,.63h4.27a.32.32,0,0,0,0-.63Z" fill="#18469d"></path><path d="M243.65,119.79a.32.32,0,0,0,.16,0l3.69-2.13a.32.32,0,0,0-.31-.55l-3.7,2.14a.31.31,0,0,0-.11.43A.31.31,0,0,0,243.65,119.79Z" fill="#18469d"></path><path d="M238.36,114.61a.28.28,0,0,0,.15,0,.29.29,0,0,0,.27-.15l2.14-3.7a.31.31,0,0,0-.12-.42.3.3,0,0,0-.42.11l-2.14,3.7A.31.31,0,0,0,238.36,114.61Z" fill="#18469d"></path><path d="M238.17,141.67v-.06a9.28,9.28,0,0,1,2.53-6.43,12.67,12.67,0,0,0-9.18-21.33h0a12.65,12.65,0,0,0-9.25,21.28,9.48,9.48,0,0,1,2.58,6.47v.07a2.21,2.21,0,0,0,.67,1.58,1.27,1.27,0,0,0,.06,2.52,1.28,1.28,0,0,0-.18.64,1.26,1.26,0,0,0,1.17,1.26,1.2,1.2,0,0,0-.18.65,1.27,1.27,0,0,0,1.26,1.27h0l1,1.06a1.85,1.85,0,0,0,1.38.61h3a1.84,1.84,0,0,0,1.37-.61l1-1.06h0a1.27,1.27,0,0,0,1.27-1.27,1.29,1.29,0,0,0-.18-.65,1.26,1.26,0,0,0,1.16-1.26,1.19,1.19,0,0,0-.18-.64,1.27,1.27,0,0,0,.06-2.52A2.17,2.17,0,0,0,238.17,141.67Zm-4.26,8.56a1.26,1.26,0,0,1-.91.4h-3a1.24,1.24,0,0,1-.91-.4l-.49-.55h5.8Zm-8.45-8.56v-.07a10.09,10.09,0,0,0-2.75-6.9,12,12,0,0,1,8.79-20.23h0a12,12,0,0,1,8.72,20.28,9.94,9.94,0,0,0-2.7,6.86v.06a1.57,1.57,0,0,1-1.57,1.57H227A1.57,1.57,0,0,1,225.46,141.67Zm9.9,7.29h-7.73a.64.64,0,0,1,0-1.28h7.73a.64.64,0,0,1,0,1.28Zm1-1.91h-9.7a.64.64,0,0,1-.64-.64.64.64,0,0,1,.64-.64h9.7a.64.64,0,0,1,.64.64A.64.64,0,0,1,236.35,147.05Zm1-3.18a.64.64,0,0,1,.64.64.64.64,0,0,1-.64.64H225.67a.64.64,0,0,1,0-1.28h11.66Z" fill="#18469d"></path><path d="M228,117.5a.18.18,0,0,0,.09-.2.17.17,0,0,0-.21-.11l-.34.13a7.53,7.53,0,0,0-1,.46,9.54,9.54,0,0,0-3.93,4.12,11.42,11.42,0,0,0-1.13,4.28,1,1,0,1,0,2.06,0,10.67,10.67,0,0,1,.14-2.82A8.5,8.5,0,0,1,228,117.5Z" fill="#18469d"></path></g>
<g xmlns="http://www.w3.org/2000/svg" id="ci17__icon1"><path d="M206.35,231.2l3.52,2.78,1.8-2.41-3.26-2.78a4.3,4.3,0,0,1,6.22,3,3.94,3.94,0,0,1-.26,2.13l9.39,8.55a3.38,3.38,0,0,1,.72-.1,3.42,3.42,0,0,1,3.6,3.22,3.25,3.25,0,0,1-.3,1.5l-2.58-2.59-1.7,1.79,2.39,2.55a3.49,3.49,0,0,1-4.76-3,3,3,0,0,1,.1-1L212,236.21a4.57,4.57,0,0,1-1,.27,4.2,4.2,0,0,1-4.85-3.42A4,4,0,0,1,206.35,231.2Z" fill="#71afd8" stroke="#2d5fbb" stroke-miterlimit="10" stroke-width="0.27"></path></g></g><g id="table_header"><rect x="414" y="404" width="1272" height="420" rx="26" fill="#eef6fc" opacity="0.7"></rect><rect x="430" y="420" width="1240" height="388" rx="20" fill="#ffffff" stroke="#71afd8" stroke-width="2.5" filter="url(#cardShadow)"></rect><rect x="430" y="420" width="1240" height="88" rx="20" fill="#234a86"></rect><rect x="430" y="488" width="1240" height="20" fill="#234a86"></rect><text transform="translate(466,476)" font-family="DM Sans" font-weight="700" font-size="28" fill="#fff">Action</text><text transform="translate(896,476)" font-family="DM Sans" font-weight="700" font-size="28" fill="#fff">Behaviour Type</text><text transform="translate(1276,476)" font-family="DM Sans" font-weight="700" font-size="28" fill="#fff">Influence Style</text><line x1="860" y1="508" x2="860" y2="808" stroke="#e6ecf6" stroke-width="2"></line><line x1="1240" y1="508" x2="1240" y2="808" stroke="#e6ecf6" stroke-width="2"></line><text transform="translate(466,594)" font-family="DM Sans" font-weight="700" font-size="32" fill="#0840a5">Wait to debrief</text><text transform="translate(896,594)" font-family="DM Sans" font-weight="800" font-size="32" fill="#2482b7">Positive (+)</text><text transform="translate(1276,594)" font-family="DM Sans" font-weight="450" font-size="30" fill="#3a4a6b">Rational solving</text><rect x="430" y="658" width="1240" height="150" fill="#eef6fc"></rect><line x1="430" y1="658" x2="1670" y2="658" stroke="#e6ecf6" stroke-width="2"></line><text transform="translate(466,744)" font-family="DM Sans" font-weight="700" font-size="32" fill="#0840a5">Shout at crew</text><text transform="translate(896,744)" font-family="DM Sans" font-weight="800" font-size="32" fill="#ac4f55">Negative (−)</text><text transform="translate(1276,744)" font-family="DM Sans" font-weight="450" font-size="30" fill="#3a4a6b">Aggressive push</text></g><ellipse cx="1640" cy="988" rx="110" ry="15.4" fill="#5c8ed9" opacity="0.14" id="shadow_2"></ellipse><g id="row_negative" transform="translate(1640,880) scale(0.7229) translate(-1565.00,-890.00)"><defs xmlns="http://www.w3.org/2000/svg"><linearGradient id="cs17__linear-gradient" x1="381.98" y1="1154.96" x2="1550.32" y2="1093.69" gradientUnits="userSpaceOnUse"><stop offset="0.29" stop-color="#c9e5f8"></stop><stop offset="0.74" stop-color="#f3f7fb"></stop><stop offset="0.86" stop-color="#f3f7fa"></stop></linearGradient><radialGradient id="cs17__radial-gradient" cx="-717.23" cy="-1525.08" r="233.47" gradientTransform="matrix(0, 1.23, -0.7, 0, -359.71, 2000.69)" gradientUnits="userSpaceOnUse"><stop offset="0.14" stop-color="#cadbf0" stop-opacity="0.86"></stop><stop offset="0.21" stop-color="#cddcf1" stop-opacity="0.81"></stop><stop offset="0.33" stop-color="#d3e0f2" stop-opacity="0.68"></stop><stop offset="0.49" stop-color="#dee7f5" stop-opacity="0.47"></stop><stop offset="0.69" stop-color="#edf0f8" stop-opacity="0.18"></stop><stop offset="0.8" stop-color="#f6f5fa" stop-opacity="0"></stop></radialGradient><radialGradient id="cs17__radial-gradient-2" cx="-10548.07" cy="1557.28" r="542.2" gradientTransform="matrix(-1, 0.09, 0.09, 1, -10465.66, 427.99)" gradientUnits="userSpaceOnUse"><stop offset="0.14" stop-color="#f6f5fa"></stop><stop offset="0.24" stop-color="#f6f5fa" stop-opacity="0.99"></stop><stop offset="0.33" stop-color="#f6f5fa" stop-opacity="0.95"></stop><stop offset="0.41" stop-color="#f6f5fa" stop-opacity="0.88"></stop><stop offset="0.49" stop-color="#f6f5fa" stop-opacity="0.78"></stop><stop offset="0.56" stop-color="#f6f5fa" stop-opacity="0.66"></stop><stop offset="0.63" stop-color="#f6f5fa" stop-opacity="0.5"></stop><stop offset="0.7" stop-color="#f6f5fa" stop-opacity="0.32"></stop><stop offset="0.77" stop-color="#f6f5fa" stop-opacity="0.11"></stop><stop offset="0.8" stop-color="#f6f5fa" stop-opacity="0"></stop></radialGradient><linearGradient id="cs17__linear-gradient-2" x1="-10852.58" y1="1534.85" x2="-10787.12" y2="1883.45" gradientTransform="matrix(-1, 0.09, 0.09, 1, -10465.66, 427.99)" gradientUnits="userSpaceOnUse"><stop offset="0" stop-color="#c3e0f7"></stop><stop offset="0.39" stop-color="#e3ebf2" stop-opacity="0.86"></stop><stop offset="0.77" stop-color="#cfe6f7"></stop><stop offset="1" stop-color="#dbddf9"></stop></linearGradient><linearGradient id="cs17__linear-gradient-3" x1="6069.56" y1="2240.88" x2="6070.06" y2="2245.68" gradientTransform="translate(-6181.47 -311.45) rotate(-8.8)" gradientUnits="userSpaceOnUse"><stop offset="0.1" stop-color="#c7c0f6"></stop><stop offset="0.61" stop-color="#ada6f8"></stop><stop offset="0.96" stop-color="#c7c0f6"></stop></linearGradient><linearGradient xmlns:xlink="http://www.w3.org/1999/xlink" id="cs17__linear-gradient-4" x1="6069.86" y1="2238.99" x2="6069.88" y2="2239.15" xlink:href="#cs17__linear-gradient-3"></linearGradient><linearGradient id="cs17__linear-gradient-5" x1="883.38" y1="187.85" x2="1031.22" y2="187.85" gradientUnits="userSpaceOnUse"><stop offset="0" stop-color="#e9e8fa"></stop><stop offset="1" stop-color="#b3d2ff"></stop></linearGradient><linearGradient xmlns:xlink="http://www.w3.org/1999/xlink" id="cs17__linear-gradient-6" x1="147.82" y1="618.45" x2="295.66" y2="618.45" xlink:href="#cs17__linear-gradient-5"></linearGradient><linearGradient id="cs17__linear-gradient-7" x1="1147.05" y1="264.58" x2="1147.05" y2="1125.3" gradientUnits="userSpaceOnUse"><stop offset="0.29" stop-color="#c9e5f8"></stop><stop offset="0.34" stop-color="#cbe6f8" stop-opacity="0.95"></stop><stop offset="0.42" stop-color="#d1e8f9" stop-opacity="0.81"></stop><stop offset="0.54" stop-color="#dbedf9" stop-opacity="0.58"></stop><stop offset="0.67" stop-color="#e7f2fa" stop-opacity="0.28"></stop><stop offset="0.79" stop-color="#f3f7fb" stop-opacity="0"></stop><stop offset="0.95" stop-color="#f3f7fa" stop-opacity="0"></stop></linearGradient><linearGradient xmlns:xlink="http://www.w3.org/1999/xlink" id="cs17__linear-gradient-8" x1="761.01" y1="264.58" x2="761.01" y2="1125.3" xlink:href="#cs17__linear-gradient-7"></linearGradient><linearGradient id="cs17__linear-gradient-9" x1="1660.56" y1="925.58" x2="1660.85" y2="1016.94" gradientUnits="userSpaceOnUse"><stop offset="0.19" stop-color="#c5e2f9"></stop><stop offset="0.3" stop-color="#d1e7f9"></stop><stop offset="0.53" stop-color="#e4eff9"></stop><stop offset="0.76" stop-color="#f0f4f9"></stop><stop offset="1" stop-color="#f4f6f9"></stop></linearGradient><linearGradient xmlns:xlink="http://www.w3.org/1999/xlink" id="cs17__linear-gradient-10" x1="1684.62" y1="925.5" x2="1684.91" y2="1016.86" xlink:href="#cs17__linear-gradient-9"></linearGradient><linearGradient xmlns:xlink="http://www.w3.org/1999/xlink" id="cs17__linear-gradient-11" x1="1676.32" y1="837.95" x2="1676.32" y2="945.35" xlink:href="#cs17__linear-gradient-9"></linearGradient><linearGradient xmlns:xlink="http://www.w3.org/1999/xlink" id="cs17__linear-gradient-12" x1="1874.74" y1="898.79" x2="2030.05" y2="762.54" gradientTransform="matrix(0.97, 0.24, -0.24, 0.97, 19.12, -428.91)" xlink:href="#cs17__linear-gradient-9"></linearGradient><linearGradient xmlns:xlink="http://www.w3.org/1999/xlink" id="cs17__linear-gradient-13" x1="1661.6" y1="834.15" x2="1661.6" y2="922.48" xlink:href="#cs17__linear-gradient-9"></linearGradient><linearGradient xmlns:xlink="http://www.w3.org/1999/xlink" id="cs17__linear-gradient-14" x1="1684" y1="834.15" x2="1684" y2="922.48" xlink:href="#cs17__linear-gradient-9"></linearGradient><linearGradient xmlns:xlink="http://www.w3.org/1999/xlink" id="cs17__linear-gradient-15" x1="1718.34" y1="931.19" x2="1611.88" y2="836.85" xlink:href="#cs17__linear-gradient-9"></linearGradient><linearGradient xmlns:xlink="http://www.w3.org/1999/xlink" id="cs17__linear-gradient-16" x1="1641.99" y1="913.3" x2="1794.89" y2="779.15" xlink:href="#cs17__linear-gradient-9"></linearGradient><linearGradient xmlns:xlink="http://www.w3.org/1999/xlink" id="cs17__linear-gradient-17" x1="1736.92" y1="908.16" x2="1634.05" y2="817.01" xlink:href="#cs17__linear-gradient-9"></linearGradient><linearGradient id="cs17__linear-gradient-18" x1="518.91" y1="-56.59" x2="490.24" y2="155.3" gradientTransform="matrix(0.22, -0.98, 0.98, 0.22, 1398.17, 1363.17)" gradientUnits="userSpaceOnUse"><stop offset="0.36" stop-color="#c5e2f9"></stop><stop offset="0.39" stop-color="#cfe6f9"></stop><stop offset="0.46" stop-color="#e0edf9"></stop><stop offset="0.54" stop-color="#ebf2f9"></stop><stop offset="0.66" stop-color="#f2f5f9"></stop><stop offset="1" stop-color="#f4f6f9"></stop></linearGradient><linearGradient xmlns:xlink="http://www.w3.org/1999/xlink" id="cs17__linear-gradient-19" x1="1474.74" y1="812.49" x2="1446.15" y2="1023.79" gradientTransform="matrix(1, 0, 0, 1, 0, 0)" xlink:href="#cs17__linear-gradient-18"></linearGradient><linearGradient xmlns:xlink="http://www.w3.org/1999/xlink" id="cs17__linear-gradient-20" x1="1496.41" y1="835.72" x2="1491.16" y2="909.74" gradientTransform="matrix(1, 0, 0, 1, 0, 0)" xlink:href="#cs17__linear-gradient-18"></linearGradient><linearGradient xmlns:xlink="http://www.w3.org/1999/xlink" id="cs17__linear-gradient-21" x1="1477.49" y1="834.38" x2="1472.24" y2="908.4" gradientTransform="matrix(1, 0, 0, 1, 0, 0)" xlink:href="#cs17__linear-gradient-18"></linearGradient><linearGradient xmlns:xlink="http://www.w3.org/1999/xlink" id="cs17__linear-gradient-22" x1="1428.91" y1="815.16" x2="1410.39" y2="952.01" gradientTransform="matrix(1, 0, 0, 1, 0, 0)" xlink:href="#cs17__linear-gradient-18"></linearGradient><linearGradient id="cs17__linear-gradient-23" x1="1418.74" y1="854.43" x2="1403.41" y2="967.74" gradientUnits="userSpaceOnUse"><stop offset="0" stop-color="#f4f6f9"></stop><stop offset="0.39" stop-color="#c5e2f9"></stop></linearGradient><linearGradient id="cs17__linear-gradient-24" x1="291.06" y1="182.54" x2="223.81" y2="241.88" gradientUnits="userSpaceOnUse"><stop offset="0.2" stop-color="#c5e2f9"></stop><stop offset="0.23" stop-color="#cfe6f9"></stop><stop offset="0.3" stop-color="#e0edf9"></stop><stop offset="0.39" stop-color="#ebf2f9"></stop><stop offset="0.52" stop-color="#f2f5f9"></stop><stop offset="0.87" stop-color="#f4f6f9"></stop></linearGradient><linearGradient xmlns:xlink="http://www.w3.org/1999/xlink" id="cs17__linear-gradient-25" x1="301.96" y1="176.56" x2="301.96" y2="319.74" xlink:href="#cs17__linear-gradient-24"></linearGradient><linearGradient xmlns:xlink="http://www.w3.org/1999/xlink" id="cs17__linear-gradient-26" x1="303.08" y1="185.72" x2="301.1" y2="257.37" xlink:href="#cs17__linear-gradient-24"></linearGradient><linearGradient xmlns:xlink="http://www.w3.org/1999/xlink" id="cs17__linear-gradient-27" x1="289.34" y1="196.58" x2="287.36" y2="268.23" xlink:href="#cs17__linear-gradient-24"></linearGradient><linearGradient xmlns:xlink="http://www.w3.org/1999/xlink" id="cs17__linear-gradient-28" x1="290.81" y1="182.26" x2="223.56" y2="241.6" xlink:href="#cs17__linear-gradient-24"></linearGradient><linearGradient xmlns:xlink="http://www.w3.org/1999/xlink" id="cs17__linear-gradient-29" x1="320.16" y1="171.22" x2="352.93" y2="241.83" xlink:href="#cs17__linear-gradient-24"></linearGradient><linearGradient xmlns:xlink="http://www.w3.org/1999/xlink" id="cs17__linear-gradient-30" x1="323.78" y1="202.53" x2="338.24" y2="233.69" xlink:href="#cs17__linear-gradient-24"></linearGradient><linearGradient id="cs17__linear-gradient-31" x1="185.03" y1="174.25" x2="242.34" y2="174.25" gradientUnits="userSpaceOnUse"><stop offset="0.2" stop-color="#c5e2f9"></stop><stop offset="0.34" stop-color="#d6e9f9"></stop><stop offset="0.53" stop-color="#e7f0f9"></stop><stop offset="0.74" stop-color="#f1f5f9"></stop><stop offset="1" stop-color="#f4f6f9"></stop></linearGradient><linearGradient xmlns:xlink="http://www.w3.org/1999/xlink" id="cs17__linear-gradient-32" x1="155.8" y1="154.46" x2="156.77" y2="270.38" xlink:href="#cs17__linear-gradient-31"></linearGradient><linearGradient xmlns:xlink="http://www.w3.org/1999/xlink" id="cs17__linear-gradient-33" x1="146.71" y1="147.62" x2="91.32" y2="235.93" xlink:href="#cs17__linear-gradient-31"></linearGradient><linearGradient xmlns:xlink="http://www.w3.org/1999/xlink" id="cs17__linear-gradient-34" x1="153.41" y1="150.54" x2="96.84" y2="240.73" xlink:href="#cs17__linear-gradient-31"></linearGradient><linearGradient xmlns:xlink="http://www.w3.org/1999/xlink" id="cs17__linear-gradient-35" x1="157.51" y1="147.36" x2="162.45" y2="209.33" xlink:href="#cs17__linear-gradient-24"></linearGradient><linearGradient xmlns:xlink="http://www.w3.org/1999/xlink" id="cs17__linear-gradient-36" x1="173.9" y1="146.52" x2="179" y2="210.38" xlink:href="#cs17__linear-gradient-24"></linearGradient><image id="cs17__image" width="5301" height="2393"></image></defs><g xmlns="http://www.w3.org/2000/svg" id="cs17__ch4_bg"><rect x="1352.26" y="920" width="34.18" height="61.03" fill="#f4f6f9" stroke="#0840a5" stroke-miterlimit="10" stroke-width="0.75"></rect><rect x="1407.1" y="940.45" width="72.04" height="42.1" fill="#f4f6f9" stroke="#0840a5" stroke-miterlimit="10" stroke-width="0.75"></rect><path d="M1320.52,1019.6s-1.47-42,0-40.52,157.21,0,157.21,0l29.79,11.72H1590l36.62,30.76H1320" fill="#f4f6f9" stroke="#0840a5" stroke-miterlimit="10" stroke-width="0.75"></path><rect x="1414.26" y="952.39" width="13.67" height="10.85" fill="#18469d"></rect><rect x="1434.23" y="951.74" width="14.76" height="11.28" fill="#18469d"></rect><circle cx="1353.83" cy="998.07" r="3.8" fill="#18469d"></circle><circle cx="1381.71" cy="998.07" r="3.8" fill="#18469d"></circle><circle cx="1412.31" cy="998.07" r="3.8" fill="#18469d"></circle><circle cx="1532.96" cy="999.26" r="3.8" fill="#18469d"></circle><circle cx="1560.74" cy="999.26" r="3.8" fill="#18469d"></circle><rect x="1541.94" y="964.85" width="8.7" height="25.22" transform="translate(3092.58 1954.91) rotate(-180)" fill="#c2e5f7" stroke="#0840a5" stroke-linecap="round" stroke-miterlimit="10" stroke-width="0.75"></rect><path d="M1527.95,951.73h5.8a5.3,5.3,0,0,1,5.3,5.3v2.27a5.3,5.3,0,0,1-5.3,5.3h-5.8a0,0,0,0,1,0,0V951.73A0,0,0,0,1,1527.95,951.73Z" transform="translate(3066.99 1916.33) rotate(-180)" fill="#c2e5f7" stroke="#0840a5" stroke-linecap="round" stroke-miterlimit="10" stroke-width="0.75"></path><path d="M1534.68,968.38a54.33,54.33,0,0,1,16.49-.09c18.13,2.56,31.92,12.7,31.92,12.7l-.84-49.1c-8.78,7.76-20.88,11.84-30.68,14a103.42,103.42,0,0,1-16.89,2.33C1529.29,959.47,1534.68,968.38,1534.68,968.38Z" fill="#c2e5f7" stroke="#0840a5" stroke-linecap="round" stroke-miterlimit="10" stroke-width="0.75"></path><path d="M1576.37,956.58c.24,11.21,2.7,20.61,5.81,23.38a2.85,2.85,0,0,0,2,.84c4-.08,7-11.08,6.69-24.54s-3.77-24.31-7.76-24.23a3,3,0,0,0-2.09,1.11C1578.08,936.25,1576.13,945.58,1576.37,956.58Z" fill="#c2e5f7" stroke="#0840a5" stroke-linecap="round" stroke-miterlimit="10" stroke-width="0.75"></path><path d="M1576.37,956.58c.05,2.46.21,4.83.46,7.06.89,8,2.93,14.16,5.35,16.32,2.9-3.11,4.85-12.45,4.61-23.44-.25-11.22-2.71-20.61-5.82-23.38-2.4,2.58-4.15,9.44-4.54,18C1576.34,952.87,1576.33,954.7,1576.37,956.58Z" fill="#386ec1"></path><path d="M1576.37,956.58c.05,2.46.21,4.83.46,7.06a5.14,5.14,0,0,0,1.71.25c3.25-.07,5.82-3.06,5.74-6.7s-2.78-6.52-6-6.45a5.23,5.23,0,0,0-1.82.37C1576.34,952.87,1576.33,954.7,1576.37,956.58Z" fill="#c2e5f7" stroke="#0840a5" stroke-linecap="round" stroke-miterlimit="10" stroke-width="0.75"></path><path d="M1534.83,968.1a54.63,54.63,0,0,1,16.34-.08,23.42,23.42,0,0,1,.4-21.92,103,103,0,0,1-16.74,2.28C1529.5,959.4,1534.83,968.1,1534.83,968.1Z" fill="#386ec1"></path><rect x="1318.57" y="1020.58" width="502.89" height="8.79" fill="#f4f6f9" stroke="#0840a5" stroke-miterlimit="10" stroke-width="0.75"></rect><rect x="1318.57" y="952.21" width="502.89" height="8.79" fill="#f4f6f9" stroke="#0840a5" stroke-miterlimit="10" stroke-width="0.75"></rect><rect x="1608.14" y="961.05" width="7.37" height="60.61" fill="#f4f6f9" stroke="#0840a5" stroke-miterlimit="10" stroke-width="0.75"></rect><rect x="1524.35" y="961.05" width="7.37" height="60.61" fill="#f4f6f9" stroke="#0840a5" stroke-miterlimit="10" stroke-width="0.75"></rect><rect x="1392.31" y="961.05" width="7.37" height="60.61" fill="#f4f6f9" stroke="#0840a5" stroke-miterlimit="10" stroke-width="0.75"></rect><rect x="1716.05" y="961.05" width="7.37" height="60.61" fill="#f4f6f9" stroke="#0840a5" stroke-miterlimit="10" stroke-width="0.75"></rect><rect x="1777.05" y="961.05" width="7.37" height="60.61" fill="#f4f6f9" stroke="#0840a5" stroke-miterlimit="10" stroke-width="0.75"></rect></g>
<g xmlns="http://www.w3.org/2000/svg" id="cs17__ch4_leg2"><path d="M1650.1,1019.23s-.15,3.55-3.09,4.94-12,4-13,7.11.15,4.78.15,4.78a56,56,0,0,0,21-.77,4.37,4.37,0,0,1,2.93-1.7c1.85-.15,2.16,2.17,2.16,2.17s7.42.46,9.11-1.55c0,0,.47-15.13.31-14.51S1650.1,1019.23,1650.1,1019.23Z" fill="#1b1959"></path><path d="M1645.47,934.76c-.29.36,3.24,85.09,3.24,85.09s14.52,5.1,23.32,1.39c0,0,3.86-84.94,3.71-84.48S1656.12,921,1645.47,934.76Z" stroke="#0840a5" stroke-linecap="round" stroke-linejoin="round" stroke-width="0.75" fill="url(#cs17__linear-gradient-9)"></path><path d="M1647.71,986.81c3.09.89,15.76,2.6,25.46-1l-.46,9.18s-16,3.87-24.48.69Z" fill="#71afd8"></path></g>
<g xmlns="http://www.w3.org/2000/svg" id="cs17__ch4_leg1"><path d="M1687.47,1021.08v14.37s3.55,4.17,13.75,4.78,12.81-1.08,12.51-3.55-7.73-8.34-8-11.43-.62-5.25-.62-5.25Z" fill="#1b1959"></path><path d="M1668.1,946.93l7.64,3.89,9.11,71.35s15.75,4.17,23.32-.93l-.93-95s-45.53-3.07-45.87-2.62" stroke="#0840a5" stroke-linecap="round" stroke-linejoin="round" stroke-width="0.75" fill="url(#cs17__linear-gradient-10)"></path><path d="M1681,988.54c3.09.89,16.69,2.48,26.39-1.15l.17,8.37s-17,4.27-25.46,1.09Z" fill="#71afd8"></path></g>
<g xmlns="http://www.w3.org/2000/svg" id="cs17__ch4_torso"><path d="M1688.4,936.7c9.28-.63,19.53-1.33,20.75-1.88a3.3,3.3,0,0,0,1.93-3.35c-.46-4.78-1.74-18-2-22s-.62-42.27-.73-55.11a6.42,6.42,0,0,0-4.32-6,98.48,98.48,0,0,0-17-3.91c-16.06-2.47-22.39-1.54-22.39-1.54s-16.84,4.63-19,7.57-.62,20.23-.46,32.43-.77,33-2,37.52-2.47,10.82-.77,12.51c.91.92,20.09,2.4,33.55,3.59Z" stroke="#0840a5" stroke-linecap="round" stroke-linejoin="round" stroke-width="0.75" fill="url(#cs17__linear-gradient-11)"></path><path d="M1669.56,928.89s-.77-46.18,1.08-60.23" fill="#fafaff" stroke="#0840a5" stroke-linecap="round" stroke-miterlimit="10" stroke-width="0.75"></path><path d="M1702.2,848a63.14,63.14,0,0,0-2.76,11.64l-5.08-.24a96.21,96.21,0,0,1,2.83-12.6C1697.9,847,1700.69,847.55,1702.2,848Z" fill="#71afd8"></path><path d="M1656.57,845.8a52.36,52.36,0,0,0-2.16,9.49l-5.17.84s.58-3.87,1.57-8.11C1652.43,847.36,1654.9,846.37,1656.57,845.8Z" fill="#71afd8"></path></g>
<g xmlns="http://www.w3.org/2000/svg" id="cs17__ch4_bisep2"><path d="M1649.88,851.16s-8.33-4.3-13.49,11.91-12.6,47-1.88,48.68,12-19.7,12-19.7l5.42-34.41c.39-2.43.29-7.73-1.38-9.35Z" stroke="#0840a5" stroke-linecap="round" stroke-linejoin="round" stroke-width="0.75" fill="url(#cs17__linear-gradient-12)"></path><path d="M1648.13,879.23l-1,6.66a75.74,75.74,0,0,1-16-1.31l1.41-6.43C1636.57,879,1642,880.62,1648.13,879.23Z" fill="#71afd8"></path></g>
<g xmlns="http://www.w3.org/2000/svg" id="cs17__ch4_head"><polygon points="1665.54 856 1665.76 856.53 1670.64 868.66 1683.92 847.19 1663.07 846.88 1665.54 856" fill="#71afd8"></polygon><path d="M1687.65,823.6v17.49a15.28,15.28,0,0,1-11.07,10.75c-9.1,2.2-12.59-4.72-12.59-4.72V835.75S1673.41,822,1687.65,823.6Z" fill="#fdfdff" stroke="#0840a5" stroke-linecap="round" stroke-miterlimit="10" stroke-width="0.75"></path><path d="M1687.65,812.82s.15-.09.42-.22c1.18-.57,4.63-1.89,6.6.85,2.4,3.35-1.26,11.2-7,10.57a18.6,18.6,0,0,1-10.05,14c-9.42,5-20.62,1.88-23.87-4-2.47-4.48-3.87-14.34-3.76-31.2l.73-4.71s7.22-9.94,23.66-5.23S1687.65,812.82,1687.65,812.82Z" fill="#fdfdff" stroke="#0840a5" stroke-linecap="round" stroke-miterlimit="10" stroke-width="0.75"></path><path d="M1646.39,784.65s-1.54,3.55-.31,6.64a30.15,30.15,0,0,0,4.62,6.87l4.8-3.32a46.55,46.55,0,0,0,24.71.46s2.17,2.78,2.47,4.33a31.87,31.87,0,0,1,0,5.56,2.72,2.72,0,0,1,1.86,1.7c.46,1.39,0,8.8,0,8.8l2.31.31,6.49-3.86,1.24-15.91s.77-3.55-5.72-5.56a8.79,8.79,0,0,0-7.56-5.71c-5.87-.47-19.93-2-22.24-5.41a6.45,6.45,0,0,0-2.78,7.26S1647.63,783.57,1646.39,784.65Z" fill="#1b1959"></path><polygon points="1663.38 842.87 1658.44 846.11 1657.05 861.09 1666.16 856.77 1663.38 842.87" stroke="#0840a5" stroke-linecap="round" stroke-linejoin="round" stroke-width="0.75" fill="url(#cs17__linear-gradient-13)"></polygon><path d="M1692.41,845.65s-4.94-6.49-5.09-6-11.74,19.76-11.74,19.76,3.71-2.47,5.72-2,6.64,4.78,6.64,4.78Z" stroke="#0840a5" stroke-linecap="round" stroke-linejoin="round" stroke-width="0.75" fill="url(#cs17__linear-gradient-14)"></path><ellipse cx="1667.08" cy="813.5" rx="1.1" ry="2.04" fill="#1b1959"></ellipse><ellipse cx="1653.58" cy="813.5" rx="1.1" ry="2.04" fill="#1b1959"></ellipse><path d="M1663,807.31a12.11,12.11,0,0,0,10,.08" fill="#fafaff" stroke="#0840a5" stroke-linecap="round" stroke-miterlimit="10" stroke-width="0.75"></path><path d="M1650.09,807.69s4.12,1.92,7.43,0" fill="#fafaff" stroke="#0840a5" stroke-linecap="round" stroke-miterlimit="10" stroke-width="0.75"></path><path d="M1657.92,811.56s-.18,6.37-2.72,10.57a1.57,1.57,0,0,0,.51,2.19,7.28,7.28,0,0,0,5.14.54" fill="#fafaff" stroke="#0840a5" stroke-linecap="round" stroke-miterlimit="10" stroke-width="0.75"></path><path d="M1657.06,832.22a13.6,13.6,0,0,1,10.86-.85" fill="#1b1959"></path></g>
<g xmlns="http://www.w3.org/2000/svg" id="cs17__ch4_palm2"><path d="M1684.85,882.24a36.91,36.91,0,0,1,10.51.16,10.42,10.42,0,0,1,7.44,5.5l-1.45,7.54-12.85-1.26Z" fill="#fdfdff" stroke="#0840a5" stroke-linecap="round" stroke-miterlimit="10" stroke-width="0.75"></path></g>
<g xmlns="http://www.w3.org/2000/svg" id="cs17__ch4_palm1"><path d="M1647.48,876.43l.59,16s5.69,3.46,8.75,2.52,4.53-6.13,3.51-8.17c-.78-1.55-7-7-10.52-9.33C1648.69,876.74,1647.83,876.32,1647.48,876.43Z" fill="#fdfdff" stroke="#0840a5" stroke-linecap="round" stroke-miterlimit="10" stroke-width="0.75"></path><path d="M1650.79,878.27c-.58-.46-1.56-1.13-1.56-1.13s-5-3-8.32-2-4.6,3.85-4.08,5.49a3.68,3.68,0,0,0,.14,4.48s-.07,3.14,1.9,3.61a3.8,3.8,0,0,0,.09,1.38,1.73,1.73,0,0,0,2.55,1.13,6.12,6.12,0,0,1,2.47-.94c1.46-.07,4.52,2.52,4.52,2.52a4.11,4.11,0,0,0,.85-.8" fill="#fdfdff" stroke="#0840a5" stroke-linecap="round" stroke-miterlimit="10" stroke-width="0.75"></path><path d="M1647.12,886.17l-3-.06a2.81,2.81,0,0,0-1.44.37l-3.85,2.2" fill="#fdfdff" stroke="#0840a5" stroke-linecap="round" stroke-miterlimit="10" stroke-width="0.75"></path><path d="M1646.24,882.48l-3.22.06a3.06,3.06,0,0,0-1.25.3l-4.8,2.23" fill="#fdfdff" stroke="#0840a5" stroke-linecap="round" stroke-miterlimit="10" stroke-width="0.75"></path><path d="M1646.24,879l-3.79-.25a3.87,3.87,0,0,0-1.71.27l-3.91,1.55" fill="#fdfdff" stroke="#0840a5" stroke-linecap="round" stroke-miterlimit="10" stroke-width="0.75"></path></g>
<g xmlns="http://www.w3.org/2000/svg" id="cs17__ch4_arm2"><path d="M1701.9,894.48c-13.85-4.46-37.49-7.05-37.49-7.05l-3.79,14.76s33.12,14.52,52.83,10.91c.9-.38.56-.25.54-.31" stroke="#0840a5" stroke-linecap="round" stroke-linejoin="round" stroke-width="0.75" fill="url(#cs17__linear-gradient-15)"></path></g>
<g xmlns="http://www.w3.org/2000/svg" id="cs17__ch4_arm1"><path d="M1631.53,910.69c1.61,1.46,5.19,3.06,13,2,13.14-1.73,45-16.5,45-16.5s.44-13.19-6.57-16l-41.45,10.68a12.75,12.75,0,0,0-5.21,2.8" stroke="#0840a5" stroke-linecap="round" stroke-linejoin="round" stroke-width="0.75" fill="url(#cs17__linear-gradient-16)"></path></g>
<g xmlns="http://www.w3.org/2000/svg" id="cs17__ch4_bisep1"><path d="M1705.06,849.27l0-.63s6.07,2.23,10.74,12c4.55,9.48,10.67,43-2.59,52.5a3.35,3.35,0,0,1-2.46.58c-3-.48-10.41-2.47-11.67-10.53a122.82,122.82,0,0,0,4.8-29.87" stroke="#0840a5" stroke-linecap="round" stroke-linejoin="round" stroke-width="0.75" fill="url(#cs17__linear-gradient-17)"></path><path d="M1704,880.17a37.51,37.51,0,0,0,16.45,1.22l.47,7.5s-10.54.46-17.86-1.65Z" fill="#71afd8"></path></g>
<g xmlns="http://www.w3.org/2000/svg" id="cs17__ch3_hand"><path d="M1592.16,877.27a14,14,0,0,0,3.12-5.19c.7-2.69-1.62-9.13-1.62-9.13s-12.58,3.75-12.46,4.17l1.87,6.46Z" fill="#f4f6f9" stroke="#0840a5" stroke-miterlimit="10" stroke-width="0.75"></path><path d="M1605.19,853.62c-.28-.19-39.72,11-39.72,11s-.53,8,1.82,11,20.64,5,23.68,3.76,2.78-3.28.88-4-7-2-6.42-5c.39-2,2.08-4.54,7.89-5.9C1601.36,862.64,1612.32,858.34,1605.19,853.62Z" fill="#f4f6f9" stroke="#0840a5" stroke-miterlimit="10" stroke-width="0.75"></path><path d="M1569.41,885.12s4.56-15.92-.63-23.8c0,0-16.17,1.1-22.33.34s-34.93-10.75-42.8-13.93-10.08,2-13.13,3.75-4.61,27.75,5.68,32.9S1553.09,886,1569.41,885.12Z" stroke="#0840a5" stroke-linecap="round" stroke-linejoin="round" stroke-width="0.75" fill="url(#cs17__linear-gradient-18)"></path><path d="M1557.17,883.09c.24-3.93.62-14.53-1.58-21.23" fill="none" stroke="#0840a5" stroke-linecap="round" stroke-miterlimit="10" stroke-width="0.75"></path><path d="M1564.26,883.79c.18-4.49.34-15.46-2.14-21.91" fill="none" stroke="#0840a5" stroke-linecap="round" stroke-miterlimit="10" stroke-width="0.75"></path></g>
<g xmlns="http://www.w3.org/2000/svg" id="cs17__ch3_leg2"><path d="M1410,1024.09a18,18,0,0,1-1.39,6.78c-1.39,2.79-6.57,8.36-6.18,11.15s4.19,5.38,12,5.18,14.74-6,14.74-6,.4-18.53.4-17.73S1410,1024.09,1410,1024.09Z" fill="#1b1959"></path><path d="M1454.66,955.36l-23.31,71.32s-1.59,1.4-10.16,1.8-13-2.79-13-2.79,5.78-24.71,7.17-41.44c1-12.47,2.63-30.91,3.38-39.83,0,0,2.15-16.4,19.13-17S1454.66,955.36,1454.66,955.36Z" fill="#18469d"></path></g>
<g xmlns="http://www.w3.org/2000/svg" id="cs17__ch3_leg1"><path d="M1476.77,1024.89l-.4,16.53s7.77,1.6,12.55.2l1-1.39a27.07,27.07,0,0,0,5,1.79c4,1.2,20.32.6,21.52-.79s1.19-4.59-2.19-5.78-16.14-4.78-18.33-11.56S1476.77,1024.89,1476.77,1024.89Z" fill="#1b1959"></path><path d="M1491.42,946.16c1.31,7.82,3,18.69,3.28,23,.4,7,2.59,56.58,2.59,56.58-10,5.77-22.11.59-22.11.59a273.1,273.1,0,0,0-3.59-30.87c-3-17.34-9.16-40.64-9.16-40.64s-8.13-15.43,2-23.18,20.55-.59,24.13,3.28S1491.42,946.16,1491.42,946.16Z" fill="#18469d"></path></g>
<g xmlns="http://www.w3.org/2000/svg" id="cs17__ch3_pelvis"><path d="M1491.3,945.44c-.78-4.62-1.38-8-1.38-8l-20.12-8.36-47.21,3.18-3.39,7c0,.14-1.7,2.09-.21,2.75.75.34,35.65,13.45,35.65,13.45l0-.07,7.77-.59s0,.1.08.31Z" fill="#18469d"></path></g>
<g xmlns="http://www.w3.org/2000/svg" id="cs17__ch3_torso"><path d="M1511.4,851.31c-1.06-2.18-4-1.56-9.33-5.91-6.77-5.58-28.09-12.16-28.09-12.16s-27.69,0-29.48,1.4-15.74,45-21.72,67.33-7,37.85-7,37.85,26.9,10.36,49.41,7.77c0,0,5.18-9.16,7-12.55l3.79,12.55s14.34-2.59,19.12-6.17c0,0-4.38-23.11-2.39-25.7s2.79-.8,2.39-3.79-1-10-1-10l12.24-31.56" stroke="#0840a5" stroke-linecap="round" stroke-linejoin="round" stroke-width="0.75" fill="url(#cs17__linear-gradient-19)"></path><path d="M1501.07,844.64c0,.6-7.76,16.69-10.55,22.27s-6,11-6,11l14.35-9.76-1.4-6.78h6l0-15.93-1-5.18Z" stroke="#0840a5" stroke-linecap="round" stroke-linejoin="round" stroke-width="0.75" fill="url(#cs17__linear-gradient-20)"></path><path d="M1474,833.24l-6.57.4.8,22.11,9.76-1-4.39,8.17,11,14.94a119.52,119.52,0,0,0-1.59-18.93C1481.35,850.77,1474,833.24,1474,833.24Z" stroke="#0840a5" stroke-linecap="round" stroke-linejoin="round" stroke-width="0.75" fill="url(#cs17__linear-gradient-21)"></path><path d="M1455.85,867.51l-4.78,19.12s10,6.58,18.53,5.58l6.18-20.12Z" fill="#71afd8"></path><path d="M1454.18,872.67a45,45,0,0,0,20.59,4.47" fill="none" stroke="#0840a5" stroke-miterlimit="10" stroke-width="0.75"></path><path d="M1473.19,927.67a164.12,164.12,0,0,0,2-17.13c.2-3.19,5.58-15.14,7.37-20.92a51,51,0,0,0,2-11.75" fill="none" stroke="#0840a5" stroke-linecap="round" stroke-miterlimit="10" stroke-width="0.75"></path><path d="M1458.84,916.72c.6-.4,18.33,3.18,26.3-3.19" fill="none" stroke="#0840a5" stroke-linecap="round" stroke-miterlimit="10" stroke-width="0.75"></path><path d="M1461.43,926.48s20.32-1.4,24.31-5.18" fill="none" stroke="#0840a5" stroke-linecap="round" stroke-miterlimit="10" stroke-width="0.75"></path><ellipse cx="1476.87" cy="893.41" rx="0.7" ry="1" fill="#18469d"></ellipse><ellipse cx="1471.39" cy="908.15" rx="1.2" ry="0.8" fill="#18469d"></ellipse></g>
<g xmlns="http://www.w3.org/2000/svg" id="cs17__ch3_bisep1"><path d="M1448.13,834.05c-2-.18-7.06.22-17.18,6.17-13.54,8-30.08,23.7-33.47,33.07l-.1.3a12,12,0,0,0,4.19,13.17c7,5.81,18.62,1.79,18.62,1.79l3-5.4c3.3-3.49,18.2-13.64,22.75-17.51" stroke="#0840a5" stroke-linecap="round" stroke-linejoin="round" stroke-width="0.75" fill="url(#cs17__linear-gradient-22)"></path></g>
<g xmlns="http://www.w3.org/2000/svg" id="cs17__ch3_head"><path d="M1481.16,817.51l-7,16.33s1.6,10.76,8.77,15.54,10.56,4,14.14,3.78l5.38-12.94Z" fill="#fdfdff" stroke="#0840a5" stroke-miterlimit="10" stroke-width="0.75"></path><path d="M1477.57,797.19l.2,8.56,7,8.77s7-3.39,7-4.59S1495.3,798,1495.3,798l1-8s1.19-4.78.59-4.58S1477.57,797.19,1477.57,797.19Z" fill="#1b1959"></path><path d="M1487.32,838.06a30.61,30.61,0,0,0,17.54,7.93c9.37.8,11.36-2,12.75-4.18s4-9.56,6-18.33,2.79-19.92.8-28.69-15.74-12.55-23.31-9.36-9.76,8.17-9.76,13.35l-2.4,2.39-.59,8.17-3.39.59s-.8-4-3.78-5.17-9.37,1.79-7,8.56,7,5.38,7,5.38" fill="#fdfdff" stroke="#0840a5" stroke-linecap="round" stroke-miterlimit="10" stroke-width="0.75"></path><path d="M1477.08,796.19s-7.67-.24-7.79-5.19,2-4.36,9-7.66,23.7-13.92,28.54-17.1,13.21-1.77,18.51,1.77a9.74,9.74,0,0,1,4,11.56,8.07,8.07,0,0,1-3.18,3.89l-26.65,2.35Z" fill="#f4f6f9" stroke="#0840a5" stroke-miterlimit="10" stroke-width="0.75"></path><path d="M1491.34,795.37s4.6,2.47,19,2.94,25.47-.35,25.82-2.12-11.32-7-11.32-7S1499.71,786.05,1491.34,795.37Z" fill="#f4f6f9" stroke="#0840a5" stroke-miterlimit="10" stroke-width="0.75"></path><path d="M1477.08,801.61v-5.42s11.43-16.27,49.4-13.32l.12,7.07S1507.85,785.34,1477.08,801.61Z" fill="#18469d"></path><ellipse cx="1517.81" cy="781.33" rx="4.42" ry="6.13" fill="#f4f6f9" stroke="#0840a5" stroke-miterlimit="10" stroke-width="0.75"></ellipse></g>
<g xmlns="http://www.w3.org/2000/svg" id="cs17__ch3_arm1"><path d="M1410.83,919.9c-.38.46.4,5,3.59,12.35s7.12,12.11,11.15,10.91c0,0,5.31,2.84,7.47.3a4.39,4.39,0,0,0,4.41.15,4.88,4.88,0,0,0,1.72-2s2.91.9,4.33-1.42a4.25,4.25,0,0,0-.3-5c-.59-.9-6.2-9.12-6.2-9.12s3.44,1.87,5.31.15,1.72-3.58.82-4.48-14.49-9.64-14.49-9.64S1417.83,911.59,1410.83,919.9Z" fill="#fdfdff" stroke="#0840a5" stroke-linecap="round" stroke-miterlimit="10" stroke-width="0.75"></path><path d="M1432.07,932.7a36.59,36.59,0,0,0,7.1,8.89" fill="#fdfdff" stroke="#0840a5" stroke-linecap="round" stroke-miterlimit="10" stroke-width="0.75"></path><path d="M1427,935.62a31.59,31.59,0,0,0,6,7.84" fill="#fdfdff" stroke="#0840a5" stroke-linecap="round" stroke-miterlimit="10" stroke-width="0.75"></path><path d="M1422.29,937.78a28.18,28.18,0,0,0,3.3,5.61" fill="#fdfdff" stroke="#0840a5" stroke-linecap="round" stroke-miterlimit="10" stroke-width="0.75"></path><path d="M1422.59,883.52c0,.18,0,.28,0,.28s7.35,28.73,7.35,28.73c-4.19,4.78-19.73,10.56-19.73,10.56a57.65,57.65,0,0,1-8-15.34c-2.79-8.57-8.17-25.1-4.79-34.46a21.06,21.06,0,0,1,1-2.29" stroke="#0840a5" stroke-linecap="round" stroke-linejoin="round" stroke-width="0.75" fill="url(#cs17__linear-gradient-23)"></path><path d="M1403,909.44c.2-.3,15-3.88,22.71-11.25" fill="none" stroke="#0840a5" stroke-linecap="round" stroke-miterlimit="10" stroke-width="0.75"></path><path d="M1406.45,917.11s15.74-5.57,21.31-10.75" fill="none" stroke="#0840a5" stroke-linecap="round" stroke-miterlimit="10" stroke-width="0.75"></path></g>
<g xmlns="http://www.w3.org/2000/svg" id="cs17__ch3_nose"><path d="M1514.92,822.59l9,1.64a3.18,3.18,0,0,0,2.84-3.74l-8.67-16.58s.75-.75,3.74-.15a4.8,4.8,0,0,0,4.48-1" fill="#fafaff" stroke="#0840a5" stroke-linecap="round" stroke-miterlimit="10" stroke-width="0.75"></path></g>
<g xmlns="http://www.w3.org/2000/svg" id="cs17__ch3_eyebrow"><path d="M1500.43,800.62a5.77,5.77,0,0,1,4.33.45c2.09,1.2,6.13,4.18,8.52,3.29" fill="none" stroke="#0840a5" stroke-linecap="round" stroke-miterlimit="10" stroke-width="0.75"></path></g>
<g xmlns="http://www.w3.org/2000/svg" id="cs17__ch3_eye1"><ellipse cx="1508.35" cy="808.02" rx="1.79" ry="1.72" fill="#1b1959"></ellipse></g>
<g xmlns="http://www.w3.org/2000/svg" id="cs17__ch3_eye2"><ellipse cx="1523.66" cy="808.32" rx="1.27" ry="1.42" fill="#1b1959"></ellipse></g>
<g xmlns="http://www.w3.org/2000/svg" id="cs17__ch3_mouth"><path d="M1518.07,827.77a4.6,4.6,0,0,1-.16.58,7,7,0,0,1-1.64,2.45,5.16,5.16,0,0,0-1.2,3.59c-.91,1.17-3.3.41-5.78-.1l-.48-.09-.61-.11c-2.84-.45-7.47.6-8.67-.75s1.35-4.78,1.35-4.78l.29-.31a14.47,14.47,0,0,1,1.53-1.42,12.63,12.63,0,0,1,1.23-.88,11.47,11.47,0,0,1,1.22-.69c5.38-2.74,11.14-1.24,12.31.17A2.76,2.76,0,0,1,1518.07,827.77Z" fill="none" stroke="#0840a5" stroke-miterlimit="10" stroke-width="0.75"></path><path d="M1518.07,827.77a4.6,4.6,0,0,1-.16.58,7,7,0,0,1-1.64,2.45,5.16,5.16,0,0,0-1.2,3.59c-.91,1.17-3.3.41-5.78-.1-.94-2.13-2.55-5-4.92-5.78a8,8,0,0,0-3.2-.26,14.47,14.47,0,0,1,1.53-1.42,12.63,12.63,0,0,1,1.23-.88,11.47,11.47,0,0,1,1.22-.69c1.07.28,2.47.72,4.24,1.31A27.26,27.26,0,0,0,1518.07,827.77Z" fill="#1b1959"></path></g>
<g xmlns="http://www.w3.org/2000/svg" id="cs17__layer_40"><line x1="1458.67" y1="801.56" x2="1438.11" y2="805.13" fill="none" stroke="#0840a5" stroke-linecap="round" stroke-linejoin="round" stroke-width="0.75"></line><line x1="1459.56" y1="813.18" x2="1434.54" y2="825.69" fill="none" stroke="#0840a5" stroke-linecap="round" stroke-linejoin="round" stroke-width="0.75"></line><line x1="1531.06" y1="757.77" x2="1539.99" y2="733.64" fill="none" stroke="#0840a5" stroke-linecap="round" stroke-linejoin="round" stroke-width="0.75"></line><line x1="1538.21" y1="762.24" x2="1551.61" y2="749.72" fill="none" stroke="#0840a5" stroke-linecap="round" stroke-linejoin="round" stroke-width="0.75"></line><line x1="1640.98" y1="768.49" x2="1629.37" y2="755.98" fill="none" stroke="#0840a5" stroke-linecap="round" stroke-linejoin="round" stroke-width="0.75"></line><line x1="1636.51" y1="776.54" x2="1621.32" y2="776.54" fill="none" stroke="#0840a5" stroke-linecap="round" stroke-linejoin="round" stroke-width="0.75"></line></g>
<g xmlns="http://www.w3.org/2000/svg" id="cs17__layer_39"><path d="M1720.31,759.67c0,.62-12.25,21.54-12.25,21.54l4.19,1.39-7.59,8.06,14.1-8.52-4.5-3.1L1729.91,760Z" fill="#3660b7"></path><path d="M1726.19,779.66l-18,16.27,7.13,4-8.37,8.53,16.58-7.75s-8.37-5.58-7.9-5.73,18.44-12.24,18.44-12.24Z" fill="#3660b7"></path></g>
<g xmlns="http://www.w3.org/2000/svg" id="cs17__layer_38"><path d="M1574,747.81c-14,0-25.32,9-25.32,20,0,6.94,4.46,13,11.23,16.65a17,17,0,0,1-2.95,9s6.71-3.36,9.27-6.63a31.21,31.21,0,0,0,7.77,1c14,0,25.33-9,25.33-20S1588,747.81,1574,747.81Z" fill="#fdfdff" stroke="#0840a5" stroke-linecap="round" stroke-miterlimit="10" stroke-width="0.75"></path><path d="M1555.32,778.3a13.46,13.46,0,0,1,1.13-11.59,17.38,17.38,0,0,1,9.26-7.33,24.64,24.64,0,0,1,11.91-.88,15.37,15.37,0,0,1,6.32,2.21,7.7,7.7,0,0,1,3.53,5.5,10.07,10.07,0,0,1-1,4.82,7.74,7.74,0,0,1-1.22,2.08,7.41,7.41,0,0,1-3.83,2,21.48,21.48,0,0,1-12.79-.65,11.94,11.94,0,0,1-4.54-2.78,6.33,6.33,0,0,1-1.85-4.86,7.48,7.48,0,0,1,2.1-4.16,14.51,14.51,0,0,1,14.78-4,9,9,0,0,1,4.84,3.28,5.26,5.26,0,0,1,.35,5.62,6.29,6.29,0,0,1-2.29,2,12.24,12.24,0,0,1-12.64-.49,5.48,5.48,0,0,1-2.74-4.1c0-2.13,1.84-3.83,3.79-4.7a13,13,0,0,1,11.22.35c1.4.74,2.76,1.91,2.92,3.49.19,1.83-1.33,3.41-2.94,4.3a12.81,12.81,0,0,1-8.8,1.26,14.71,14.71,0,0,1-7.72-4.48c-2-2.24-3.45-5.52-2.26-8.31,1.1-2.58,4.06-3.88,6.85-4.23a13.3,13.3,0,0,1,10.12,2.62,9.35,9.35,0,0,1,3.16,9.63,10.11,10.11,0,0,1-3.08,4.47,8.79,8.79,0,0,1-6.21,2.44c-3.45-.25-6.06-3.23-7.72-6.26a15.43,15.43,0,0,1-1.93-5.47,7.94,7.94,0,0,1,1.27-5.56,8.86,8.86,0,0,1,3.38-2.64,14.55,14.55,0,0,1,18.36,5,9.89,9.89,0,0,1,1.82,5.05c.11,2.87-1.46,5.58-3.44,7.65a21.84,21.84,0,0,1-14.74,6.43,7.27,7.27,0,0,1-2.67-.28,2.93,2.93,0,0,1-1.9-1.78,4.06,4.06,0,0,1,.7-3.2,26,26,0,0,1,9-8.71,25.12,25.12,0,0,1,11.57-4.15c1.86-.12,3.95.17,5.14,1.6s1.09,3.68.33,5.44a13.85,13.85,0,0,1-4.14,5,27,27,0,0,1-13.47,5.78c-1.11.14-2.56,0-2.87-1.08a2,2,0,0,1,.22-1.36,7.79,7.79,0,0,1,2.27-2.58,20.78,20.78,0,0,1,13.52-4.41,10.2,10.2,0,0,1,4.8,1.2,5.09,5.09,0,0,1,2.6,4c0,2-1.39,3.72-3,4.9-4.64,3.43-10.87,3.81-16.6,3.13a32.11,32.11,0,0,1-12.65-3.87c-2-1.17-4-3-4-5.26,0-2.47,2.12-4.42,4.34-5.51a17.67,17.67,0,0,1,13.93-.63c3.29,1.26,6.4,3.94,6.69,7.45.22,2.65-1.24,5.2-3.18,7a19.17,19.17,0,0,1-7.18,4.06,13.93,13.93,0,0,1-6.15.84,11.48,11.48,0,0,1-6.65-3.6,21.17,21.17,0,0,1-4-6.52,10.24,10.24,0,0,1-1-5.8,7.07,7.07,0,0,1,3.12-4.37,11.6,11.6,0,0,1,5.19-1.7,17.22,17.22,0,0,1,7.66,1c1.33.48,2.73,1.28,3.13,2.65.52,1.75-.85,3.47-2.29,4.59a24.6,24.6,0,0,1-10.19,4.36,15.59,15.59,0,0,1-6.19.28,7,7,0,0,1-4.94-3.45,6.59,6.59,0,0,1-.08-5.38,11.25,11.25,0,0,1,3.35-4.36,17.94,17.94,0,0,1,16.72-3.27,12.87,12.87,0,0,1,5,2.83,5.49,5.49,0,0,1,1.94,4.07,4.72,4.72,0,0,1-2.63,3.75,9.27,9.27,0,0,1-4.66.87c-3.88-.13-7.88-1.64-10.23-4.73s-2.6-7.88,0-10.72a8.77,8.77,0,0,1,6.07-2.57,16.16,16.16,0,0,1,6.59,1.31,29.36,29.36,0,0,1,11,7.56,7.81,7.81,0,0,1,2.36,4.46c.19,2.6-1.83,4.8-3.89,6.38a20.85,20.85,0,0,1-10.82,4.62c-1.8.15-3.86-.15-4.9-1.62a4.07,4.07,0,0,1-.51-3.27,8.69,8.69,0,0,1,1.54-3,22.2,22.2,0,0,1,13.31-8.39c3.47-.72,7.5-.5,10,2a8.27,8.27,0,0,1,1.18,9.09,12.91,12.91,0,0,1-7.2,6.23,18.16,18.16,0,0,1-9.35,1c-2.12-.33-4.33-1.16-5.55-2.93a7.51,7.51,0,0,1,2.57-9.78,4.29,4.29,0,0,1,3.92-.26,3.16,3.16,0,0,1,1.76,3.36,3.46,3.46,0,0,1-3.79,2.36,6.59,6.59,0,0,1-4.08-2.49,5.36,5.36,0,0,1-1.28-2.33,2.59,2.59,0,0,1,.69-2.47,3.27,3.27,0,0,1,1.65-.65,7.37,7.37,0,0,1,4.14.61,1.14,1.14,0,0,1,.54.42c.3.54-.33,1.12-.89,1.39a17.08,17.08,0,0,1-8,1.76,32.12,32.12,0,0,1,8.59-3.44,4.36,4.36,0,0,1,2-.14,1.6,1.6,0,0,1,1.28,1.34,2.23,2.23,0,0,1-.57,1.37,18.48,18.48,0,0,1-8.21,6.26,6.17,6.17,0,0,1-3,.53,4.65,4.65,0,0,1-3.65-4.37,8.27,8.27,0,0,1,2.16-5.62c3.82-4.59,10.65-6.21,16.31-4.3a10.63,10.63,0,0,1,4.55,2.8,6.35,6.35,0,0,1,1.72,4.94,8.19,8.19,0,0,1-2.23,4.23,18.63,18.63,0,0,1-17.74,5.63c-2.33-.54-4.69-1.66-5.92-3.72a2.94,2.94,0,0,1-.48-1.43,3.34,3.34,0,0,1,1.66-2.52c3.06-2.2,7-2.73,10.76-2.91,4.74-.23,9.6,0,14,1.74a9.14,9.14,0,0,1,3,1.74,4.33,4.33,0,0,1,1.48,3c0,1.71-1.25,3.17-2.65,4.16a19.31,19.31,0,0,1-6.76,2.78,41.42,41.42,0,0,1-10.47,1.1,14.3,14.3,0,0,1-5.58-1,4.16,4.16,0,0,1-2.06-6.43,8.47,8.47,0,0,1,5.56-4.18" fill="#fafaff" stroke="#0840a5" stroke-linecap="round" stroke-miterlimit="10" stroke-width="0.75"></path></g></g>
</g>
</svg>