<?xml version="1.0"?>
<svg xmlns="http://www.w3.org/2000/svg" xmlns:xlink="http://www.w3.org/1999/xlink" viewBox="0 0 1920 1080" width="1920" height="1080">
<defs><filter id="cardShadow" x="-12%" y="-12%" width="124%" height="124%"><feDropShadow dx="0" dy="12" stdDeviation="24" flood-color="#253761" flood-opacity="0.10"></feDropShadow></filter>
<filter id="softGlow" x="-40%" y="-40%" width="180%" height="180%"><feGaussianBlur stdDeviation="16"></feGaussianBlur></filter></defs>
<g isolation="isolate">
<g id="bg"><rect width="1920" height="1080" fill="#f5f6fa"></rect></g>
<g id="guides">
  <circle cx="1800" cy="70" r="250" fill="#eef6fc"></circle>
  <g stroke="#e9eef7" stroke-width="1.5" fill="none">
    <line x1="96" y1="60" x2="96" y2="1020"></line><line x1="1824" y1="60" x2="1824" y2="1020"></line>
    <line x1="60" y1="120" x2="1860" y2="120"></line>
  </g></g><g id="waves" transform="translate(0,-60)">
&#x9;<g>
&#x9;&#x9;<defs>
&#x9;&#x9;&#x9;<rect id="SVGID_00000168814697644826689340000005365166351631084971_" x="-0.36" y="-57.55" width="1921.02" height="1142.55"></rect>
&#x9;&#x9;</defs>
&#x9;&#x9;<clipPath id="SVGID_00000105407338550118346480000009718703442569130943_">
&#x9;&#x9;&#x9;<use xlink:href="#SVGID_00000168814697644826689340000005365166351631084971_" overflow="visible"></use>
&#x9;&#x9;</clipPath>
&#x9;&#x9;<g clip-path="url(#SVGID_00000105407338550118346480000009718703442569130943_)">
&#x9;&#x9;&#x9;
&#x9;&#x9;&#x9;&#x9;<linearGradient id="SVGID_00000134222689968386448660000006872443577450993854_" gradientUnits="userSpaceOnUse" x1="345.9236" y1="1396.5404" x2="345.9236" y2="700.9163">
&#x9;&#x9;&#x9;&#x9;<stop offset="0.3161" style="stop-color:#F3F7FA"></stop>
&#x9;&#x9;&#x9;&#x9;<stop offset="0.4663" style="stop-color:#F5F7FA"></stop>
&#x9;&#x9;&#x9;&#x9;<stop offset="0.5412" style="stop-color:#E7F0F8"></stop>
&#x9;&#x9;&#x9;&#x9;<stop offset="0.6175" style="stop-color:#DDECF7"></stop>
&#x9;&#x9;&#x9;</linearGradient>
&#x9;&#x9;&#x9;<path fill="url(#SVGID_00000134222689968386448660000006872443577450993854_)" d="M1022.13,1095.58H717.07v131.92H-330.29&#xA;&#x9;&#x9;&#x9;&#x9;c1.4-29.17,9.89-39.78,9.28-68.97c39.77-64.67,96.68-122.4,162.5-160.24c111.54-64.13,245.69-104.85,373.58-90.75&#xA;&#x9;&#x9;&#x9;&#x9;c36.14,3.99,88.97,25.1,123.37,37.04c75.06,26.04,141.06,6.06,200.43-5.87c70.8-14.24,116.66-24.58,163.91-18.38&#xA;&#x9;&#x9;&#x9;&#x9;C826.85,936.59,937.28,1027.5,1022.13,1095.58z"></path>
&#x9;&#x9;&#x9;<g>
&#x9;&#x9;&#x9;&#x9;
&#x9;&#x9;&#x9;&#x9;&#x9;<linearGradient id="SVGID_00000026855773924050589320000001491403585188786056_" gradientUnits="userSpaceOnUse" x1="-93.4496" y1="966.3698" x2="941.3154" y2="966.3698">
&#x9;&#x9;&#x9;&#x9;&#x9;<stop offset="0" style="stop-color:#F2F4F9"></stop>
&#x9;&#x9;&#x9;&#x9;&#x9;<stop offset="0.4157" style="stop-color:#F9F9F9"></stop>
&#x9;&#x9;&#x9;&#x9;&#x9;<stop offset="1" style="stop-color:#F2F4F9"></stop>
&#x9;&#x9;&#x9;&#x9;</linearGradient>
&#x9;&#x9;&#x9;&#x9;<path fill="url(#SVGID_00000026855773924050589320000001491403585188786056_)" d="M-92.28,963.98&#xA;&#x9;&#x9;&#x9;&#x9;&#x9;c20.28-9.71,41.23-17.97,62.46-25.41c21.24-7.42,42.81-13.9,64.66-19.35c21.87-5.38,44.02-9.67,66.36-12.64&#xA;&#x9;&#x9;&#x9;&#x9;&#x9;c11.17-1.48,22.4-2.62,33.65-3.4c11.26-0.75,22.54-1.12,33.83-1.05c11.29,0.06,22.59,0.58,33.85,1.62l4.22,0.4l4.21,0.48&#xA;&#x9;&#x9;&#x9;&#x9;&#x9;c2.81,0.31,5.61,0.7,8.41,1.09c2.81,0.36,5.59,0.86,8.39,1.29l1.05,0.17c0.38,0.07,0.77,0.14,1.14,0.23&#xA;&#x9;&#x9;&#x9;&#x9;&#x9;c0.75,0.17,1.47,0.36,2.18,0.56c1.41,0.4,2.73,0.83,4,1.16c0.64,0.17,1.26,0.31,1.87,0.42l2.1,0.38&#xA;&#x9;&#x9;&#x9;&#x9;&#x9;c1.43,0.25,2.81,0.58,4.22,0.87c2.78,0.65,5.54,1.33,8.27,2.08c5.47,1.49,10.87,3.11,16.26,4.8&#xA;&#x9;&#x9;&#x9;&#x9;&#x9;c10.76,3.37,21.43,6.97,32.07,10.61l31.86,11.02c5.31,1.82,10.62,3.63,15.94,5.36c5.32,1.71,10.65,3.43,15.95,4.63&#xA;&#x9;&#x9;&#x9;&#x9;&#x9;c5.48,1.24,10.91,2.42,16.38,3.35c5.47,0.95,10.97,1.63,16.49,2.11c11.05,0.96,22.19,0.99,33.31,0.42&#xA;&#x9;&#x9;&#x9;&#x9;&#x9;c22.26-1.13,44.41-4.59,66.32-9.11c10.96-2.25,21.84-4.88,32.78-7.5c10.94-2.6,21.88-5.21,32.88-7.63&#xA;&#x9;&#x9;&#x9;&#x9;&#x9;c21.99-4.85,44.18-9.11,66.64-11.64c11.23-1.26,22.52-2.09,33.83-2.33c11.31-0.22,22.64,0.13,33.91,1.14&#xA;&#x9;&#x9;&#x9;&#x9;&#x9;c22.55,1.99,44.84,6.68,66.29,13.8c10.74,3.51,21.23,7.75,31.51,12.41c5.17,2.28,10.19,4.81,15.26,7.24l7.6,3.68l7.53,3.81&#xA;&#x9;&#x9;&#x9;&#x9;&#x9;c20.07,10.18,39.83,20.98,59.06,32.66c9.63,5.82,19.09,11.9,28.34,18.31l3.46,2.41l3.42,2.47c2.29,1.63,4.53,3.33,6.77,5.03&#xA;&#x9;&#x9;&#x9;&#x9;&#x9;c4.46,3.42,8.88,6.91,13.02,10.71c-4.23-3.7-8.73-7.07-13.27-10.38c-2.28-1.64-4.56-3.28-6.88-4.86l-3.47-2.39l-3.51-2.32&#xA;&#x9;&#x9;&#x9;&#x9;&#x9;c-4.66-3.13-9.42-6.11-14.17-9.1c-4.8-2.91-9.57-5.87-14.45-8.65c-19.4-11.31-39.31-21.72-59.5-31.52l-7.56-3.7l-7.62-3.58&#xA;&#x9;&#x9;&#x9;&#x9;&#x9;c-5.08-2.37-10.14-4.84-15.27-7.04c-10.24-4.5-20.67-8.59-31.33-11.94c-21.29-6.8-43.32-11.19-65.57-12.9&#xA;&#x9;&#x9;&#x9;&#x9;&#x9;c-22.26-1.74-44.67-0.86-66.85,1.76c-22.21,2.62-44.2,6.98-66.07,11.93c-10.94,2.49-21.86,5.07-32.78,7.71&#xA;&#x9;&#x9;&#x9;&#x9;&#x9;c-10.91,2.63-21.88,5.31-32.93,7.6c-22.08,4.6-44.47,8.15-67.12,9.34c-11.32,0.56-22.71,0.51-34.05-0.49&#xA;&#x9;&#x9;&#x9;&#x9;&#x9;c-5.67-0.5-11.33-1.22-16.93-2.2c-5.61-0.96-11.17-2.18-16.64-3.43c-5.66-1.3-11.03-3.06-16.41-4.79&#xA;&#x9;&#x9;&#x9;&#x9;&#x9;c-5.37-1.75-10.69-3.58-16.01-5.41l-31.83-11.12c-10.6-3.69-21.21-7.34-31.88-10.75c-5.33-1.7-10.68-3.34-16.05-4.83&#xA;&#x9;&#x9;&#x9;&#x9;&#x9;c-2.68-0.76-5.37-1.44-8.06-2.08c-1.34-0.29-2.69-0.62-4.03-0.86l-2.05-0.38c-0.77-0.14-1.52-0.32-2.24-0.51&#xA;&#x9;&#x9;&#x9;&#x9;&#x9;c-1.44-0.39-2.79-0.83-4.09-1.21c-0.65-0.19-1.28-0.36-1.9-0.5c-0.31-0.07-0.62-0.13-0.92-0.19l-1.03-0.17&#xA;&#x9;&#x9;&#x9;&#x9;&#x9;c-2.76-0.44-5.5-0.95-8.27-1.32c-2.76-0.4-5.52-0.8-8.3-1.12c-2.77-0.36-5.54-0.66-8.32-0.94c-11.11-1.15-22.28-1.79-33.46-1.97&#xA;&#x9;&#x9;&#x9;&#x9;&#x9;c-11.18-0.19-22.38,0.05-33.55,0.68c-11.18,0.65-22.33,1.66-33.46,3.01c-22.25,2.7-44.33,6.77-66.18,11.83&#xA;&#x9;&#x9;&#x9;&#x9;&#x9;c-21.86,5.04-43.49,11.12-64.82,18.14c-10.66,3.51-21.25,7.26-31.75,11.26C-71.61,955.16-82.04,959.33-92.28,963.98z"></path>
&#x9;&#x9;&#x9;</g>
&#x9;&#x9;</g>
&#x9;&#x9;<g clip-path="url(#SVGID_00000105407338550118346480000009718703442569130943_)">
&#x9;&#x9;&#x9;
&#x9;&#x9;&#x9;&#x9;<linearGradient id="SVGID_00000062883735495575380470000007154962794179695537_" gradientUnits="userSpaceOnUse" x1="9738.583" y1="948.3289" x2="9738.583" y2="252.7046" gradientTransform="matrix(-0.9925 0.1223 0.1223 0.9925 11092.0361 -679.729)">
&#x9;&#x9;&#x9;&#x9;<stop offset="0.3161" style="stop-color:#F3F7FA"></stop>
&#x9;&#x9;&#x9;&#x9;<stop offset="0.4663" style="stop-color:#F5F7FA"></stop>
&#x9;&#x9;&#x9;&#x9;<stop offset="0.5412" style="stop-color:#E7F0F8"></stop>
&#x9;&#x9;&#x9;&#x9;<stop offset="0.6175" style="stop-color:#DDECF7"></stop>
&#x9;&#x9;&#x9;</linearGradient>
&#x9;&#x9;&#x9;<path fill="url(#SVGID_00000062883735495575380470000007154962794179695537_)" d="M834.55,1236.24l302.77-37.3l16.13,130.93&#xA;&#x9;&#x9;&#x9;&#x9;l1039.5-128.07c-4.96-28.78-14.68-38.27-17.64-67.32c-47.38-59.32-110.92-109.66-180.87-139.17&#xA;&#x9;&#x9;&#x9;&#x9;c-118.54-50.01-256.67-74.02-381.87-44.39c-35.38,8.38-85.23,35.79-117.92,51.85c-71.32,35.03-139.26,23.27-199.64,18.68&#xA;&#x9;&#x9;&#x9;&#x9;c-72.01-5.47-118.79-10.13-164.93,1.8C1008.93,1054.57,910.44,1158.3,834.55,1236.24z"></path>
&#x9;&#x9;&#x9;<g>
&#x9;&#x9;&#x9;&#x9;
&#x9;&#x9;&#x9;&#x9;&#x9;<linearGradient id="SVGID_00000090285793472216707530000014638169832578094240_" gradientUnits="userSpaceOnUse" x1="1902.3618" y1="859.2885" x2="900.7113" y2="1118.9707">
&#x9;&#x9;&#x9;&#x9;&#x9;<stop offset="0" style="stop-color:#F2F4F9"></stop>
&#x9;&#x9;&#x9;&#x9;&#x9;<stop offset="0.4157" style="stop-color:#F9F9F9"></stop>
&#x9;&#x9;&#x9;&#x9;&#x9;<stop offset="1" style="stop-color:#F2F4F9"></stop>
&#x9;&#x9;&#x9;&#x9;</linearGradient>
&#x9;&#x9;&#x9;&#x9;<path fill="url(#SVGID_00000090285793472216707530000014638169832578094240_)" d="M1900.63,857.27&#xA;&#x9;&#x9;&#x9;&#x9;&#x9;c-11.07-1.93-22.22-3.35-33.39-4.57c-11.16-1.23-22.35-2.2-33.56-2.93c-22.41-1.44-44.87-1.9-67.3-1.29&#xA;&#x9;&#x9;&#x9;&#x9;&#x9;c-22.42,0.58-44.82,2.19-67.03,5.15c-11.1,1.49-22.16,3.3-33.14,5.48c-10.98,2.2-21.87,4.78-32.65,7.77&#xA;&#x9;&#x9;&#x9;&#x9;&#x9;c-10.78,2.98-21.43,6.4-31.89,10.3c-2.62,0.97-5.23,1.96-7.82,3c-2.61,1-5.18,2.09-7.75,3.17c-2.59,1.05-5.11,2.24-7.67,3.35&#xA;&#x9;&#x9;&#x9;&#x9;&#x9;l-0.96,0.42c-0.28,0.13-0.56,0.27-0.85,0.41c-0.57,0.29-1.14,0.62-1.72,0.96c-1.16,0.69-2.35,1.46-3.65,2.19&#xA;&#x9;&#x9;&#x9;&#x9;&#x9;c-0.65,0.37-1.33,0.73-2.04,1.06l-1.89,0.89c-1.24,0.57-2.46,1.22-3.69,1.84c-2.44,1.3-4.88,2.63-7.28,4.04&#xA;&#x9;&#x9;&#x9;&#x9;&#x9;c-4.82,2.79-9.59,5.72-14.32,8.71c-9.47,5.98-18.83,12.17-28.16,18.41l-28.02,18.75c-4.69,3.11-9.38,6.21-14.14,9.26&#xA;&#x9;&#x9;&#x9;&#x9;&#x9;c-4.77,3.03-9.53,6.08-14.68,8.76c-4.99,2.59-10.06,5.16-15.25,7.5c-5.18,2.36-10.48,4.47-15.84,6.38&#xA;&#x9;&#x9;&#x9;&#x9;&#x9;c-10.73,3.82-21.74,6.72-32.84,9.02c-22.23,4.54-44.79,6.72-67.32,7.81c-11.27,0.56-22.56,0.72-33.78,0.91&#xA;&#x9;&#x9;&#x9;&#x9;&#x9;c-11.23,0.19-22.45,0.43-33.66,0.77c-22.41,0.7-44.79,2-66.95,5.04c-22.14,3.04-44.05,7.8-65.16,15.08&#xA;&#x9;&#x9;&#x9;&#x9;&#x9;c-21.11,7.24-41.34,17.02-60.24,28.94c-9.48,5.93-18.55,12.49-27.33,19.42c-4.42,3.42-8.69,7.08-13.02,10.65l-6.47,5.38&#xA;&#x9;&#x9;&#x9;&#x9;&#x9;l-6.39,5.47c-17.09,14.55-33.75,29.62-49.69,45.44c-4.02,3.92-7.89,7.98-11.81,12c-3.85,4.09-7.71,8.16-11.43,12.36l-2.82,3.13&#xA;&#x9;&#x9;&#x9;&#x9;&#x9;l-2.76,3.18c-1.86,2.11-3.65,4.27-5.44,6.43c-3.56,4.34-7.06,8.74-10.24,13.38c3.06-4.72,6.46-9.2,9.92-13.63&#xA;&#x9;&#x9;&#x9;&#x9;&#x9;c1.74-2.21,3.48-4.41,5.29-6.57l2.69-3.25l2.75-3.2c7.34-8.52,14.98-16.79,22.84-24.83c15.68-16.13,32.1-31.54,48.97-46.43&#xA;&#x9;&#x9;&#x9;&#x9;&#x9;l6.34-5.57l6.43-5.46c4.3-3.63,8.52-7.33,12.96-10.84c8.78-7.09,17.87-13.82,27.39-19.92c18.98-12.27,39.38-22.41,60.71-29.99&#xA;&#x9;&#x9;&#x9;&#x9;&#x9;c10.66-3.8,21.54-6.99,32.54-9.61c11.01-2.61,22.15-4.63,33.33-6.23c22.38-3.2,44.93-4.63,67.43-5.46&#xA;&#x9;&#x9;&#x9;&#x9;&#x9;c11.25-0.42,22.5-0.64,33.74-0.87c11.25-0.21,22.44-0.39,33.62-0.97c22.34-1.12,44.66-3.33,66.49-7.82&#xA;&#x9;&#x9;&#x9;&#x9;&#x9;c10.91-2.24,21.69-5.06,32.14-8.77c5.23-1.85,10.38-3.9,15.44-6.19c5.06-2.27,10.02-4.77,15.01-7.35&#xA;&#x9;&#x9;&#x9;&#x9;&#x9;c4.82-2.49,9.55-5.5,14.27-8.49c4.71-3.01,9.4-6.09,14.08-9.18l28.08-18.66c9.39-6.2,18.81-12.36,28.38-18.32&#xA;&#x9;&#x9;&#x9;&#x9;&#x9;c4.79-2.98,9.61-5.91,14.53-8.72c2.45-1.41,4.95-2.77,7.48-4.09c1.28-0.64,2.54-1.3,3.86-1.9l1.93-0.89&#xA;&#x9;&#x9;&#x9;&#x9;&#x9;c0.56-0.26,1.13-0.55,1.7-0.87c1.15-0.64,2.32-1.39,3.58-2.13c0.63-0.37,1.29-0.74,1.97-1.08c0.34-0.17,0.7-0.34,1.05-0.5&#xA;&#x9;&#x9;&#x9;&#x9;&#x9;l0.97-0.42c2.6-1.12,5.17-2.3,7.79-3.35c2.61-1.08,5.23-2.16,7.87-3.17l3.96-1.53l3.99-1.44c10.64-3.83,21.44-7.18,32.36-10.06&#xA;&#x9;&#x9;&#x9;&#x9;&#x9;c10.91-2.9,21.93-5.37,33.02-7.47c11.09-2.08,22.24-3.78,33.43-5.16c22.38-2.73,44.9-4.13,67.41-4.42&#xA;&#x9;&#x9;&#x9;&#x9;&#x9;c22.52-0.21,45.03,0.65,67.45,2.5C1856.2,850.22,1878.56,852.96,1900.63,857.27z"></path>
&#x9;&#x9;&#x9;</g>
&#x9;&#x9;</g>
&#x9;&#x9;<g clip-path="url(#SVGID_00000105407338550118346480000009718703442569130943_)">
&#x9;&#x9;&#x9;
&#x9;&#x9;&#x9;&#x9;<linearGradient id="SVGID_00000139978133225882142520000018225403853336047520_" gradientUnits="userSpaceOnUse" x1="711.1434" y1="679.771" x2="584.0881" y2="1306.0206">
&#x9;&#x9;&#x9;&#x9;<stop offset="0.0251" style="stop-color:#E6F2F8"></stop>
&#x9;&#x9;&#x9;&#x9;<stop offset="0.1988" style="stop-color:#EFF5FA"></stop>
&#x9;&#x9;&#x9;&#x9;<stop offset="0.4212" style="stop-color:#F3F7FB"></stop>
&#x9;&#x9;&#x9;&#x9;<stop offset="0.5462" style="stop-color:#E2EFF8"></stop>
&#x9;&#x9;&#x9;&#x9;<stop offset="0.6835" style="stop-color:#D7EBF7"></stop>
&#x9;&#x9;&#x9;&#x9;<stop offset="0.8427" style="stop-color:#D4E9F6"></stop>
&#x9;&#x9;&#x9;</linearGradient>
&#x9;&#x9;&#x9;<path fill="url(#SVGID_00000139978133225882142520000018225403853336047520_)" d="M-176.53,1057.68&#xA;&#x9;&#x9;&#x9;&#x9;c94.98-88.85,321.43-84.71,418.59-57.35c100.56,28.31,192.08,85.95,296.15,99.07c174.55,22,349.14-84.87,524.28-67.03&#xA;&#x9;&#x9;&#x9;&#x9;c124.31,12.66,270.67,94.24,355.69,159.85l-1608.5,42.81L-176.53,1057.68z"></path>
&#x9;&#x9;&#x9;<g>
&#x9;&#x9;&#x9;&#x9;
&#x9;&#x9;&#x9;&#x9;&#x9;<linearGradient id="SVGID_00000158744455592253922080000003333907667244210825_" gradientUnits="userSpaceOnUse" x1="-172.5449" y1="1112.0848" x2="1434.7395" y2="1080.3523">
&#x9;&#x9;&#x9;&#x9;&#x9;<stop offset="0" style="stop-color:#F2F4F9"></stop>
&#x9;&#x9;&#x9;&#x9;&#x9;<stop offset="0.4157" style="stop-color:#F9F9F9"></stop>
&#x9;&#x9;&#x9;&#x9;&#x9;<stop offset="1" style="stop-color:#F2F4F9"></stop>
&#x9;&#x9;&#x9;&#x9;</linearGradient>
&#x9;&#x9;&#x9;&#x9;<path fill="url(#SVGID_00000158744455592253922080000003333907667244210825_)" d="M-171.94,1053.09&#xA;&#x9;&#x9;&#x9;&#x9;&#x9;c6.52-5.93,13.53-11.32,20.86-16.23c7.34-4.89,15-9.3,22.85-13.33c15.71-8.06,32.2-14.52,49.02-19.87&#xA;&#x9;&#x9;&#x9;&#x9;&#x9;c16.83-5.35,34-9.58,51.33-12.95c17.33-3.36,34.83-5.88,52.4-7.64c35.14-3.47,70.57-4.14,105.84-1.99&#xA;&#x9;&#x9;&#x9;&#x9;&#x9;c17.63,1.06,35.23,2.81,52.73,5.28c17.5,2.45,34.9,5.66,52.13,9.63c17.23,3.95,34.26,8.83,51.04,14.42&#xA;&#x9;&#x9;&#x9;&#x9;&#x9;c16.79,5.55,33.3,11.86,49.7,18.41c16.38,6.58,32.63,13.45,48.89,20.24c16.26,6.8,32.52,13.53,48.97,19.73&#xA;&#x9;&#x9;&#x9;&#x9;&#x9;c8.22,3.13,16.5,6.06,24.81,8.89c8.33,2.78,16.7,5.4,25.14,7.79c8.45,2.33,16.93,4.57,25.5,6.38l3.21,0.71l3.22,0.63l6.45,1.26&#xA;&#x9;&#x9;&#x9;&#x9;&#x9;c4.32,0.71,8.62,1.54,12.96,2.11c34.64,5.2,69.95,4.74,104.82,1.02c34.92-3.7,69.48-10.49,103.83-18.16&#xA;&#x9;&#x9;&#x9;&#x9;&#x9;c34.35-7.71,68.52-16.4,102.89-24.43c34.36-8.04,68.97-15.36,104.01-20.24c35.02-4.83,70.55-7.24,105.95-4.82&#xA;&#x9;&#x9;&#x9;&#x9;&#x9;c8.84,0.63,17.67,1.47,26.45,2.73c8.78,1.25,17.51,2.84,26.16,4.72c17.32,3.76,34.35,8.64,51.11,14.28&#xA;&#x9;&#x9;&#x9;&#x9;&#x9;c33.52,11.32,65.94,25.58,97.43,41.54c31.47,16.02,61.99,33.83,91.67,52.9c29.67,19.08,58.51,39.48,86.11,61.43&#xA;&#x9;&#x9;&#x9;&#x9;&#x9;c-13.98-10.74-28.26-21.08-42.77-31.08c-14.49-10.03-29.21-19.72-44.15-29.06c-29.87-18.69-60.58-36.04-92.11-51.7&#xA;&#x9;&#x9;&#x9;&#x9;&#x9;c-31.52-15.67-63.92-29.63-97.31-40.63c-33.37-10.97-67.84-18.88-102.88-20.76c-35.02-2.08-70.22,0.31-104.99,5.29&#xA;&#x9;&#x9;&#x9;&#x9;&#x9;c-34.8,4.97-69.22,12.45-103.51,20.48c-34.29,8.05-68.46,16.8-102.9,24.57c-34.43,7.78-69.21,14.52-104.45,18.22&#xA;&#x9;&#x9;&#x9;&#x9;&#x9;c-35.19,3.7-70.98,4.14-106.14-1.19c-4.4-0.6-8.76-1.45-13.13-2.19l-6.53-1.3l-3.26-0.66l-3.24-0.73&#xA;&#x9;&#x9;&#x9;&#x9;&#x9;c-8.67-1.87-17.24-4.17-25.77-6.56c-8.52-2.45-16.96-5.13-25.34-7.96c-8.36-2.89-16.69-5.87-24.94-9.04&#xA;&#x9;&#x9;&#x9;&#x9;&#x9;c-16.51-6.31-32.81-13.11-49.04-20.01c-16.22-6.92-32.4-13.9-48.68-20.59c-32.55-13.36-65.69-25.4-99.96-33.36&#xA;&#x9;&#x9;&#x9;&#x9;&#x9;c-17.11-4.04-34.4-7.32-51.8-9.85c-17.4-2.55-34.91-4.38-52.47-5.53c-35.11-2.28-70.41-2.03-105.47,1.17&#xA;&#x9;&#x9;&#x9;&#x9;&#x9;c-17.53,1.6-34.99,3.97-52.3,7.17c-17.3,3.21-34.46,7.29-51.29,12.48c-16.81,5.2-33.31,11.51-49.08,19.35&#xA;&#x9;&#x9;&#x9;&#x9;&#x9;c-7.88,3.93-15.57,8.24-22.96,13.04C-158.28,1041.93-165.35,1047.23-171.94,1053.09z"></path>
&#x9;&#x9;&#x9;</g>
&#x9;&#x9;</g>
&#x9;&#x9;<g clip-path="url(#SVGID_00000105407338550118346480000009718703442569130943_)">
&#x9;&#x9;&#x9;
&#x9;&#x9;&#x9;&#x9;<linearGradient id="SVGID_00000023970680784720358740000015608810013737459637_" gradientUnits="userSpaceOnUse" x1="1469.2388" y1="1655.4952" x2="1515.8774" y2="950.0858">
&#x9;&#x9;&#x9;&#x9;<stop offset="0.3454" style="stop-color:#F3F7FA"></stop>
&#x9;&#x9;&#x9;&#x9;<stop offset="0.5467" style="stop-color:#F5F7FA"></stop>
&#x9;&#x9;&#x9;&#x9;<stop offset="0.7844" style="stop-color:#CAE4F9"></stop>
&#x9;&#x9;&#x9;</linearGradient>
&#x9;&#x9;&#x9;<path fill="url(#SVGID_00000023970680784720358740000015608810013737459637_)" d="M929.93,1240.72&#xA;&#x9;&#x9;&#x9;&#x9;c27.4-30.54,65.81-48.48,103.21-65.34c61.7-27.82,123.92-54.97,188.75-74.4c102.44-30.7,210.77-41.63,317.28-32.02&#xA;&#x9;&#x9;&#x9;&#x9;c45.3,4.09,90.43,12.71,135.9,11.41c150.61-4.31,309.25-97.78,391.12-128.29l-1.53,269.51L929.93,1240.72z"></path>
&#x9;&#x9;&#x9;<g>
&#x9;&#x9;&#x9;&#x9;
&#x9;&#x9;&#x9;&#x9;&#x9;<linearGradient id="SVGID_00000168833495327494942390000004121253776403290814_" gradientUnits="userSpaceOnUse" x1="2066.1917" y1="1096.406" x2="923.9116" y2="1096.406">
&#x9;&#x9;&#x9;&#x9;&#x9;<stop offset="0" style="stop-color:#F2F4F9"></stop>
&#x9;&#x9;&#x9;&#x9;&#x9;<stop offset="0.4157" style="stop-color:#F9F9F9"></stop>
&#x9;&#x9;&#x9;&#x9;&#x9;<stop offset="1" style="stop-color:#F2F4F9"></stop>
&#x9;&#x9;&#x9;&#x9;</linearGradient>
&#x9;&#x9;&#x9;&#x9;<path fill="url(#SVGID_00000168833495327494942390000004121253776403290814_)" d="M926.86,1240.72&#xA;&#x9;&#x9;&#x9;&#x9;&#x9;c8.26-9.41,17.65-17.81,27.74-25.26c10.1-7.44,20.83-14,31.83-20.01c11-6.02,22.29-11.48,33.63-16.8&#xA;&#x9;&#x9;&#x9;&#x9;&#x9;c11.35-5.3,22.72-10.51,34.13-15.66c45.63-20.59,91.74-40.36,139.3-56.41c47.6-15.87,96.59-27.75,146.29-34.91&#xA;&#x9;&#x9;&#x9;&#x9;&#x9;c24.84-3.61,49.84-6.17,74.91-7.53c25.07-1.33,50.2-1.54,75.29-0.64c25.08,0.88,50.15,2.99,75.02,5.89&#xA;&#x9;&#x9;&#x9;&#x9;&#x9;c24.89,2.79,49.7,5.89,74.59,7.56c12.44,0.86,24.9,1.38,37.35,1.31c12.45-0.06,24.89-0.84,37.28-2.07&#xA;&#x9;&#x9;&#x9;&#x9;&#x9;c12.4-1.25,24.74-3.07,37.01-5.27c12.27-2.25,24.46-4.92,36.56-7.96c24.2-6.11,48.05-13.65,71.53-22.18&#xA;&#x9;&#x9;&#x9;&#x9;&#x9;c23.5-8.5,46.68-17.91,69.61-27.88c22.95-9.96,45.65-20.49,68.35-31.01c11.36-5.26,22.72-10.51,34.17-15.56&#xA;&#x9;&#x9;&#x9;&#x9;&#x9;c11.45-5.04,22.98-9.96,34.73-14.25c-11.69,4.48-23.12,9.57-34.49,14.79c-11.36,5.24-22.65,10.63-33.95,16.01&#xA;&#x9;&#x9;&#x9;&#x9;&#x9;c-22.58,10.78-45.17,21.58-68.02,31.82c-22.86,10.23-45.94,20-69.45,28.7c-23.5,8.72-47.38,16.46-71.67,22.78&#xA;&#x9;&#x9;&#x9;&#x9;&#x9;c-12.15,3.15-24.39,5.92-36.73,8.28c-12.34,2.31-24.77,4.23-37.26,5.58c-12.5,1.33-25.06,2.2-37.64,2.36&#xA;&#x9;&#x9;&#x9;&#x9;&#x9;c-12.58,0.17-25.15-0.18-37.68-0.92c-25.07-1.51-49.97-4.5-74.84-7.13c-12.43-1.3-24.86-2.63-37.3-3.49l-9.33-0.72&#xA;&#x9;&#x9;&#x9;&#x9;&#x9;c-3.11-0.26-6.23-0.36-9.34-0.54c-6.23-0.31-12.45-0.73-18.69-0.84c-24.93-0.85-49.9-0.58-74.81,0.78&#xA;&#x9;&#x9;&#x9;&#x9;&#x9;c-24.91,1.31-49.76,3.8-74.46,7.34c-24.69,3.55-49.23,8.2-73.53,13.85l-9.11,2.12l-9.06,2.33l-9.06,2.33&#xA;&#x9;&#x9;&#x9;&#x9;&#x9;c-3.01,0.8-6.01,1.69-9.01,2.53c-12.03,3.31-23.95,7.02-35.82,10.87c-47.5,15.45-93.75,34.64-139.57,54.71l-34.35,15.12&#xA;&#x9;&#x9;&#x9;&#x9;&#x9;c-11.42,5.09-22.77,10.33-33.83,16.12c-11.07,5.78-21.86,12.11-32.05,19.33c-5.08,3.62-10.05,7.42-14.78,11.51&#xA;&#x9;&#x9;&#x9;&#x9;&#x9;C935.63,1231.79,931.11,1236.13,926.86,1240.72z"></path>
&#x9;&#x9;&#x9;</g>
&#x9;&#x9;</g>
&#x9;</g>
</g>
<g fill="none" stroke="#3761b6" stroke-width="4" stroke-linecap="round" id="label_kick_ahead"><path d="M540 620 C 640 560 700 640 640 700" stroke-dasharray="12 9"></path><polygon points="640,700 656,672 620,678" fill="#3761b6" stroke="none"></polygon><text transform="translate(470,760)" font-family="DM Mono" font-size="26" fill="#6c7da4">kick-ahead</text></g><ellipse cx="380" cy="860" rx="150" ry="21.0" fill="#5c8ed9" opacity="0.14" id="shadow_1"></ellipse><g id="ship" transform="translate(380,640) scale(0.8842) translate(-1337.00,-717.50)"><defs xmlns="http://www.w3.org/2000/svg"><linearGradient id="ship__linear-gradient" x1="1336.6" y1="1029.78" x2="1336.6" y2="838.84" gradientUnits="userSpaceOnUse"><stop offset="0.32" stop-color="#f3f7fa"></stop><stop offset="0.59" stop-color="#f5f7fa"></stop><stop offset="0.75" stop-color="#d8eaf7"></stop></linearGradient><linearGradient id="ship__linear-gradient-2" x1="1389.88" y1="817.39" x2="1389.88" y2="380.7" gradientUnits="userSpaceOnUse"><stop offset="0.08" stop-color="#f1ebe9"></stop><stop offset="0.48" stop-color="#f3f7fa"></stop><stop offset="0.58" stop-color="#e9ddd9"></stop><stop offset="0.7" stop-color="#ddbdb1"></stop><stop offset="0.77" stop-color="#d9b1a2"></stop></linearGradient><linearGradient id="ship__linear-gradient-3" x1="1231.59" y1="871.42" x2="1548.63" y2="871.42" gradientUnits="userSpaceOnUse"><stop offset="0" stop-color="#6185f1"></stop><stop offset="0.26" stop-color="#6084ef"></stop><stop offset="0.35" stop-color="#5b80e8"></stop><stop offset="0.41" stop-color="#5279dd"></stop><stop offset="0.47" stop-color="#476ecc"></stop><stop offset="0.51" stop-color="#3761b6"></stop></linearGradient><linearGradient id="ship__linear-gradient-4" x1="1213.73" y1="750.35" x2="1565.35" y2="750.35" gradientUnits="userSpaceOnUse"><stop offset="0.08" stop-color="#f8f8f8"></stop><stop offset="0.32" stop-color="#f6f7f7"></stop><stop offset="0.41" stop-color="#eff1f4"></stop><stop offset="0.47" stop-color="#e4e8ee"></stop><stop offset="0.52" stop-color="#d5dce7"></stop><stop offset="0.74" stop-color="#d6dce6"></stop></linearGradient><linearGradient id="ship__linear-gradient-5" x1="1347.67" y1="1060.88" x2="1347.67" y2="841.19" gradientUnits="userSpaceOnUse"><stop offset="0.32" stop-color="#f3f7fa"></stop><stop offset="0.53" stop-color="#f5f7fa"></stop><stop offset="0.63" stop-color="#ddecf7"></stop></linearGradient><linearGradient id="ship__linear-gradient-6" x1="-4524.07" y1="1117.4" x2="-4524.07" y2="881.26" gradientTransform="matrix(-1, 0, 0, 1, -3175.14, 0)" gradientUnits="userSpaceOnUse"><stop offset="0.32" stop-color="#f3f7fa"></stop><stop offset="0.57" stop-color="#f3f7fb"></stop><stop offset="0.68" stop-color="#e7f1f8"></stop></linearGradient><linearGradient id="ship__linear-gradient-7" x1="345.92" y1="1337.28" x2="345.92" y2="641.65" gradientUnits="userSpaceOnUse"><stop offset="0.32" stop-color="#f3f7fa"></stop><stop offset="0.47" stop-color="#f5f7fa"></stop><stop offset="0.54" stop-color="#e7f0f8"></stop><stop offset="0.62" stop-color="#ddecf7"></stop></linearGradient><linearGradient id="ship__linear-gradient-8" x1="-93.45" y1="907.11" x2="941.32" y2="907.11" gradientUnits="userSpaceOnUse"><stop offset="0" stop-color="#f2f4f9"></stop><stop offset="0.42" stop-color="#f9f9f9"></stop><stop offset="1" stop-color="#f2f4f9"></stop></linearGradient><linearGradient xmlns:xlink="http://www.w3.org/1999/xlink" id="ship__linear-gradient-9" x1="14093.67" y1="621.81" x2="14093.67" y2="-73.82" gradientTransform="matrix(-0.99, 0.12, 0.12, 0.99, 15454.37, -947.43)" xlink:href="#ship__linear-gradient-7"></linearGradient><linearGradient xmlns:xlink="http://www.w3.org/1999/xlink" id="ship__linear-gradient-10" x1="1902.36" y1="800.03" x2="900.71" y2="1059.71" xlink:href="#ship__linear-gradient-8"></linearGradient><linearGradient xmlns:xlink="http://www.w3.org/1999/xlink" id="ship__linear-gradient-11" x1="918.62" y1="954.61" x2="1951.92" y2="954.61" xlink:href="#ship__linear-gradient-7"></linearGradient><linearGradient id="ship__linear-gradient-12" x1="711.14" y1="620.51" x2="584.09" y2="1246.76" gradientUnits="userSpaceOnUse"><stop offset="0.03" stop-color="#e6f2f8"></stop><stop offset="0.2" stop-color="#eff5fa"></stop><stop offset="0.42" stop-color="#f3f7fb"></stop><stop offset="0.55" stop-color="#e2eff8"></stop><stop offset="0.68" stop-color="#d7ebf7"></stop><stop offset="0.84" stop-color="#d4e9f6"></stop></linearGradient><linearGradient xmlns:xlink="http://www.w3.org/1999/xlink" id="ship__linear-gradient-13" x1="-172.51" y1="1054.65" x2="1434.78" y2="1022.92" xlink:href="#ship__linear-gradient-8"></linearGradient><linearGradient id="ship__linear-gradient-14" x1="1469.24" y1="1596.23" x2="1515.88" y2="890.82" gradientUnits="userSpaceOnUse"><stop offset="0.35" stop-color="#f3f7fa"></stop><stop offset="0.55" stop-color="#f5f7fa"></stop><stop offset="0.78" stop-color="#cae4f9"></stop></linearGradient><linearGradient xmlns:xlink="http://www.w3.org/1999/xlink" id="ship__linear-gradient-15" x1="2066.19" y1="1037.14" x2="923.91" y2="1037.14" xlink:href="#ship__linear-gradient-8"></linearGradient><linearGradient id="ship__linear-gradient-16" x1="136.51" y1="915.2" x2="136.51" y2="330.03" gradientUnits="userSpaceOnUse"><stop offset="0.29" stop-color="#f5f6fa"></stop><stop offset="0.6" stop-color="#ddedf9"></stop><stop offset="0.82" stop-color="#d1e8f9"></stop></linearGradient><linearGradient xmlns:xlink="http://www.w3.org/1999/xlink" id="ship__linear-gradient-17" x1="1828.25" y1="318.69" x2="1828.25" y2="19.22" xlink:href="#ship__linear-gradient-16"></linearGradient></defs><g xmlns="http://www.w3.org/2000/svg" id="ship__ship"><path d="M810.85,894.14c1.29-.53,102.07-24.33,280.12-11.07,24.17,1.8,40.09,5.62,56.59,3.6,13.5-1.65,26.26-7.16,39.63-9.66,44.39-8.28,81.68,24.29,122.79,34.88a126.76,126.76,0,0,0,65.17-.62c10.71-3,21.14-7.4,32.22-8.39,22-2,44.41,9.75,65.6,3.62,21.78-6.3,34.68-26.85,58.15-29.56,10.94-1.27,22,.18,32.81,2.4,22.45,4.63,44.67,12.67,67.56,11.46,19.33-1,36.09-8.95,54.47-13.7a169.9,169.9,0,0,1,53.76-4.88c42.38,2.85,76,21.13,108,47.64,2.17,1.79,13.23,15.81,14.64,15.81H810.85Z" fill="url(#ship__linear-gradient)"></path><polyline points="1508.86 620.41 1508.86 613.11 1474.11 613.11" fill="none" stroke="#253761" stroke-miterlimit="10" stroke-width="2"></polyline><line x1="1500.84" y1="613.39" x2="1500.84" y2="620.11" fill="none" stroke="#253761" stroke-miterlimit="10" stroke-width="2"></line><line x1="1479.7" y1="613.39" x2="1479.7" y2="620.11" fill="none" stroke="#253761" stroke-miterlimit="10" stroke-width="2"></line><polyline points="1271.04 620.41 1271.04 613.11 1304.69 613.11" fill="none" stroke="#253761" stroke-miterlimit="10" stroke-width="2"></polyline><line x1="1279.05" y1="613.39" x2="1279.05" y2="620.11" fill="none" stroke="#253761" stroke-miterlimit="10" stroke-width="2"></line><line x1="1300.19" y1="613.39" x2="1300.19" y2="620.11" fill="none" stroke="#253761" stroke-miterlimit="10" stroke-width="2"></line><path d="M1265.64,695.82l.35-32.3-40.72-22.66V620h81.4l-2.22-13.9-6.11-5V588.91h182v11.67l-5.56,5.55-1.39,14.45h81.13V640l-41.4,22.23v33.81S1265.27,695.45,1265.64,695.82Z" stroke="#253761" stroke-miterlimit="10" stroke-width="2" fill="url(#ship__linear-gradient-2)"></path><polygon points="1309.38 603.77 1332.17 603.77 1334.88 617.31 1311.86 617.31 1309.38 603.77" fill="#3977bc"></polygon><polygon points="1334.58 603.29 1350.99 603.29 1350.99 617.27 1336.63 617.27 1334.58 603.29" fill="#3977bc"></polygon><polygon points="1352.63 603.42 1373.83 603.42 1373.83 617.76 1353.39 617.76 1352.63 603.42" fill="#3977bc"></polygon><path d="M1375.78,603.24h26.89v14.2h-26.48S1376.05,603.51,1375.78,603.24Z" fill="#3977bc"></path><polygon points="1425.2 617.3 1405.06 616.96 1404.79 603.31 1425.2 602.97 1425.2 617.3" fill="#3977bc"></polygon><polygon points="1443.63 617.71 1427.45 616.96 1427.52 602.97 1444.45 603.78 1443.63 617.71" fill="#3977bc"></polygon><polygon points="1467.18 617.57 1445.34 617.57 1447.11 603.65 1468.96 603.65 1467.18 617.57" fill="#3977bc"></polygon><polyline points="1300.01 620.87 1300.01 629.96 1476.03 629.96 1476.03 621.46" fill="none" stroke="#cacfd3" stroke-miterlimit="10"></polyline><polygon points="1553.68 639.54 1540.55 640.71 1512.25 661.76 1553.68 639.54" fill="#3977bc"></polygon><polygon points="1226.09 640.33 1238.24 640.47 1266.81 662.99 1226.09 640.33" fill="#3977bc"></polygon><rect x="1457.74" y="579.72" width="7.48" height="9.05" fill="#f3f5f7" stroke="#253761" stroke-miterlimit="10" stroke-width="2"></rect><path d="M1461,558.57h1.76a9,9,0,0,1,9,9v8a0,0,0,0,1,0,0H1452a0,0,0,0,1,0,0v-8A9,9,0,0,1,1461,558.57Z" fill="#f3f5f7" stroke="#253761" stroke-miterlimit="10" stroke-width="2"></path><path d="M1452.46,575.51h18.89a.4.4,0,0,1,.3.66,11.35,11.35,0,0,1-8.88,4H1461a11.34,11.34,0,0,1-8.87-4A.4.4,0,0,1,1452.46,575.51Z" fill="#f3f5f7" stroke="#253761" stroke-miterlimit="10" stroke-width="2"></path><rect x="1313.77" y="579.72" width="7.48" height="9.05" fill="#f3f5f7" stroke="#253761" stroke-miterlimit="10" stroke-width="2"></rect><path d="M1317,558.57h1.76a9,9,0,0,1,9,9v8a0,0,0,0,1,0,0h-19.72a0,0,0,0,1,0,0v-8a9,9,0,0,1,9-9Z" fill="#f3f5f7" stroke="#253761" stroke-miterlimit="10" stroke-width="2"></path><path d="M1308.48,575.51h18.89a.4.4,0,0,1,.31.66,11.36,11.36,0,0,1-8.88,4h-1.75a11.34,11.34,0,0,1-8.87-4A.4.4,0,0,1,1308.48,575.51Z" fill="#f3f5f7" stroke="#253761" stroke-miterlimit="10" stroke-width="2"></path><line x1="1355.1" y1="540.27" x2="1422.87" y2="540.27" fill="none" stroke="#253761" stroke-miterlimit="10" stroke-width="2"></line><line x1="1380.45" y1="511.2" x2="1397.45" y2="511.2" fill="none" stroke="#253761" stroke-miterlimit="10" stroke-width="2"></line><path d="M1376.14,588l11-94.28H1392l11,94.72S1375.48,588,1376.14,588Z" fill="#f3f5f7" stroke="#253761" stroke-miterlimit="10" stroke-width="2"></path><line x1="1389.76" y1="485.64" x2="1389.76" y2="494.09" fill="none" stroke="#253761" stroke-miterlimit="10" stroke-width="2"></line><path d="M1561.94,829.29c-5.51,48.11-15.76,101.89-15.76,101.89-43.61,21.06-135.28,16.68-135.28,16.68h-42.72s-91.67,4.38-135.27-16.68c0,0-11-57-16.37-107.28C1283.4,800.81,1420.56,769,1561.94,829.29Z" stroke="#28385e" stroke-miterlimit="10" stroke-width="2" fill="url(#ship__linear-gradient-3)"></path><path d="M1562.2,736.35s-6.92-5.37-6.92-16.12c0,0-55.69-47.48-165.74-48.82-110.06,1.34-165.75,48.82-165.75,48.82,0,10.75-6.91,16.12-6.91,16.12-4.7,24.85-3.57,57.06-.34,87.55,66.86-23.09,204-54.88,345.4,5.39C1565.61,797.26,1567.17,762.67,1562.2,736.35Zm-330.67-1c-1.55,0-2.8-2.06-2.8-4.61s1.25-4.6,2.8-4.6,2.8,2.06,2.8,4.6S1233.08,735.37,1231.53,735.37Zm10.9-6.75c-1.55,0-2.8-2.06-2.8-4.6s1.25-4.61,2.8-4.61,2.79,2.06,2.79,4.61S1244,728.62,1242.43,728.62Zm10.89-6.74c-1.55,0-2.8-2.06-2.8-4.61s1.25-4.6,2.8-4.6,2.8,2.06,2.8,4.6S1254.86,721.88,1253.32,721.88Zm272.44,0c-1.54,0-2.79-2.06-2.79-4.61s1.25-4.6,2.79-4.6,2.79,2.06,2.79,4.6S1527.3,721.88,1525.76,721.88Zm10.89,6.74c-1.54,0-2.8-2.06-2.8-4.6s1.26-4.61,2.8-4.61,2.8,2.06,2.8,4.61S1538.2,728.62,1536.65,728.62Zm10.89,6.75c-1.54,0-2.79-2.06-2.79-4.61s1.25-4.6,2.79-4.6,2.8,2.06,2.8,4.6S1549.09,735.37,1547.54,735.37Z" stroke="#253761" stroke-miterlimit="10" stroke-width="2" fill="url(#ship__linear-gradient-4)"></path><path d="M1389.54,676c.66,35.67.65,75.32,0,111-.65-35.7-.66-75.34,0-111Z" fill="#311173"></path><path d="M1377.87,526l20.91.35,1.4-.68v-3.32h-3.26l-2.7,1.69H1381l-.85-1.63-2.43-.15S1377.78,526.07,1377.87,526Z" fill="#f3f5f7" stroke="#253761" stroke-miterlimit="10" stroke-width="2"></path><path d="M1368.29,559.85l39.6.58,2.65-1.12v-5.48h-6.17l-5.11,2.79h-25l-1.59-2.69-4.61-.25S1368.12,560,1368.29,559.85Z" fill="#f3f5f7" stroke="#253761" stroke-miterlimit="10" stroke-width="2"></path></g></g><g id="spot_idea_bulb">
  <circle cx="1480" cy="880" r="70.5" fill="#b8d9f5" opacity="0.30" filter="url(#softGlow)"></circle>
  <circle cx="1480" cy="880" r="75" fill="none" stroke="#71afd8" stroke-width="2" stroke-dasharray="8 11" stroke-linecap="round"></circle>
  <circle cx="1537.4" cy="831.7" r="5.5" fill="#6084f0"></circle></g><g id="idea_bulb" transform="translate(1480,880) scale(0.7732) translate(-1591.00,-788.00)"><defs xmlns="http://www.w3.org/2000/svg">
    <linearGradient id="g6__linear-gradient" x1="1312.16" y1="298.56" x2="1400.81" y2="876.66" gradientUnits="userSpaceOnUse">
      <stop offset=".36" stop-color="#c5e2f9"></stop>
      <stop offset=".39" stop-color="#cee6f9"></stop>
      <stop offset=".46" stop-color="#dfedf9"></stop>
      <stop offset=".54" stop-color="#ebf2f9"></stop>
      <stop offset=".66" stop-color="#f2f5f9"></stop>
      <stop offset="1" stop-color="#f4f6f9"></stop>
    </linearGradient>
    <linearGradient id="g6__linear-gradient1" x1="1387.52" y1="480" x2="1377.86" y2="758.93" gradientUnits="userSpaceOnUse">
      <stop offset="0" stop-color="#40a1fb"></stop>
      <stop offset=".07" stop-color="#48a4fa"></stop>
      <stop offset=".17" stop-color="#5eaffa"></stop>
      <stop offset=".3" stop-color="#82c0fa"></stop>
      <stop offset=".45" stop-color="#b3d7f9"></stop>
      <stop offset=".61" stop-color="#f3f5f9"></stop>
      <stop offset=".61" stop-color="#f4f6f9"></stop>
    </linearGradient>
    <linearGradient id="g6__linear-gradient2" x1="1680.53" y1="809.85" x2="2335.4" y2="809.85" gradientTransform="translate(2529.29) rotate(-180) scale(1 -1)" gradientUnits="userSpaceOnUse">
      <stop offset=".05" stop-color="#6497e0"></stop>
      <stop offset=".52" stop-color="#6295de"></stop>
      <stop offset=".7" stop-color="#5c8ed9"></stop>
      <stop offset=".82" stop-color="#5282d0"></stop>
      <stop offset=".92" stop-color="#4471c3"></stop>
      <stop offset=".98" stop-color="#3761b6"></stop>
    </linearGradient>
    <clipPath id="g6__clippath">
      <polygon points="920.51 1028.19 -9.17 1028.19 -9.17 632.12 920.51 626.71 920.51 1028.19" fill="none"></polygon>
    </clipPath>
    <linearGradient id="g6__linear-gradient3" x1="2413.72" y1="866.98" x2="1452.49" y2="866.98" gradientTransform="translate(2529.29) rotate(-180) scale(1 -1)" gradientUnits="userSpaceOnUse">
      <stop offset=".17" stop-color="#bfdff9"></stop>
      <stop offset=".65" stop-color="#e2eff8"></stop>
      <stop offset=".91" stop-color="#f4f8fb"></stop>
    </linearGradient>
    <linearGradient id="g6__linear-gradient4" x1="736.11" y1="776.62" x2="759.38" y2="853.16" gradientUnits="userSpaceOnUse">
      <stop offset=".17" stop-color="#bfdff9"></stop>
      <stop offset=".43" stop-color="#e2eff8"></stop>
      <stop offset=".91" stop-color="#f4f6f9"></stop>
    </linearGradient>
    <linearGradient id="g6__linear-gradient5" x1="1071.9" y1="851.04" x2="445.65" y2="851.04" gradientUnits="userSpaceOnUse">
      <stop offset="0" stop-color="#f2f4f9"></stop>
      <stop offset=".42" stop-color="#f9f9f9"></stop>
      <stop offset="1" stop-color="#f2f4f9"></stop>
    </linearGradient>
    <linearGradient xmlns:xlink="http://www.w3.org/1999/xlink" id="g6__linear-gradient6" x1="2191.1" y1="859.4" x2="1846.05" y2="859.4" xlink:href="#g6__linear-gradient3"></linearGradient>
    <linearGradient xmlns:xlink="http://www.w3.org/1999/xlink" id="g6__linear-gradient7" x1="1443.13" y1="859.16" x2="171.84" y2="859.16" xlink:href="#g6__linear-gradient5"></linearGradient>
    <linearGradient id="g6__linear-gradient8" x1="951" y1="734.59" x2="996.02" y2="859.16" gradientUnits="userSpaceOnUse">
      <stop offset="0" stop-color="#bfdff9"></stop>
      <stop offset=".43" stop-color="#e2eff8"></stop>
      <stop offset=".91" stop-color="#f4f6f9"></stop>
    </linearGradient>
    <linearGradient xmlns:xlink="http://www.w3.org/1999/xlink" id="g6__linear-gradient9" x1="1633.35" y1="857.35" x2="360.74" y2="857.35" xlink:href="#g6__linear-gradient5"></linearGradient>
    <linearGradient id="g6__linear-gradient10" x1="455.23" y1="855.52" x2="455.23" y2="987.57" gradientUnits="userSpaceOnUse">
      <stop offset=".17" stop-color="#bfdff9"></stop>
      <stop offset=".65" stop-color="#e2eff8"></stop>
      <stop offset=".91" stop-color="#f4f6f9"></stop>
    </linearGradient>
    <linearGradient xmlns:xlink="http://www.w3.org/1999/xlink" id="g6__linear-gradient11" x1="-11.08" y1="891.43" x2="934.89" y2="891.43" xlink:href="#g6__linear-gradient5"></linearGradient>
    <linearGradient id="g6__linear-gradient12" x1="2295.27" y1="817.79" x2="2150.33" y2="825.32" gradientTransform="translate(2529.29) rotate(-180) scale(1 -1)" gradientUnits="userSpaceOnUse">
      <stop offset=".21" stop-color="#83b1f2"></stop>
      <stop offset=".6" stop-color="#83b1f2" stop-opacity="0"></stop>
    </linearGradient>
  </defs><g xmlns="http://www.w3.org/2000/svg" id="g6__c4">
    <g>
      <circle cx="1591.53" cy="787.8" r="80.33" fill="#f3f4fa" stroke="#71afd8" stroke-miterlimit="10" stroke-width="2"></circle>
      <g>
        <path d="M1544.94,865.89c24.53,14.61,55.82,16.76,82.03,5.41,8.7-3.7,16.83-8.75,23.96-14.94l.65.76c-7.27,6.2-15.52,11.22-24.32,14.87-26.42,11.17-57.83,8.77-82.32-6.1h0Z" fill="#8ed0c2"></path>
        <g>
          <polygon points="1513.38 741.2 1510.5 746.44 1510.07 746.22 1512.95 740.94 1513.38 741.2" fill="#968cd5"></polygon>
          <polygon points="1507.96 751.86 1505.79 757.43 1505.39 757.29 1507.55 751.68 1507.96 751.86" fill="#968cd5"></polygon>
          <polygon points="1503.98 763.13 1502.55 768.94 1502.19 768.87 1503.6 763.03 1503.98 763.13" fill="#968cd5"></polygon>
          <polygon points="1501.51 774.84 1500.85 780.79 1500.54 780.76 1501.17 774.79 1501.51 774.84" fill="#968cd5"></polygon>
          <polygon points="1500.59 786.77 1500.72 792.75 1500.46 792.77 1500.3 786.76 1500.59 786.77" fill="#968cd5"></polygon>
          <polygon points="1501.25 798.72 1502.18 804.64 1501.97 804.68 1501.01 798.75 1501.25 798.72" fill="#968cd5"></polygon>
          <polygon points="1503.49 810.48 1505.18 816.23 1505.03 816.29 1503.31 810.53 1503.49 810.48" fill="#968cd5"></polygon>
          <polygon points="1507.25 821.86 1509.67 827.35 1509.57 827.4 1507.12 821.91 1507.25 821.86" fill="#968cd5"></polygon>
          <polygon points="1512.45 832.66 1515.57 837.79 1515.52 837.82 1512.37 832.71 1512.45 832.66" fill="#968cd5"></polygon>
          <polygon points="1519.02 842.69 1522.79 847.36 1522.78 847.36 1518.99 842.71 1519.02 842.69" fill="#968cd5"></polygon>
        </g>
        <circle cx="1652.44" cy="855.71" r="1.57" fill="none" stroke="#42bcc0" stroke-miterlimit="10" stroke-width=".5"></circle>
        <circle cx="1514.64" cy="738.85" r="2.95" fill="none" stroke="#968cd5" stroke-miterlimit="10" stroke-width=".5"></circle>
        <g>
          <path d="M1520.39,731.01c34.89-45.57,108.14-45.66,142.77-.45,25.17,32.86,24.96,77.49,4.71,108.36" fill="none" stroke="#838d9c" stroke-dasharray="12" stroke-linecap="round" stroke-miterlimit="10"></path>
          <circle cx="1665.9" cy="841.68" r="3.62" fill="#5b8aff"></circle>
        </g>
      </g>
    </g>
  </g>
<g xmlns="http://www.w3.org/2000/svg" id="g6__icon4">
    <g>
      <path d="M1570.84,833.72c-3.05-.7-5.96-1.77-8.66-3.37-1.66-.99-2.22-2.16-1.88-4.08.77-4.32-2.51-8.36-6.87-8.45-2.74-.06-3.64-.73-4.4-3.27-.73-2.44-1.05-4.93-.93-7.47.07-1.66.91-2.8,2.48-3.35,4.06-1.42,6.08-4.97,5.05-8.92-.13-.49-.35-.97-.57-1.43-.71-1.45-.56-2.8.48-4.02,1.84-2.16,4-3.96,6.42-5.45,1.35-.83,2.58-.65,3.94.49,2.78,2.32,6.67,2.21,9.14-.31.49-.5.87-1.11,1.26-1.69.81-1.23,1.99-1.76,3.42-1.44,2.98.68,5.79,1.81,8.39,3.42,1.3.8,1.87,1.97,1.71,3.51-.48,4.66,2.51,8.09,7.23,8.32,1.63.08,2.74.86,3.33,2.4,1.02,2.67,1.49,5.43,1.37,8.29-.08,1.84-.81,2.83-2.52,3.48-3.06,1.17-4.85,3.36-4.95,6.66-.04,1.14.33,2.36.77,3.43.73,1.75.68,2.98-.56,4.43-1.72,2.01-3.68,3.75-5.88,5.21-1.45.96-2.78.87-4.08-.28-3.67-3.22-8.48-2.29-10.8,2-.35.65-1.06,1.11-1.6,1.65l-1.28.21ZM1576.36,816.13c4.87-.79,8.23-5.4,7.47-10.24-.78-4.92-5.44-8.27-10.39-7.46-4.84.79-8.16,5.43-7.36,10.3.79,4.84,5.45,8.19,10.29,7.4Z" fill="#71afd8"></path>
      <path d="M1624.65,762.41c0,.64-.01,1.29-.03,1.93-.03,1.43-.68,2.35-2.01,2.85-3.61,1.36-5.04,4.88-3.35,8.31.56,1.14.47,2.21-.33,3.19-1.43,1.75-3.12,3.24-5.01,4.48-1.07.7-2.15.59-3.14-.25-3.09-2.62-6.8-1.95-8.73,1.59-.65,1.19-1.58,1.64-2.91,1.34-2.37-.53-4.6-1.44-6.67-2.72-1.1-.68-1.53-1.69-1.31-2.99.65-3.82-1.91-6.88-5.78-6.94-1.71-.03-2.52-.6-3.09-2.21-.73-2.07-1.01-4.21-.91-6.4.07-1.48.68-2.32,2.08-2.77,3.71-1.19,5.22-5.27,3.51-8.39-.59-1.08-.43-2.17.36-3.11,1.49-1.78,3.26-3.25,5.24-4.46,1.01-.62,2.07-.58,2.93.24,2.56,2.46,6.85,1.84,8.59-1.41.58-1.09,1.56-1.46,2.76-1.19,2.35.52,4.54,1.42,6.61,2.65,1.2.71,1.68,1.73,1.53,3.14-.37,3.33,1.98,6.15,5.3,6.46,2.27.21,2.88.71,3.54,2.89.09.31.22.6.33.9.16.96.32,1.93.48,2.89ZM1604.14,771.79c3.95-.63,6.64-4.3,6.03-8.2-.63-3.99-4.33-6.69-8.33-6.08-3.85.59-6.59,4.37-5.98,8.26.62,3.95,4.34,6.65,8.28,6.02Z" fill="#3660b7"></path>
      <path d="M1631.32,802.56c-.58,1.45-1.11,2.92-1.76,4.34-.41.9-1.22,1.13-2.19.97-2.52-.42-4.35.96-4.66,3.5-.11.88-.55,1.52-1.4,1.7-1.4.31-2.81.56-4.23.73-.82.1-1.36-.38-1.66-1.15-1.07-2.74-2.88-3.44-5.52-2.14-.74.36-1.48.34-2-.31-.98-1.22-1.92-2.48-2.78-3.78-.45-.69-.31-1.44.23-2.11,1.73-2.15,1.37-4.47-.89-5.99-.88-.59-1.22-1.23-.88-2.21.46-1.32,1.04-2.6,1.66-3.86.42-.85,1.2-1.09,2.14-.92,2.65.49,4.47-.81,4.85-3.45.13-.9.61-1.52,1.51-1.7,1.27-.25,2.55-.48,3.84-.61,1.18-.12,1.67.27,2.07,1.39.74,2.06,2.9,2.97,4.89,2.06,1.24-.57,1.73-.53,2.62.55.92,1.12,1.73,2.33,2.58,3.51l.19,1.12c-.22.37-.41.75-.66,1.09-1.24,1.75-.9,4.05.79,5.36.38.29.73.62,1.09.93l.16.96ZM1622.01,798.91c-.44-2.6-2.89-4.36-5.46-3.92-2.58.44-4.33,2.9-3.89,5.49.43,2.58,2.9,4.35,5.47,3.92,2.58-.43,4.32-2.88,3.88-5.48Z" fill="#3660b7"></path>
    </g>
  </g></g><g id="spot_compass">
  <circle cx="1680" cy="880" r="80.8" fill="#b8d9f5" opacity="0.30" filter="url(#softGlow)"></circle>
  <circle cx="1680" cy="880" r="86" fill="none" stroke="#71afd8" stroke-width="2" stroke-dasharray="8 11" stroke-linecap="round"></circle>
  <circle cx="1745.8" cy="824.6" r="5.5" fill="#6084f0"></circle></g><g transform="translate(1680,880)" id="icon_compass"><circle r="76" fill="#eef5fc" stroke="#71afd8" stroke-width="2.5"></circle><circle r="58" fill="#ffffff" stroke="#c5e2f9" stroke-width="2"></circle><g stroke="#3761b6" stroke-width="3"><line y1="-58" y2="-44"></line><line y1="58" y2="44"></line><line x1="-58" x2="-44"></line><line x1="58" x2="44"></line></g><polygon points="0,-42 12,0 0,42 -12,0" fill="#6084f0"></polygon><circle r="6" fill="#17325f"></circle></g><g id="wind_arrows"><circle cx="1020" cy="205" r="56" fill="#ffffff" stroke="#71afd8" stroke-width="2.5"></circle><circle cx="948" cy="272" r="15" fill="#ffffff" stroke="#71afd8" stroke-width="2.5"></circle><circle cx="910" cy="304" r="9" fill="#ffffff" stroke="#71afd8" stroke-width="2.5"></circle><g transform="translate(1020,205)"><path d="M-15 8 a19 19 0 1 1 30 0 c-4 5 -7 8 -7 15 h-16 c0 -7 -3 -10 -7 -15 Z" fill="#bfdff9" stroke="#3761b6" stroke-width="2.5"></path><line x1="-7" y1="29" x2="7" y2="29" stroke="#3761b6" stroke-width="2.5"></line></g></g><g id="swing_arrow"><rect x="740" y="360" width="960" height="330" rx="30" fill="#ffffff" stroke="#71afd8" stroke-width="2.5" filter="url(#cardShadow)"></rect><polygon points="740,520 686,546 740,572" fill="#ffffff" stroke="#71afd8" stroke-width="2.5"></polygon><text transform="translate(786,452)" font-family="DM Sans" font-weight="800" font-size="110" fill="#c5e2f9">“</text><rect x="1128" y="410" width="212" height="54" rx="9" fill="#bfdff9"></rect><text font-family="DM Sans" font-weight="600" font-size="44" fill="#0840a5" letter-spacing="-1"><tspan x="870" y="450">She has a large </tspan><tspan font-weight="700">sail area</tspan></text><text font-family="DM Sans" font-weight="600" font-size="44" fill="#0840a5" letter-spacing="-1"><tspan x="870" y="524">aft. I am not comfortable</tspan><tspan x="870" y="594">with that approach.</tspan></text></g>
</g>
</svg>