<?xml version="1.0"?>
<svg xmlns="http://www.w3.org/2000/svg" xmlns:xlink="http://www.w3.org/1999/xlink" viewBox="0 0 1920 1080" width="1920" height="1080">
<defs><filter id="cardShadow" x="-12%" y="-12%" width="124%" height="124%"><feDropShadow dx="0" dy="12" stdDeviation="24" flood-color="#253761" flood-opacity="0.10"></feDropShadow></filter>
<filter id="softGlow" x="-40%" y="-40%" width="180%" height="180%"><feGaussianBlur stdDeviation="16"></feGaussianBlur></filter>
<filter id="discShadow" x="-45%" y="-45%" width="190%" height="190%"><feDropShadow dx="0" dy="6" stdDeviation="10" flood-color="#253761" flood-opacity="0.12"></feDropShadow></filter></defs>
<g isolation="isolate">
<g id="bg" data-layer="world"><rect width="1920" height="1080" fill="#f5f6fa"></rect></g>
<g id="guides" data-layer="base">
  <circle cx="1800" cy="70" r="250" fill="#eef6fc"></circle>
  <g stroke="#e9eef7" stroke-width="1.5" fill="none">
    <line x1="96" y1="60" x2="96" y2="1020"></line><line x1="1824" y1="60" x2="1824" y2="1020"></line>
    <line x1="60" y1="120" x2="1860" y2="120"></line>
  </g></g><g id="waves" data-layer="world" transform="translate(0,-60)">
&#x9;<g>
&#x9;&#x9;<defs>
&#x9;&#x9;&#x9;<rect id="SVGID_00000168814697644826689340000005365166351631084971_" x="-0.36" y="-57.55" width="1921.02" height="1142.55"></rect>
&#x9;&#x9;</defs>
&#x9;&#x9;<clipPath id="SVGID_00000105407338550118346480000009718703442569130943_">
&#x9;&#x9;&#x9;<use xlink:href="#SVGID_00000168814697644826689340000005365166351631084971_" overflow="visible"></use>
&#x9;&#x9;</clipPath>
&#x9;&#x9;<g clip-path="url(#SVGID_00000105407338550118346480000009718703442569130943_)">
&#x9;&#x9;&#x9;
&#x9;&#x9;&#x9;&#x9;<linearGradient id="SVGID_00000134222689968386448660000006872443577450993854_" gradientUnits="userSpaceOnUse" x1="345.9236" y1="1396.5404" x2="345.9236" y2="700.9163">
&#x9;&#x9;&#x9;&#x9;<stop offset="0.3161" style="stop-color:#F3F7FA"></stop>
&#x9;&#x9;&#x9;&#x9;<stop offset="0.4663" style="stop-color:#F5F7FA"></stop>
&#x9;&#x9;&#x9;&#x9;<stop offset="0.5412" style="stop-color:#E7F0F8"></stop>
&#x9;&#x9;&#x9;&#x9;<stop offset="0.6175" style="stop-color:#DDECF7"></stop>
&#x9;&#x9;&#x9;</linearGradient>
&#x9;&#x9;&#x9;<path fill="url(#SVGID_00000134222689968386448660000006872443577450993854_)" d="M1022.13,1095.58H717.07v131.92H-330.29&#xA;&#x9;&#x9;&#x9;&#x9;c1.4-29.17,9.89-39.78,9.28-68.97c39.77-64.67,96.68-122.4,162.5-160.24c111.54-64.13,245.69-104.85,373.58-90.75&#xA;&#x9;&#x9;&#x9;&#x9;c36.14,3.99,88.97,25.1,123.37,37.04c75.06,26.04,141.06,6.06,200.43-5.87c70.8-14.24,116.66-24.58,163.91-18.38&#xA;&#x9;&#x9;&#x9;&#x9;C826.85,936.59,937.28,1027.5,1022.13,1095.58z"></path>
&#x9;&#x9;&#x9;<g>
&#x9;&#x9;&#x9;&#x9;
&#x9;&#x9;&#x9;&#x9;&#x9;<linearGradient id="SVGID_00000026855773924050589320000001491403585188786056_" gradientUnits="userSpaceOnUse" x1="-93.4496" y1="966.3698" x2="941.3154" y2="966.3698">
&#x9;&#x9;&#x9;&#x9;&#x9;<stop offset="0" style="stop-color:#F2F4F9"></stop>
&#x9;&#x9;&#x9;&#x9;&#x9;<stop offset="0.4157" style="stop-color:#F9F9F9"></stop>
&#x9;&#x9;&#x9;&#x9;&#x9;<stop offset="1" style="stop-color:#F2F4F9"></stop>
&#x9;&#x9;&#x9;&#x9;</linearGradient>
&#x9;&#x9;&#x9;&#x9;<path fill="url(#SVGID_00000026855773924050589320000001491403585188786056_)" d="M-92.28,963.98&#xA;&#x9;&#x9;&#x9;&#x9;&#x9;c20.28-9.71,41.23-17.97,62.46-25.41c21.24-7.42,42.81-13.9,64.66-19.35c21.87-5.38,44.02-9.67,66.36-12.64&#xA;&#x9;&#x9;&#x9;&#x9;&#x9;c11.17-1.48,22.4-2.62,33.65-3.4c11.26-0.75,22.54-1.12,33.83-1.05c11.29,0.06,22.59,0.58,33.85,1.62l4.22,0.4l4.21,0.48&#xA;&#x9;&#x9;&#x9;&#x9;&#x9;c2.81,0.31,5.61,0.7,8.41,1.09c2.81,0.36,5.59,0.86,8.39,1.29l1.05,0.17c0.38,0.07,0.77,0.14,1.14,0.23&#xA;&#x9;&#x9;&#x9;&#x9;&#x9;c0.75,0.17,1.47,0.36,2.18,0.56c1.41,0.4,2.73,0.83,4,1.16c0.64,0.17,1.26,0.31,1.87,0.42l2.1,0.38&#xA;&#x9;&#x9;&#x9;&#x9;&#x9;c1.43,0.25,2.81,0.58,4.22,0.87c2.78,0.65,5.54,1.33,8.27,2.08c5.47,1.49,10.87,3.11,16.26,4.8&#xA;&#x9;&#x9;&#x9;&#x9;&#x9;c10.76,3.37,21.43,6.97,32.07,10.61l31.86,11.02c5.31,1.82,10.62,3.63,15.94,5.36c5.32,1.71,10.65,3.43,15.95,4.63&#xA;&#x9;&#x9;&#x9;&#x9;&#x9;c5.48,1.24,10.91,2.42,16.38,3.35c5.47,0.95,10.97,1.63,16.49,2.11c11.05,0.96,22.19,0.99,33.31,0.42&#xA;&#x9;&#x9;&#x9;&#x9;&#x9;c22.26-1.13,44.41-4.59,66.32-9.11c10.96-2.25,21.84-4.88,32.78-7.5c10.94-2.6,21.88-5.21,32.88-7.63&#xA;&#x9;&#x9;&#x9;&#x9;&#x9;c21.99-4.85,44.18-9.11,66.64-11.64c11.23-1.26,22.52-2.09,33.83-2.33c11.31-0.22,22.64,0.13,33.91,1.14&#xA;&#x9;&#x9;&#x9;&#x9;&#x9;c22.55,1.99,44.84,6.68,66.29,13.8c10.74,3.51,21.23,7.75,31.51,12.41c5.17,2.28,10.19,4.81,15.26,7.24l7.6,3.68l7.53,3.81&#xA;&#x9;&#x9;&#x9;&#x9;&#x9;c20.07,10.18,39.83,20.98,59.06,32.66c9.63,5.82,19.09,11.9,28.34,18.31l3.46,2.41l3.42,2.47c2.29,1.63,4.53,3.33,6.77,5.03&#xA;&#x9;&#x9;&#x9;&#x9;&#x9;c4.46,3.42,8.88,6.91,13.02,10.71c-4.23-3.7-8.73-7.07-13.27-10.38c-2.28-1.64-4.56-3.28-6.88-4.86l-3.47-2.39l-3.51-2.32&#xA;&#x9;&#x9;&#x9;&#x9;&#x9;c-4.66-3.13-9.42-6.11-14.17-9.1c-4.8-2.91-9.57-5.87-14.45-8.65c-19.4-11.31-39.31-21.72-59.5-31.52l-7.56-3.7l-7.62-3.58&#xA;&#x9;&#x9;&#x9;&#x9;&#x9;c-5.08-2.37-10.14-4.84-15.27-7.04c-10.24-4.5-20.67-8.59-31.33-11.94c-21.29-6.8-43.32-11.19-65.57-12.9&#xA;&#x9;&#x9;&#x9;&#x9;&#x9;c-22.26-1.74-44.67-0.86-66.85,1.76c-22.21,2.62-44.2,6.98-66.07,11.93c-10.94,2.49-21.86,5.07-32.78,7.71&#xA;&#x9;&#x9;&#x9;&#x9;&#x9;c-10.91,2.63-21.88,5.31-32.93,7.6c-22.08,4.6-44.47,8.15-67.12,9.34c-11.32,0.56-22.71,0.51-34.05-0.49&#xA;&#x9;&#x9;&#x9;&#x9;&#x9;c-5.67-0.5-11.33-1.22-16.93-2.2c-5.61-0.96-11.17-2.18-16.64-3.43c-5.66-1.3-11.03-3.06-16.41-4.79&#xA;&#x9;&#x9;&#x9;&#x9;&#x9;c-5.37-1.75-10.69-3.58-16.01-5.41l-31.83-11.12c-10.6-3.69-21.21-7.34-31.88-10.75c-5.33-1.7-10.68-3.34-16.05-4.83&#xA;&#x9;&#x9;&#x9;&#x9;&#x9;c-2.68-0.76-5.37-1.44-8.06-2.08c-1.34-0.29-2.69-0.62-4.03-0.86l-2.05-0.38c-0.77-0.14-1.52-0.32-2.24-0.51&#xA;&#x9;&#x9;&#x9;&#x9;&#x9;c-1.44-0.39-2.79-0.83-4.09-1.21c-0.65-0.19-1.28-0.36-1.9-0.5c-0.31-0.07-0.62-0.13-0.92-0.19l-1.03-0.17&#xA;&#x9;&#x9;&#x9;&#x9;&#x9;c-2.76-0.44-5.5-0.95-8.27-1.32c-2.76-0.4-5.52-0.8-8.3-1.12c-2.77-0.36-5.54-0.66-8.32-0.94c-11.11-1.15-22.28-1.79-33.46-1.97&#xA;&#x9;&#x9;&#x9;&#x9;&#x9;c-11.18-0.19-22.38,0.05-33.55,0.68c-11.18,0.65-22.33,1.66-33.46,3.01c-22.25,2.7-44.33,6.77-66.18,11.83&#xA;&#x9;&#x9;&#x9;&#x9;&#x9;c-21.86,5.04-43.49,11.12-64.82,18.14c-10.66,3.51-21.25,7.26-31.75,11.26C-71.61,955.16-82.04,959.33-92.28,963.98z"></path>
&#x9;&#x9;&#x9;</g>
&#x9;&#x9;</g>
&#x9;&#x9;<g clip-path="url(#SVGID_00000105407338550118346480000009718703442569130943_)">
&#x9;&#x9;&#x9;
&#x9;&#x9;&#x9;&#x9;<linearGradient id="SVGID_00000062883735495575380470000007154962794179695537_" gradientUnits="userSpaceOnUse" x1="9738.583" y1="948.3289" x2="9738.583" y2="252.7046" gradientTransform="matrix(-0.9925 0.1223 0.1223 0.9925 11092.0361 -679.729)">
&#x9;&#x9;&#x9;&#x9;<stop offset="0.3161" style="stop-color:#F3F7FA"></stop>
&#x9;&#x9;&#x9;&#x9;<stop offset="0.4663" style="stop-color:#F5F7FA"></stop>
&#x9;&#x9;&#x9;&#x9;<stop offset="0.5412" style="stop-color:#E7F0F8"></stop>
&#x9;&#x9;&#x9;&#x9;<stop offset="0.6175" style="stop-color:#DDECF7"></stop>
&#x9;&#x9;&#x9;</linearGradient>
&#x9;&#x9;&#x9;<path fill="url(#SVGID_00000062883735495575380470000007154962794179695537_)" d="M834.55,1236.24l302.77-37.3l16.13,130.93&#xA;&#x9;&#x9;&#x9;&#x9;l1039.5-128.07c-4.96-28.78-14.68-38.27-17.64-67.32c-47.38-59.32-110.92-109.66-180.87-139.17&#xA;&#x9;&#x9;&#x9;&#x9;c-118.54-50.01-256.67-74.02-381.87-44.39c-35.38,8.38-85.23,35.79-117.92,51.85c-71.32,35.03-139.26,23.27-199.64,18.68&#xA;&#x9;&#x9;&#x9;&#x9;c-72.01-5.47-118.79-10.13-164.93,1.8C1008.93,1054.57,910.44,1158.3,834.55,1236.24z"></path>
&#x9;&#x9;&#x9;<g>
&#x9;&#x9;&#x9;&#x9;
&#x9;&#x9;&#x9;&#x9;&#x9;<linearGradient id="SVGID_00000090285793472216707530000014638169832578094240_" gradientUnits="userSpaceOnUse" x1="1902.3618" y1="859.2885" x2="900.7113" y2="1118.9707">
&#x9;&#x9;&#x9;&#x9;&#x9;<stop offset="0" style="stop-color:#F2F4F9"></stop>
&#x9;&#x9;&#x9;&#x9;&#x9;<stop offset="0.4157" style="stop-color:#F9F9F9"></stop>
&#x9;&#x9;&#x9;&#x9;&#x9;<stop offset="1" style="stop-color:#F2F4F9"></stop>
&#x9;&#x9;&#x9;&#x9;</linearGradient>
&#x9;&#x9;&#x9;&#x9;<path fill="url(#SVGID_00000090285793472216707530000014638169832578094240_)" d="M1900.63,857.27&#xA;&#x9;&#x9;&#x9;&#x9;&#x9;c-11.07-1.93-22.22-3.35-33.39-4.57c-11.16-1.23-22.35-2.2-33.56-2.93c-22.41-1.44-44.87-1.9-67.3-1.29&#xA;&#x9;&#x9;&#x9;&#x9;&#x9;c-22.42,0.58-44.82,2.19-67.03,5.15c-11.1,1.49-22.16,3.3-33.14,5.48c-10.98,2.2-21.87,4.78-32.65,7.77&#xA;&#x9;&#x9;&#x9;&#x9;&#x9;c-10.78,2.98-21.43,6.4-31.89,10.3c-2.62,0.97-5.23,1.96-7.82,3c-2.61,1-5.18,2.09-7.75,3.17c-2.59,1.05-5.11,2.24-7.67,3.35&#xA;&#x9;&#x9;&#x9;&#x9;&#x9;l-0.96,0.42c-0.28,0.13-0.56,0.27-0.85,0.41c-0.57,0.29-1.14,0.62-1.72,0.96c-1.16,0.69-2.35,1.46-3.65,2.19&#xA;&#x9;&#x9;&#x9;&#x9;&#x9;c-0.65,0.37-1.33,0.73-2.04,1.06l-1.89,0.89c-1.24,0.57-2.46,1.22-3.69,1.84c-2.44,1.3-4.88,2.63-7.28,4.04&#xA;&#x9;&#x9;&#x9;&#x9;&#x9;c-4.82,2.79-9.59,5.72-14.32,8.71c-9.47,5.98-18.83,12.17-28.16,18.41l-28.02,18.75c-4.69,3.11-9.38,6.21-14.14,9.26&#xA;&#x9;&#x9;&#x9;&#x9;&#x9;c-4.77,3.03-9.53,6.08-14.68,8.76c-4.99,2.59-10.06,5.16-15.25,7.5c-5.18,2.36-10.48,4.47-15.84,6.38&#xA;&#x9;&#x9;&#x9;&#x9;&#x9;c-10.73,3.82-21.74,6.72-32.84,9.02c-22.23,4.54-44.79,6.72-67.32,7.81c-11.27,0.56-22.56,0.72-33.78,0.91&#xA;&#x9;&#x9;&#x9;&#x9;&#x9;c-11.23,0.19-22.45,0.43-33.66,0.77c-22.41,0.7-44.79,2-66.95,5.04c-22.14,3.04-44.05,7.8-65.16,15.08&#xA;&#x9;&#x9;&#x9;&#x9;&#x9;c-21.11,7.24-41.34,17.02-60.24,28.94c-9.48,5.93-18.55,12.49-27.33,19.42c-4.42,3.42-8.69,7.08-13.02,10.65l-6.47,5.38&#xA;&#x9;&#x9;&#x9;&#x9;&#x9;l-6.39,5.47c-17.09,14.55-33.75,29.62-49.69,45.44c-4.02,3.92-7.89,7.98-11.81,12c-3.85,4.09-7.71,8.16-11.43,12.36l-2.82,3.13&#xA;&#x9;&#x9;&#x9;&#x9;&#x9;l-2.76,3.18c-1.86,2.11-3.65,4.27-5.44,6.43c-3.56,4.34-7.06,8.74-10.24,13.38c3.06-4.72,6.46-9.2,9.92-13.63&#xA;&#x9;&#x9;&#x9;&#x9;&#x9;c1.74-2.21,3.48-4.41,5.29-6.57l2.69-3.25l2.75-3.2c7.34-8.52,14.98-16.79,22.84-24.83c15.68-16.13,32.1-31.54,48.97-46.43&#xA;&#x9;&#x9;&#x9;&#x9;&#x9;l6.34-5.57l6.43-5.46c4.3-3.63,8.52-7.33,12.96-10.84c8.78-7.09,17.87-13.82,27.39-19.92c18.98-12.27,39.38-22.41,60.71-29.99&#xA;&#x9;&#x9;&#x9;&#x9;&#x9;c10.66-3.8,21.54-6.99,32.54-9.61c11.01-2.61,22.15-4.63,33.33-6.23c22.38-3.2,44.93-4.63,67.43-5.46&#xA;&#x9;&#x9;&#x9;&#x9;&#x9;c11.25-0.42,22.5-0.64,33.74-0.87c11.25-0.21,22.44-0.39,33.62-0.97c22.34-1.12,44.66-3.33,66.49-7.82&#xA;&#x9;&#x9;&#x9;&#x9;&#x9;c10.91-2.24,21.69-5.06,32.14-8.77c5.23-1.85,10.38-3.9,15.44-6.19c5.06-2.27,10.02-4.77,15.01-7.35&#xA;&#x9;&#x9;&#x9;&#x9;&#x9;c4.82-2.49,9.55-5.5,14.27-8.49c4.71-3.01,9.4-6.09,14.08-9.18l28.08-18.66c9.39-6.2,18.81-12.36,28.38-18.32&#xA;&#x9;&#x9;&#x9;&#x9;&#x9;c4.79-2.98,9.61-5.91,14.53-8.72c2.45-1.41,4.95-2.77,7.48-4.09c1.28-0.64,2.54-1.3,3.86-1.9l1.93-0.89&#xA;&#x9;&#x9;&#x9;&#x9;&#x9;c0.56-0.26,1.13-0.55,1.7-0.87c1.15-0.64,2.32-1.39,3.58-2.13c0.63-0.37,1.29-0.74,1.97-1.08c0.34-0.17,0.7-0.34,1.05-0.5&#xA;&#x9;&#x9;&#x9;&#x9;&#x9;l0.97-0.42c2.6-1.12,5.17-2.3,7.79-3.35c2.61-1.08,5.23-2.16,7.87-3.17l3.96-1.53l3.99-1.44c10.64-3.83,21.44-7.18,32.36-10.06&#xA;&#x9;&#x9;&#x9;&#x9;&#x9;c10.91-2.9,21.93-5.37,33.02-7.47c11.09-2.08,22.24-3.78,33.43-5.16c22.38-2.73,44.9-4.13,67.41-4.42&#xA;&#x9;&#x9;&#x9;&#x9;&#x9;c22.52-0.21,45.03,0.65,67.45,2.5C1856.2,850.22,1878.56,852.96,1900.63,857.27z"></path>
&#x9;&#x9;&#x9;</g>
&#x9;&#x9;</g>
&#x9;&#x9;<g clip-path="url(#SVGID_00000105407338550118346480000009718703442569130943_)">
&#x9;&#x9;&#x9;
&#x9;&#x9;&#x9;&#x9;<linearGradient id="SVGID_00000139978133225882142520000018225403853336047520_" gradientUnits="userSpaceOnUse" x1="711.1434" y1="679.771" x2="584.0881" y2="1306.0206">
&#x9;&#x9;&#x9;&#x9;<stop offset="0.0251" style="stop-color:#E6F2F8"></stop>
&#x9;&#x9;&#x9;&#x9;<stop offset="0.1988" style="stop-color:#EFF5FA"></stop>
&#x9;&#x9;&#x9;&#x9;<stop offset="0.4212" style="stop-color:#F3F7FB"></stop>
&#x9;&#x9;&#x9;&#x9;<stop offset="0.5462" style="stop-color:#E2EFF8"></stop>
&#x9;&#x9;&#x9;&#x9;<stop offset="0.6835" style="stop-color:#d7ebf7"></stop>
&#x9;&#x9;&#x9;&#x9;<stop offset="0.8427" style="stop-color:#d4e9f6"></stop>
&#x9;&#x9;&#x9;</linearGradient>
&#x9;&#x9;&#x9;<path fill="url(#SVGID_00000139978133225882142520000018225403853336047520_)" d="M-176.53,1057.68&#xA;&#x9;&#x9;&#x9;&#x9;c94.98-88.85,321.43-84.71,418.59-57.35c100.56,28.31,192.08,85.95,296.15,99.07c174.55,22,349.14-84.87,524.28-67.03&#xA;&#x9;&#x9;&#x9;&#x9;c124.31,12.66,270.67,94.24,355.69,159.85l-1608.5,42.81L-176.53,1057.68z"></path>
&#x9;&#x9;&#x9;<g>
&#x9;&#x9;&#x9;&#x9;
&#x9;&#x9;&#x9;&#x9;&#x9;<linearGradient id="SVGID_00000158744455592253922080000003333907667244210825_" gradientUnits="userSpaceOnUse" x1="-172.5449" y1="1112.0848" x2="1434.7395" y2="1080.3523">
&#x9;&#x9;&#x9;&#x9;&#x9;<stop offset="0" style="stop-color:#F2F4F9"></stop>
&#x9;&#x9;&#x9;&#x9;&#x9;<stop offset="0.4157" style="stop-color:#F9F9F9"></stop>
&#x9;&#x9;&#x9;&#x9;&#x9;<stop offset="1" style="stop-color:#F2F4F9"></stop>
&#x9;&#x9;&#x9;&#x9;</linearGradient>
&#x9;&#x9;&#x9;&#x9;<path fill="url(#SVGID_00000158744455592253922080000003333907667244210825_)" d="M-171.94,1053.09&#xA;&#x9;&#x9;&#x9;&#x9;&#x9;c6.52-5.93,13.53-11.32,20.86-16.23c7.34-4.89,15-9.3,22.85-13.33c15.71-8.06,32.2-14.52,49.02-19.87&#xA;&#x9;&#x9;&#x9;&#x9;&#x9;c16.83-5.35,34-9.58,51.33-12.95c17.33-3.36,34.83-5.88,52.4-7.64c35.14-3.47,70.57-4.14,105.84-1.99&#xA;&#x9;&#x9;&#x9;&#x9;&#x9;c17.63,1.06,35.23,2.81,52.73,5.28c17.5,2.45,34.9,5.66,52.13,9.63c17.23,3.95,34.26,8.83,51.04,14.42&#xA;&#x9;&#x9;&#x9;&#x9;&#x9;c16.79,5.55,33.3,11.86,49.7,18.41c16.38,6.58,32.63,13.45,48.89,20.24c16.26,6.8,32.52,13.53,48.97,19.73&#xA;&#x9;&#x9;&#x9;&#x9;&#x9;c8.22,3.13,16.5,6.06,24.81,8.89c8.33,2.78,16.7,5.4,25.14,7.79c8.45,2.33,16.93,4.57,25.5,6.38l3.21,0.71l3.22,0.63l6.45,1.26&#xA;&#x9;&#x9;&#x9;&#x9;&#x9;c4.32,0.71,8.62,1.54,12.96,2.11c34.64,5.2,69.95,4.74,104.82,1.02c34.92-3.7,69.48-10.49,103.83-18.16&#xA;&#x9;&#x9;&#x9;&#x9;&#x9;c34.35-7.71,68.52-16.4,102.89-24.43c34.36-8.04,68.97-15.36,104.01-20.24c35.02-4.83,70.55-7.24,105.95-4.82&#xA;&#x9;&#x9;&#x9;&#x9;&#x9;c8.84,0.63,17.67,1.47,26.45,2.73c8.78,1.25,17.51,2.84,26.16,4.72c17.32,3.76,34.35,8.64,51.11,14.28&#xA;&#x9;&#x9;&#x9;&#x9;&#x9;c33.52,11.32,65.94,25.58,97.43,41.54c31.47,16.02,61.99,33.83,91.67,52.9c29.67,19.08,58.51,39.48,86.11,61.43&#xA;&#x9;&#x9;&#x9;&#x9;&#x9;c-13.98-10.74-28.26-21.08-42.77-31.08c-14.49-10.03-29.21-19.72-44.15-29.06c-29.87-18.69-60.58-36.04-92.11-51.7&#xA;&#x9;&#x9;&#x9;&#x9;&#x9;c-31.52-15.67-63.92-29.63-97.31-40.63c-33.37-10.97-67.84-18.88-102.88-20.76c-35.02-2.08-70.22,0.31-104.99,5.29&#xA;&#x9;&#x9;&#x9;&#x9;&#x9;c-34.8,4.97-69.22,12.45-103.51,20.48c-34.29,8.05-68.46,16.8-102.9,24.57c-34.43,7.78-69.21,14.52-104.45,18.22&#xA;&#x9;&#x9;&#x9;&#x9;&#x9;c-35.19,3.7-70.98,4.14-106.14-1.19c-4.4-0.6-8.76-1.45-13.13-2.19l-6.53-1.3l-3.26-0.66l-3.24-0.73&#xA;&#x9;&#x9;&#x9;&#x9;&#x9;c-8.67-1.87-17.24-4.17-25.77-6.56c-8.52-2.45-16.96-5.13-25.34-7.96c-8.36-2.89-16.69-5.87-24.94-9.04&#xA;&#x9;&#x9;&#x9;&#x9;&#x9;c-16.51-6.31-32.81-13.11-49.04-20.01c-16.22-6.92-32.4-13.9-48.68-20.59c-32.55-13.36-65.69-25.4-99.96-33.36&#xA;&#x9;&#x9;&#x9;&#x9;&#x9;c-17.11-4.04-34.4-7.32-51.8-9.85c-17.4-2.55-34.91-4.38-52.47-5.53c-35.11-2.28-70.41-2.03-105.47,1.17&#xA;&#x9;&#x9;&#x9;&#x9;&#x9;c-17.53,1.6-34.99,3.97-52.3,7.17c-17.3,3.21-34.46,7.29-51.29,12.48c-16.81,5.2-33.31,11.51-49.08,19.35&#xA;&#x9;&#x9;&#x9;&#x9;&#x9;c-7.88,3.93-15.57,8.24-22.96,13.04C-158.28,1041.93-165.35,1047.23-171.94,1053.09z"></path>
&#x9;&#x9;&#x9;</g>
&#x9;&#x9;</g>
&#x9;&#x9;<g clip-path="url(#SVGID_00000105407338550118346480000009718703442569130943_)">
&#x9;&#x9;&#x9;
&#x9;&#x9;&#x9;&#x9;<linearGradient id="SVGID_00000023970680784720358740000015608810013737459637_" gradientUnits="userSpaceOnUse" x1="1469.2388" y1="1655.4952" x2="1515.8774" y2="950.0858">
&#x9;&#x9;&#x9;&#x9;<stop offset="0.3454" style="stop-color:#F3F7FA"></stop>
&#x9;&#x9;&#x9;&#x9;<stop offset="0.5467" style="stop-color:#F5F7FA"></stop>
&#x9;&#x9;&#x9;&#x9;<stop offset="0.7844" style="stop-color:#CAE4F9"></stop>
&#x9;&#x9;&#x9;</linearGradient>
&#x9;&#x9;&#x9;<path fill="url(#SVGID_00000023970680784720358740000015608810013737459637_)" d="M929.93,1240.72&#xA;&#x9;&#x9;&#x9;&#x9;c27.4-30.54,65.81-48.48,103.21-65.34c61.7-27.82,123.92-54.97,188.75-74.4c102.44-30.7,210.77-41.63,317.28-32.02&#xA;&#x9;&#x9;&#x9;&#x9;c45.3,4.09,90.43,12.71,135.9,11.41c150.61-4.31,309.25-97.78,391.12-128.29l-1.53,269.51L929.93,1240.72z"></path>
&#x9;&#x9;&#x9;<g>
&#x9;&#x9;&#x9;&#x9;
&#x9;&#x9;&#x9;&#x9;&#x9;<linearGradient id="SVGID_00000168833495327494942390000004121253776403290814_" gradientUnits="userSpaceOnUse" x1="2066.1917" y1="1096.406" x2="923.9116" y2="1096.406">
&#x9;&#x9;&#x9;&#x9;&#x9;<stop offset="0" style="stop-color:#F2F4F9"></stop>
&#x9;&#x9;&#x9;&#x9;&#x9;<stop offset="0.4157" style="stop-color:#F9F9F9"></stop>
&#x9;&#x9;&#x9;&#x9;&#x9;<stop offset="1" style="stop-color:#F2F4F9"></stop>
&#x9;&#x9;&#x9;&#x9;</linearGradient>
&#x9;&#x9;&#x9;&#x9;<path fill="url(#SVGID_00000168833495327494942390000004121253776403290814_)" d="M926.86,1240.72&#xA;&#x9;&#x9;&#x9;&#x9;&#x9;c8.26-9.41,17.65-17.81,27.74-25.26c10.1-7.44,20.83-14,31.83-20.01c11-6.02,22.29-11.48,33.63-16.8&#xA;&#x9;&#x9;&#x9;&#x9;&#x9;c11.35-5.3,22.72-10.51,34.13-15.66c45.63-20.59,91.74-40.36,139.3-56.41c47.6-15.87,96.59-27.75,146.29-34.91&#xA;&#x9;&#x9;&#x9;&#x9;&#x9;c24.84-3.61,49.84-6.17,74.91-7.53c25.07-1.33,50.2-1.54,75.29-0.64c25.08,0.88,50.15,2.99,75.02,5.89&#xA;&#x9;&#x9;&#x9;&#x9;&#x9;c24.89,2.79,49.7,5.89,74.59,7.56c12.44,0.86,24.9,1.38,37.35,1.31c12.45-0.06,24.89-0.84,37.28-2.07&#xA;&#x9;&#x9;&#x9;&#x9;&#x9;c12.4-1.25,24.74-3.07,37.01-5.27c12.27-2.25,24.46-4.92,36.56-7.96c24.2-6.11,48.05-13.65,71.53-22.18&#xA;&#x9;&#x9;&#x9;&#x9;&#x9;c23.5-8.5,46.68-17.91,69.61-27.88c22.95-9.96,45.65-20.49,68.35-31.01c11.36-5.26,22.72-10.51,34.17-15.56&#xA;&#x9;&#x9;&#x9;&#x9;&#x9;c11.45-5.04,22.98-9.96,34.73-14.25c-11.69,4.48-23.12,9.57-34.49,14.79c-11.36,5.24-22.65,10.63-33.95,16.01&#xA;&#x9;&#x9;&#x9;&#x9;&#x9;c-22.58,10.78-45.17,21.58-68.02,31.82c-22.86,10.23-45.94,20-69.45,28.7c-23.5,8.72-47.38,16.46-71.67,22.78&#xA;&#x9;&#x9;&#x9;&#x9;&#x9;c-12.15,3.15-24.39,5.92-36.73,8.28c-12.34,2.31-24.77,4.23-37.26,5.58c-12.5,1.33-25.06,2.2-37.64,2.36&#xA;&#x9;&#x9;&#x9;&#x9;&#x9;c-12.58,0.17-25.15-0.18-37.68-0.92c-25.07-1.51-49.97-4.5-74.84-7.13c-12.43-1.3-24.86-2.63-37.3-3.49l-9.33-0.72&#xA;&#x9;&#x9;&#x9;&#x9;&#x9;c-3.11-0.26-6.23-0.36-9.34-0.54c-6.23-0.31-12.45-0.73-18.69-0.84c-24.93-0.85-49.9-0.58-74.81,0.78&#xA;&#x9;&#x9;&#x9;&#x9;&#x9;c-24.91,1.31-49.76,3.8-74.46,7.34c-24.69,3.55-49.23,8.2-73.53,13.85l-9.11,2.12l-9.06,2.33l-9.06,2.33&#xA;&#x9;&#x9;&#x9;&#x9;&#x9;c-3.01,0.8-6.01,1.69-9.01,2.53c-12.03,3.31-23.95,7.02-35.82,10.87c-47.5,15.45-93.75,34.64-139.57,54.71l-34.35,15.12&#xA;&#x9;&#x9;&#x9;&#x9;&#x9;c-11.42,5.09-22.77,10.33-33.83,16.12c-11.07,5.78-21.86,12.11-32.05,19.33c-5.08,3.62-10.05,7.42-14.78,11.51&#xA;&#x9;&#x9;&#x9;&#x9;&#x9;C935.63,1231.79,931.11,1236.13,926.86,1240.72z"></path>
&#x9;&#x9;&#x9;</g>
&#x9;&#x9;</g>
&#x9;</g>
</g>
<g id="divider_head">
  <text transform="translate(84,300)" font-family="DM Sans" font-weight="600" font-size="300" fill="#6084f0">1</text>
  <text transform="translate(300,114)" font-family="DM Sans" font-weight="700" font-size="26" letter-spacing="6" fill="#3761b6">SECTION 01</text><text transform="translate(300,232)" font-family="DM Sans" font-weight="600" font-size="104" letter-spacing="-2" fill="#0840a5">Safety Tool</text>
  <text transform="translate(304,300)" font-family="DM Sans" font-weight="450" font-size="46" fill="#17439e">AB &amp; Bosun Scenario</text>
  </g><g id="scatter"><path d="M860 292 L862.2 297.8 L868 300 L862.2 302.2 L860 308 L857.8 302.2 L852 300 L857.8 297.8 Z" fill="#9ac7fd"></path><circle cx="1180" cy="250" r="3" fill="#c5e2f9"></circle><circle cx="760" cy="860" r="3" fill="#c5e2f9"></circle></g><g id="spot_hazmat">
</g><g id="hazmat" transform="translate(1180,380) scale(1.0116) translate(-1160.50,-769.50)"><defs xmlns="http://www.w3.org/2000/svg"><clipPath id="hazmat__clip-path"><rect x="1138.21" y="722.91" width="1031.56" height="434.39" fill="none"></rect></clipPath><clipPath id="hazmat__clip-path-2"><path d="M2164.77,744.86s-336-60-456.47,45.79c-75.09,65.91-76.62,46.34-145.84,49s-120.4,45.38-141.61,65.83-104,97.93-170.19,120.71-107.45,126.08-107.45,126.08l342.22-35.63,311.48-93.6s355.93-129.22,356-128.26S2164.77,744.86,2164.77,744.86Z" fill="none"></path></clipPath><clipPath id="hazmat__clip-path-3"><rect x="1138.21" y="722.91" width="1031.56" height="434.39" fill="none"></rect></clipPath><mask id="hazmat__mask" x="1138.08" y="722.88" width="1032" height="434.88" maskUnits="userSpaceOnUse"><g clip-path="url(#hazmat__clip-path)"><image width="2150" height="906" transform="translate(1138.08 722.88) scale(0.48)"></image></g></mask><linearGradient id="hazmat__linear-gradient" x1="1566.2" y1="658.21" x2="1737.78" y2="1217.87" gradientUnits="userSpaceOnUse"><stop offset="0.29" stop-color="#c9e5f8"></stop><stop offset="0.4" stop-color="#d3e9f9" stop-opacity="0.77"></stop><stop offset="0.65" stop-color="#eaf3fa" stop-opacity="0.2"></stop><stop offset="0.74" stop-color="#f3f7fb" stop-opacity="0"></stop><stop offset="0.86" stop-color="#f3f7fa" stop-opacity="0"></stop></linearGradient><radialGradient id="hazmat__radial-gradient" cx="1690.84" cy="939.55" r="542.2" gradientUnits="userSpaceOnUse"><stop offset="0.14" stop-color="#f6f5fa"></stop><stop offset="0.24" stop-color="#f6f5fa" stop-opacity="0.99"></stop><stop offset="0.33" stop-color="#f6f5fa" stop-opacity="0.95"></stop><stop offset="0.41" stop-color="#f6f5fa" stop-opacity="0.88"></stop><stop offset="0.49" stop-color="#f6f5fa" stop-opacity="0.78"></stop><stop offset="0.56" stop-color="#f6f5fa" stop-opacity="0.66"></stop><stop offset="0.63" stop-color="#f6f5fa" stop-opacity="0.5"></stop><stop offset="0.7" stop-color="#f6f5fa" stop-opacity="0.32"></stop><stop offset="0.77" stop-color="#f6f5fa" stop-opacity="0.11"></stop><stop offset="0.8" stop-color="#f6f5fa" stop-opacity="0"></stop></radialGradient><linearGradient id="hazmat__linear-gradient-2" x1="1386.33" y1="917.12" x2="1451.78" y2="1265.72" gradientUnits="userSpaceOnUse"><stop offset="0" stop-color="#c3e0f7"></stop><stop offset="0.39" stop-color="#e3ebf2" stop-opacity="0.86"></stop><stop offset="0.77" stop-color="#cfe6f7"></stop><stop offset="1" stop-color="#dbddf9"></stop></linearGradient><radialGradient xmlns:xlink="http://www.w3.org/1999/xlink" id="hazmat__radial-gradient-2" cx="237.97" cy="915.15" r="228.73" xlink:href="#hazmat__radial-gradient"></radialGradient><linearGradient id="hazmat__linear-gradient-3" x1="259.24" y1="829.01" x2="178.07" y2="1152.94" gradientUnits="userSpaceOnUse"><stop offset="0.32" stop-color="#e7f1f8"></stop><stop offset="0.43" stop-color="#f3f7fb"></stop><stop offset="0.68" stop-color="#f3f7fa"></stop></linearGradient><radialGradient xmlns:xlink="http://www.w3.org/1999/xlink" id="hazmat__radial-gradient-3" cx="98.44" cy="947.06" r="410.53" gradientTransform="translate(-56.03) scale(1.02 1)" xlink:href="#hazmat__radial-gradient"></radialGradient><linearGradient xmlns:xlink="http://www.w3.org/1999/xlink" id="hazmat__linear-gradient-4" x1="271.19" y1="925.25" x2="273.3" y2="1225.75" xlink:href="#hazmat__linear-gradient-3"></linearGradient><linearGradient id="hazmat__linear-gradient-5" x1="547.84" y1="918.56" x2="545.23" y2="1295.96" gradientUnits="userSpaceOnUse"><stop offset="0.29" stop-color="#c9e5f8"></stop><stop offset="0.74" stop-color="#f3f7fb"></stop><stop offset="0.86" stop-color="#f3f7fa"></stop></linearGradient><linearGradient id="hazmat__linear-gradient-6" x1="1456.86" y1="221.51" x2="1721.4" y2="221.51" gradientUnits="userSpaceOnUse"><stop offset="0" stop-color="#e9e8fa"></stop><stop offset="1" stop-color="#b3d2ff"></stop></linearGradient><linearGradient id="hazmat__linear-gradient-7" x1="1324.14" y1="356.52" x2="1709.11" y2="1023.3" gradientUnits="userSpaceOnUse"><stop offset="0" stop-color="#bfdff9"></stop><stop offset="0.1" stop-color="#cee6f9"></stop><stop offset="0.24" stop-color="#d9ebf8"></stop><stop offset="0.44" stop-color="#e0eef8"></stop><stop offset="0.99" stop-color="#e2eff8"></stop></linearGradient><linearGradient xmlns:xlink="http://www.w3.org/1999/xlink" id="hazmat__linear-gradient-8" x1="1324.14" y1="27.29" x2="1709.11" y2="694.07" xlink:href="#hazmat__linear-gradient-7"></linearGradient><linearGradient xmlns:xlink="http://www.w3.org/1999/xlink" id="hazmat__linear-gradient-9" x1="920.25" y1="357.28" x2="1305.22" y2="1024.06" xlink:href="#hazmat__linear-gradient-7"></linearGradient><linearGradient xmlns:xlink="http://www.w3.org/1999/xlink" id="hazmat__linear-gradient-10" x1="920.25" y1="28.06" x2="1305.22" y2="694.84" xlink:href="#hazmat__linear-gradient-7"></linearGradient><linearGradient xmlns:xlink="http://www.w3.org/1999/xlink" id="hazmat__linear-gradient-11" x1="523.79" y1="357.22" x2="908.76" y2="1024" xlink:href="#hazmat__linear-gradient-7"></linearGradient><linearGradient xmlns:xlink="http://www.w3.org/1999/xlink" id="hazmat__linear-gradient-12" x1="523.79" y1="27.99" x2="908.76" y2="694.77" xlink:href="#hazmat__linear-gradient-7"></linearGradient><linearGradient xmlns:xlink="http://www.w3.org/1999/xlink" id="hazmat__linear-gradient-13" x1="121.78" y1="357.25" x2="506.74" y2="1024.03" xlink:href="#hazmat__linear-gradient-7"></linearGradient><linearGradient xmlns:xlink="http://www.w3.org/1999/xlink" id="hazmat__linear-gradient-14" x1="121.78" y1="28.02" x2="506.74" y2="694.8" xlink:href="#hazmat__linear-gradient-7"></linearGradient><linearGradient id="hazmat__linear-gradient-15" x1="849.23" y1="478.18" x2="1057.76" y2="478.18" gradientTransform="matrix(-1, 0, 0, 1, 2529.29, 0)" gradientUnits="userSpaceOnUse"><stop offset="0.05" stop-color="#6497e0"></stop><stop offset="0.52" stop-color="#6295df"></stop><stop offset="0.7" stop-color="#5d8ed9"></stop><stop offset="0.82" stop-color="#5383d0"></stop><stop offset="0.92" stop-color="#4572c3"></stop><stop offset="0.98" stop-color="#3761b6"></stop></linearGradient><clipPath id="hazmat__clip-path-5"><path d="M1651.78,508.33c-23.25,0-14.31,3.38-42,7.85S1526.89,501,1506.29,508c-102.26,34.89-62-12.22-46.81-17.29s64.7-1.79,97.2-2.38,77.81-9.54,88.84-2.69S1651.78,508.33,1651.78,508.33Z" fill="none"></path></clipPath><linearGradient id="hazmat__linear-gradient-16" x1="1844.94" y1="530.25" x2="1846.13" y2="470.62" gradientTransform="matrix(-1, 0, 0, 1, 3372.03, 0)" gradientUnits="userSpaceOnUse"><stop offset="0.43" stop-color="#f5f6fa"></stop><stop offset="0.75" stop-color="#d8eaf7"></stop></linearGradient><linearGradient id="hazmat__linear-gradient-17" x1="1813.73" y1="518.66" x2="1813.73" y2="454.16" gradientTransform="matrix(-1, 0, 0, 1, 3372.03, 0)" gradientUnits="userSpaceOnUse"><stop offset="0.32" stop-color="#f3f7fa"></stop><stop offset="0.53" stop-color="#f5f7fa"></stop><stop offset="0.63" stop-color="#ddecf7"></stop></linearGradient><linearGradient id="hazmat__linear-gradient-18" x1="752.39" y1="480.66" x2="646.77" y2="486.14" gradientTransform="translate(842.74)" gradientUnits="userSpaceOnUse"><stop offset="0.21" stop-color="#83b1f2"></stop><stop offset="0.6" stop-color="#83b1f2" stop-opacity="0"></stop></linearGradient><linearGradient id="hazmat__linear-gradient-19" x1="-4987.78" y1="522.37" x2="-4987.78" y2="471.69" gradientTransform="translate(6547.17)" gradientUnits="userSpaceOnUse"><stop offset="0.32" stop-color="#f3f7fa"></stop><stop offset="0.57" stop-color="#f3f7fb"></stop><stop offset="0.68" stop-color="#e7f1f8"></stop></linearGradient><linearGradient xmlns:xlink="http://www.w3.org/1999/xlink" id="hazmat__linear-gradient-20" x1="1752.26" y1="1043.57" x2="1718.24" y2="1077.27" gradientTransform="matrix(0.95, -0.32, 0.32, 0.95, -388.04, -56.49)" xlink:href="#hazmat__linear-gradient-15"></linearGradient><linearGradient xmlns:xlink="http://www.w3.org/1999/xlink" id="hazmat__linear-gradient-21" x1="856.14" y1="806.35" x2="1051.04" y2="806.35" xlink:href="#hazmat__linear-gradient-15"></linearGradient><clipPath id="hazmat__clip-path-6"><path d="M1646.72,834.54c-21.74,0-13.38,3.15-39.29,7.33s-77.44-14.18-96.69-7.61c-95.57,32.6-58-11.43-43.74-16.16s60.46-1.68,90.83-2.23,72.73-8.92,83-2.51S1646.72,834.54,1646.72,834.54Z" fill="none"></path></clipPath><linearGradient xmlns:xlink="http://www.w3.org/1999/xlink" id="hazmat__linear-gradient-22" x1="1841.85" y1="855.02" x2="1842.96" y2="799.29" xlink:href="#hazmat__linear-gradient-16"></linearGradient><linearGradient xmlns:xlink="http://www.w3.org/1999/xlink" id="hazmat__linear-gradient-23" x1="1812.68" y1="844.19" x2="1812.68" y2="783.91" xlink:href="#hazmat__linear-gradient-17"></linearGradient><linearGradient xmlns:xlink="http://www.w3.org/1999/xlink" id="hazmat__linear-gradient-24" x1="751.03" y1="808.67" x2="652.32" y2="813.8" xlink:href="#hazmat__linear-gradient-18"></linearGradient><linearGradient xmlns:xlink="http://www.w3.org/1999/xlink" id="hazmat__linear-gradient-25" x1="-4986.8" y1="847.66" x2="-4986.8" y2="800.29" xlink:href="#hazmat__linear-gradient-19"></linearGradient><clipPath id="hazmat__clip-path-7"><path d="M1174.92,839.37a10.29,10.29,0,0,1-7.71-3.06,5,5,0,0,1-.57-6.34l18.12-28.1a7.39,7.39,0,0,0,1.23-4V784.74h13.6v13.14a7.37,7.37,0,0,0,1.22,4l18.13,28.1a5.05,5.05,0,0,1-.58,6.34,10.29,10.29,0,0,1-7.71,3.06Z" fill="none"></path></clipPath><radialGradient id="hazmat__radial-gradient-4" cx="1231.64" cy="1167.71" r="44.37" gradientTransform="translate(0 -40.15) scale(1 0.72)" gradientUnits="userSpaceOnUse"><stop offset="0" stop-color="#a0a0a0"></stop><stop offset="0.17" stop-color="#acacac" stop-opacity="0.87"></stop><stop offset="0.51" stop-color="#ccc" stop-opacity="0.54"></stop><stop offset="0.99" stop-color="#fefefe" stop-opacity="0.01"></stop><stop offset="1" stop-color="#fff" stop-opacity="0"></stop></radialGradient><image id="hazmat__image" width="1365" height="1267"></image><image id="hazmat__image-2" width="1364" height="1267"></image><image id="hazmat__image-3" width="1365" height="1267"></image></defs><g xmlns="http://www.w3.org/2000/svg" id="hazmat__icon7"><rect x="1092.11" y="689.17" width="96" height="156.26" fill="#71afd8"></rect><path d="M1220.29,829.51l-18.13-28.1a6.49,6.49,0,0,1-1.08-3.53V783.66h-16.59v14.22a6.49,6.49,0,0,1-1.08,3.53l-18.12,28.1c-3.29,5.1,1.86,10.94,9.63,10.94h35.73C1218.43,840.45,1223.58,834.61,1220.29,829.51Z" fill="#fff"></path><g clip-path="url(#hazmat__clip-path-7)"><rect x="1159.41" y="778.41" width="70.07" height="71.42" fill="url(#hazmat__radial-gradient-4)" style="mix-blend-mode:multiply"></rect><path d="M1227.94,818.67v15.67c0,4.17-4.7,7.57-10.49,7.57h-51.3c-5.78,0-10.49-3.4-10.49-7.57V810.09C1197.94,810.09,1187.6,818.67,1227.94,818.67Z" fill="#3960ad"></path></g><path d="M1201.57,783.66H1184c-.67,0-1.22-.39-1.22-.88h0c0-.49.55-.89,1.22-.89h17.57c.68,0,1.22.4,1.22.89h0C1202.79,783.27,1202.25,783.66,1201.57,783.66Z" fill="#e6e6e6"></path><rect x="1107.77" y="778.36" width="62.98" height="3.74" fill="#f3f4fa" stroke="#71afd8" stroke-miterlimit="10" stroke-width="1.22"></rect><rect x="1107.77" y="788.23" width="62.98" height="3.74" fill="#f3f4fa" stroke="#71afd8" stroke-miterlimit="10" stroke-width="1.22"></rect><rect x="1107.77" y="796.74" width="62.98" height="3.74" fill="#f3f4fa" stroke="#71afd8" stroke-miterlimit="10" stroke-width="1.22"></rect><rect x="1107.77" y="807.3" width="62.98" height="3.74" fill="#f3f4fa" stroke="#71afd8" stroke-miterlimit="10" stroke-width="1.22"></rect><rect x="1107.77" y="814.79" width="62.98" height="3.74" fill="#f3f4fa" stroke="#71afd8" stroke-miterlimit="10" stroke-width="1.22"></rect><path d="M1176.87,745.3A16.85,16.85,0,1,0,1156,765a19.4,19.4,0,1,1,20.87-19.73Z" fill="#3960ad"></path><path d="M1101.64,745.3A16.85,16.85,0,1,1,1122.51,765a19.4,19.4,0,1,0-20.87-19.73Z" fill="#3960ad"></path><path d="M1126.31,705.12a16.85,16.85,0,1,0,28.7.8,19.41,19.41,0,1,1-28.7-.8Z" fill="#3960ad"></path><circle cx="1139.62" cy="737.68" r="4.6" fill="#f3f4fa"></circle><circle cx="1139.43" cy="736.49" r="18.38" fill="none" stroke="#3b60ad" stroke-miterlimit="10" stroke-width="2"></circle></g></g><g transform="translate(1110,318)" stroke="#ac4f55" stroke-width="12" stroke-linecap="round" id="connectors"><line x1="-20" y1="-20" x2="20" y2="20"></line><line x1="20" y1="-20" x2="-20" y2="20"></line></g><g id="spot_lifering">
</g><g id="lifering" data-anim="sway" data-tweak="lifering" data-pivot="360 660" transform="translate(360,660) scale(1.1006) translate(-758.50,-440.50)"><defs xmlns="http://www.w3.org/2000/svg"><clipPath id="lifering__clip-path"><rect x="1138.21" y="722.91" width="1031.56" height="434.39" fill="none"></rect></clipPath><clipPath id="lifering__clip-path-2"><path d="M2164.77,744.86s-336-60-456.47,45.79c-75.09,65.91-76.62,46.34-145.84,49s-120.4,45.38-141.61,65.83-104,97.93-170.19,120.71-107.45,126.08-107.45,126.08l342.22-35.63,311.48-93.6s355.93-129.22,356-128.26S2164.77,744.86,2164.77,744.86Z" fill="none"></path></clipPath><clipPath id="lifering__clip-path-3"><rect x="1138.21" y="722.91" width="1031.56" height="434.39" fill="none"></rect></clipPath><mask id="lifering__mask" x="1138.08" y="722.88" width="1032" height="434.88" maskUnits="userSpaceOnUse"><g clip-path="url(#lifering__clip-path)"><image width="2150" height="906" transform="translate(1138.08 722.88) scale(0.48)"></image></g></mask><linearGradient id="lifering__linear-gradient" x1="1566.2" y1="658.21" x2="1737.78" y2="1217.87" gradientUnits="userSpaceOnUse"><stop offset="0.29" stop-color="#c9e5f8"></stop><stop offset="0.4" stop-color="#d3e9f9" stop-opacity="0.77"></stop><stop offset="0.65" stop-color="#eaf3fa" stop-opacity="0.2"></stop><stop offset="0.74" stop-color="#f3f7fb" stop-opacity="0"></stop><stop offset="0.86" stop-color="#f3f7fa" stop-opacity="0"></stop></linearGradient><radialGradient id="lifering__radial-gradient" cx="1690.84" cy="939.55" r="542.2" gradientUnits="userSpaceOnUse"><stop offset="0.14" stop-color="#f6f5fa"></stop><stop offset="0.24" stop-color="#f6f5fa" stop-opacity="0.99"></stop><stop offset="0.33" stop-color="#f6f5fa" stop-opacity="0.95"></stop><stop offset="0.41" stop-color="#f6f5fa" stop-opacity="0.88"></stop><stop offset="0.49" stop-color="#f6f5fa" stop-opacity="0.78"></stop><stop offset="0.56" stop-color="#f6f5fa" stop-opacity="0.66"></stop><stop offset="0.63" stop-color="#f6f5fa" stop-opacity="0.5"></stop><stop offset="0.7" stop-color="#f6f5fa" stop-opacity="0.32"></stop><stop offset="0.77" stop-color="#f6f5fa" stop-opacity="0.11"></stop><stop offset="0.8" stop-color="#f6f5fa" stop-opacity="0"></stop></radialGradient><linearGradient id="lifering__linear-gradient-2" x1="1386.33" y1="917.12" x2="1451.78" y2="1265.72" gradientUnits="userSpaceOnUse"><stop offset="0" stop-color="#c3e0f7"></stop><stop offset="0.39" stop-color="#e3ebf2" stop-opacity="0.86"></stop><stop offset="0.77" stop-color="#cfe6f7"></stop><stop offset="1" stop-color="#dbddf9"></stop></linearGradient><radialGradient xmlns:xlink="http://www.w3.org/1999/xlink" id="lifering__radial-gradient-2" cx="237.97" cy="915.15" r="228.73" xlink:href="#lifering__radial-gradient"></radialGradient><linearGradient id="lifering__linear-gradient-3" x1="259.24" y1="829.01" x2="178.07" y2="1152.94" gradientUnits="userSpaceOnUse"><stop offset="0.32" stop-color="#e7f1f8"></stop><stop offset="0.43" stop-color="#f3f7fb"></stop><stop offset="0.68" stop-color="#f3f7fa"></stop></linearGradient><radialGradient xmlns:xlink="http://www.w3.org/1999/xlink" id="lifering__radial-gradient-3" cx="98.44" cy="947.06" r="410.53" gradientTransform="translate(-56.03) scale(1.02 1)" xlink:href="#lifering__radial-gradient"></radialGradient><linearGradient xmlns:xlink="http://www.w3.org/1999/xlink" id="lifering__linear-gradient-4" x1="271.19" y1="925.25" x2="273.3" y2="1225.75" xlink:href="#lifering__linear-gradient-3"></linearGradient><linearGradient id="lifering__linear-gradient-5" x1="547.84" y1="918.56" x2="545.23" y2="1295.96" gradientUnits="userSpaceOnUse"><stop offset="0.29" stop-color="#c9e5f8"></stop><stop offset="0.74" stop-color="#f3f7fb"></stop><stop offset="0.86" stop-color="#f3f7fa"></stop></linearGradient><linearGradient id="lifering__linear-gradient-6" x1="1456.86" y1="221.51" x2="1721.4" y2="221.51" gradientUnits="userSpaceOnUse"><stop offset="0" stop-color="#e9e8fa"></stop><stop offset="1" stop-color="#b3d2ff"></stop></linearGradient><linearGradient id="lifering__linear-gradient-7" x1="1324.14" y1="356.52" x2="1709.11" y2="1023.3" gradientUnits="userSpaceOnUse"><stop offset="0" stop-color="#bfdff9"></stop><stop offset="0.1" stop-color="#cee6f9"></stop><stop offset="0.24" stop-color="#d9ebf8"></stop><stop offset="0.44" stop-color="#e0eef8"></stop><stop offset="0.99" stop-color="#e2eff8"></stop></linearGradient><linearGradient xmlns:xlink="http://www.w3.org/1999/xlink" id="lifering__linear-gradient-8" x1="1324.14" y1="27.29" x2="1709.11" y2="694.07" xlink:href="#lifering__linear-gradient-7"></linearGradient><linearGradient xmlns:xlink="http://www.w3.org/1999/xlink" id="lifering__linear-gradient-9" x1="920.25" y1="357.28" x2="1305.22" y2="1024.06" xlink:href="#lifering__linear-gradient-7"></linearGradient><linearGradient xmlns:xlink="http://www.w3.org/1999/xlink" id="lifering__linear-gradient-10" x1="920.25" y1="28.06" x2="1305.22" y2="694.84" xlink:href="#lifering__linear-gradient-7"></linearGradient><linearGradient xmlns:xlink="http://www.w3.org/1999/xlink" id="lifering__linear-gradient-11" x1="523.79" y1="357.22" x2="908.76" y2="1024" xlink:href="#lifering__linear-gradient-7"></linearGradient><linearGradient xmlns:xlink="http://www.w3.org/1999/xlink" id="lifering__linear-gradient-12" x1="523.79" y1="27.99" x2="908.76" y2="694.77" xlink:href="#lifering__linear-gradient-7"></linearGradient><linearGradient xmlns:xlink="http://www.w3.org/1999/xlink" id="lifering__linear-gradient-13" x1="121.78" y1="357.25" x2="506.74" y2="1024.03" xlink:href="#lifering__linear-gradient-7"></linearGradient><linearGradient xmlns:xlink="http://www.w3.org/1999/xlink" id="lifering__linear-gradient-14" x1="121.78" y1="28.02" x2="506.74" y2="694.8" xlink:href="#lifering__linear-gradient-7"></linearGradient><linearGradient id="lifering__linear-gradient-15" x1="849.23" y1="478.18" x2="1057.76" y2="478.18" gradientTransform="matrix(-1, 0, 0, 1, 2529.29, 0)" gradientUnits="userSpaceOnUse"><stop offset="0.05" stop-color="#6497e0"></stop><stop offset="0.52" stop-color="#6295df"></stop><stop offset="0.7" stop-color="#5d8ed9"></stop><stop offset="0.82" stop-color="#5383d0"></stop><stop offset="0.92" stop-color="#4572c3"></stop><stop offset="0.98" stop-color="#3761b6"></stop></linearGradient><clipPath id="lifering__clip-path-5"><path d="M1651.78,508.33c-23.25,0-14.31,3.38-42,7.85S1526.89,501,1506.29,508c-102.26,34.89-62-12.22-46.81-17.29s64.7-1.79,97.2-2.38,77.81-9.54,88.84-2.69S1651.78,508.33,1651.78,508.33Z" fill="none"></path></clipPath><linearGradient id="lifering__linear-gradient-16" x1="1844.94" y1="530.25" x2="1846.13" y2="470.62" gradientTransform="matrix(-1, 0, 0, 1, 3372.03, 0)" gradientUnits="userSpaceOnUse"><stop offset="0.43" stop-color="#f5f6fa"></stop><stop offset="0.75" stop-color="#d8eaf7"></stop></linearGradient><linearGradient id="lifering__linear-gradient-17" x1="1813.73" y1="518.66" x2="1813.73" y2="454.16" gradientTransform="matrix(-1, 0, 0, 1, 3372.03, 0)" gradientUnits="userSpaceOnUse"><stop offset="0.32" stop-color="#f3f7fa"></stop><stop offset="0.53" stop-color="#f5f7fa"></stop><stop offset="0.63" stop-color="#ddecf7"></stop></linearGradient><linearGradient id="lifering__linear-gradient-18" x1="752.39" y1="480.66" x2="646.77" y2="486.14" gradientTransform="translate(842.74)" gradientUnits="userSpaceOnUse"><stop offset="0.21" stop-color="#83b1f2"></stop><stop offset="0.6" stop-color="#83b1f2" stop-opacity="0"></stop></linearGradient><linearGradient id="lifering__linear-gradient-19" x1="-4987.78" y1="522.37" x2="-4987.78" y2="471.69" gradientTransform="translate(6547.17)" gradientUnits="userSpaceOnUse"><stop offset="0.32" stop-color="#f3f7fa"></stop><stop offset="0.57" stop-color="#f3f7fb"></stop><stop offset="0.68" stop-color="#e7f1f8"></stop></linearGradient><linearGradient xmlns:xlink="http://www.w3.org/1999/xlink" id="lifering__linear-gradient-20" x1="1752.26" y1="1043.57" x2="1718.24" y2="1077.27" gradientTransform="matrix(0.95, -0.32, 0.32, 0.95, -388.04, -56.49)" xlink:href="#lifering__linear-gradient-15"></linearGradient><linearGradient xmlns:xlink="http://www.w3.org/1999/xlink" id="lifering__linear-gradient-21" x1="856.14" y1="806.35" x2="1051.04" y2="806.35" xlink:href="#lifering__linear-gradient-15"></linearGradient><clipPath id="lifering__clip-path-6"><path d="M1646.72,834.54c-21.74,0-13.38,3.15-39.29,7.33s-77.44-14.18-96.69-7.61c-95.57,32.6-58-11.43-43.74-16.16s60.46-1.68,90.83-2.23,72.73-8.92,83-2.51S1646.72,834.54,1646.72,834.54Z" fill="none"></path></clipPath><linearGradient xmlns:xlink="http://www.w3.org/1999/xlink" id="lifering__linear-gradient-22" x1="1841.85" y1="855.02" x2="1842.96" y2="799.29" xlink:href="#lifering__linear-gradient-16"></linearGradient><linearGradient xmlns:xlink="http://www.w3.org/1999/xlink" id="lifering__linear-gradient-23" x1="1812.68" y1="844.19" x2="1812.68" y2="783.91" xlink:href="#lifering__linear-gradient-17"></linearGradient><linearGradient xmlns:xlink="http://www.w3.org/1999/xlink" id="lifering__linear-gradient-24" x1="751.03" y1="808.67" x2="652.32" y2="813.8" xlink:href="#lifering__linear-gradient-18"></linearGradient><linearGradient xmlns:xlink="http://www.w3.org/1999/xlink" id="lifering__linear-gradient-25" x1="-4986.8" y1="847.66" x2="-4986.8" y2="800.29" xlink:href="#lifering__linear-gradient-19"></linearGradient><clipPath id="lifering__clip-path-7"><path d="M1174.92,839.37a10.29,10.29,0,0,1-7.71-3.06,5,5,0,0,1-.57-6.34l18.12-28.1a7.39,7.39,0,0,0,1.23-4V784.74h13.6v13.14a7.37,7.37,0,0,0,1.22,4l18.13,28.1a5.05,5.05,0,0,1-.58,6.34,10.29,10.29,0,0,1-7.71,3.06Z" fill="none"></path></clipPath><radialGradient id="lifering__radial-gradient-4" cx="1231.64" cy="1167.71" r="44.37" gradientTransform="translate(0 -40.15) scale(1 0.72)" gradientUnits="userSpaceOnUse"><stop offset="0" stop-color="#a0a0a0"></stop><stop offset="0.17" stop-color="#acacac" stop-opacity="0.87"></stop><stop offset="0.51" stop-color="#ccc" stop-opacity="0.54"></stop><stop offset="0.99" stop-color="#fefefe" stop-opacity="0.01"></stop><stop offset="1" stop-color="#fff" stop-opacity="0"></stop></radialGradient><image id="lifering__image" width="1365" height="1267"></image><image id="lifering__image-2" width="1364" height="1267"></image><image id="lifering__image-3" width="1365" height="1267"></image></defs><g xmlns="http://www.w3.org/2000/svg" id="lifering__icon2"><path d="M695.66,401.12a23.47,23.47,0,0,0,5.9,15.58l33.22-33.22a23.53,23.53,0,0,0-39.12,17.64Z" fill="none" stroke="#19489b" stroke-linecap="round" stroke-miterlimit="10" stroke-width="1.57"></path><path d="M821.74,401.12a23.53,23.53,0,0,0-39.11-17.64l33.22,33.22A23.51,23.51,0,0,0,821.74,401.12Z" fill="none" stroke="#19489b" stroke-linecap="round" stroke-miterlimit="10" stroke-width="1.57"></path><path d="M782.63,498.29a23.54,23.54,0,0,0,33.22-33.22Q799.23,481.67,782.63,498.29Z" fill="none" stroke="#19489b" stroke-linecap="round" stroke-miterlimit="10" stroke-width="1.57"></path><path d="M695.66,480.65a23.53,23.53,0,0,0,39.12,17.64l-33.22-33.22A23.43,23.43,0,0,0,695.66,480.65Z" fill="none" stroke="#19489b" stroke-linecap="round" stroke-miterlimit="10" stroke-width="1.57"></path><path d="M758.7,367.35a73.54,73.54,0,1,0,73.53,73.53A73.53,73.53,0,0,0,758.7,367.35Zm0,112.08a38.55,38.55,0,1,1,38.54-38.55A38.55,38.55,0,0,1,758.7,479.43Z" fill="#71afd8" stroke="#2d5fbb" stroke-miterlimit="10" stroke-width="1.57"></path><path d="M801.24,380.9,775.8,406.34a38.69,38.69,0,0,1,17.45,17.45l25.44-25.44A73.94,73.94,0,0,0,801.24,380.9Z" fill="#fffbf1"></path><path d="M724.16,458l-25.45,25.44a74.17,74.17,0,0,0,17.46,17.45l25.44-25.44A38.69,38.69,0,0,1,724.16,458Z" fill="#fffbf1"></path><path d="M793.25,458a38.78,38.78,0,0,1-17.45,17.45l25.44,25.44a73.94,73.94,0,0,0,17.45-17.45Z" fill="#fffbf1"></path><path d="M724.16,423.79a38.59,38.59,0,0,1,17.45-17.45L716.17,380.9a74,74,0,0,0-17.46,17.45Z" fill="#fffbf1"></path><g opacity="0.65"><path d="M758.7,390.37a50.51,50.51,0,1,0,50.51,50.51A50.52,50.52,0,0,0,758.7,390.37Zm0,89.06a38.55,38.55,0,1,1,38.54-38.55A38.55,38.55,0,0,1,758.7,479.43Z" fill="#356ec8"></path></g></g></g><ellipse cx="1300" cy="960" rx="220" ry="30.8" fill="#5c8ed9" opacity="0.14" id="shadow_1"></ellipse><g id="crew" data-anim="sway" data-tweak="crew" data-pivot="1300 700" transform="translate(1300,700) scale(1.4157) translate(-1565.00,-890.00)"><defs xmlns="http://www.w3.org/2000/svg"><linearGradient id="crew__linear-gradient" x1="381.98" y1="1154.96" x2="1550.32" y2="1093.69" gradientUnits="userSpaceOnUse"><stop offset="0.29" stop-color="#c9e5f8"></stop><stop offset="0.74" stop-color="#f3f7fb"></stop><stop offset="0.86" stop-color="#f3f7fa"></stop></linearGradient><radialGradient id="crew__radial-gradient" cx="-717.23" cy="-1525.08" r="233.47" gradientTransform="matrix(0, 1.23, -0.7, 0, -359.71, 2000.69)" gradientUnits="userSpaceOnUse"><stop offset="0.14" stop-color="#cadbf0" stop-opacity="0.86"></stop><stop offset="0.21" stop-color="#cddcf1" stop-opacity="0.81"></stop><stop offset="0.33" stop-color="#d3e0f2" stop-opacity="0.68"></stop><stop offset="0.49" stop-color="#dee7f5" stop-opacity="0.47"></stop><stop offset="0.69" stop-color="#edf0f8" stop-opacity="0.18"></stop><stop offset="0.8" stop-color="#f6f5fa" stop-opacity="0"></stop></radialGradient><radialGradient id="crew__radial-gradient-2" cx="-10548.07" cy="1557.28" r="542.2" gradientTransform="matrix(-1, 0.09, 0.09, 1, -10465.66, 427.99)" gradientUnits="userSpaceOnUse"><stop offset="0.14" stop-color="#f6f5fa"></stop><stop offset="0.24" stop-color="#f6f5fa" stop-opacity="0.99"></stop><stop offset="0.33" stop-color="#f6f5fa" stop-opacity="0.95"></stop><stop offset="0.41" stop-color="#f6f5fa" stop-opacity="0.88"></stop><stop offset="0.49" stop-color="#f6f5fa" stop-opacity="0.78"></stop><stop offset="0.56" stop-color="#f6f5fa" stop-opacity="0.66"></stop><stop offset="0.63" stop-color="#f6f5fa" stop-opacity="0.5"></stop><stop offset="0.7" stop-color="#f6f5fa" stop-opacity="0.32"></stop><stop offset="0.77" stop-color="#f6f5fa" stop-opacity="0.11"></stop><stop offset="0.8" stop-color="#f6f5fa" stop-opacity="0"></stop></radialGradient><linearGradient id="crew__linear-gradient-2" x1="-10852.58" y1="1534.85" x2="-10787.12" y2="1883.45" gradientTransform="matrix(-1, 0.09, 0.09, 1, -10465.66, 427.99)" gradientUnits="userSpaceOnUse"><stop offset="0" stop-color="#c3e0f7"></stop><stop offset="0.39" stop-color="#e3ebf2" stop-opacity="0.86"></stop><stop offset="0.77" stop-color="#cfe6f7"></stop><stop offset="1" stop-color="#dbddf9"></stop></linearGradient><linearGradient id="crew__linear-gradient-3" x1="6069.56" y1="2240.88" x2="6070.06" y2="2245.68" gradientTransform="translate(-6181.47 -311.45) rotate(-8.8)" gradientUnits="userSpaceOnUse"><stop offset="0.1" stop-color="#c7c0f6"></stop><stop offset="0.61" stop-color="#ada6f8"></stop><stop offset="0.96" stop-color="#c7c0f6"></stop></linearGradient><linearGradient xmlns:xlink="http://www.w3.org/1999/xlink" id="crew__linear-gradient-4" x1="6069.86" y1="2238.99" x2="6069.88" y2="2239.15" xlink:href="#crew__linear-gradient-3"></linearGradient><linearGradient id="crew__linear-gradient-5" x1="883.38" y1="187.85" x2="1031.22" y2="187.85" gradientUnits="userSpaceOnUse"><stop offset="0" stop-color="#e9e8fa"></stop><stop offset="1" stop-color="#b3d2ff"></stop></linearGradient><linearGradient xmlns:xlink="http://www.w3.org/1999/xlink" id="crew__linear-gradient-6" x1="147.82" y1="618.45" x2="295.66" y2="618.45" xlink:href="#crew__linear-gradient-5"></linearGradient><linearGradient id="crew__linear-gradient-7" x1="1147.05" y1="264.58" x2="1147.05" y2="1125.3" gradientUnits="userSpaceOnUse"><stop offset="0.29" stop-color="#c9e5f8"></stop><stop offset="0.34" stop-color="#cbe6f8" stop-opacity="0.95"></stop><stop offset="0.42" stop-color="#d1e8f9" stop-opacity="0.81"></stop><stop offset="0.54" stop-color="#dbedf9" stop-opacity="0.58"></stop><stop offset="0.67" stop-color="#e7f2fa" stop-opacity="0.28"></stop><stop offset="0.79" stop-color="#f3f7fb" stop-opacity="0"></stop><stop offset="0.95" stop-color="#f3f7fa" stop-opacity="0"></stop></linearGradient><linearGradient xmlns:xlink="http://www.w3.org/1999/xlink" id="crew__linear-gradient-8" x1="761.01" y1="264.58" x2="761.01" y2="1125.3" xlink:href="#crew__linear-gradient-7"></linearGradient><linearGradient id="crew__linear-gradient-9" x1="1660.56" y1="925.58" x2="1660.85" y2="1016.94" gradientUnits="userSpaceOnUse"><stop offset="0.19" stop-color="#c5e2f9"></stop><stop offset="0.3" stop-color="#d1e7f9"></stop><stop offset="0.53" stop-color="#e4eff9"></stop><stop offset="0.76" stop-color="#f0f4f9"></stop><stop offset="1" stop-color="#f4f6f9"></stop></linearGradient><linearGradient xmlns:xlink="http://www.w3.org/1999/xlink" id="crew__linear-gradient-10" x1="1684.62" y1="925.5" x2="1684.91" y2="1016.86" xlink:href="#crew__linear-gradient-9"></linearGradient><linearGradient xmlns:xlink="http://www.w3.org/1999/xlink" id="crew__linear-gradient-11" x1="1676.32" y1="837.95" x2="1676.32" y2="945.35" xlink:href="#crew__linear-gradient-9"></linearGradient><linearGradient xmlns:xlink="http://www.w3.org/1999/xlink" id="crew__linear-gradient-12" x1="1874.74" y1="898.79" x2="2030.05" y2="762.54" gradientTransform="matrix(0.97, 0.24, -0.24, 0.97, 19.12, -428.91)" xlink:href="#crew__linear-gradient-9"></linearGradient><linearGradient xmlns:xlink="http://www.w3.org/1999/xlink" id="crew__linear-gradient-13" x1="1661.6" y1="834.15" x2="1661.6" y2="922.48" xlink:href="#crew__linear-gradient-9"></linearGradient><linearGradient xmlns:xlink="http://www.w3.org/1999/xlink" id="crew__linear-gradient-14" x1="1684" y1="834.15" x2="1684" y2="922.48" xlink:href="#crew__linear-gradient-9"></linearGradient><linearGradient xmlns:xlink="http://www.w3.org/1999/xlink" id="crew__linear-gradient-15" x1="1718.34" y1="931.19" x2="1611.88" y2="836.85" xlink:href="#crew__linear-gradient-9"></linearGradient><linearGradient xmlns:xlink="http://www.w3.org/1999/xlink" id="crew__linear-gradient-16" x1="1641.99" y1="913.3" x2="1794.89" y2="779.15" xlink:href="#crew__linear-gradient-9"></linearGradient><linearGradient xmlns:xlink="http://www.w3.org/1999/xlink" id="crew__linear-gradient-17" x1="1736.92" y1="908.16" x2="1634.05" y2="817.01" xlink:href="#crew__linear-gradient-9"></linearGradient><linearGradient id="crew__linear-gradient-18" x1="518.91" y1="-56.59" x2="490.24" y2="155.3" gradientTransform="matrix(0.22, -0.98, 0.98, 0.22, 1398.17, 1363.17)" gradientUnits="userSpaceOnUse"><stop offset="0.36" stop-color="#c5e2f9"></stop><stop offset="0.39" stop-color="#cfe6f9"></stop><stop offset="0.46" stop-color="#e0edf9"></stop><stop offset="0.54" stop-color="#ebf2f9"></stop><stop offset="0.66" stop-color="#f2f5f9"></stop><stop offset="1" stop-color="#f4f6f9"></stop></linearGradient><linearGradient xmlns:xlink="http://www.w3.org/1999/xlink" id="crew__linear-gradient-19" x1="1474.74" y1="812.49" x2="1446.15" y2="1023.79" gradientTransform="matrix(1, 0, 0, 1, 0, 0)" xlink:href="#crew__linear-gradient-18"></linearGradient><linearGradient xmlns:xlink="http://www.w3.org/1999/xlink" id="crew__linear-gradient-20" x1="1496.41" y1="835.72" x2="1491.16" y2="909.74" gradientTransform="matrix(1, 0, 0, 1, 0, 0)" xlink:href="#crew__linear-gradient-18"></linearGradient><linearGradient xmlns:xlink="http://www.w3.org/1999/xlink" id="crew__linear-gradient-21" x1="1477.49" y1="834.38" x2="1472.24" y2="908.4" gradientTransform="matrix(1, 0, 0, 1, 0, 0)" xlink:href="#crew__linear-gradient-18"></linearGradient><linearGradient xmlns:xlink="http://www.w3.org/1999/xlink" id="crew__linear-gradient-22" x1="1428.91" y1="815.16" x2="1410.39" y2="952.01" gradientTransform="matrix(1, 0, 0, 1, 0, 0)" xlink:href="#crew__linear-gradient-18"></linearGradient><linearGradient id="crew__linear-gradient-23" x1="1418.74" y1="854.43" x2="1403.41" y2="967.74" gradientUnits="userSpaceOnUse"><stop offset="0" stop-color="#f4f6f9"></stop><stop offset="0.39" stop-color="#c5e2f9"></stop></linearGradient><linearGradient id="crew__linear-gradient-24" x1="291.06" y1="182.54" x2="223.81" y2="241.88" gradientUnits="userSpaceOnUse"><stop offset="0.2" stop-color="#c5e2f9"></stop><stop offset="0.23" stop-color="#cfe6f9"></stop><stop offset="0.3" stop-color="#e0edf9"></stop><stop offset="0.39" stop-color="#ebf2f9"></stop><stop offset="0.52" stop-color="#f2f5f9"></stop><stop offset="0.87" stop-color="#f4f6f9"></stop></linearGradient><linearGradient xmlns:xlink="http://www.w3.org/1999/xlink" id="crew__linear-gradient-25" x1="301.96" y1="176.56" x2="301.96" y2="319.74" xlink:href="#crew__linear-gradient-24"></linearGradient><linearGradient xmlns:xlink="http://www.w3.org/1999/xlink" id="crew__linear-gradient-26" x1="303.08" y1="185.72" x2="301.1" y2="257.37" xlink:href="#crew__linear-gradient-24"></linearGradient><linearGradient xmlns:xlink="http://www.w3.org/1999/xlink" id="crew__linear-gradient-27" x1="289.34" y1="196.58" x2="287.36" y2="268.23" xlink:href="#crew__linear-gradient-24"></linearGradient><linearGradient xmlns:xlink="http://www.w3.org/1999/xlink" id="crew__linear-gradient-28" x1="290.81" y1="182.26" x2="223.56" y2="241.6" xlink:href="#crew__linear-gradient-24"></linearGradient><linearGradient xmlns:xlink="http://www.w3.org/1999/xlink" id="crew__linear-gradient-29" x1="320.16" y1="171.22" x2="352.93" y2="241.83" xlink:href="#crew__linear-gradient-24"></linearGradient><linearGradient xmlns:xlink="http://www.w3.org/1999/xlink" id="crew__linear-gradient-30" x1="323.78" y1="202.53" x2="338.24" y2="233.69" xlink:href="#crew__linear-gradient-24"></linearGradient><linearGradient id="crew__linear-gradient-31" x1="185.03" y1="174.25" x2="242.34" y2="174.25" gradientUnits="userSpaceOnUse"><stop offset="0.2" stop-color="#c5e2f9"></stop><stop offset="0.34" stop-color="#d6e9f9"></stop><stop offset="0.53" stop-color="#e7f0f9"></stop><stop offset="0.74" stop-color="#f1f5f9"></stop><stop offset="1" stop-color="#f4f6f9"></stop></linearGradient><linearGradient xmlns:xlink="http://www.w3.org/1999/xlink" id="crew__linear-gradient-32" x1="155.8" y1="154.46" x2="156.77" y2="270.38" xlink:href="#crew__linear-gradient-31"></linearGradient><linearGradient xmlns:xlink="http://www.w3.org/1999/xlink" id="crew__linear-gradient-33" x1="146.71" y1="147.62" x2="91.32" y2="235.93" xlink:href="#crew__linear-gradient-31"></linearGradient><linearGradient xmlns:xlink="http://www.w3.org/1999/xlink" id="crew__linear-gradient-34" x1="153.41" y1="150.54" x2="96.84" y2="240.73" xlink:href="#crew__linear-gradient-31"></linearGradient><linearGradient xmlns:xlink="http://www.w3.org/1999/xlink" id="crew__linear-gradient-35" x1="157.51" y1="147.36" x2="162.45" y2="209.33" xlink:href="#crew__linear-gradient-24"></linearGradient><linearGradient xmlns:xlink="http://www.w3.org/1999/xlink" id="crew__linear-gradient-36" x1="173.9" y1="146.52" x2="179" y2="210.38" xlink:href="#crew__linear-gradient-24"></linearGradient><image id="crew__image" width="5301" height="2393"></image></defs><g xmlns="http://www.w3.org/2000/svg" id="crew__ch4_bg"><rect x="1352.26" y="920" width="34.18" height="61.03" fill="#f4f6f9" stroke="#0840a5" stroke-miterlimit="10" stroke-width="0.75"></rect><rect x="1407.1" y="940.45" width="72.04" height="42.1" fill="#f4f6f9" stroke="#0840a5" stroke-miterlimit="10" stroke-width="0.75"></rect><path d="M1320.52,1019.6s-1.47-42,0-40.52,157.21,0,157.21,0l29.79,11.72H1590l36.62,30.76H1320" fill="#f4f6f9" stroke="#0840a5" stroke-miterlimit="10" stroke-width="0.75"></path><rect x="1414.26" y="952.39" width="13.67" height="10.85" fill="#18469d"></rect><rect x="1434.23" y="951.74" width="14.76" height="11.28" fill="#18469d"></rect><circle cx="1353.83" cy="998.07" r="3.8" fill="#18469d"></circle><circle cx="1381.71" cy="998.07" r="3.8" fill="#18469d"></circle><circle cx="1412.31" cy="998.07" r="3.8" fill="#18469d"></circle><circle cx="1532.96" cy="999.26" r="3.8" fill="#18469d"></circle><circle cx="1560.74" cy="999.26" r="3.8" fill="#18469d"></circle><rect x="1541.94" y="964.85" width="8.7" height="25.22" transform="translate(3092.58 1954.91) rotate(-180)" fill="#c2e5f7" stroke="#0840a5" stroke-linecap="round" stroke-miterlimit="10" stroke-width="0.75"></rect><path d="M1527.95,951.73h5.8a5.3,5.3,0,0,1,5.3,5.3v2.27a5.3,5.3,0,0,1-5.3,5.3h-5.8a0,0,0,0,1,0,0V951.73A0,0,0,0,1,1527.95,951.73Z" transform="translate(3066.99 1916.33) rotate(-180)" fill="#c2e5f7" stroke="#0840a5" stroke-linecap="round" stroke-miterlimit="10" stroke-width="0.75"></path><path d="M1534.68,968.38a54.33,54.33,0,0,1,16.49-.09c18.13,2.56,31.92,12.7,31.92,12.7l-.84-49.1c-8.78,7.76-20.88,11.84-30.68,14a103.42,103.42,0,0,1-16.89,2.33C1529.29,959.47,1534.68,968.38,1534.68,968.38Z" fill="#c2e5f7" stroke="#0840a5" stroke-linecap="round" stroke-miterlimit="10" stroke-width="0.75"></path><path d="M1576.37,956.58c.24,11.21,2.7,20.61,5.81,23.38a2.85,2.85,0,0,0,2,.84c4-.08,7-11.08,6.69-24.54s-3.77-24.31-7.76-24.23a3,3,0,0,0-2.09,1.11C1578.08,936.25,1576.13,945.58,1576.37,956.58Z" fill="#c2e5f7" stroke="#0840a5" stroke-linecap="round" stroke-miterlimit="10" stroke-width="0.75"></path><path d="M1576.37,956.58c.05,2.46.21,4.83.46,7.06.89,8,2.93,14.16,5.35,16.32,2.9-3.11,4.85-12.45,4.61-23.44-.25-11.22-2.71-20.61-5.82-23.38-2.4,2.58-4.15,9.44-4.54,18C1576.34,952.87,1576.33,954.7,1576.37,956.58Z" fill="#386ec1"></path><path d="M1576.37,956.58c.05,2.46.21,4.83.46,7.06a5.14,5.14,0,0,0,1.71.25c3.25-.07,5.82-3.06,5.74-6.7s-2.78-6.52-6-6.45a5.23,5.23,0,0,0-1.82.37C1576.34,952.87,1576.33,954.7,1576.37,956.58Z" fill="#c2e5f7" stroke="#0840a5" stroke-linecap="round" stroke-miterlimit="10" stroke-width="0.75"></path><path d="M1534.83,968.1a54.63,54.63,0,0,1,16.34-.08,23.42,23.42,0,0,1,.4-21.92,103,103,0,0,1-16.74,2.28C1529.5,959.4,1534.83,968.1,1534.83,968.1Z" fill="#386ec1"></path><rect x="1318.57" y="1020.58" width="502.89" height="8.79" fill="#f4f6f9" stroke="#0840a5" stroke-miterlimit="10" stroke-width="0.75"></rect><rect x="1318.57" y="952.21" width="502.89" height="8.79" fill="#f4f6f9" stroke="#0840a5" stroke-miterlimit="10" stroke-width="0.75"></rect><rect x="1608.14" y="961.05" width="7.37" height="60.61" fill="#f4f6f9" stroke="#0840a5" stroke-miterlimit="10" stroke-width="0.75"></rect><rect x="1524.35" y="961.05" width="7.37" height="60.61" fill="#f4f6f9" stroke="#0840a5" stroke-miterlimit="10" stroke-width="0.75"></rect><rect x="1392.31" y="961.05" width="7.37" height="60.61" fill="#f4f6f9" stroke="#0840a5" stroke-miterlimit="10" stroke-width="0.75"></rect><rect x="1716.05" y="961.05" width="7.37" height="60.61" fill="#f4f6f9" stroke="#0840a5" stroke-miterlimit="10" stroke-width="0.75"></rect><rect x="1777.05" y="961.05" width="7.37" height="60.61" fill="#f4f6f9" stroke="#0840a5" stroke-miterlimit="10" stroke-width="0.75"></rect></g>
<g xmlns="http://www.w3.org/2000/svg" id="crew__ch4_leg2"><path d="M1650.1,1019.23s-.15,3.55-3.09,4.94-12,4-13,7.11.15,4.78.15,4.78a56,56,0,0,0,21-.77,4.37,4.37,0,0,1,2.93-1.7c1.85-.15,2.16,2.17,2.16,2.17s7.42.46,9.11-1.55c0,0,.47-15.13.31-14.51S1650.1,1019.23,1650.1,1019.23Z" fill="#1b1959"></path><path d="M1645.47,934.76c-.29.36,3.24,85.09,3.24,85.09s14.52,5.1,23.32,1.39c0,0,3.86-84.94,3.71-84.48S1656.12,921,1645.47,934.76Z" stroke="#0840a5" stroke-linecap="round" stroke-linejoin="round" stroke-width="0.75" fill="url(#crew__linear-gradient-9)"></path><path d="M1647.71,986.81c3.09.89,15.76,2.6,25.46-1l-.46,9.18s-16,3.87-24.48.69Z" fill="#71afd8"></path></g>
<g xmlns="http://www.w3.org/2000/svg" id="crew__ch4_leg1"><path d="M1687.47,1021.08v14.37s3.55,4.17,13.75,4.78,12.81-1.08,12.51-3.55-7.73-8.34-8-11.43-.62-5.25-.62-5.25Z" fill="#1b1959"></path><path d="M1668.1,946.93l7.64,3.89,9.11,71.35s15.75,4.17,23.32-.93l-.93-95s-45.53-3.07-45.87-2.62" stroke="#0840a5" stroke-linecap="round" stroke-linejoin="round" stroke-width="0.75" fill="url(#crew__linear-gradient-10)"></path><path d="M1681,988.54c3.09.89,16.69,2.48,26.39-1.15l.17,8.37s-17,4.27-25.46,1.09Z" fill="#71afd8"></path></g>
<g xmlns="http://www.w3.org/2000/svg" id="crew__ch4_torso"><path d="M1688.4,936.7c9.28-.63,19.53-1.33,20.75-1.88a3.3,3.3,0,0,0,1.93-3.35c-.46-4.78-1.74-18-2-22s-.62-42.27-.73-55.11a6.42,6.42,0,0,0-4.32-6,98.48,98.48,0,0,0-17-3.91c-16.06-2.47-22.39-1.54-22.39-1.54s-16.84,4.63-19,7.57-.62,20.23-.46,32.43-.77,33-2,37.52-2.47,10.82-.77,12.51c.91.92,20.09,2.4,33.55,3.59Z" stroke="#0840a5" stroke-linecap="round" stroke-linejoin="round" stroke-width="0.75" fill="url(#crew__linear-gradient-11)"></path><path d="M1669.56,928.89s-.77-46.18,1.08-60.23" fill="#fafaff" stroke="#0840a5" stroke-linecap="round" stroke-miterlimit="10" stroke-width="0.75"></path><path d="M1702.2,848a63.14,63.14,0,0,0-2.76,11.64l-5.08-.24a96.21,96.21,0,0,1,2.83-12.6C1697.9,847,1700.69,847.55,1702.2,848Z" fill="#71afd8"></path><path d="M1656.57,845.8a52.36,52.36,0,0,0-2.16,9.49l-5.17.84s.58-3.87,1.57-8.11C1652.43,847.36,1654.9,846.37,1656.57,845.8Z" fill="#71afd8"></path></g>
<g xmlns="http://www.w3.org/2000/svg" id="crew__ch4_bisep2"><path d="M1649.88,851.16s-8.33-4.3-13.49,11.91-12.6,47-1.88,48.68,12-19.7,12-19.7l5.42-34.41c.39-2.43.29-7.73-1.38-9.35Z" stroke="#0840a5" stroke-linecap="round" stroke-linejoin="round" stroke-width="0.75" fill="url(#crew__linear-gradient-12)"></path><path d="M1648.13,879.23l-1,6.66a75.74,75.74,0,0,1-16-1.31l1.41-6.43C1636.57,879,1642,880.62,1648.13,879.23Z" fill="#71afd8"></path></g>
<g xmlns="http://www.w3.org/2000/svg" id="crew__ch4_head"><polygon points="1665.54 856 1665.76 856.53 1670.64 868.66 1683.92 847.19 1663.07 846.88 1665.54 856" fill="#71afd8"></polygon><path d="M1687.65,823.6v17.49a15.28,15.28,0,0,1-11.07,10.75c-9.1,2.2-12.59-4.72-12.59-4.72V835.75S1673.41,822,1687.65,823.6Z" fill="#fdfdff" stroke="#0840a5" stroke-linecap="round" stroke-miterlimit="10" stroke-width="0.75"></path><path d="M1687.65,812.82s.15-.09.42-.22c1.18-.57,4.63-1.89,6.6.85,2.4,3.35-1.26,11.2-7,10.57a18.6,18.6,0,0,1-10.05,14c-9.42,5-20.62,1.88-23.87-4-2.47-4.48-3.87-14.34-3.76-31.2l.73-4.71s7.22-9.94,23.66-5.23S1687.65,812.82,1687.65,812.82Z" fill="#fdfdff" stroke="#0840a5" stroke-linecap="round" stroke-miterlimit="10" stroke-width="0.75"></path><path d="M1646.39,784.65s-1.54,3.55-.31,6.64a30.15,30.15,0,0,0,4.62,6.87l4.8-3.32a46.55,46.55,0,0,0,24.71.46s2.17,2.78,2.47,4.33a31.87,31.87,0,0,1,0,5.56,2.72,2.72,0,0,1,1.86,1.7c.46,1.39,0,8.8,0,8.8l2.31.31,6.49-3.86,1.24-15.91s.77-3.55-5.72-5.56a8.79,8.79,0,0,0-7.56-5.71c-5.87-.47-19.93-2-22.24-5.41a6.45,6.45,0,0,0-2.78,7.26S1647.63,783.57,1646.39,784.65Z" fill="#1b1959"></path><polygon points="1663.38 842.87 1658.44 846.11 1657.05 861.09 1666.16 856.77 1663.38 842.87" stroke="#0840a5" stroke-linecap="round" stroke-linejoin="round" stroke-width="0.75" fill="url(#crew__linear-gradient-13)"></polygon><path d="M1692.41,845.65s-4.94-6.49-5.09-6-11.74,19.76-11.74,19.76,3.71-2.47,5.72-2,6.64,4.78,6.64,4.78Z" stroke="#0840a5" stroke-linecap="round" stroke-linejoin="round" stroke-width="0.75" fill="url(#crew__linear-gradient-14)"></path><ellipse cx="1667.08" cy="813.5" rx="1.1" ry="2.04" fill="#1b1959"></ellipse><ellipse cx="1653.58" cy="813.5" rx="1.1" ry="2.04" fill="#1b1959"></ellipse><path d="M1663,807.31a12.11,12.11,0,0,0,10,.08" fill="#fafaff" stroke="#0840a5" stroke-linecap="round" stroke-miterlimit="10" stroke-width="0.75"></path><path d="M1650.09,807.69s4.12,1.92,7.43,0" fill="#fafaff" stroke="#0840a5" stroke-linecap="round" stroke-miterlimit="10" stroke-width="0.75"></path><path d="M1657.92,811.56s-.18,6.37-2.72,10.57a1.57,1.57,0,0,0,.51,2.19,7.28,7.28,0,0,0,5.14.54" fill="#fafaff" stroke="#0840a5" stroke-linecap="round" stroke-miterlimit="10" stroke-width="0.75"></path><path d="M1657.06,832.22a13.6,13.6,0,0,1,10.86-.85" fill="#1b1959"></path></g>
<g xmlns="http://www.w3.org/2000/svg" id="crew__ch4_palm2"><path d="M1684.85,882.24a36.91,36.91,0,0,1,10.51.16,10.42,10.42,0,0,1,7.44,5.5l-1.45,7.54-12.85-1.26Z" fill="#fdfdff" stroke="#0840a5" stroke-linecap="round" stroke-miterlimit="10" stroke-width="0.75"></path></g>
<g xmlns="http://www.w3.org/2000/svg" id="crew__ch4_palm1"><path d="M1647.48,876.43l.59,16s5.69,3.46,8.75,2.52,4.53-6.13,3.51-8.17c-.78-1.55-7-7-10.52-9.33C1648.69,876.74,1647.83,876.32,1647.48,876.43Z" fill="#fdfdff" stroke="#0840a5" stroke-linecap="round" stroke-miterlimit="10" stroke-width="0.75"></path><path d="M1650.79,878.27c-.58-.46-1.56-1.13-1.56-1.13s-5-3-8.32-2-4.6,3.85-4.08,5.49a3.68,3.68,0,0,0,.14,4.48s-.07,3.14,1.9,3.61a3.8,3.8,0,0,0,.09,1.38,1.73,1.73,0,0,0,2.55,1.13,6.12,6.12,0,0,1,2.47-.94c1.46-.07,4.52,2.52,4.52,2.52a4.11,4.11,0,0,0,.85-.8" fill="#fdfdff" stroke="#0840a5" stroke-linecap="round" stroke-miterlimit="10" stroke-width="0.75"></path><path d="M1647.12,886.17l-3-.06a2.81,2.81,0,0,0-1.44.37l-3.85,2.2" fill="#fdfdff" stroke="#0840a5" stroke-linecap="round" stroke-miterlimit="10" stroke-width="0.75"></path><path d="M1646.24,882.48l-3.22.06a3.06,3.06,0,0,0-1.25.3l-4.8,2.23" fill="#fdfdff" stroke="#0840a5" stroke-linecap="round" stroke-miterlimit="10" stroke-width="0.75"></path><path d="M1646.24,879l-3.79-.25a3.87,3.87,0,0,0-1.71.27l-3.91,1.55" fill="#fdfdff" stroke="#0840a5" stroke-linecap="round" stroke-miterlimit="10" stroke-width="0.75"></path></g>
<g xmlns="http://www.w3.org/2000/svg" id="crew__ch4_arm2"><path d="M1701.9,894.48c-13.85-4.46-37.49-7.05-37.49-7.05l-3.79,14.76s33.12,14.52,52.83,10.91c.9-.38.56-.25.54-.31" stroke="#0840a5" stroke-linecap="round" stroke-linejoin="round" stroke-width="0.75" fill="url(#crew__linear-gradient-15)"></path></g>
<g xmlns="http://www.w3.org/2000/svg" id="crew__ch4_arm1"><path d="M1631.53,910.69c1.61,1.46,5.19,3.06,13,2,13.14-1.73,45-16.5,45-16.5s.44-13.19-6.57-16l-41.45,10.68a12.75,12.75,0,0,0-5.21,2.8" stroke="#0840a5" stroke-linecap="round" stroke-linejoin="round" stroke-width="0.75" fill="url(#crew__linear-gradient-16)"></path></g>
<g xmlns="http://www.w3.org/2000/svg" id="crew__ch4_bisep1"><path d="M1705.06,849.27l0-.63s6.07,2.23,10.74,12c4.55,9.48,10.67,43-2.59,52.5a3.35,3.35,0,0,1-2.46.58c-3-.48-10.41-2.47-11.67-10.53a122.82,122.82,0,0,0,4.8-29.87" stroke="#0840a5" stroke-linecap="round" stroke-linejoin="round" stroke-width="0.75" fill="url(#crew__linear-gradient-17)"></path><path d="M1704,880.17a37.51,37.51,0,0,0,16.45,1.22l.47,7.5s-10.54.46-17.86-1.65Z" fill="#71afd8"></path></g>
<g xmlns="http://www.w3.org/2000/svg" id="crew__ch3_hand"><path d="M1592.16,877.27a14,14,0,0,0,3.12-5.19c.7-2.69-1.62-9.13-1.62-9.13s-12.58,3.75-12.46,4.17l1.87,6.46Z" fill="#f4f6f9" stroke="#0840a5" stroke-miterlimit="10" stroke-width="0.75"></path><path d="M1605.19,853.62c-.28-.19-39.72,11-39.72,11s-.53,8,1.82,11,20.64,5,23.68,3.76,2.78-3.28.88-4-7-2-6.42-5c.39-2,2.08-4.54,7.89-5.9C1601.36,862.64,1612.32,858.34,1605.19,853.62Z" fill="#f4f6f9" stroke="#0840a5" stroke-miterlimit="10" stroke-width="0.75"></path><path d="M1569.41,885.12s4.56-15.92-.63-23.8c0,0-16.17,1.1-22.33.34s-34.93-10.75-42.8-13.93-10.08,2-13.13,3.75-4.61,27.75,5.68,32.9S1553.09,886,1569.41,885.12Z" stroke="#0840a5" stroke-linecap="round" stroke-linejoin="round" stroke-width="0.75" fill="url(#crew__linear-gradient-18)"></path><path d="M1557.17,883.09c.24-3.93.62-14.53-1.58-21.23" fill="none" stroke="#0840a5" stroke-linecap="round" stroke-miterlimit="10" stroke-width="0.75"></path><path d="M1564.26,883.79c.18-4.49.34-15.46-2.14-21.91" fill="none" stroke="#0840a5" stroke-linecap="round" stroke-miterlimit="10" stroke-width="0.75"></path></g>
<g xmlns="http://www.w3.org/2000/svg" id="crew__ch3_leg2"><path d="M1410,1024.09a18,18,0,0,1-1.39,6.78c-1.39,2.79-6.57,8.36-6.18,11.15s4.19,5.38,12,5.18,14.74-6,14.74-6,.4-18.53.4-17.73S1410,1024.09,1410,1024.09Z" fill="#1b1959"></path><path d="M1454.66,955.36l-23.31,71.32s-1.59,1.4-10.16,1.8-13-2.79-13-2.79,5.78-24.71,7.17-41.44c1-12.47,2.63-30.91,3.38-39.83,0,0,2.15-16.4,19.13-17S1454.66,955.36,1454.66,955.36Z" fill="#18469d"></path></g>
<g xmlns="http://www.w3.org/2000/svg" id="crew__ch3_leg1"><path d="M1476.77,1024.89l-.4,16.53s7.77,1.6,12.55.2l1-1.39a27.07,27.07,0,0,0,5,1.79c4,1.2,20.32.6,21.52-.79s1.19-4.59-2.19-5.78-16.14-4.78-18.33-11.56S1476.77,1024.89,1476.77,1024.89Z" fill="#1b1959"></path><path d="M1491.42,946.16c1.31,7.82,3,18.69,3.28,23,.4,7,2.59,56.58,2.59,56.58-10,5.77-22.11.59-22.11.59a273.1,273.1,0,0,0-3.59-30.87c-3-17.34-9.16-40.64-9.16-40.64s-8.13-15.43,2-23.18,20.55-.59,24.13,3.28S1491.42,946.16,1491.42,946.16Z" fill="#18469d"></path></g>
<g xmlns="http://www.w3.org/2000/svg" id="crew__ch3_pelvis"><path d="M1491.3,945.44c-.78-4.62-1.38-8-1.38-8l-20.12-8.36-47.21,3.18-3.39,7c0,.14-1.7,2.09-.21,2.75.75.34,35.65,13.45,35.65,13.45l0-.07,7.77-.59s0,.1.08.31Z" fill="#18469d"></path></g>
<g xmlns="http://www.w3.org/2000/svg" id="crew__ch3_torso"><path d="M1511.4,851.31c-1.06-2.18-4-1.56-9.33-5.91-6.77-5.58-28.09-12.16-28.09-12.16s-27.69,0-29.48,1.4-15.74,45-21.72,67.33-7,37.85-7,37.85,26.9,10.36,49.41,7.77c0,0,5.18-9.16,7-12.55l3.79,12.55s14.34-2.59,19.12-6.17c0,0-4.38-23.11-2.39-25.7s2.79-.8,2.39-3.79-1-10-1-10l12.24-31.56" stroke="#0840a5" stroke-linecap="round" stroke-linejoin="round" stroke-width="0.75" fill="url(#crew__linear-gradient-19)"></path><path d="M1501.07,844.64c0,.6-7.76,16.69-10.55,22.27s-6,11-6,11l14.35-9.76-1.4-6.78h6l0-15.93-1-5.18Z" stroke="#0840a5" stroke-linecap="round" stroke-linejoin="round" stroke-width="0.75" fill="url(#crew__linear-gradient-20)"></path><path d="M1474,833.24l-6.57.4.8,22.11,9.76-1-4.39,8.17,11,14.94a119.52,119.52,0,0,0-1.59-18.93C1481.35,850.77,1474,833.24,1474,833.24Z" stroke="#0840a5" stroke-linecap="round" stroke-linejoin="round" stroke-width="0.75" fill="url(#crew__linear-gradient-21)"></path><path d="M1455.85,867.51l-4.78,19.12s10,6.58,18.53,5.58l6.18-20.12Z" fill="#71afd8"></path><path d="M1454.18,872.67a45,45,0,0,0,20.59,4.47" fill="none" stroke="#0840a5" stroke-miterlimit="10" stroke-width="0.75"></path><path d="M1473.19,927.67a164.12,164.12,0,0,0,2-17.13c.2-3.19,5.58-15.14,7.37-20.92a51,51,0,0,0,2-11.75" fill="none" stroke="#0840a5" stroke-linecap="round" stroke-miterlimit="10" stroke-width="0.75"></path><path d="M1458.84,916.72c.6-.4,18.33,3.18,26.3-3.19" fill="none" stroke="#0840a5" stroke-linecap="round" stroke-miterlimit="10" stroke-width="0.75"></path><path d="M1461.43,926.48s20.32-1.4,24.31-5.18" fill="none" stroke="#0840a5" stroke-linecap="round" stroke-miterlimit="10" stroke-width="0.75"></path><ellipse cx="1476.87" cy="893.41" rx="0.7" ry="1" fill="#18469d"></ellipse><ellipse cx="1471.39" cy="908.15" rx="1.2" ry="0.8" fill="#18469d"></ellipse></g>
<g xmlns="http://www.w3.org/2000/svg" id="crew__ch3_bisep1"><path d="M1448.13,834.05c-2-.18-7.06.22-17.18,6.17-13.54,8-30.08,23.7-33.47,33.07l-.1.3a12,12,0,0,0,4.19,13.17c7,5.81,18.62,1.79,18.62,1.79l3-5.4c3.3-3.49,18.2-13.64,22.75-17.51" stroke="#0840a5" stroke-linecap="round" stroke-linejoin="round" stroke-width="0.75" fill="url(#crew__linear-gradient-22)"></path></g>
<g xmlns="http://www.w3.org/2000/svg" id="crew__ch3_head"><path d="M1481.16,817.51l-7,16.33s1.6,10.76,8.77,15.54,10.56,4,14.14,3.78l5.38-12.94Z" fill="#fdfdff" stroke="#0840a5" stroke-miterlimit="10" stroke-width="0.75"></path><path d="M1477.57,797.19l.2,8.56,7,8.77s7-3.39,7-4.59S1495.3,798,1495.3,798l1-8s1.19-4.78.59-4.58S1477.57,797.19,1477.57,797.19Z" fill="#1b1959"></path><path d="M1487.32,838.06a30.61,30.61,0,0,0,17.54,7.93c9.37.8,11.36-2,12.75-4.18s4-9.56,6-18.33,2.79-19.92.8-28.69-15.74-12.55-23.31-9.36-9.76,8.17-9.76,13.35l-2.4,2.39-.59,8.17-3.39.59s-.8-4-3.78-5.17-9.37,1.79-7,8.56,7,5.38,7,5.38" fill="#fdfdff" stroke="#0840a5" stroke-linecap="round" stroke-miterlimit="10" stroke-width="0.75"></path><path d="M1477.08,796.19s-7.67-.24-7.79-5.19,2-4.36,9-7.66,23.7-13.92,28.54-17.1,13.21-1.77,18.51,1.77a9.74,9.74,0,0,1,4,11.56,8.07,8.07,0,0,1-3.18,3.89l-26.65,2.35Z" fill="#f4f6f9" stroke="#0840a5" stroke-miterlimit="10" stroke-width="0.75"></path><path d="M1491.34,795.37s4.6,2.47,19,2.94,25.47-.35,25.82-2.12-11.32-7-11.32-7S1499.71,786.05,1491.34,795.37Z" fill="#f4f6f9" stroke="#0840a5" stroke-miterlimit="10" stroke-width="0.75"></path><path d="M1477.08,801.61v-5.42s11.43-16.27,49.4-13.32l.12,7.07S1507.85,785.34,1477.08,801.61Z" fill="#18469d"></path><ellipse cx="1517.81" cy="781.33" rx="4.42" ry="6.13" fill="#f4f6f9" stroke="#0840a5" stroke-miterlimit="10" stroke-width="0.75"></ellipse></g>
<g xmlns="http://www.w3.org/2000/svg" id="crew__ch3_arm1"><path d="M1410.83,919.9c-.38.46.4,5,3.59,12.35s7.12,12.11,11.15,10.91c0,0,5.31,2.84,7.47.3a4.39,4.39,0,0,0,4.41.15,4.88,4.88,0,0,0,1.72-2s2.91.9,4.33-1.42a4.25,4.25,0,0,0-.3-5c-.59-.9-6.2-9.12-6.2-9.12s3.44,1.87,5.31.15,1.72-3.58.82-4.48-14.49-9.64-14.49-9.64S1417.83,911.59,1410.83,919.9Z" fill="#fdfdff" stroke="#0840a5" stroke-linecap="round" stroke-miterlimit="10" stroke-width="0.75"></path><path d="M1432.07,932.7a36.59,36.59,0,0,0,7.1,8.89" fill="#fdfdff" stroke="#0840a5" stroke-linecap="round" stroke-miterlimit="10" stroke-width="0.75"></path><path d="M1427,935.62a31.59,31.59,0,0,0,6,7.84" fill="#fdfdff" stroke="#0840a5" stroke-linecap="round" stroke-miterlimit="10" stroke-width="0.75"></path><path d="M1422.29,937.78a28.18,28.18,0,0,0,3.3,5.61" fill="#fdfdff" stroke="#0840a5" stroke-linecap="round" stroke-miterlimit="10" stroke-width="0.75"></path><path d="M1422.59,883.52c0,.18,0,.28,0,.28s7.35,28.73,7.35,28.73c-4.19,4.78-19.73,10.56-19.73,10.56a57.65,57.65,0,0,1-8-15.34c-2.79-8.57-8.17-25.1-4.79-34.46a21.06,21.06,0,0,1,1-2.29" stroke="#0840a5" stroke-linecap="round" stroke-linejoin="round" stroke-width="0.75" fill="url(#crew__linear-gradient-23)"></path><path d="M1403,909.44c.2-.3,15-3.88,22.71-11.25" fill="none" stroke="#0840a5" stroke-linecap="round" stroke-miterlimit="10" stroke-width="0.75"></path><path d="M1406.45,917.11s15.74-5.57,21.31-10.75" fill="none" stroke="#0840a5" stroke-linecap="round" stroke-miterlimit="10" stroke-width="0.75"></path></g>
<g xmlns="http://www.w3.org/2000/svg" id="crew__ch3_nose"><path d="M1514.92,822.59l9,1.64a3.18,3.18,0,0,0,2.84-3.74l-8.67-16.58s.75-.75,3.74-.15a4.8,4.8,0,0,0,4.48-1" fill="#fafaff" stroke="#0840a5" stroke-linecap="round" stroke-miterlimit="10" stroke-width="0.75"></path></g>
<g xmlns="http://www.w3.org/2000/svg" id="crew__ch3_eyebrow"><path d="M1500.43,800.62a5.77,5.77,0,0,1,4.33.45c2.09,1.2,6.13,4.18,8.52,3.29" fill="none" stroke="#0840a5" stroke-linecap="round" stroke-miterlimit="10" stroke-width="0.75"></path></g>
<g xmlns="http://www.w3.org/2000/svg" id="crew__ch3_eye1"><ellipse cx="1508.35" cy="808.02" rx="1.79" ry="1.72" fill="#1b1959"></ellipse></g>
<g xmlns="http://www.w3.org/2000/svg" id="crew__ch3_eye2"><ellipse cx="1523.66" cy="808.32" rx="1.27" ry="1.42" fill="#1b1959"></ellipse></g>
<g xmlns="http://www.w3.org/2000/svg" id="crew__ch3_mouth"><path d="M1518.07,827.77a4.6,4.6,0,0,1-.16.58,7,7,0,0,1-1.64,2.45,5.16,5.16,0,0,0-1.2,3.59c-.91,1.17-3.3.41-5.78-.1l-.48-.09-.61-.11c-2.84-.45-7.47.6-8.67-.75s1.35-4.78,1.35-4.78l.29-.31a14.47,14.47,0,0,1,1.53-1.42,12.63,12.63,0,0,1,1.23-.88,11.47,11.47,0,0,1,1.22-.69c5.38-2.74,11.14-1.24,12.31.17A2.76,2.76,0,0,1,1518.07,827.77Z" fill="none" stroke="#0840a5" stroke-miterlimit="10" stroke-width="0.75"></path><path d="M1518.07,827.77a4.6,4.6,0,0,1-.16.58,7,7,0,0,1-1.64,2.45,5.16,5.16,0,0,0-1.2,3.59c-.91,1.17-3.3.41-5.78-.1-.94-2.13-2.55-5-4.92-5.78a8,8,0,0,0-3.2-.26,14.47,14.47,0,0,1,1.53-1.42,12.63,12.63,0,0,1,1.23-.88,11.47,11.47,0,0,1,1.22-.69c1.07.28,2.47.72,4.24,1.31A27.26,27.26,0,0,0,1518.07,827.77Z" fill="#1b1959"></path></g>
<g xmlns="http://www.w3.org/2000/svg" id="crew__layer_40"><line x1="1458.67" y1="801.56" x2="1438.11" y2="805.13" fill="none" stroke="#0840a5" stroke-linecap="round" stroke-linejoin="round" stroke-width="0.75"></line><line x1="1459.56" y1="813.18" x2="1434.54" y2="825.69" fill="none" stroke="#0840a5" stroke-linecap="round" stroke-linejoin="round" stroke-width="0.75"></line><line x1="1531.06" y1="757.77" x2="1539.99" y2="733.64" fill="none" stroke="#0840a5" stroke-linecap="round" stroke-linejoin="round" stroke-width="0.75"></line><line x1="1538.21" y1="762.24" x2="1551.61" y2="749.72" fill="none" stroke="#0840a5" stroke-linecap="round" stroke-linejoin="round" stroke-width="0.75"></line><line x1="1640.98" y1="768.49" x2="1629.37" y2="755.98" fill="none" stroke="#0840a5" stroke-linecap="round" stroke-linejoin="round" stroke-width="0.75"></line><line x1="1636.51" y1="776.54" x2="1621.32" y2="776.54" fill="none" stroke="#0840a5" stroke-linecap="round" stroke-linejoin="round" stroke-width="0.75"></line></g>
<g xmlns="http://www.w3.org/2000/svg" id="crew__layer_39"><path d="M1720.31,759.67c0,.62-12.25,21.54-12.25,21.54l4.19,1.39-7.59,8.06,14.1-8.52-4.5-3.1L1729.91,760Z" fill="#3660b7"></path><path d="M1726.19,779.66l-18,16.27,7.13,4-8.37,8.53,16.58-7.75s-8.37-5.58-7.9-5.73,18.44-12.24,18.44-12.24Z" fill="#3660b7"></path></g>
<g xmlns="http://www.w3.org/2000/svg" id="crew__layer_38"><path d="M1574,747.81c-14,0-25.32,9-25.32,20,0,6.94,4.46,13,11.23,16.65a17,17,0,0,1-2.95,9s6.71-3.36,9.27-6.63a31.21,31.21,0,0,0,7.77,1c14,0,25.33-9,25.33-20S1588,747.81,1574,747.81Z" fill="#fdfdff" stroke="#0840a5" stroke-linecap="round" stroke-miterlimit="10" stroke-width="0.75"></path><path d="M1555.32,778.3a13.46,13.46,0,0,1,1.13-11.59,17.38,17.38,0,0,1,9.26-7.33,24.64,24.64,0,0,1,11.91-.88,15.37,15.37,0,0,1,6.32,2.21,7.7,7.7,0,0,1,3.53,5.5,10.07,10.07,0,0,1-1,4.82,7.74,7.74,0,0,1-1.22,2.08,7.41,7.41,0,0,1-3.83,2,21.48,21.48,0,0,1-12.79-.65,11.94,11.94,0,0,1-4.54-2.78,6.33,6.33,0,0,1-1.85-4.86,7.48,7.48,0,0,1,2.1-4.16,14.51,14.51,0,0,1,14.78-4,9,9,0,0,1,4.84,3.28,5.26,5.26,0,0,1,.35,5.62,6.29,6.29,0,0,1-2.29,2,12.24,12.24,0,0,1-12.64-.49,5.48,5.48,0,0,1-2.74-4.1c0-2.13,1.84-3.83,3.79-4.7a13,13,0,0,1,11.22.35c1.4.74,2.76,1.91,2.92,3.49.19,1.83-1.33,3.41-2.94,4.3a12.81,12.81,0,0,1-8.8,1.26,14.71,14.71,0,0,1-7.72-4.48c-2-2.24-3.45-5.52-2.26-8.31,1.1-2.58,4.06-3.88,6.85-4.23a13.3,13.3,0,0,1,10.12,2.62,9.35,9.35,0,0,1,3.16,9.63,10.11,10.11,0,0,1-3.08,4.47,8.79,8.79,0,0,1-6.21,2.44c-3.45-.25-6.06-3.23-7.72-6.26a15.43,15.43,0,0,1-1.93-5.47,7.94,7.94,0,0,1,1.27-5.56,8.86,8.86,0,0,1,3.38-2.64,14.55,14.55,0,0,1,18.36,5,9.89,9.89,0,0,1,1.82,5.05c.11,2.87-1.46,5.58-3.44,7.65a21.84,21.84,0,0,1-14.74,6.43,7.27,7.27,0,0,1-2.67-.28,2.93,2.93,0,0,1-1.9-1.78,4.06,4.06,0,0,1,.7-3.2,26,26,0,0,1,9-8.71,25.12,25.12,0,0,1,11.57-4.15c1.86-.12,3.95.17,5.14,1.6s1.09,3.68.33,5.44a13.85,13.85,0,0,1-4.14,5,27,27,0,0,1-13.47,5.78c-1.11.14-2.56,0-2.87-1.08a2,2,0,0,1,.22-1.36,7.79,7.79,0,0,1,2.27-2.58,20.78,20.78,0,0,1,13.52-4.41,10.2,10.2,0,0,1,4.8,1.2,5.09,5.09,0,0,1,2.6,4c0,2-1.39,3.72-3,4.9-4.64,3.43-10.87,3.81-16.6,3.13a32.11,32.11,0,0,1-12.65-3.87c-2-1.17-4-3-4-5.26,0-2.47,2.12-4.42,4.34-5.51a17.67,17.67,0,0,1,13.93-.63c3.29,1.26,6.4,3.94,6.69,7.45.22,2.65-1.24,5.2-3.18,7a19.17,19.17,0,0,1-7.18,4.06,13.93,13.93,0,0,1-6.15.84,11.48,11.48,0,0,1-6.65-3.6,21.17,21.17,0,0,1-4-6.52,10.24,10.24,0,0,1-1-5.8,7.07,7.07,0,0,1,3.12-4.37,11.6,11.6,0,0,1,5.19-1.7,17.22,17.22,0,0,1,7.66,1c1.33.48,2.73,1.28,3.13,2.65.52,1.75-.85,3.47-2.29,4.59a24.6,24.6,0,0,1-10.19,4.36,15.59,15.59,0,0,1-6.19.28,7,7,0,0,1-4.94-3.45,6.59,6.59,0,0,1-.08-5.38,11.25,11.25,0,0,1,3.35-4.36,17.94,17.94,0,0,1,16.72-3.27,12.87,12.87,0,0,1,5,2.83,5.49,5.49,0,0,1,1.94,4.07,4.72,4.72,0,0,1-2.63,3.75,9.27,9.27,0,0,1-4.66.87c-3.88-.13-7.88-1.64-10.23-4.73s-2.6-7.88,0-10.72a8.77,8.77,0,0,1,6.07-2.57,16.16,16.16,0,0,1,6.59,1.31,29.36,29.36,0,0,1,11,7.56,7.81,7.81,0,0,1,2.36,4.46c.19,2.6-1.83,4.8-3.89,6.38a20.85,20.85,0,0,1-10.82,4.62c-1.8.15-3.86-.15-4.9-1.62a4.07,4.07,0,0,1-.51-3.27,8.69,8.69,0,0,1,1.54-3,22.2,22.2,0,0,1,13.31-8.39c3.47-.72,7.5-.5,10,2a8.27,8.27,0,0,1,1.18,9.09,12.91,12.91,0,0,1-7.2,6.23,18.16,18.16,0,0,1-9.35,1c-2.12-.33-4.33-1.16-5.55-2.93a7.51,7.51,0,0,1,2.57-9.78,4.29,4.29,0,0,1,3.92-.26,3.16,3.16,0,0,1,1.76,3.36,3.46,3.46,0,0,1-3.79,2.36,6.59,6.59,0,0,1-4.08-2.49,5.36,5.36,0,0,1-1.28-2.33,2.59,2.59,0,0,1,.69-2.47,3.27,3.27,0,0,1,1.65-.65,7.37,7.37,0,0,1,4.14.61,1.14,1.14,0,0,1,.54.42c.3.54-.33,1.12-.89,1.39a17.08,17.08,0,0,1-8,1.76,32.12,32.12,0,0,1,8.59-3.44,4.36,4.36,0,0,1,2-.14,1.6,1.6,0,0,1,1.28,1.34,2.23,2.23,0,0,1-.57,1.37,18.48,18.48,0,0,1-8.21,6.26,6.17,6.17,0,0,1-3,.53,4.65,4.65,0,0,1-3.65-4.37,8.27,8.27,0,0,1,2.16-5.62c3.82-4.59,10.65-6.21,16.31-4.3a10.63,10.63,0,0,1,4.55,2.8,6.35,6.35,0,0,1,1.72,4.94,8.19,8.19,0,0,1-2.23,4.23,18.63,18.63,0,0,1-17.74,5.63c-2.33-.54-4.69-1.66-5.92-3.72a2.94,2.94,0,0,1-.48-1.43,3.34,3.34,0,0,1,1.66-2.52c3.06-2.2,7-2.73,10.76-2.91,4.74-.23,9.6,0,14,1.74a9.14,9.14,0,0,1,3,1.74,4.33,4.33,0,0,1,1.48,3c0,1.71-1.25,3.17-2.65,4.16a19.31,19.31,0,0,1-6.76,2.78,41.42,41.42,0,0,1-10.47,1.1,14.3,14.3,0,0,1-5.58-1,4.16,4.16,0,0,1-2.06-6.43,8.47,8.47,0,0,1,5.56-4.18" fill="#fafaff" stroke="#0840a5" stroke-linecap="round" stroke-miterlimit="10" stroke-width="0.75"></path></g></g>
</g>
</svg>