<?xml version="1.0"?>
<svg xmlns="http://www.w3.org/2000/svg" xmlns:xlink="http://www.w3.org/1999/xlink" viewBox="0 0 1920 1080" width="1920" height="1080">
<defs><filter id="cardShadow" x="-12%" y="-12%" width="124%" height="124%"><feDropShadow dx="0" dy="12" stdDeviation="24" flood-color="#253761" flood-opacity="0.10"></feDropShadow></filter>
<filter id="softGlow" x="-40%" y="-40%" width="180%" height="180%"><feGaussianBlur stdDeviation="16"></feGaussianBlur></filter>
<filter id="discShadow" x="-45%" y="-45%" width="190%" height="190%"><feDropShadow dx="0" dy="6" stdDeviation="10" flood-color="#253761" flood-opacity="0.12"></feDropShadow></filter></defs>
<g isolation="isolate">
<g id="bg" data-layer="world"><rect width="1920" height="1080" fill="#f5f6fa"></rect></g>
<g id="guides" data-layer="base">
  <circle cx="1800" cy="70" r="250" fill="#eef6fc"></circle>
  <g stroke="#e9eef7" stroke-width="1.5" fill="none">
    <line x1="96" y1="60" x2="96" y2="1020"></line><line x1="1824" y1="60" x2="1824" y2="1020"></line>
    <line x1="60" y1="120" x2="1860" y2="120"></line>
  </g></g><g id="waves" data-layer="world" transform="translate(0,-60)">
&#x9;<g>
&#x9;&#x9;
&#x9;&#x9;&#x9;<linearGradient id="SVGID_00000029758214463884587060000012301435281119080075_" gradientUnits="userSpaceOnUse" x1="360.6486" y1="1458.1107" x2="360.6486" y2="762.4866">
&#x9;&#x9;&#x9;<stop offset="0.3161" style="stop-color:#F3F7FA"></stop>
&#x9;&#x9;&#x9;<stop offset="0.4663" style="stop-color:#F5F7FA"></stop>
&#x9;&#x9;&#x9;<stop offset="0.5412" style="stop-color:#E7F0F8"></stop>
&#x9;&#x9;&#x9;<stop offset="0.6175" style="stop-color:#DDECF7"></stop>
&#x9;&#x9;</linearGradient>
&#x9;&#x9;<path fill="url(#SVGID_00000029758214463884587060000012301435281119080075_)" d="M1051.58,1157.15h-311.7v131.92H-330.29&#xA;&#x9;&#x9;&#x9;c1.43-29.17,10.11-39.78,9.48-68.97c40.64-64.67,98.79-122.4,166.04-160.24c113.97-64.13,251.04-104.85,381.71-90.75&#xA;&#x9;&#x9;&#x9;c36.93,3.99,90.91,25.1,126.06,37.04c76.7,26.04,144.13,6.06,204.79-5.87c72.34-14.24,119.2-24.58,167.48-18.38&#xA;&#x9;&#x9;&#x9;C852.04,998.16,964.89,1089.07,1051.58,1157.15z"></path>
&#x9;&#x9;<g>
&#x9;&#x9;&#x9;
&#x9;&#x9;&#x9;&#x9;<linearGradient id="SVGID_00000051343705426922097000000014197109659876673212_" gradientUnits="userSpaceOnUse" x1="-88.2464" y1="1027.9403" x2="968.944" y2="1027.9403">
&#x9;&#x9;&#x9;&#x9;<stop offset="0" style="stop-color:#F2F4F9"></stop>
&#x9;&#x9;&#x9;&#x9;<stop offset="0.4157" style="stop-color:#F9F9F9"></stop>
&#x9;&#x9;&#x9;&#x9;<stop offset="1" style="stop-color:#F2F4F9"></stop>
&#x9;&#x9;&#x9;</linearGradient>
&#x9;&#x9;&#x9;<path fill="url(#SVGID_00000051343705426922097000000014197109659876673212_)" d="M-87.09,1025.55&#xA;&#x9;&#x9;&#x9;&#x9;c20.76-9.73,42.2-17.99,63.9-25.43c21.71-7.42,43.76-13.9,66.07-19.34c22.33-5.37,44.94-9.66,67.73-12.63&#xA;&#x9;&#x9;&#x9;&#x9;c11.4-1.47,22.85-2.62,34.33-3.39c11.48-0.75,22.99-1.12,34.51-1.06c11.51,0.05,23.04,0.57,34.52,1.61&#xA;&#x9;&#x9;&#x9;&#x9;c2.87,0.25,5.74,0.52,8.6,0.88c2.87,0.31,5.72,0.69,8.58,1.08c2.86,0.36,5.7,0.85,8.56,1.28c0.71,0.11,1.41,0.21,2.21,0.38&#xA;&#x9;&#x9;&#x9;&#x9;c0.77,0.16,1.51,0.34,2.23,0.54c1.44,0.39,2.8,0.83,4.11,1.17c0.65,0.17,1.29,0.32,1.92,0.44l2.11,0.37&#xA;&#x9;&#x9;&#x9;&#x9;c1.46,0.24,2.87,0.57,4.31,0.86c2.84,0.65,5.65,1.33,8.44,2.08c5.59,1.48,11.11,3.11,16.61,4.79c11,3.37,21.9,6.97,32.78,10.61&#xA;&#x9;&#x9;&#x9;&#x9;L347,1000.8c5.43,1.82,10.85,3.63,16.29,5.36c5.43,1.71,10.89,3.44,16.3,4.65c5.6,1.24,11.14,2.43,16.73,3.36&#xA;&#x9;&#x9;&#x9;&#x9;c5.58,0.95,11.2,1.64,16.84,2.13c11.28,0.97,22.65,1.01,34,0.45c22.71-1.11,45.33-4.55,67.7-9.05c11.2-2.24,22.3-4.87,33.48-7.48&#xA;&#x9;&#x9;&#x9;&#x9;c11.17-2.6,22.34-5.21,33.57-7.63c22.44-4.85,45.09-9.13,68-11.67c11.45-1.27,22.96-2.11,34.5-2.36&#xA;&#x9;&#x9;&#x9;&#x9;c11.53-0.24,23.08,0.09,34.58,1.07c23,1.94,45.75,6.57,67.69,13.62c10.98,3.51,21.72,7.73,32.25,12.37&#xA;&#x9;&#x9;&#x9;&#x9;c5.29,2.29,10.45,4.79,15.64,7.24l7.78,3.68c2.59,1.23,5.15,2.53,7.72,3.81c20.56,10.19,40.82,21.01,60.55,32.73&#xA;&#x9;&#x9;&#x9;&#x9;c9.88,5.83,19.6,11.95,29.1,18.37l3.56,2.42l3.51,2.49c2.35,1.64,4.66,3.34,6.96,5.05c4.59,3.44,9.13,6.95,13.4,10.77&#xA;&#x9;&#x9;&#x9;&#x9;c-4.36-3.72-8.98-7.12-13.64-10.44c-2.34-1.66-4.68-3.3-7.07-4.88l-3.56-2.4l-3.61-2.33c-9.61-6.24-19.4-12.17-29.37-17.82&#xA;&#x9;&#x9;&#x9;&#x9;c-19.9-11.34-40.3-21.78-60.99-31.58c-2.59-1.22-5.15-2.5-7.75-3.7l-7.8-3.59c-5.2-2.39-10.39-4.83-15.64-7.04&#xA;&#x9;&#x9;&#x9;&#x9;c-10.49-4.48-21.17-8.55-32.06-11.9c-21.78-6.75-44.28-11.07-66.99-12.73c-22.72-1.69-45.57-0.78-68.21,1.85&#xA;&#x9;&#x9;&#x9;&#x9;c-22.66,2.64-45.11,7.01-67.44,11.97c-11.17,2.49-22.32,5.08-33.47,7.71c-11.14,2.63-22.34,5.3-33.62,7.58&#xA;&#x9;&#x9;&#x9;&#x9;c-22.55,4.58-45.39,8.11-68.49,9.27c-11.54,0.54-23.15,0.48-34.72-0.53c-5.78-0.51-11.55-1.23-17.26-2.21&#xA;&#x9;&#x9;&#x9;&#x9;c-5.72-0.96-11.39-2.19-16.98-3.44c-5.78-1.32-11.26-3.07-16.75-4.81c-5.48-1.76-10.93-3.58-16.36-5.42l-32.54-11.13&#xA;&#x9;&#x9;&#x9;&#x9;c-10.84-3.69-21.69-7.35-32.59-10.75c-5.45-1.7-10.92-3.34-16.4-4.83c-2.74-0.75-5.49-1.43-8.24-2.07&#xA;&#x9;&#x9;&#x9;&#x9;c-1.37-0.28-2.75-0.62-4.12-0.85l-2.12-0.39c-0.78-0.15-1.53-0.33-2.27-0.52c-1.46-0.39-2.83-0.84-4.15-1.2&#xA;&#x9;&#x9;&#x9;&#x9;c-1.35-0.39-2.49-0.62-3.96-0.84c-2.81-0.44-5.61-0.95-8.44-1.31c-2.82-0.4-5.64-0.8-8.47-1.12c-2.83-0.36-5.66-0.65-8.49-0.94&#xA;&#x9;&#x9;&#x9;&#x9;c-11.34-1.15-22.73-1.78-34.14-1.96c-11.41-0.18-22.83,0.06-34.23,0.68c-11.4,0.64-22.79,1.66-34.14,3.01&#xA;&#x9;&#x9;&#x9;&#x9;c-22.7,2.7-45.24,6.76-67.55,11.82c-22.32,5.03-44.42,11.11-66.22,18.13c-10.9,3.51-21.73,7.26-32.46,11.26&#xA;&#x9;&#x9;&#x9;&#x9;C-65.94,1016.72-76.62,1020.89-87.09,1025.55z"></path>
&#x9;&#x9;</g>
&#x9;</g>
&#x9;<g>
&#x9;&#x9;
&#x9;&#x9;&#x9;<linearGradient id="SVGID_00000045615447674961200930000002179593851921127863_" gradientUnits="userSpaceOnUse" x1="14098.5049" y1="600.8174" x2="14098.5049" y2="102.4361" gradientTransform="matrix(-0.9999 0.0159 0.0159 0.9999 15593.4941 549.9828)">
&#x9;&#x9;&#x9;<stop offset="0.3161" style="stop-color:#F3F7FA"></stop>
&#x9;&#x9;&#x9;<stop offset="0.4663" style="stop-color:#F5F7FA"></stop>
&#x9;&#x9;&#x9;<stop offset="0.5412" style="stop-color:#E7F0F8"></stop>
&#x9;&#x9;&#x9;<stop offset="0.6175" style="stop-color:#DDECF7"></stop>
&#x9;&#x9;</linearGradient>
&#x9;&#x9;<path fill="url(#SVGID_00000045615447674961200930000002179593851921127863_)" d="M826.43,1164.59l305.02-3.44l2.1,93.56&#xA;&#x9;&#x9;&#x9;l1047.23-11.8c-1.86-20.67-10.52-28.1-10.38-48.81c-40.79-45.42-98.61-85.72-165.03-111.81&#xA;&#x9;&#x9;&#x9;c-112.54-44.22-247.33-71.59-374.97-60.15c-36.08,3.24-88.56,18.81-122.77,27.66c-74.64,19.32-140.95,5.89-200.49-1.91&#xA;&#x9;&#x9;&#x9;c-71.02-9.3-117.03-16.12-164.19-11.19C1019.16,1049.64,910.18,1115.35,826.43,1164.59z"></path>
&#x9;&#x9;<g>
&#x9;&#x9;&#x9;
&#x9;&#x9;&#x9;&#x9;<linearGradient id="SVGID_00000025439931805981014350000009614177579492721294_" gradientUnits="userSpaceOnUse" x1="1938.8403" y1="1053.2164" x2="905.6478" y2="1077.9536">
&#x9;&#x9;&#x9;&#x9;<stop offset="0" style="stop-color:#F2F4F9"></stop>
&#x9;&#x9;&#x9;&#x9;<stop offset="0.4157" style="stop-color:#F9F9F9"></stop>
&#x9;&#x9;&#x9;&#x9;<stop offset="1" style="stop-color:#F2F4F9"></stop>
&#x9;&#x9;&#x9;</linearGradient>
&#x9;&#x9;&#x9;<path fill="url(#SVGID_00000025439931805981014350000009614177579492721294_)" d="M1938.91,1056.31&#xA;&#x9;&#x9;&#x9;&#x9;c-10.53-3.15-21.17-5.91-31.84-8.54c-10.67-2.64-21.37-5.09-32.12-7.37c-21.49-4.55-43.13-8.4-64.86-11.5&#xA;&#x9;&#x9;&#x9;&#x9;c-43.44-6.28-87.35-9.73-131.17-8.56c-10.95,0.3-21.89,0.89-32.79,1.82c-5.45,0.49-10.9,1.02-16.33,1.65&#xA;&#x9;&#x9;&#x9;&#x9;c-2.71,0.33-5.43,0.63-8.14,1.02l-4.06,0.55c-1.29,0.17-2.52,0.44-3.85,0.75c-1.31,0.31-2.68,0.65-4.11,0.92&#xA;&#x9;&#x9;&#x9;&#x9;c-0.69,0.14-1.5,0.25-2.14,0.36l-2,0.33c-2.66,0.4-5.33,0.94-8,1.48c-5.34,1.09-10.67,2.33-16,3.61&#xA;&#x9;&#x9;&#x9;&#x9;c-10.65,2.58-21.27,5.36-31.88,8.18l-31.85,8.52l-15.98,4.17c-5.35,1.35-10.68,2.71-16.18,3.81&#xA;&#x9;&#x9;&#x9;&#x9;c-10.87,2.09-21.82,3.85-32.88,4.81c-11.05,1-22.14,1.34-33.2,1.26c-22.13-0.22-44.15-2.18-66.03-4.9&#xA;&#x9;&#x9;&#x9;&#x9;c-21.9-2.74-43.58-6.4-65.31-9.54c-21.72-3.19-43.48-6.02-65.31-7.74c-10.92-0.86-21.85-1.43-32.79-1.66&#xA;&#x9;&#x9;&#x9;&#x9;c-10.94-0.25-21.88-0.14-32.81,0.42c-21.85,1.1-43.61,3.96-64.98,8.65c-10.69,2.33-21.28,5.15-31.74,8.4&#xA;&#x9;&#x9;&#x9;&#x9;c-2.63,0.77-5.22,1.64-7.82,2.51c-2.6,0.87-5.2,1.71-7.79,2.64l-15.53,5.48c-20.67,7.42-41.21,15.23-61.39,23.9&#xA;&#x9;&#x9;&#x9;&#x9;c-10.1,4.32-20.1,8.86-29.98,13.65c-4.94,2.4-9.85,4.85-14.7,7.45c-4.85,2.58-9.66,5.24-14.27,8.23&#xA;&#x9;&#x9;&#x9;&#x9;c4.54-3.1,9.29-5.88,14.08-8.59c4.78-2.72,9.64-5.3,14.53-7.82c9.8-4.99,19.74-9.72,29.77-14.23&#xA;&#x9;&#x9;&#x9;&#x9;c20.06-9.05,40.48-17.26,61.05-25.08c10.33-3.78,20.62-7.68,31.14-11.04c10.5-3.39,21.14-6.36,31.9-8.83&#xA;&#x9;&#x9;&#x9;&#x9;c21.51-4.98,43.46-8.12,65.51-9.48c11.02-0.69,22.07-0.93,33.12-0.8c11.04,0.15,22.07,0.67,33.07,1.47&#xA;&#x9;&#x9;&#x9;&#x9;c22.01,1.6,43.89,4.32,65.69,7.39c21.8,3.05,43.49,6.71,65.22,9.37c21.74,2.67,43.59,4.55,65.44,4.75&#xA;&#x9;&#x9;&#x9;&#x9;c10.92,0.1,21.83-0.21,32.67-1.17c10.84-0.92,21.63-2.63,32.35-4.67c5.27-1.05,10.61-2.39,15.91-3.72l15.93-4.13l31.89-8.41&#xA;&#x9;&#x9;&#x9;&#x9;c10.65-2.76,21.31-5.49,32.04-8.03c5.37-1.26,10.75-2.48,16.19-3.55c2.72-0.53,5.44-1.07,8.22-1.47l2.07-0.33&#xA;&#x9;&#x9;&#x9;&#x9;c0.71-0.11,1.27-0.18,1.92-0.31c1.27-0.23,2.57-0.55,3.94-0.86c1.35-0.31,2.81-0.61,4.25-0.8l4.11-0.53&#xA;&#x9;&#x9;&#x9;&#x9;c2.74-0.37,5.48-0.67,8.23-0.98c2.74-0.32,5.49-0.56,8.24-0.85l8.25-0.69c11.01-0.81,22.04-1.29,33.06-1.47&#xA;&#x9;&#x9;&#x9;&#x9;c44.12-0.68,88.17,3.23,131.65,10.08c21.73,3.51,43.34,7.75,64.77,12.7C1896.69,1043.99,1917.99,1049.57,1938.91,1056.31z"></path>
&#x9;&#x9;</g>
&#x9;</g>
&#x9;<g>
&#x9;&#x9;
&#x9;&#x9;&#x9;<linearGradient id="SVGID_00000009570802334659701830000003522802371883543176_" gradientUnits="userSpaceOnUse" x1="711.1434" y1="741.3413" x2="584.0881" y2="1367.5909">
&#x9;&#x9;&#x9;<stop offset="0.0251" style="stop-color:#E6F2F8"></stop>
&#x9;&#x9;&#x9;<stop offset="0.1988" style="stop-color:#EFF5FA"></stop>
&#x9;&#x9;&#x9;<stop offset="0.4212" style="stop-color:#F3F7FB"></stop>
&#x9;&#x9;&#x9;<stop offset="0.5462" style="stop-color:#E2EFF8"></stop>
&#x9;&#x9;&#x9;<stop offset="0.6835" style="stop-color:#d7ebf7"></stop>
&#x9;&#x9;&#x9;<stop offset="0.8427" style="stop-color:#d4e9f6"></stop>
&#x9;&#x9;</linearGradient>
&#x9;&#x9;<path fill="url(#SVGID_00000009570802334659701830000003522802371883543176_)" d="M-176.53,1119.25&#xA;&#x9;&#x9;&#x9;c94.98-88.85,321.43-84.71,418.59-57.35c100.56,28.31,192.08,85.95,296.15,99.07c174.55,22,349.14-84.87,524.28-67.03&#xA;&#x9;&#x9;&#x9;c124.31,12.66,270.67,94.24,355.69,159.85l-1608.5,42.81L-176.53,1119.25z"></path>
&#x9;&#x9;<g>
&#x9;&#x9;&#x9;
&#x9;&#x9;&#x9;&#x9;<linearGradient id="SVGID_00000129172670101256577390000007386884405796281250_" gradientUnits="userSpaceOnUse" x1="-172.5088" y1="1175.4829" x2="1434.7756" y2="1143.7502">
&#x9;&#x9;&#x9;&#x9;<stop offset="0" style="stop-color:#F2F4F9"></stop>
&#x9;&#x9;&#x9;&#x9;<stop offset="0.4157" style="stop-color:#F9F9F9"></stop>
&#x9;&#x9;&#x9;&#x9;<stop offset="1" style="stop-color:#F2F4F9"></stop>
&#x9;&#x9;&#x9;</linearGradient>
&#x9;&#x9;&#x9;<path fill="url(#SVGID_00000129172670101256577390000007386884405796281250_)" d="M-171.94,1114.66&#xA;&#x9;&#x9;&#x9;&#x9;c6.52-5.92,13.54-11.29,20.89-16.14c7.37-4.83,15.07-9.16,22.97-13.08c15.8-7.85,32.4-14,49.31-19.02&#xA;&#x9;&#x9;&#x9;&#x9;c33.85-10.01,68.87-15.61,103.99-18.68c35.15-2.97,70.52-3.35,105.75-1.38c17.61,0.99,35.2,2.51,52.72,4.63&#xA;&#x9;&#x9;&#x9;&#x9;c17.52,2.1,34.98,4.78,52.32,8.08c8.67,1.65,17.32,3.43,25.93,5.4c8.61,2.03,17.2,4.16,25.67,6.7c2.13,0.6,4.24,1.24,6.35,1.91&#xA;&#x9;&#x9;&#x9;&#x9;l6.33,1.98c4.19,1.4,8.4,2.74,12.56,4.23c8.35,2.88,16.61,6.01,24.84,9.21c32.9,12.83,64.89,27.68,97.54,40.67&#xA;&#x9;&#x9;&#x9;&#x9;c16.32,6.5,32.83,12.46,49.61,17.5c16.8,4.95,33.85,9.04,51.15,11.55c34.58,5.19,69.89,4.59,104.72,0.85&#xA;&#x9;&#x9;&#x9;&#x9;c34.88-3.73,69.41-10.55,103.72-18.23c34.32-7.71,68.46-16.4,102.8-24.41c34.33-8.02,68.91-15.32,103.93-20.17&#xA;&#x9;&#x9;&#x9;&#x9;c34.99-4.81,70.49-7.18,105.86-4.73c8.83,0.64,17.65,1.49,26.43,2.75c8.77,1.25,17.49,2.86,26.14,4.74&#xA;&#x9;&#x9;&#x9;&#x9;c17.3,3.77,34.31,8.67,51.05,14.31c33.48,11.32,65.87,25.59,97.33,41.53c31.44,16.01,61.93,33.81,91.58,52.86&#xA;&#x9;&#x9;&#x9;&#x9;c29.64,19.07,58.45,39.44,86.02,61.38c-13.96-10.74-28.23-21.06-42.73-31.06c-14.48-10.02-29.19-19.7-44.1-29.04&#xA;&#x9;&#x9;&#x9;&#x9;c-29.84-18.68-60.52-36.01-92.02-51.67c-31.48-15.66-63.85-29.62-97.21-40.62c-33.33-10.98-67.77-18.91-102.77-20.83&#xA;&#x9;&#x9;&#x9;&#x9;c-34.99-2.1-70.16,0.25-104.89,5.21c-34.77,4.94-69.16,12.4-103.42,20.41c-34.26,8.04-68.4,16.78-102.81,24.56&#xA;&#x9;&#x9;&#x9;&#x9;c-34.39,7.79-69.14,14.55-104.34,18.28c-35.15,3.72-70.89,4.31-106.05-1.02c-17.56-2.63-34.84-6.84-51.8-11.91&#xA;&#x9;&#x9;&#x9;&#x9;c-16.94-5.17-33.57-11.24-49.95-17.84c-16.39-6.57-32.56-13.63-48.7-20.65c-16.14-7.06-32.27-14.07-48.58-20.6&#xA;&#x9;&#x9;&#x9;&#x9;c-8.16-3.24-16.35-6.42-24.63-9.34c-4.12-1.51-8.29-2.88-12.44-4.3l-6.27-2.01c-2.09-0.68-4.18-1.33-6.29-1.94&#xA;&#x9;&#x9;&#x9;&#x9;c-8.38-2.59-16.88-4.76-25.4-6.84c-8.55-2-17.15-3.82-25.77-5.51c-17.25-3.37-34.62-6.13-52.06-8.31&#xA;&#x9;&#x9;&#x9;&#x9;c-17.44-2.21-34.96-3.81-52.51-4.89c-17.55-1.06-35.14-1.57-52.72-1.52c-17.58,0.09-35.17,0.74-52.71,2.09&#xA;&#x9;&#x9;&#x9;&#x9;c-35.04,2.76-70.01,8.05-103.84,17.75c-16.9,4.86-33.5,10.86-49.35,18.49c-7.92,3.82-15.65,8.05-23.07,12.79&#xA;&#x9;&#x9;&#x9;&#x9;C-158.27,1103.53-165.35,1108.81-171.94,1114.66z"></path>
&#x9;&#x9;</g>
&#x9;</g>
&#x9;<g>
&#x9;&#x9;
&#x9;&#x9;&#x9;<linearGradient id="SVGID_00000007417348802060785310000017654550678829144495_" gradientUnits="userSpaceOnUse" x1="1469.2388" y1="1717.0656" x2="1515.8774" y2="1011.6561">
&#x9;&#x9;&#x9;<stop offset="0.3454" style="stop-color:#F3F7FA"></stop>
&#x9;&#x9;&#x9;<stop offset="0.5467" style="stop-color:#F5F7FA"></stop>
&#x9;&#x9;&#x9;<stop offset="0.7844" style="stop-color:#CAE4F9"></stop>
&#x9;&#x9;</linearGradient>
&#x9;&#x9;<path fill="url(#SVGID_00000007417348802060785310000017654550678829144495_)" d="M929.93,1302.29&#xA;&#x9;&#x9;&#x9;c27.4-30.54,65.81-48.48,103.21-65.34c61.7-27.82,123.92-54.97,188.75-74.4c102.44-30.7,210.77-41.63,317.28-32.02&#xA;&#x9;&#x9;&#x9;c45.3,4.09,90.43,12.71,135.9,11.41c150.61-4.31,309.25-97.78,391.12-128.29l-1.53,269.51L929.93,1302.29z"></path>
&#x9;&#x9;<g>
&#x9;&#x9;&#x9;
&#x9;&#x9;&#x9;&#x9;<linearGradient id="SVGID_00000116204722593413564000000004680556687958069678_" gradientUnits="userSpaceOnUse" x1="2066.1914" y1="1157.9762" x2="923.9113" y2="1157.9762">
&#x9;&#x9;&#x9;&#x9;<stop offset="0" style="stop-color:#F2F4F9"></stop>
&#x9;&#x9;&#x9;&#x9;<stop offset="0.4157" style="stop-color:#F9F9F9"></stop>
&#x9;&#x9;&#x9;&#x9;<stop offset="1" style="stop-color:#F2F4F9"></stop>
&#x9;&#x9;&#x9;</linearGradient>
&#x9;&#x9;&#x9;<path fill="url(#SVGID_00000116204722593413564000000004680556687958069678_)" d="M926.86,1302.29&#xA;&#x9;&#x9;&#x9;&#x9;c8.26-9.41,17.65-17.81,27.74-25.26c10.1-7.44,20.83-14,31.83-20.01c11-6.02,22.29-11.48,33.63-16.8&#xA;&#x9;&#x9;&#x9;&#x9;c11.35-5.3,22.72-10.51,34.13-15.66c45.63-20.59,91.74-40.36,139.3-56.41c47.6-15.87,96.59-27.75,146.29-34.91&#xA;&#x9;&#x9;&#x9;&#x9;c24.84-3.61,49.84-6.17,74.91-7.53c25.07-1.33,50.2-1.54,75.29-0.64c25.08,0.88,50.15,2.99,75.02,5.89&#xA;&#x9;&#x9;&#x9;&#x9;c24.89,2.79,49.7,5.89,74.59,7.56c12.44,0.86,24.9,1.38,37.34,1.31c12.45-0.06,24.89-0.84,37.28-2.07&#xA;&#x9;&#x9;&#x9;&#x9;c12.4-1.25,24.74-3.07,37.01-5.27c12.27-2.25,24.46-4.92,36.56-7.96c24.2-6.11,48.05-13.65,71.53-22.18&#xA;&#x9;&#x9;&#x9;&#x9;c23.5-8.5,46.68-17.91,69.61-27.88c22.95-9.96,45.65-20.49,68.35-31.01c11.36-5.26,22.72-10.51,34.17-15.56&#xA;&#x9;&#x9;&#x9;&#x9;c11.45-5.04,22.98-9.96,34.73-14.25c-11.68,4.48-23.12,9.57-34.49,14.79c-11.36,5.24-22.65,10.63-33.95,16.01&#xA;&#x9;&#x9;&#x9;&#x9;c-22.58,10.78-45.17,21.58-68.02,31.82c-22.86,10.23-45.94,20-69.45,28.7c-23.5,8.72-47.38,16.46-71.67,22.78&#xA;&#x9;&#x9;&#x9;&#x9;c-12.15,3.15-24.39,5.92-36.73,8.28c-12.34,2.31-24.77,4.23-37.26,5.58c-12.5,1.33-25.06,2.2-37.64,2.36&#xA;&#x9;&#x9;&#x9;&#x9;c-12.58,0.17-25.15-0.18-37.68-0.92c-25.07-1.51-49.97-4.5-74.84-7.13c-12.43-1.3-24.86-2.63-37.3-3.49l-9.33-0.72&#xA;&#x9;&#x9;&#x9;&#x9;c-3.11-0.26-6.23-0.36-9.34-0.54c-6.23-0.31-12.45-0.73-18.69-0.84c-24.93-0.85-49.9-0.58-74.81,0.78&#xA;&#x9;&#x9;&#x9;&#x9;c-24.91,1.31-49.76,3.8-74.46,7.34c-24.69,3.55-49.23,8.2-73.53,13.85l-9.11,2.12l-9.06,2.33l-9.06,2.33&#xA;&#x9;&#x9;&#x9;&#x9;c-3.01,0.8-6.01,1.69-9.01,2.53c-12.03,3.31-23.95,7.02-35.82,10.87c-47.5,15.45-93.75,34.64-139.57,54.71l-34.35,15.12&#xA;&#x9;&#x9;&#x9;&#x9;c-11.42,5.09-22.77,10.33-33.83,16.12c-11.07,5.78-21.86,12.11-32.05,19.33c-5.08,3.62-10.05,7.42-14.78,11.51&#xA;&#x9;&#x9;&#x9;&#x9;C935.63,1293.36,931.11,1297.7,926.86,1302.29z"></path>
&#x9;&#x9;</g>
&#x9;</g>
</g>
<g id="divider_head">
  <text transform="translate(84,300)" font-family="DM Sans" font-weight="600" font-size="300" fill="#6084f0">5</text>
  <text transform="translate(300,114)" font-family="DM Sans" font-weight="700" font-size="26" letter-spacing="6" fill="#3761b6">SECTION 05</text><text transform="translate(300,232)" font-family="DM Sans" font-weight="600" font-size="104" letter-spacing="-2" fill="#0840a5">New Procedures</text>
  <text transform="translate(304,300)" font-family="DM Sans" font-weight="450" font-size="46" fill="#17439e">Engine Room Resistance</text>
  </g><g id="spot_gears">
  <circle cx="380" cy="650" r="74.0" fill="#eef5fc" stroke="#71afd8" stroke-width="2" filter="url(#discShadow)"></circle>
  <circle cx="380" cy="650" r="90" fill="none" stroke="#71afd8" stroke-width="2" stroke-dasharray="8 11" stroke-linecap="round"></circle>
  <circle cx="448.8" cy="592.0" r="5.5" fill="#6084f0"></circle></g><g id="gears" data-anim="spin" data-tweak="gears" data-pivot="380 650" transform="translate(380,650) scale(0.9278) translate(-1591.00,-788.00)"><defs xmlns="http://www.w3.org/2000/svg">
    <linearGradient id="gears__linear-gradient" x1="1312.16" y1="298.56" x2="1400.81" y2="876.66" gradientUnits="userSpaceOnUse">
      <stop offset=".36" stop-color="#c5e2f9"></stop>
      <stop offset=".39" stop-color="#cee6f9"></stop>
      <stop offset=".46" stop-color="#dfedf9"></stop>
      <stop offset=".54" stop-color="#ebf2f9"></stop>
      <stop offset=".66" stop-color="#f2f5f9"></stop>
      <stop offset="1" stop-color="#f4f6f9"></stop>
    </linearGradient>
    <linearGradient id="gears__linear-gradient1" x1="1387.52" y1="480" x2="1377.86" y2="758.93" gradientUnits="userSpaceOnUse">
      <stop offset="0" stop-color="#40a1fb"></stop>
      <stop offset=".07" stop-color="#48a4fa"></stop>
      <stop offset=".17" stop-color="#5eaffa"></stop>
      <stop offset=".3" stop-color="#82c0fa"></stop>
      <stop offset=".45" stop-color="#b3d7f9"></stop>
      <stop offset=".61" stop-color="#f3f5f9"></stop>
      <stop offset=".61" stop-color="#f4f6f9"></stop>
    </linearGradient>
    <linearGradient id="gears__linear-gradient2" x1="1680.53" y1="809.85" x2="2335.4" y2="809.85" gradientTransform="translate(2529.29) rotate(-180) scale(1 -1)" gradientUnits="userSpaceOnUse">
      <stop offset=".05" stop-color="#6497e0"></stop>
      <stop offset=".52" stop-color="#6295de"></stop>
      <stop offset=".7" stop-color="#5c8ed9"></stop>
      <stop offset=".82" stop-color="#5282d0"></stop>
      <stop offset=".92" stop-color="#4471c3"></stop>
      <stop offset=".98" stop-color="#3761b6"></stop>
    </linearGradient>
    <clipPath id="gears__clippath">
      <polygon points="920.51 1028.19 -9.17 1028.19 -9.17 632.12 920.51 626.71 920.51 1028.19" fill="none"></polygon>
    </clipPath>
    <linearGradient id="gears__linear-gradient3" x1="2413.72" y1="866.98" x2="1452.49" y2="866.98" gradientTransform="translate(2529.29) rotate(-180) scale(1 -1)" gradientUnits="userSpaceOnUse">
      <stop offset=".17" stop-color="#bfdff9"></stop>
      <stop offset=".65" stop-color="#e2eff8"></stop>
      <stop offset=".91" stop-color="#f4f8fb"></stop>
    </linearGradient>
    <linearGradient id="gears__linear-gradient4" x1="736.11" y1="776.62" x2="759.38" y2="853.16" gradientUnits="userSpaceOnUse">
      <stop offset=".17" stop-color="#bfdff9"></stop>
      <stop offset=".43" stop-color="#e2eff8"></stop>
      <stop offset=".91" stop-color="#f4f6f9"></stop>
    </linearGradient>
    <linearGradient id="gears__linear-gradient5" x1="1071.9" y1="851.04" x2="445.65" y2="851.04" gradientUnits="userSpaceOnUse">
      <stop offset="0" stop-color="#f2f4f9"></stop>
      <stop offset=".42" stop-color="#f9f9f9"></stop>
      <stop offset="1" stop-color="#f2f4f9"></stop>
    </linearGradient>
    <linearGradient xmlns:xlink="http://www.w3.org/1999/xlink" id="gears__linear-gradient6" x1="2191.1" y1="859.4" x2="1846.05" y2="859.4" xlink:href="#gears__linear-gradient3"></linearGradient>
    <linearGradient xmlns:xlink="http://www.w3.org/1999/xlink" id="gears__linear-gradient7" x1="1443.13" y1="859.16" x2="171.84" y2="859.16" xlink:href="#gears__linear-gradient5"></linearGradient>
    <linearGradient id="gears__linear-gradient8" x1="951" y1="734.59" x2="996.02" y2="859.16" gradientUnits="userSpaceOnUse">
      <stop offset="0" stop-color="#bfdff9"></stop>
      <stop offset=".43" stop-color="#e2eff8"></stop>
      <stop offset=".91" stop-color="#f4f6f9"></stop>
    </linearGradient>
    <linearGradient xmlns:xlink="http://www.w3.org/1999/xlink" id="gears__linear-gradient9" x1="1633.35" y1="857.35" x2="360.74" y2="857.35" xlink:href="#gears__linear-gradient5"></linearGradient>
    <linearGradient id="gears__linear-gradient10" x1="455.23" y1="855.52" x2="455.23" y2="987.57" gradientUnits="userSpaceOnUse">
      <stop offset=".17" stop-color="#bfdff9"></stop>
      <stop offset=".65" stop-color="#e2eff8"></stop>
      <stop offset=".91" stop-color="#f4f6f9"></stop>
    </linearGradient>
    <linearGradient xmlns:xlink="http://www.w3.org/1999/xlink" id="gears__linear-gradient11" x1="-11.08" y1="891.43" x2="934.89" y2="891.43" xlink:href="#gears__linear-gradient5"></linearGradient>
    <linearGradient id="gears__linear-gradient12" x1="2295.27" y1="817.79" x2="2150.33" y2="825.32" gradientTransform="translate(2529.29) rotate(-180) scale(1 -1)" gradientUnits="userSpaceOnUse">
      <stop offset=".21" stop-color="#83b1f2"></stop>
      <stop offset=".6" stop-color="#83b1f2" stop-opacity="0"></stop>
    </linearGradient>
  </defs>
<g xmlns="http://www.w3.org/2000/svg" id="gears__icon4">
    <g>
      <path d="M1570.84,833.72c-3.05-.7-5.96-1.77-8.66-3.37-1.66-.99-2.22-2.16-1.88-4.08.77-4.32-2.51-8.36-6.87-8.45-2.74-.06-3.64-.73-4.4-3.27-.73-2.44-1.05-4.93-.93-7.47.07-1.66.91-2.8,2.48-3.35,4.06-1.42,6.08-4.97,5.05-8.92-.13-.49-.35-.97-.57-1.43-.71-1.45-.56-2.8.48-4.02,1.84-2.16,4-3.96,6.42-5.45,1.35-.83,2.58-.65,3.94.49,2.78,2.32,6.67,2.21,9.14-.31.49-.5.87-1.11,1.26-1.69.81-1.23,1.99-1.76,3.42-1.44,2.98.68,5.79,1.81,8.39,3.42,1.3.8,1.87,1.97,1.71,3.51-.48,4.66,2.51,8.09,7.23,8.32,1.63.08,2.74.86,3.33,2.4,1.02,2.67,1.49,5.43,1.37,8.29-.08,1.84-.81,2.83-2.52,3.48-3.06,1.17-4.85,3.36-4.95,6.66-.04,1.14.33,2.36.77,3.43.73,1.75.68,2.98-.56,4.43-1.72,2.01-3.68,3.75-5.88,5.21-1.45.96-2.78.87-4.08-.28-3.67-3.22-8.48-2.29-10.8,2-.35.65-1.06,1.11-1.6,1.65l-1.28.21ZM1576.36,816.13c4.87-.79,8.23-5.4,7.47-10.24-.78-4.92-5.44-8.27-10.39-7.46-4.84.79-8.16,5.43-7.36,10.3.79,4.84,5.45,8.19,10.29,7.4Z" fill="#71afd8"></path>
      <path d="M1624.65,762.41c0,.64-.01,1.29-.03,1.93-.03,1.43-.68,2.35-2.01,2.85-3.61,1.36-5.04,4.88-3.35,8.31.56,1.14.47,2.21-.33,3.19-1.43,1.75-3.12,3.24-5.01,4.48-1.07.7-2.15.59-3.14-.25-3.09-2.62-6.8-1.95-8.73,1.59-.65,1.19-1.58,1.64-2.91,1.34-2.37-.53-4.6-1.44-6.67-2.72-1.1-.68-1.53-1.69-1.31-2.99.65-3.82-1.91-6.88-5.78-6.94-1.71-.03-2.52-.6-3.09-2.21-.73-2.07-1.01-4.21-.91-6.4.07-1.48.68-2.32,2.08-2.77,3.71-1.19,5.22-5.27,3.51-8.39-.59-1.08-.43-2.17.36-3.11,1.49-1.78,3.26-3.25,5.24-4.46,1.01-.62,2.07-.58,2.93.24,2.56,2.46,6.85,1.84,8.59-1.41.58-1.09,1.56-1.46,2.76-1.19,2.35.52,4.54,1.42,6.61,2.65,1.2.71,1.68,1.73,1.53,3.14-.37,3.33,1.98,6.15,5.3,6.46,2.27.21,2.88.71,3.54,2.89.09.31.22.6.33.9.16.96.32,1.93.48,2.89ZM1604.14,771.79c3.95-.63,6.64-4.3,6.03-8.2-.63-3.99-4.33-6.69-8.33-6.08-3.85.59-6.59,4.37-5.98,8.26.62,3.95,4.34,6.65,8.28,6.02Z" fill="#3660b7"></path>
      <path d="M1631.32,802.56c-.58,1.45-1.11,2.92-1.76,4.34-.41.9-1.22,1.13-2.19.97-2.52-.42-4.35.96-4.66,3.5-.11.88-.55,1.52-1.4,1.7-1.4.31-2.81.56-4.23.73-.82.1-1.36-.38-1.66-1.15-1.07-2.74-2.88-3.44-5.52-2.14-.74.36-1.48.34-2-.31-.98-1.22-1.92-2.48-2.78-3.78-.45-.69-.31-1.44.23-2.11,1.73-2.15,1.37-4.47-.89-5.99-.88-.59-1.22-1.23-.88-2.21.46-1.32,1.04-2.6,1.66-3.86.42-.85,1.2-1.09,2.14-.92,2.65.49,4.47-.81,4.85-3.45.13-.9.61-1.52,1.51-1.7,1.27-.25,2.55-.48,3.84-.61,1.18-.12,1.67.27,2.07,1.39.74,2.06,2.9,2.97,4.89,2.06,1.24-.57,1.73-.53,2.62.55.92,1.12,1.73,2.33,2.58,3.51l.19,1.12c-.22.37-.41.75-.66,1.09-1.24,1.75-.9,4.05.79,5.36.38.29.73.62,1.09.93l.16.96ZM1622.01,798.91c-.44-2.6-2.89-4.36-5.46-3.92-2.58.44-4.33,2.9-3.89,5.49.43,2.58,2.9,4.35,5.47,3.92,2.58-.43,4.32-2.88,3.88-5.48Z" fill="#3660b7"></path>
    </g>
  </g></g><g id="spot_wrench">
  <circle cx="610" cy="650" r="74.0" fill="#eef5fc" stroke="#71afd8" stroke-width="2" filter="url(#discShadow)"></circle>
  <circle cx="610" cy="650" r="90" fill="none" stroke="#71afd8" stroke-width="2" stroke-dasharray="8 11" stroke-linecap="round"></circle>
  <circle cx="678.8" cy="592.0" r="5.5" fill="#6084f0"></circle></g><g id="wrench" transform="translate(610,650) scale(0.8182) translate(-1709.00,-419.00)"><defs xmlns="http://www.w3.org/2000/svg"><linearGradient id="wrench__linear-gradient" x1="1741.54" y1="906.38" x2="2388.28" y2="906.38" gradientTransform="matrix(-1, 0, 0, 1, 2529.29, 0)" gradientUnits="userSpaceOnUse"><stop offset="0.05" stop-color="#6497e0"></stop><stop offset="0.52" stop-color="#6295df"></stop><stop offset="0.7" stop-color="#5d8ed9"></stop><stop offset="0.82" stop-color="#5383d0"></stop><stop offset="0.92" stop-color="#4572c3"></stop><stop offset="0.98" stop-color="#3761b6"></stop></linearGradient><linearGradient id="wrench__linear-gradient-2" x1="862.93" y1="824.49" x2="907.39" y2="947.51" gradientUnits="userSpaceOnUse"><stop offset="0" stop-color="#bfdff9"></stop><stop offset="0.58" stop-color="#e2eff8"></stop><stop offset="0.91" stop-color="#f4f6f9" stop-opacity="0"></stop></linearGradient><linearGradient id="wrench__linear-gradient-3" x1="1536.8" y1="945.73" x2="280.01" y2="945.73" gradientUnits="userSpaceOnUse"><stop offset="0" stop-color="#f2f4f9"></stop><stop offset="0.42" stop-color="#f9f9f9"></stop><stop offset="1" stop-color="#f2f4f9"></stop></linearGradient><linearGradient id="wrench__linear-gradient-4" x1="156.64" y1="852.54" x2="739.6" y2="1461.72" gradientUnits="userSpaceOnUse"><stop offset="0.17" stop-color="#bfdff9"></stop><stop offset="0.28" stop-color="#e2eff8"></stop><stop offset="0.49" stop-color="#f4f6f9" stop-opacity="0"></stop></linearGradient><linearGradient xmlns:xlink="http://www.w3.org/1999/xlink" id="wrench__linear-gradient-5" x1="-87.19" y1="979.38" x2="847.02" y2="979.38" xlink:href="#wrench__linear-gradient-3"></linearGradient><radialGradient id="wrench__radial-gradient" cx="199" cy="966.79" r="225.89" gradientUnits="userSpaceOnUse"><stop offset="0.14" stop-color="#f6f5fa"></stop><stop offset="0.24" stop-color="#f6f5fa" stop-opacity="0.99"></stop><stop offset="0.33" stop-color="#f6f5fa" stop-opacity="0.95"></stop><stop offset="0.41" stop-color="#f6f5fa" stop-opacity="0.88"></stop><stop offset="0.49" stop-color="#f6f5fa" stop-opacity="0.78"></stop><stop offset="0.56" stop-color="#f6f5fa" stop-opacity="0.66"></stop><stop offset="0.63" stop-color="#f6f5fa" stop-opacity="0.5"></stop><stop offset="0.7" stop-color="#f6f5fa" stop-opacity="0.32"></stop><stop offset="0.77" stop-color="#f6f5fa" stop-opacity="0.11"></stop><stop offset="0.8" stop-color="#f6f5fa" stop-opacity="0"></stop></radialGradient><linearGradient id="wrench__linear-gradient-6" x1="222.06" y1="868.38" x2="106.3" y2="1330.32" gradientUnits="userSpaceOnUse"><stop offset="0.2" stop-color="#e7f1f8"></stop><stop offset="0.3" stop-color="#f3f7fb"></stop><stop offset="0.49" stop-color="#f3f7fa"></stop></linearGradient><linearGradient id="wrench__linear-gradient-7" x1="958.89" y1="1143.69" x2="958.89" y2="114.47" gradientUnits="userSpaceOnUse"><stop offset="0.29" stop-color="#f5f6fa"></stop><stop offset="0.6" stop-color="#ddedf9"></stop><stop offset="0.82" stop-color="#d1e8f9"></stop></linearGradient><radialGradient id="wrench__radial-gradient-2" cx="843.53" cy="2054.52" r="36.72" gradientTransform="translate(-64.92 -1611.56) rotate(11.57)" gradientUnits="userSpaceOnUse"><stop offset="0.02" stop-color="#fff"></stop><stop offset="0.56" stop-color="#cfd8f5"></stop><stop offset="0.66" stop-color="#c8d3f0"></stop><stop offset="0.8" stop-color="#b5c7e3"></stop><stop offset="0.97" stop-color="#96b2cc"></stop><stop offset="0.97" stop-color="#95b2cc"></stop></radialGradient><radialGradient id="wrench__radial-gradient-3" cx="852.11" cy="2062.53" r="16.21" gradientTransform="translate(-64.92 -1611.56) rotate(11.57)" gradientUnits="userSpaceOnUse"><stop offset="0" stop-color="#fff" stop-opacity="0"></stop><stop offset="0.48" stop-color="#cfd8f5" stop-opacity="0"></stop><stop offset="0.56" stop-color="#ced7f4" stop-opacity="0.02"></stop><stop offset="0.63" stop-color="#cad5f2" stop-opacity="0.08"></stop><stop offset="0.7" stop-color="#c5d1ee" stop-opacity="0.18"></stop><stop offset="0.77" stop-color="#bdcce8" stop-opacity="0.32"></stop><stop offset="0.85" stop-color="#b2c5e1" stop-opacity="0.5"></stop><stop offset="0.92" stop-color="#a5bdd8" stop-opacity="0.72"></stop><stop offset="0.99" stop-color="#97b3cd" stop-opacity="0.97"></stop><stop offset="1" stop-color="#95b2cc"></stop></radialGradient><linearGradient id="wrench__linear-gradient-8" x1="854.52" y1="2086.76" x2="847.12" y2="2046.16" gradientTransform="translate(2419.84 -267.95) rotate(90)" gradientUnits="userSpaceOnUse"><stop offset="0.39" stop-color="#fff" stop-opacity="0"></stop><stop offset="0.96" stop-color="#fcfcfe"></stop><stop offset="0.99" stop-color="#fcfcfe"></stop></linearGradient><linearGradient id="wrench__linear-gradient-9" x1="80.65" y1="2823.85" x2="86.72" y2="2834.65" gradientTransform="matrix(0.81, 0.31, -0.04, 0.88, 412.76, -1915.48)" gradientUnits="userSpaceOnUse"><stop offset="0.02" stop-color="#fff" stop-opacity="0"></stop><stop offset="0.96" stop-color="#fcfcfe"></stop></linearGradient><radialGradient xmlns:xlink="http://www.w3.org/1999/xlink" id="wrench__radial-gradient-4" cx="774.33" cy="2159.23" r="28.54" xlink:href="#wrench__radial-gradient-2"></radialGradient><radialGradient xmlns:xlink="http://www.w3.org/1999/xlink" id="wrench__radial-gradient-5" cx="780.99" cy="2165.45" r="12.59" xlink:href="#wrench__radial-gradient-3"></radialGradient><linearGradient xmlns:xlink="http://www.w3.org/1999/xlink" id="wrench__linear-gradient-10" x1="782.87" y1="2184.28" x2="777.12" y2="2152.74" gradientTransform="translate(2432.22 -111.2) rotate(90)" xlink:href="#wrench__linear-gradient-8"></linearGradient><linearGradient xmlns:xlink="http://www.w3.org/1999/xlink" id="wrench__linear-gradient-11" x1="-25" y1="2956.74" x2="-20.29" y2="2965.13" xlink:href="#wrench__linear-gradient-9"></linearGradient><radialGradient xmlns:xlink="http://www.w3.org/1999/xlink" id="wrench__radial-gradient-6" cx="728.81" cy="2062.63" r="28.54" xlink:href="#wrench__radial-gradient-2"></radialGradient><radialGradient xmlns:xlink="http://www.w3.org/1999/xlink" id="wrench__radial-gradient-7" cx="735.48" cy="2068.85" r="12.59" xlink:href="#wrench__radial-gradient-3"></radialGradient><linearGradient xmlns:xlink="http://www.w3.org/1999/xlink" id="wrench__linear-gradient-12" x1="737.35" y1="2087.68" x2="731.6" y2="2056.13" gradientTransform="translate(2310.39 -169.46) rotate(90)" xlink:href="#wrench__linear-gradient-8"></linearGradient><linearGradient xmlns:xlink="http://www.w3.org/1999/xlink" id="wrench__linear-gradient-13" x1="-61.29" y1="2851.21" x2="-56.58" y2="2859.6" xlink:href="#wrench__linear-gradient-9"></linearGradient><radialGradient xmlns:xlink="http://www.w3.org/1999/xlink" id="wrench__radial-gradient-8" cx="606.42" cy="2023.02" r="15.25" xlink:href="#wrench__radial-gradient-2"></radialGradient><radialGradient xmlns:xlink="http://www.w3.org/1999/xlink" id="wrench__radial-gradient-9" cx="609.98" cy="2026.35" r="6.73" xlink:href="#wrench__radial-gradient-3"></radialGradient><linearGradient xmlns:xlink="http://www.w3.org/1999/xlink" id="wrench__linear-gradient-14" x1="610.98" y1="2036.41" x2="607.91" y2="2019.55" gradientTransform="translate(2153.08 -112.28) rotate(90)" xlink:href="#wrench__linear-gradient-8"></linearGradient><linearGradient xmlns:xlink="http://www.w3.org/1999/xlink" id="wrench__linear-gradient-15" x1="-205.75" y1="2821.47" x2="-203.23" y2="2825.95" xlink:href="#wrench__linear-gradient-9"></linearGradient><radialGradient xmlns:xlink="http://www.w3.org/1999/xlink" id="wrench__radial-gradient-10" cx="702.75" cy="2095.11" r="12.45" xlink:href="#wrench__radial-gradient-2"></radialGradient><radialGradient xmlns:xlink="http://www.w3.org/1999/xlink" id="wrench__radial-gradient-11" cx="705.65" cy="2097.82" r="5.49" xlink:href="#wrench__radial-gradient-3"></radialGradient><linearGradient xmlns:xlink="http://www.w3.org/1999/xlink" id="wrench__linear-gradient-16" x1="706.47" y1="2106.04" x2="703.96" y2="2092.28" gradientTransform="translate(2303.87 -119.07) rotate(90)" xlink:href="#wrench__linear-gradient-8"></linearGradient><linearGradient xmlns:xlink="http://www.w3.org/1999/xlink" id="wrench__linear-gradient-17" x1="-105.52" y1="2887.36" x2="-103.46" y2="2891.02" xlink:href="#wrench__linear-gradient-9"></linearGradient><radialGradient xmlns:xlink="http://www.w3.org/1999/xlink" id="wrench__radial-gradient-12" cx="802.55" cy="1959.82" r="15.25" xlink:href="#wrench__radial-gradient-2"></radialGradient><radialGradient xmlns:xlink="http://www.w3.org/1999/xlink" id="wrench__radial-gradient-13" cx="806.12" cy="1963.15" r="6.73" xlink:href="#wrench__radial-gradient-3"></radialGradient><linearGradient xmlns:xlink="http://www.w3.org/1999/xlink" id="wrench__linear-gradient-18" x1="807.12" y1="1973.21" x2="804.04" y2="1956.35" gradientTransform="translate(2294.7 -331) rotate(90)" xlink:href="#wrench__linear-gradient-8"></linearGradient><linearGradient xmlns:xlink="http://www.w3.org/1999/xlink" id="wrench__linear-gradient-19" x1="39.96" y1="2710.33" x2="42.48" y2="2714.81" xlink:href="#wrench__linear-gradient-9"></linearGradient></defs><g xmlns="http://www.w3.org/2000/svg" id="wrench__icon_2"><path d="M1762.1,374.33l-16,17.33-11.34-11.11,14.76-17.08a22.94,22.94,0,0,0-7.54-1.26c-12.41,0-22.47,9.71-22.47,21.69a21,21,0,0,0,3.07,10.91l-42,52a18.71,18.71,0,0,0-3.81.05c-10.06,1.17-17.29,10-16.16,19.7a17.16,17.16,0,0,0,2.77,7.53l11.36-15.54L1685,466.5l-10.35,15.23a18.47,18.47,0,0,0,6.23.31c10.05-1.17,17.28-10,16.15-19.69a16.92,16.92,0,0,0-1.33-4.89l41-52.47a23.6,23.6,0,0,0,5.22.61c12.41,0,22.46-9.71,22.46-21.7A21,21,0,0,0,1762.1,374.33Z" fill="#71afd8" stroke="#2d5fbb" stroke-miterlimit="10" stroke-width="1.42"></path></g></g><ellipse cx="1320" cy="972" rx="200" ry="28.0" fill="#5c8ed9" opacity="0.14" id="shadow_1"></ellipse><g id="crew" data-anim="sway" data-tweak="crew" data-pivot="1320 720" transform="translate(1320,720) scale(1.5441) translate(-225.00,-225.00)"><defs xmlns="http://www.w3.org/2000/svg"><linearGradient id="crew__linear-gradient" x1="381.98" y1="1154.96" x2="1550.32" y2="1093.69" gradientUnits="userSpaceOnUse"><stop offset="0.29" stop-color="#c9e5f8"></stop><stop offset="0.74" stop-color="#f3f7fb"></stop><stop offset="0.86" stop-color="#f3f7fa"></stop></linearGradient><radialGradient id="crew__radial-gradient" cx="-717.23" cy="-1525.08" r="233.47" gradientTransform="matrix(0, 1.23, -0.7, 0, -359.71, 2000.69)" gradientUnits="userSpaceOnUse"><stop offset="0.14" stop-color="#cadbf0" stop-opacity="0.86"></stop><stop offset="0.21" stop-color="#cddcf1" stop-opacity="0.81"></stop><stop offset="0.33" stop-color="#d3e0f2" stop-opacity="0.68"></stop><stop offset="0.49" stop-color="#dee7f5" stop-opacity="0.47"></stop><stop offset="0.69" stop-color="#edf0f8" stop-opacity="0.18"></stop><stop offset="0.8" stop-color="#f6f5fa" stop-opacity="0"></stop></radialGradient><radialGradient id="crew__radial-gradient-2" cx="-10548.07" cy="1557.28" r="542.2" gradientTransform="matrix(-1, 0.09, 0.09, 1, -10465.66, 427.99)" gradientUnits="userSpaceOnUse"><stop offset="0.14" stop-color="#f6f5fa"></stop><stop offset="0.24" stop-color="#f6f5fa" stop-opacity="0.99"></stop><stop offset="0.33" stop-color="#f6f5fa" stop-opacity="0.95"></stop><stop offset="0.41" stop-color="#f6f5fa" stop-opacity="0.88"></stop><stop offset="0.49" stop-color="#f6f5fa" stop-opacity="0.78"></stop><stop offset="0.56" stop-color="#f6f5fa" stop-opacity="0.66"></stop><stop offset="0.63" stop-color="#f6f5fa" stop-opacity="0.5"></stop><stop offset="0.7" stop-color="#f6f5fa" stop-opacity="0.32"></stop><stop offset="0.77" stop-color="#f6f5fa" stop-opacity="0.11"></stop><stop offset="0.8" stop-color="#f6f5fa" stop-opacity="0"></stop></radialGradient><linearGradient id="crew__linear-gradient-2" x1="-10852.58" y1="1534.85" x2="-10787.12" y2="1883.45" gradientTransform="matrix(-1, 0.09, 0.09, 1, -10465.66, 427.99)" gradientUnits="userSpaceOnUse"><stop offset="0" stop-color="#c3e0f7"></stop><stop offset="0.39" stop-color="#e3ebf2" stop-opacity="0.86"></stop><stop offset="0.77" stop-color="#cfe6f7"></stop><stop offset="1" stop-color="#dbddf9"></stop></linearGradient><linearGradient id="crew__linear-gradient-3" x1="6069.56" y1="2240.88" x2="6070.06" y2="2245.68" gradientTransform="translate(-6181.47 -311.45) rotate(-8.8)" gradientUnits="userSpaceOnUse"><stop offset="0.1" stop-color="#c7c0f6"></stop><stop offset="0.61" stop-color="#ada6f8"></stop><stop offset="0.96" stop-color="#c7c0f6"></stop></linearGradient><linearGradient xmlns:xlink="http://www.w3.org/1999/xlink" id="crew__linear-gradient-4" x1="6069.86" y1="2238.99" x2="6069.88" y2="2239.15" xlink:href="#crew__linear-gradient-3"></linearGradient><linearGradient id="crew__linear-gradient-5" x1="883.38" y1="187.85" x2="1031.22" y2="187.85" gradientUnits="userSpaceOnUse"><stop offset="0" stop-color="#e9e8fa"></stop><stop offset="1" stop-color="#b3d2ff"></stop></linearGradient><linearGradient xmlns:xlink="http://www.w3.org/1999/xlink" id="crew__linear-gradient-6" x1="147.82" y1="618.45" x2="295.66" y2="618.45" xlink:href="#crew__linear-gradient-5"></linearGradient><linearGradient id="crew__linear-gradient-7" x1="1147.05" y1="264.58" x2="1147.05" y2="1125.3" gradientUnits="userSpaceOnUse"><stop offset="0.29" stop-color="#c9e5f8"></stop><stop offset="0.34" stop-color="#cbe6f8" stop-opacity="0.95"></stop><stop offset="0.42" stop-color="#d1e8f9" stop-opacity="0.81"></stop><stop offset="0.54" stop-color="#dbedf9" stop-opacity="0.58"></stop><stop offset="0.67" stop-color="#e7f2fa" stop-opacity="0.28"></stop><stop offset="0.79" stop-color="#f3f7fb" stop-opacity="0"></stop><stop offset="0.95" stop-color="#f3f7fa" stop-opacity="0"></stop></linearGradient><linearGradient xmlns:xlink="http://www.w3.org/1999/xlink" id="crew__linear-gradient-8" x1="761.01" y1="264.58" x2="761.01" y2="1125.3" xlink:href="#crew__linear-gradient-7"></linearGradient><linearGradient id="crew__linear-gradient-9" x1="1660.56" y1="925.58" x2="1660.85" y2="1016.94" gradientUnits="userSpaceOnUse"><stop offset="0.19" stop-color="#c5e2f9"></stop><stop offset="0.3" stop-color="#d1e7f9"></stop><stop offset="0.53" stop-color="#e4eff9"></stop><stop offset="0.76" stop-color="#f0f4f9"></stop><stop offset="1" stop-color="#f4f6f9"></stop></linearGradient><linearGradient xmlns:xlink="http://www.w3.org/1999/xlink" id="crew__linear-gradient-10" x1="1684.62" y1="925.5" x2="1684.91" y2="1016.86" xlink:href="#crew__linear-gradient-9"></linearGradient><linearGradient xmlns:xlink="http://www.w3.org/1999/xlink" id="crew__linear-gradient-11" x1="1676.32" y1="837.95" x2="1676.32" y2="945.35" xlink:href="#crew__linear-gradient-9"></linearGradient><linearGradient xmlns:xlink="http://www.w3.org/1999/xlink" id="crew__linear-gradient-12" x1="1874.74" y1="898.79" x2="2030.05" y2="762.54" gradientTransform="matrix(0.97, 0.24, -0.24, 0.97, 19.12, -428.91)" xlink:href="#crew__linear-gradient-9"></linearGradient><linearGradient xmlns:xlink="http://www.w3.org/1999/xlink" id="crew__linear-gradient-13" x1="1661.6" y1="834.15" x2="1661.6" y2="922.48" xlink:href="#crew__linear-gradient-9"></linearGradient><linearGradient xmlns:xlink="http://www.w3.org/1999/xlink" id="crew__linear-gradient-14" x1="1684" y1="834.15" x2="1684" y2="922.48" xlink:href="#crew__linear-gradient-9"></linearGradient><linearGradient xmlns:xlink="http://www.w3.org/1999/xlink" id="crew__linear-gradient-15" x1="1718.34" y1="931.19" x2="1611.88" y2="836.85" xlink:href="#crew__linear-gradient-9"></linearGradient><linearGradient xmlns:xlink="http://www.w3.org/1999/xlink" id="crew__linear-gradient-16" x1="1641.99" y1="913.3" x2="1794.89" y2="779.15" xlink:href="#crew__linear-gradient-9"></linearGradient><linearGradient xmlns:xlink="http://www.w3.org/1999/xlink" id="crew__linear-gradient-17" x1="1736.92" y1="908.16" x2="1634.05" y2="817.01" xlink:href="#crew__linear-gradient-9"></linearGradient><linearGradient id="crew__linear-gradient-18" x1="518.91" y1="-56.59" x2="490.24" y2="155.3" gradientTransform="matrix(0.22, -0.98, 0.98, 0.22, 1398.17, 1363.17)" gradientUnits="userSpaceOnUse"><stop offset="0.36" stop-color="#c5e2f9"></stop><stop offset="0.39" stop-color="#cfe6f9"></stop><stop offset="0.46" stop-color="#e0edf9"></stop><stop offset="0.54" stop-color="#ebf2f9"></stop><stop offset="0.66" stop-color="#f2f5f9"></stop><stop offset="1" stop-color="#f4f6f9"></stop></linearGradient><linearGradient xmlns:xlink="http://www.w3.org/1999/xlink" id="crew__linear-gradient-19" x1="1474.74" y1="812.49" x2="1446.15" y2="1023.79" gradientTransform="matrix(1, 0, 0, 1, 0, 0)" xlink:href="#crew__linear-gradient-18"></linearGradient><linearGradient xmlns:xlink="http://www.w3.org/1999/xlink" id="crew__linear-gradient-20" x1="1496.41" y1="835.72" x2="1491.16" y2="909.74" gradientTransform="matrix(1, 0, 0, 1, 0, 0)" xlink:href="#crew__linear-gradient-18"></linearGradient><linearGradient xmlns:xlink="http://www.w3.org/1999/xlink" id="crew__linear-gradient-21" x1="1477.49" y1="834.38" x2="1472.24" y2="908.4" gradientTransform="matrix(1, 0, 0, 1, 0, 0)" xlink:href="#crew__linear-gradient-18"></linearGradient><linearGradient xmlns:xlink="http://www.w3.org/1999/xlink" id="crew__linear-gradient-22" x1="1428.91" y1="815.16" x2="1410.39" y2="952.01" gradientTransform="matrix(1, 0, 0, 1, 0, 0)" xlink:href="#crew__linear-gradient-18"></linearGradient><linearGradient id="crew__linear-gradient-23" x1="1418.74" y1="854.43" x2="1403.41" y2="967.74" gradientUnits="userSpaceOnUse"><stop offset="0" stop-color="#f4f6f9"></stop><stop offset="0.39" stop-color="#c5e2f9"></stop></linearGradient><linearGradient id="crew__linear-gradient-24" x1="291.06" y1="182.54" x2="223.81" y2="241.88" gradientUnits="userSpaceOnUse"><stop offset="0.2" stop-color="#c5e2f9"></stop><stop offset="0.23" stop-color="#cfe6f9"></stop><stop offset="0.3" stop-color="#e0edf9"></stop><stop offset="0.39" stop-color="#ebf2f9"></stop><stop offset="0.52" stop-color="#f2f5f9"></stop><stop offset="0.87" stop-color="#f4f6f9"></stop></linearGradient><linearGradient xmlns:xlink="http://www.w3.org/1999/xlink" id="crew__linear-gradient-25" x1="301.96" y1="176.56" x2="301.96" y2="319.74" xlink:href="#crew__linear-gradient-24"></linearGradient><linearGradient xmlns:xlink="http://www.w3.org/1999/xlink" id="crew__linear-gradient-26" x1="303.08" y1="185.72" x2="301.1" y2="257.37" xlink:href="#crew__linear-gradient-24"></linearGradient><linearGradient xmlns:xlink="http://www.w3.org/1999/xlink" id="crew__linear-gradient-27" x1="289.34" y1="196.58" x2="287.36" y2="268.23" xlink:href="#crew__linear-gradient-24"></linearGradient><linearGradient xmlns:xlink="http://www.w3.org/1999/xlink" id="crew__linear-gradient-28" x1="290.81" y1="182.26" x2="223.56" y2="241.6" xlink:href="#crew__linear-gradient-24"></linearGradient><linearGradient xmlns:xlink="http://www.w3.org/1999/xlink" id="crew__linear-gradient-29" x1="320.16" y1="171.22" x2="352.93" y2="241.83" xlink:href="#crew__linear-gradient-24"></linearGradient><linearGradient xmlns:xlink="http://www.w3.org/1999/xlink" id="crew__linear-gradient-30" x1="323.78" y1="202.53" x2="338.24" y2="233.69" xlink:href="#crew__linear-gradient-24"></linearGradient><linearGradient id="crew__linear-gradient-31" x1="185.03" y1="174.25" x2="242.34" y2="174.25" gradientUnits="userSpaceOnUse"><stop offset="0.2" stop-color="#c5e2f9"></stop><stop offset="0.34" stop-color="#d6e9f9"></stop><stop offset="0.53" stop-color="#e7f0f9"></stop><stop offset="0.74" stop-color="#f1f5f9"></stop><stop offset="1" stop-color="#f4f6f9"></stop></linearGradient><linearGradient xmlns:xlink="http://www.w3.org/1999/xlink" id="crew__linear-gradient-32" x1="155.8" y1="154.46" x2="156.77" y2="270.38" xlink:href="#crew__linear-gradient-31"></linearGradient><linearGradient xmlns:xlink="http://www.w3.org/1999/xlink" id="crew__linear-gradient-33" x1="146.71" y1="147.62" x2="91.32" y2="235.93" xlink:href="#crew__linear-gradient-31"></linearGradient><linearGradient xmlns:xlink="http://www.w3.org/1999/xlink" id="crew__linear-gradient-34" x1="153.41" y1="150.54" x2="96.84" y2="240.73" xlink:href="#crew__linear-gradient-31"></linearGradient><linearGradient xmlns:xlink="http://www.w3.org/1999/xlink" id="crew__linear-gradient-35" x1="157.51" y1="147.36" x2="162.45" y2="209.33" xlink:href="#crew__linear-gradient-24"></linearGradient><linearGradient xmlns:xlink="http://www.w3.org/1999/xlink" id="crew__linear-gradient-36" x1="173.9" y1="146.52" x2="179" y2="210.38" xlink:href="#crew__linear-gradient-24"></linearGradient><image id="crew__image" width="5301" height="2393"></image></defs><g xmlns="http://www.w3.org/2000/svg" id="crew__ch_2shadow"><ellipse cx="291.43" cy="340.19" rx="43.02" ry="7.01" fill="#1a4a9a" opacity="0.2"></ellipse></g>
<g xmlns="http://www.w3.org/2000/svg" id="crew__ch_2bisep2"><path d="M282.08,175.93s-3.8-2.24-7.43,4.15-14.16,24.17-14.16,24.17a14,14,0,0,0,.35,11.74c3.11,6,6.56,5.35,6.56,5.35l14.68-14.67Z" stroke="#0840a5" stroke-linecap="round" stroke-linejoin="round" stroke-width="0.65" fill="url(#crew__linear-gradient-24)"></path></g>
<g xmlns="http://www.w3.org/2000/svg" id="crew__ch_2leg2"><path d="M299.21,323.48l-.13,9.85a14.09,14.09,0,0,1-9.07,1l-.13-1.17-1.43.26-.26,1.56s-11.53,1.94-19.18.26c0,0-.91-2.86.26-4.41s6.48-2.59,9.2-3.5,5.19-3.89,5.19-5.45,15.68,0,15.68,0Z" fill="#1b1959"></path><path d="M282.49,322.31l-2.72-71a13.17,13.17,0,0,1,12.05-11.15C302.71,239,301.68,260,301.68,260l-1.3,63.78S289.1,325.81,282.49,322.31Z" fill="#18469d"></path></g>
<g xmlns="http://www.w3.org/2000/svg" id="crew__ch_2leg1"><path d="M311.66,324c0,.52-.39,11.41-.39,11.41s2.46,3.37,9.59,4.66,11.28-.65,11-2.85-6-9.07-6-9.07.13-5.45,0-5.06S311.66,324,311.66,324Z" fill="#1b1959"></path><path d="M279.71,251.57l-.48-8.55-.37-6.4,48.74-1.16v89.19c-7,4-18.41.25-18.41.25L301.68,260l-5-1.69" fill="#18469d"></path><path d="M327.6,234.43v7.32c-27.22,8.32-44.63,1.77-48.37.24l-.37-6.39Z" fill="#1b1959"></path><rect x="292.86" y="240.4" width="8.94" height="4.15" fill="#f4f6f9" stroke="#0840a5" stroke-miterlimit="10" stroke-width="0.65"></rect></g>
<g xmlns="http://www.w3.org/2000/svg" id="crew__ch_2torso"><path d="M307,168.53c.75.09,1.53.2,2.34.32,13.46,2.08,17.26,4.84,17.26,4.84s2.07,58,2.42,60.43-.52,3.28-11.22,5.52-30.22,2.08-36.09-.34-5-6.74-4-9.84,1.21-24.69,0-30.91S275,184.22,274.83,182s2.24-4.84,2.24-4.84c3.66-3.52,9.54-6.19,11.91-7.18l1,4.07a10.92,10.92,0,0,0,7.37,1.91,8.86,8.86,0,0,0,6.59-3.29A45.59,45.59,0,0,0,307,168.53Z" stroke="#0840a5" stroke-linecap="round" stroke-linejoin="round" stroke-width="0.65" fill="url(#crew__linear-gradient-25)"></path><polygon points="306.94 166.09 311.43 169.54 309.53 184.74 304 181.11 295.03 191.3 307.46 169.89 306.94 166.09" stroke="#0840a5" stroke-linecap="round" stroke-linejoin="round" stroke-width="0.65" fill="url(#crew__linear-gradient-26)"></polygon><path d="M311,169.41l-1,5.18L323.3,178,326,173.3S315.79,168.25,311,169.41Z" fill="#18469d"></path><path d="M276.16,178.09l3.5,2.33s5.44-5.31,8.42-7L286.52,171S279.53,174.59,276.16,178.09Z" fill="#18469d"></path><polygon points="288.81 169.72 286.74 171.79 284.15 183.87 288.29 180.94 295.03 191.3 290.02 174.03 288.81 169.72" stroke="#0840a5" stroke-linecap="round" stroke-linejoin="round" stroke-width="0.65" fill="url(#crew__linear-gradient-27)"></polygon></g>
<g xmlns="http://www.w3.org/2000/svg" id="crew__ch_2arm2"><path d="M267.38,221.36c-.19.15-1.87,1.36-6.89,1.36-5.35,0-18.82-4.66-18.82-4.66L246,203.38s16.23-1.72,17.78,3.11c0,.07.05.13.07.19" stroke="#0840a5" stroke-linecap="round" stroke-linejoin="round" stroke-width="0.65" fill="url(#crew__linear-gradient-28)"></path><path d="M237,188a2.29,2.29,0,0,1,3.58,2.34,10.79,10.79,0,0,0,0,4.74c.78,2.85,3.89,6.87,4.92,9.33s0,10.75-3.1,12.3-10.49,1.17-10.49,1.17l-1-17.49s3.63,0,3.89-.77-1.3-6.09.12-8.94A7.58,7.58,0,0,1,237,188Z" fill="#f4f6f9" stroke="#0840a5" stroke-miterlimit="10" stroke-width="0.65"></path><path d="M236.93,201.14s-6.87-2.33-9.46-.91-2.2,3.63-1.16,4.54,8.67,1.68,10.49.64S239.39,202.31,236.93,201.14Z" fill="#f4f6f9" stroke="#0840a5" stroke-miterlimit="10" stroke-width="0.65"></path><path d="M238.09,209.17s-.26,1.68-5.7,1.68c-2.46,0-7.25-.77-7.25-2.46s-.13-3.11,3.24-3S239.65,205.41,238.09,209.17Z" fill="#f4f6f9" stroke="#0840a5" stroke-miterlimit="10" stroke-width="0.65"></path><path d="M238.09,214.09a26.08,26.08,0,0,1-5.7,1,17.72,17.72,0,0,1-6.34-.78s-2.85-2.85.13-4.53,11-.26,12,1.68S238.09,214.09,238.09,214.09Z" fill="#f4f6f9" stroke="#0840a5" stroke-miterlimit="10" stroke-width="0.65"></path><path d="M237.57,217.72s.26,2.2-4.14,2.46-8.93-3-6.73-5.31S239.26,214.22,237.57,217.72Z" fill="#f4f6f9" stroke="#0840a5" stroke-miterlimit="10" stroke-width="0.65"></path></g>
<g xmlns="http://www.w3.org/2000/svg" id="crew__ch_2_head"><path d="M299.61,164.88c-.17.1-.34.2-.52.29-7.24,3.86-15.84,1.45-18.33-3-1.9-3.44-3-11-2.89-24l.56-3.61s5.55-7.64,18.17-4,10.21,15.27,10.21,15.27l.31-.17c.92-.44,3.56-1.45,5.07.65,1.85,2.57-1,8.6-5.38,8.12" fill="none" stroke="#0840a5" stroke-miterlimit="10" stroke-width="0.65"></path><path d="M311.23,136.56s5.22-.17,5.3-3.54-1.36-3-6.11-5.23-16.15-9.48-19.45-11.65-9-1.21-12.62,1.2a6.63,6.63,0,0,0-2.73,7.88,5.46,5.46,0,0,0,2.17,2.65L296,129.48Z" fill="#f4f6f9" stroke="#0840a5" stroke-miterlimit="10" stroke-width="0.65"></path><path d="M301.5,136s-3.13,1.69-12.94,2-17.36-.24-17.61-1.44,7.72-4.75,7.72-4.75S295.79,129.64,301.5,136Z" fill="#f4f6f9" stroke="#0840a5" stroke-miterlimit="10" stroke-width="0.65"></path><path d="M310.74,137.6c0,.32.13,7.55.13,7.55l-1.23-.5h0a22.94,22.94,0,0,0-6.09,4.12l-.68.65v-6.19s-2-1-2.25-2.09,1.85-3.86,1-4.75a12.87,12.87,0,0,1-1.37-1.84l10.45,2.73Z" fill="#1b1959"></path><ellipse cx="291.01" cy="146.32" rx="0.84" ry="1.57" fill="#1b1959"></ellipse><ellipse cx="280.64" cy="146.32" rx="0.84" ry="1.57" fill="#1b1959"></ellipse><path d="M295.79,143a9.3,9.3,0,0,0-7.63-.81" fill="none" stroke="#0840a5" stroke-linecap="round" stroke-miterlimit="10" stroke-width="0.65"></path><path d="M283.74,142.66s-3.22-1.36-5.71.17" fill="none" stroke="#0840a5" stroke-linecap="round" stroke-miterlimit="10" stroke-width="0.65"></path><path d="M284,144.84s-.14,4.88-2.09,8.11a1.2,1.2,0,0,0,.39,1.68,5.58,5.58,0,0,0,4,.41" fill="none" stroke="#0840a5" stroke-linecap="round" stroke-miterlimit="10" stroke-width="0.65"></path><path d="M294.43,157.38a7.92,7.92,0,0,1-8,2.57,16.48,16.48,0,0,0,8-2.57Z" fill="#242058"></path><path d="M306.81,154.46v13a11.75,11.75,0,0,1-8.5,8.26c-7,1.69-8.38-2-8.38-2a38.45,38.45,0,0,1-1.39-7.2" fill="none" stroke="#0840a5" stroke-miterlimit="10" stroke-width="0.65"></path><path d="M311.23,140.25v-3.69s-7.8-11.1-33.68-9.09l-.08,4.83S290.25,129.16,311.23,140.25Z" fill="#18469d"></path><ellipse cx="283.45" cy="126.43" rx="3.01" ry="4.18" fill="#f4f6f9" stroke="#0840a5" stroke-miterlimit="10" stroke-width="0.65"></ellipse></g>
<g xmlns="http://www.w3.org/2000/svg" id="crew__ch_2bisep1"><path d="M340.9,220.55c7-4.49,5.21-14.91,4-16.69-1.29-1.94-12.56-25.64-15.28-28.49a11.72,11.72,0,0,0-7-3.11c-7.51,7.25-1.68,21.5-1.68,21.5s6.39,11.93,6.22,12l4.86,9.08s2.81,5.27,5.11,6.26A3.35,3.35,0,0,0,340.9,220.55Z" stroke="#0840a5" stroke-linecap="round" stroke-linejoin="round" stroke-width="0.65" fill="url(#crew__linear-gradient-29)"></path></g>
<g xmlns="http://www.w3.org/2000/svg" id="crew__ch_2arm1"><path d="M307.42,195.81a1.41,1.41,0,0,0-1.34-1.35,3.92,3.92,0,0,0-4.15,2.67c-1.42,3.75.65,7.77.65,7.77H296.8a3.4,3.4,0,0,0-3.14,2,3.44,3.44,0,0,0-.27,1,4.25,4.25,0,0,0,1.29,3.37,2.54,2.54,0,0,0-1.16,2.59,4.09,4.09,0,0,0,1.68,2.72,2.37,2.37,0,0,0-.13,3.24,3.49,3.49,0,0,0,2.46,3.88c3,1,13.08-.13,15.28-1.55s2.85-5.18,2.85-5.18l-.39-6.74s-7.25-8.93-7.51-10.35C307.59,198.93,307.48,197,307.42,195.81Z" fill="#f4f6f9" stroke="#0840a5" stroke-miterlimit="10" stroke-width="0.65"></path><path d="M346,210.33c-.16,4.19-1.78,9.17-7.18,11.27l-24.35,1,.13-14.9,12.82-2.07,6.76-.91" stroke="#0840a5" stroke-linecap="round" stroke-linejoin="round" stroke-width="0.65" fill="url(#crew__linear-gradient-30)"></path></g>
<g xmlns="http://www.w3.org/2000/svg" id="crew__ch_1shadow"><ellipse cx="158.99" cy="343.39" rx="43.02" ry="7.01" fill="#1a4a9a" opacity="0.2"></ellipse></g>
<g xmlns="http://www.w3.org/2000/svg" id="crew__ch_1leg1"><path d="M161.57,328.27v13.2s5.7.91,8.94,0v-1a5.29,5.29,0,0,1,3,.78c1.42.9,14.37,2.2,21.36.38a4.43,4.43,0,0,0,.39-3.75s.65-1.43-7-3.37-9.07-5.83-9.46-7.64S161.57,328.27,161.57,328.27Z" fill="#1b1959"></path><path d="M156.78,253.29c.13.91,3.63,75.75,3.63,75.75s13.33,3.37,19.94-.9l3.37-89L156,238.4Z" fill="#18469d"></path></g>
<g xmlns="http://www.w3.org/2000/svg" id="crew__ch_1leg2"><path d="M123,328.78s-2.07,7.39-2.85,9.59-3.23,7.25-.51,9.45,10.74,2.33,14.24.78,4.92-3.37,4.79-4.41-.13-15.79-.26-15S123,328.78,123,328.78Z" fill="#1b1959"></path><path d="M168.72,237.86s0,0,0,0c-.38.65-41.56,1.16-41.56,1.16s-.39,40.15-1.95,57.11-4,33.54-4,33.54,12.82,5.18,19.55.26l17-74.33,8-3.63s.09-.42.25-1.12" fill="#18469d"></path></g>
<g xmlns="http://www.w3.org/2000/svg" id="crew__ch_1hand1"><path d="M256.84,184.31a11.21,11.21,0,0,0,3.54-3.28c1.12-1.9.77-7.34.77-7.34s-10.44.09-10.44.44v5.35Z" fill="#f4f6f9" stroke="#0840a5" stroke-linecap="round" stroke-miterlimit="10" stroke-width="0.65"></path><path d="M272,169.12c-.18-.21-32.8-.35-32.8-.35s-2.16,6-1,8.81,14.68,8.37,17.26,8.11,2.85-1.9,1.56-2.85-4.92-3.1-3.8-5.26c.73-1.41,2.6-3,7.34-2.76C267.11,175.16,276.43,174.3,272,169.12Z" fill="#f4f6f9" stroke="#0840a5" stroke-linecap="round" stroke-miterlimit="10" stroke-width="0.65"></path><path d="M240.82,183.75,187.08,186s-4.49-16.88-.17-23.39c0,0,36.3,5.13,53.78,5C240.69,167.56,244.32,174.43,240.82,183.75Z" stroke="#0840a5" stroke-linecap="round" stroke-linejoin="round" stroke-width="0.65" fill="url(#crew__linear-gradient-31)"></path><path d="M234.87,167.82s2.33,10.36-2.08,16.19" fill="none" stroke="#0840a5" stroke-linecap="round" stroke-miterlimit="10" stroke-width="0.69"></path></g>
<g xmlns="http://www.w3.org/2000/svg" id="crew__ch_1torso"><path d="M187.47,181.89c0,7.92-.24,16.07-.73,20-1,8.29-1.21,38-1.21,38-3.11,3.62-15.2,6.21-15.2,6.21l-3.1-7.08-4.15,6.74a85.5,85.5,0,0,1-38-3.28s2.24-23,2.93-31.6-2.07-32.8-1.21-42.3,20.64-9.67,20.64-9.67l.52-.19,21.66,23.81,8.13-22.24c4.58,1,8,1.93,8.91,2.18" stroke="#0840a5" stroke-linecap="round" stroke-linejoin="round" stroke-width="0.65" fill="url(#crew__linear-gradient-32)"></path><path d="M170.51,187.07s.51,35.92-2.25,47.49" fill="none" stroke="#0840a5" stroke-linecap="round" stroke-miterlimit="10" stroke-width="0.69"></path><rect x="144.95" y="186.21" width="14.5" height="3.8" fill="#18469d"></rect><rect x="177.07" y="185.18" width="9.84" height="3.11" fill="#18469d"></rect><path d="M130.28,163.59l5.26,4.58a44.2,44.2,0,0,1,14-3.89l-1.81-5.44S133.73,159.71,130.28,163.59Z" fill="#f4f6f9" stroke="#0840a5" stroke-linecap="round" stroke-miterlimit="10" stroke-width="0.69"></path><line x1="139.34" y1="166.53" x2="133.82" y2="161.26" fill="none" stroke="#0840a5" stroke-linecap="round" stroke-miterlimit="10" stroke-width="0.69"></line><path d="M177.33,160.4v5.78l11,1,.17-4.23S181,160.74,177.33,160.4Z" fill="#f4f6f9" stroke="#0840a5" stroke-linecap="round" stroke-miterlimit="10" stroke-width="0.69"></path></g>
<g xmlns="http://www.w3.org/2000/svg" id="crew__ch_1bisep1"><path d="M129.62,163.89c-1.62,1.07-4.25,3.34-8.45,8.08-9.19,10.36-20.46,26.41-20.46,26.41s-1.68,4.28,5.83,8.16,14.76-2.2,14.76-2.2l12.47-13.52" stroke="#0840a5" stroke-linecap="round" stroke-linejoin="round" stroke-width="0.65" fill="url(#crew__linear-gradient-33)"></path></g>
<g xmlns="http://www.w3.org/2000/svg" id="crew__ch_1arm1"><path d="M129.33,236.58s3.49,3.24,5,3.11,1.55-2.07,1.55-2.07-3.49-6.73-9.84-7.12-13.21,5.95-13.34,6.34.26,10.36,4.79,13.08,5.44.91,5.44.91,2.46,1.94,4.53.65a5.82,5.82,0,0,0,4.15-1.56s3.24-.39,4.27-2.46.39-4.53-.39-4.4a9.74,9.74,0,0,0-2.59,1.81S128.68,240.86,129.33,236.58Z" fill="#f4f6f9" stroke="#0840a5" stroke-linecap="round" stroke-miterlimit="10" stroke-width="0.65"></path><path d="M119.29,201.78c2.63,5.11,6.8,28.72,6.8,28.72s-3.63,4.53-14.24,5.7c0,0-6.22-12.82-9.33-22.92s-2.85-14.77-.77-16.45a.83.83,0,0,1,.15-.11" stroke="#0840a5" stroke-linecap="round" stroke-linejoin="round" stroke-width="0.65" fill="url(#crew__linear-gradient-34)"></path><path d="M108.61,228.56s9.84.77,16.19-6" fill="none" stroke="#0840a5" stroke-linecap="round" stroke-miterlimit="10" stroke-width="0.69"></path></g>
<g xmlns="http://www.w3.org/2000/svg" id="crew__ch_1_head"><path d="M162.9,153.58c.18.11.37.21.56.31,7.69,4.1,16.83,1.54,19.48-3.25,2-3.65,3.16-11.7,3.07-25.46l-.59-3.84s-5.9-8.12-19.31-4.28-10.86,16.24-10.86,16.24a2.64,2.64,0,0,0-.34-.18c-1-.47-3.77-1.55-5.38.69-2,2.73,1,9.14,5.72,8.63" fill="none" stroke="#0840a5" stroke-linecap="round" stroke-miterlimit="10" stroke-width="0.69"></path><path d="M150.55,123.47s-5.55-.17-5.64-3.76,1.46-3.16,6.5-5.55,17.17-10.08,20.68-12.39,9.57-1.28,13.41,1.28a7.05,7.05,0,0,1,2.91,8.37,5.88,5.88,0,0,1-2.31,2.82L166.79,116Z" fill="#f4f6f9" stroke="#0840a5" stroke-linecap="round" stroke-miterlimit="10" stroke-width="0.69"></path><path d="M160.89,122.87s3.34,1.8,13.76,2.14,18.46-.26,18.71-1.54-8.2-5-8.2-5S167,116.12,160.89,122.87Z" fill="#f4f6f9" stroke="#0840a5" stroke-linecap="round" stroke-miterlimit="10" stroke-width="0.69"></path><path d="M151.07,124.58c0,.34-.14,8-.14,8l1.31-.52h0a24.13,24.13,0,0,1,6.47,4.38l.73.68v-6.58s2.14-1.11,2.39-2.22-2-4.1-1.11-5a12.73,12.73,0,0,0,1.45-2l-11.1,2.9Z" fill="#1b1959"></path><path d="M155.25,142.5v13.87a12.46,12.46,0,0,0,9,8.77c7.43,1.8,10.28-3.85,10.28-3.85s.1-3.44.1-5.91" fill="none" stroke="#0840a5" stroke-linecap="round" stroke-miterlimit="10" stroke-width="0.69"></path><path d="M150.55,127.4v-3.93s8.29-11.79,35.81-9.65l.08,5.12S172.86,115.61,150.55,127.4Z" fill="#18469d"></path><ellipse cx="180.08" cy="112.71" rx="3.2" ry="4.44" fill="#f4f6f9" stroke="#0840a5" stroke-linecap="round" stroke-miterlimit="10" stroke-width="0.69"></ellipse><polygon points="165.16 167.56 167.66 169.98 170.94 169.98 172.58 167.05 168.52 163.16 167.4 163.07 165.16 167.56" fill="#18469d"></polygon><polygon points="166.54 181.55 167.66 169.98 170.94 169.98 173.44 182.76 171.63 186.81 166.54 181.55" fill="#18469d"></polygon><polygon points="155.05 153.23 151 156.94 162.56 171.88 167.4 163.07 155.05 155.65 155.05 153.23" fill="#f4f6f9" stroke="#0840a5" stroke-linecap="round" stroke-miterlimit="10" stroke-width="0.69"></polygon><polygon points="168.52 163.16 174.31 168.77 175.34 159.62 174.92 156.4 168.52 163.16" fill="#f4f6f9" stroke="#0840a5" stroke-linecap="round" stroke-miterlimit="10" stroke-width="0.69"></polygon><polygon points="152.38 156.17 147.46 158.93 152.03 174.38 159.11 171.71 158.25 178.96 171.63 186.81 152.38 156.17" stroke="#0840a5" stroke-linecap="round" stroke-linejoin="round" stroke-width="0.65" fill="url(#crew__linear-gradient-35)"></polygon><path d="M175.08,157.16l-3.45,29.66,7.42-9.16L176.29,171l5-.61S177.5,156.3,175.08,157.16Z" stroke="#0840a5" stroke-linecap="round" stroke-linejoin="round" stroke-width="0.65" fill="url(#crew__linear-gradient-36)"></path></g>
<g xmlns="http://www.w3.org/2000/svg" id="crew__ch_1eye1"><ellipse cx="172.04" cy="133.85" rx="0.9" ry="1.67" fill="#1b1959"></ellipse></g>
<g xmlns="http://www.w3.org/2000/svg" id="crew__ch_1eye2"><ellipse cx="183.07" cy="133.85" rx="0.9" ry="1.67" fill="#1b1959"></ellipse></g>
<g xmlns="http://www.w3.org/2000/svg" id="crew__ch_1eyebrow1"><path d="M179.78,131.2s3.41-2.4,6.06-1.1" fill="none" stroke="#0840a5" stroke-linecap="round" stroke-miterlimit="10" stroke-width="0.9"></path></g>
<g xmlns="http://www.w3.org/2000/svg" id="crew__ch_1eyebrow2"><path d="M168.42,130.6s3.41 0.9,6.06 2.3" fill="none" stroke="#0840a5" stroke-linecap="round" stroke-miterlimit="10" stroke-width="0.9"></path></g>
<g xmlns="http://www.w3.org/2000/svg" id="crew__ch_1nose"><path d="M179.52,132.27s.14,5.2,2.22,8.62a1.28,1.28,0,0,1-.41,1.79,6,6,0,0,1-4.2.44" fill="none" stroke="#0840a5" stroke-linecap="round" stroke-miterlimit="10" stroke-width="0.69"></path></g>
<g xmlns="http://www.w3.org/2000/svg" id="crew__ch_1lip"><path d="M168.41,146.4a17.37,17.37,0,0,1,8.46-2.74,8.4,8.4,0,0,0-8.46,2.74Z" fill="#242058"></path></g>
<g xmlns="http://www.w3.org/2000/svg" id="crew__icon3"><path d="M349.91,178.53a12,12,0,0,1-3.45-1.34,1.38,1.38,0,0,1-.75-1.63,2.87,2.87,0,0,0-2.74-3.37c-1.09,0-1.45-.29-1.75-1.3a8.81,8.81,0,0,1-.37-3,1.37,1.37,0,0,1,1-1.33,2.88,2.88,0,0,0,2-3.56,3.4,3.4,0,0,0-.23-.57,1.37,1.37,0,0,1,.19-1.6,10.85,10.85,0,0,1,2.56-2.17,1.21,1.21,0,0,1,1.57.2,2.65,2.65,0,0,0,3.64-.13,4.23,4.23,0,0,0,.51-.67,1.21,1.21,0,0,1,1.36-.57,11,11,0,0,1,3.35,1.36,1.38,1.38,0,0,1,.68,1.4,2.87,2.87,0,0,0,2.88,3.31,1.39,1.39,0,0,1,1.32,1,8.13,8.13,0,0,1,.55,3.3,1.36,1.36,0,0,1-1,1.39,2.81,2.81,0,0,0-2,2.66,3.42,3.42,0,0,0,.31,1.36,1.49,1.49,0,0,1-.22,1.77A11.3,11.3,0,0,1,357,177.1a1.23,1.23,0,0,1-1.63-.11,2.67,2.67,0,0,0-4.31.8,3.32,3.32,0,0,1-.64.66Zm2.2-7a3.58,3.58,0,1,0-4.1-3A3.6,3.6,0,0,0,352.11,171.52Z" fill="#71afd8"></path><path d="M371.36,150.11c0,.25,0,.51,0,.77a1.13,1.13,0,0,1-.8,1.13,2.29,2.29,0,0,0-1.33,3.31,1.12,1.12,0,0,1-.13,1.27,9.2,9.2,0,0,1-2,1.79,1,1,0,0,1-1.25-.1,2.13,2.13,0,0,0-3.48.63,1,1,0,0,1-1.16.53,8.47,8.47,0,0,1-2.66-1.08,1.07,1.07,0,0,1-.52-1.19,2.29,2.29,0,0,0-2.31-2.77,1.13,1.13,0,0,1-1.23-.88,6.71,6.71,0,0,1-.36-2.55,1.07,1.07,0,0,1,.83-1.1,2.36,2.36,0,0,0,1.4-3.35,1,1,0,0,1,.14-1.24,8.3,8.3,0,0,1,2.09-1.78.9.9,0,0,1,1.16.1,2.18,2.18,0,0,0,3.43-.57.91.91,0,0,1,1.1-.47,9,9,0,0,1,2.64,1.06,1.19,1.19,0,0,1,.61,1.25,2.29,2.29,0,0,0,2.11,2.57c.9.09,1.15.29,1.41,1.16,0,.12.09.23.13.35Zm-8.17,3.73a2.87,2.87,0,0,0,2.4-3.26,2.88,2.88,0,1,0-5.7.86A2.87,2.87,0,0,0,363.19,153.84Z" fill="#3660b7"></path><path d="M374,166.11c-.23.58-.44,1.16-.7,1.73a.72.72,0,0,1-.87.38,1.5,1.5,0,0,0-1.86,1.4.73.73,0,0,1-.56.68c-.56.12-1.12.22-1.69.29a.61.61,0,0,1-.66-.46,1.4,1.4,0,0,0-2.2-.85.61.61,0,0,1-.8-.13c-.38-.48-.76-1-1.1-1.5a.67.67,0,0,1,.09-.84,1.51,1.51,0,0,0-.35-2.39.68.68,0,0,1-.35-.88,12.3,12.3,0,0,1,.66-1.54.71.71,0,0,1,.85-.37,1.5,1.5,0,0,0,1.93-1.37.75.75,0,0,1,.6-.68c.51-.1,1-.19,1.54-.24s.66.11.82.55a1.4,1.4,0,0,0,1.95.82c.49-.22.69-.21,1,.22s.69.93,1,1.4l.08.45c-.09.15-.17.3-.26.44a1.53,1.53,0,0,0,.31,2.13l.44.37Zm-3.71-1.46a1.89,1.89,0,1,0-1.55,2.19A1.9,1.9,0,0,0,370.31,164.65Z" fill="#3660b7"></path></g>
<g xmlns="http://www.w3.org/2000/svg" id="crew__icon2"><path d="M231.5,112.77a.31.31,0,0,0,.31-.31V108.2a.32.32,0,1,0-.63,0v4.26A.31.31,0,0,0,231.5,112.77Z" fill="#18469d"></path><path d="M224.21,114.5a.31.31,0,0,0,.27.15.32.32,0,0,0,.16,0,.3.3,0,0,0,.11-.42l-2.13-3.7a.31.31,0,0,0-.43-.11.3.3,0,0,0-.11.42Z" fill="#18469d"></path><path d="M215.49,117.62l3.7,2.13a.28.28,0,0,0,.15,0,.29.29,0,0,0,.27-.15.31.31,0,0,0-.11-.43l-3.69-2.14a.32.32,0,0,0-.43.12A.31.31,0,0,0,215.49,117.62Z" fill="#18469d"></path><path d="M217.78,126.5a.32.32,0,0,0-.32-.32H213.2a.32.32,0,1,0,0,.63h4.26A.31.31,0,0,0,217.78,126.5Z" fill="#18469d"></path><path d="M219.19,133.24l-3.7,2.13a.31.31,0,0,0-.11.43.32.32,0,0,0,.27.16.47.47,0,0,0,.16,0l3.69-2.14a.3.3,0,0,0,.11-.42A.31.31,0,0,0,219.19,133.24Z" fill="#18469d"></path><path d="M247.5,135.37l-3.69-2.13a.32.32,0,0,0-.43.12.3.3,0,0,0,.11.42l3.7,2.14a.42.42,0,0,0,.16,0,.33.33,0,0,0,.27-.16A.32.32,0,0,0,247.5,135.37Z" fill="#18469d"></path><path d="M249.8,126.18h-4.27a.32.32,0,0,0,0,.63h4.27a.32.32,0,0,0,0-.63Z" fill="#18469d"></path><path d="M243.65,119.79a.32.32,0,0,0,.16,0l3.69-2.13a.32.32,0,0,0-.31-.55l-3.7,2.14a.31.31,0,0,0-.11.43A.31.31,0,0,0,243.65,119.79Z" fill="#18469d"></path><path d="M238.36,114.61a.28.28,0,0,0,.15,0,.29.29,0,0,0,.27-.15l2.14-3.7a.31.31,0,0,0-.12-.42.3.3,0,0,0-.42.11l-2.14,3.7A.31.31,0,0,0,238.36,114.61Z" fill="#18469d"></path><path d="M238.17,141.67v-.06a9.28,9.28,0,0,1,2.53-6.43,12.67,12.67,0,0,0-9.18-21.33h0a12.65,12.65,0,0,0-9.25,21.28,9.48,9.48,0,0,1,2.58,6.47v.07a2.21,2.21,0,0,0,.67,1.58,1.27,1.27,0,0,0,.06,2.52,1.28,1.28,0,0,0-.18.64,1.26,1.26,0,0,0,1.17,1.26,1.2,1.2,0,0,0-.18.65,1.27,1.27,0,0,0,1.26,1.27h0l1,1.06a1.85,1.85,0,0,0,1.38.61h3a1.84,1.84,0,0,0,1.37-.61l1-1.06h0a1.27,1.27,0,0,0,1.27-1.27,1.29,1.29,0,0,0-.18-.65,1.26,1.26,0,0,0,1.16-1.26,1.19,1.19,0,0,0-.18-.64,1.27,1.27,0,0,0,.06-2.52A2.17,2.17,0,0,0,238.17,141.67Zm-4.26,8.56a1.26,1.26,0,0,1-.91.4h-3a1.24,1.24,0,0,1-.91-.4l-.49-.55h5.8Zm-8.45-8.56v-.07a10.09,10.09,0,0,0-2.75-6.9,12,12,0,0,1,8.79-20.23h0a12,12,0,0,1,8.72,20.28,9.94,9.94,0,0,0-2.7,6.86v.06a1.57,1.57,0,0,1-1.57,1.57H227A1.57,1.57,0,0,1,225.46,141.67Zm9.9,7.29h-7.73a.64.64,0,0,1,0-1.28h7.73a.64.64,0,0,1,0,1.28Zm1-1.91h-9.7a.64.64,0,0,1-.64-.64.64.64,0,0,1,.64-.64h9.7a.64.64,0,0,1,.64.64A.64.64,0,0,1,236.35,147.05Zm1-3.18a.64.64,0,0,1,.64.64.64.64,0,0,1-.64.64H225.67a.64.64,0,0,1,0-1.28h11.66Z" fill="#18469d"></path><path d="M228,117.5a.18.18,0,0,0,.09-.2.17.17,0,0,0-.21-.11l-.34.13a7.53,7.53,0,0,0-1,.46,9.54,9.54,0,0,0-3.93,4.12,11.42,11.42,0,0,0-1.13,4.28,1,1,0,1,0,2.06,0,10.67,10.67,0,0,1,.14-2.82A8.5,8.5,0,0,1,228,117.5Z" fill="#18469d"></path></g>
<g xmlns="http://www.w3.org/2000/svg" id="crew__icon1"><path d="M206.35,231.2l3.52,2.78,1.8-2.41-3.26-2.78a4.3,4.3,0,0,1,6.22,3,3.94,3.94,0,0,1-.26,2.13l9.39,8.55a3.38,3.38,0,0,1,.72-.1,3.42,3.42,0,0,1,3.6,3.22,3.25,3.25,0,0,1-.3,1.5l-2.58-2.59-1.7,1.79,2.39,2.55a3.49,3.49,0,0,1-4.76-3,3,3,0,0,1,.1-1L212,236.21a4.57,4.57,0,0,1-1,.27,4.2,4.2,0,0,1-4.85-3.42A4,4,0,0,1,206.35,231.2Z" fill="#71afd8" stroke="#2d5fbb" stroke-miterlimit="10" stroke-width="0.27"></path></g></g>
</g>
</svg>