<?xml version="1.0"?>
<svg xmlns="http://www.w3.org/2000/svg" xmlns:xlink="http://www.w3.org/1999/xlink" viewBox="0 0 1920 1080" width="1920" height="1080">
<defs></defs>
<g isolation="isolate">

<g id="bg" data-layer="world">
</g>
<g id="bg_2">
&#x9;<rect x="0" y="4.6" fill="#F5F6FA" width="1920" height="1080"></rect>
</g>
<g id="waves" data-layer="world">
&#x9;<g>
&#x9;&#x9;<linearGradient id="SVGID_1_" gradientUnits="userSpaceOnUse" x1="381.9822" y1="1154.9647" x2="1550.3226" y2="1093.6881">
&#x9;&#x9;&#x9;<stop offset="0.2896" style="stop-color:#C9E5F8"></stop>
&#x9;&#x9;&#x9;<stop offset="0.7371" style="stop-color:#F3F7FB"></stop>
&#x9;&#x9;&#x9;<stop offset="0.8611" style="stop-color:#F3F7FA"></stop>
&#x9;&#x9;</linearGradient>
&#x9;&#x9;<path fill="url(#SVGID_1_)" d="M2116.94,934.1c0,0-279.57-97.58-531.85-1.03s-339.5,166.75-588.17,97.88&#xA;&#x9;&#x9;&#x9;c-93.32-25.85-230.52-86.58-386.75-64.49S211.85,1069.4,18.99,1076.02l26.08,190.04l2066.83-12.26L2116.94,934.1z"></path>
&#x9;&#x9;<path fill="none" stroke="#FFFFFF" stroke-width="4.7361" stroke-miterlimit="10" d="M1231.97,1056.54&#xA;&#x9;&#x9;&#x9;c-65.99,7.95-138.78,1.13-238.32-27.67c-92.91-26.88-229.48-85.07-385.71-62.98S185.95,1075.47-6.9,1082.1L0,1210&#xA;&#x9;&#x9;&#x9;c0,0,548.34,16.71,1085.63,33.09"></path>
&#x9;</g>
&#x9;
&#x9;&#x9;<radialGradient id="SVGID_00000023269173073415007590000014415983447858221209_" cx="-717.2273" cy="-1525.0836" r="233.4681" gradientTransform="matrix(1.1521 0.4272 -0.2434 0.6566 1163.2291 2427.1011)" gradientUnits="userSpaceOnUse">
&#x9;&#x9;<stop offset="0.1364" style="stop-color:#CADBF0;stop-opacity:0.86"></stop>
&#x9;&#x9;<stop offset="0.3702" style="stop-color:#D6E2F3;stop-opacity:0.5581"></stop>
&#x9;&#x9;<stop offset="0.7889" style="stop-color:#F5F4FA;stop-opacity:0.0172"></stop>
&#x9;&#x9;<stop offset="0.8022" style="stop-color:#F6F5FA;stop-opacity:0"></stop>
&#x9;</radialGradient>
&#x9;<path opacity="0.46" fill="url(#SVGID_00000023269173073415007590000014415983447858221209_)" d="M977.18,1219.15&#xA;&#x9;&#x9;c-31.39,84.66-177.26,108.63-325.81,53.55s-243.53-168.36-212.14-253.02s177.26-108.63,325.81-53.55&#xA;&#x9;&#x9;S1008.57,1134.49,977.18,1219.15z"></path>
&#x9;<g>
&#x9;&#x9;<g opacity="0.9">
&#x9;&#x9;&#x9;
&#x9;&#x9;&#x9;&#x9;<radialGradient id="SVGID_00000001659218627495413330000010461869344292405665_" cx="-10548.0654" cy="1557.2831" r="542.1959" gradientTransform="matrix(-0.9959 0.0903 0.0903 0.9959 -10465.665 427.9867)" gradientUnits="userSpaceOnUse">
&#x9;&#x9;&#x9;&#x9;<stop offset="0.1364" style="stop-color:#F6F5FA"></stop>
&#x9;&#x9;&#x9;&#x9;<stop offset="0.749" style="stop-color:#F6F5FA;stop-opacity:0.0831"></stop>
&#x9;&#x9;&#x9;&#x9;<stop offset="0.8045" style="stop-color:#F6F5FA;stop-opacity:0"></stop>
&#x9;&#x9;&#x9;</radialGradient>
&#x9;&#x9;&#x9;<path fill="url(#SVGID_00000001659218627495413330000010461869344292405665_)" d="M-179.63,996.35&#xA;&#x9;&#x9;&#x9;&#x9;c86.8-22.92,192.9-56.9,309.71-35.95c92.7,16.62,142.49,46.08,229.61,74.68c175.36,57.57,346.42,0.53,468.04,29.2&#xA;&#x9;&#x9;&#x9;&#x9;c106.02,24.99,199.5,94.12,267.51,174.68l-1268.1-3.69L-179.63,996.35z"></path>
&#x9;&#x9;</g>
&#x9;&#x9;
&#x9;&#x9;&#x9;<linearGradient id="SVGID_00000149353102614533040870000017796695832153111434_" gradientUnits="userSpaceOnUse" x1="-10852.5791" y1="1534.8538" x2="-10787.1221" y2="1883.4528" gradientTransform="matrix(-0.9959 0.0903 0.0903 0.9959 -10465.665 427.9867)">
&#x9;&#x9;&#x9;<stop offset="0" style="stop-color:#C3E0F7"></stop>
&#x9;&#x9;&#x9;<stop offset="0.3877" style="stop-color:#E3EBF2;stop-opacity:0.86"></stop>
&#x9;&#x9;&#x9;<stop offset="0.7693" style="stop-color:#CFE6F7"></stop>
&#x9;&#x9;&#x9;<stop offset="1" style="stop-color:#DBDDF9"></stop>
&#x9;&#x9;</linearGradient>
&#x9;&#x9;<path fill="url(#SVGID_00000149353102614533040870000017796695832153111434_)" d="M-193.96,1007.9&#xA;&#x9;&#x9;&#x9;c86.8-22.92,165.16-53.11,269.06-50.84c80.36,1.76,199.9,56.34,287.02,84.94c175.36,57.57,357.69-0.97,479.31,27.7&#xA;&#x9;&#x9;&#x9;c106.02,24.99,219.11,85.67,287.12,166.24l-1301.05,8.47L-193.96,1007.9z"></path>
&#x9;</g>
&#x9;
&#x9;&#x9;<linearGradient id="SVGID_00000119078150424682758160000012282598836569887397_" gradientUnits="userSpaceOnUse" x1="6069.5576" y1="2240.8796" x2="6070.0576" y2="2245.6792" gradientTransform="matrix(0.9882 -0.1531 0.1531 0.9882 -6181.4697 -311.4501)">
&#x9;&#x9;<stop offset="0.0996" style="stop-color:#9ac7fd"></stop>
&#x9;&#x9;<stop offset="0.6098" style="stop-color:#9ac7fd"></stop>
&#x9;&#x9;<stop offset="0.9622" style="stop-color:#9ac7fd"></stop>
&#x9;</linearGradient>
&#x9;<path fill="url(#SVGID_00000119078150424682758160000012282598836569887397_)" d="M159.59,972.27c0.07,0.65,0.29,2.83,0.6,6.08&#xA;&#x9;&#x9;C159.79,975.15,159.64,972.95,159.59,972.27z"></path>
&#x9;
&#x9;&#x9;<linearGradient id="SVGID_00000166645855958199164500000003194193255902732675_" gradientUnits="userSpaceOnUse" x1="6069.8647" y1="2238.9885" x2="6069.8813" y2="2239.1482" gradientTransform="matrix(0.9882 -0.1531 0.1531 0.9882 -6181.4697 -311.4501)">
&#x9;&#x9;<stop offset="0.0996" style="stop-color:#9ac7fd"></stop>
&#x9;&#x9;<stop offset="0.6098" style="stop-color:#9ac7fd"></stop>
&#x9;&#x9;<stop offset="0.9622" style="stop-color:#9ac7fd"></stop>
&#x9;</linearGradient>
&#x9;<path fill="url(#SVGID_00000166645855958199164500000003194193255902732675_)" d="M159.57,972.05c0,0,0.01,0.07,0.02,0.2l-0.02-0.1&#xA;&#x9;&#x9;C159.58,972.08,159.57,972.05,159.57,972.05z"></path>
&#x9;<ellipse opacity="0.2" fill="#1A4A9A" cx="1451.59" cy="1039.75" rx="61.79" ry="10.07"></ellipse>
&#x9;<ellipse opacity="0.2" fill="#1A4A9A" cx="1664.01" cy="1035.15" rx="61.79" ry="10.07"></ellipse>
</g>
<g id="part_1">
&#x9;<g>
&#x9;&#x9;<g>
&#x9;&#x9;&#x9;<path fill="#ACC0C9" d="M1573.57,185.48c8.53-0.01,16.52,4.31,23.12,9.43c2.21,1.78,4.29,3.72,6.13,6.01l-1.82,0.06&#xA;&#x9;&#x9;&#x9;&#x9;c6.51-8.95,16.85-16.99,28.46-15.73c-11.11,0.56-20.34,8.33-26.6,16.97c0,0-0.87,1.27-0.87,1.27l-0.94-1.21&#xA;&#x9;&#x9;&#x9;&#x9;C1594.25,194.32,1584.03,187.31,1573.57,185.48L1573.57,185.48z"></path>
&#x9;&#x9;</g>
&#x9;&#x9;<g>
&#x9;&#x9;&#x9;<path fill="#ACC0C9" d="M1634.82,223.31c5.15-0.29,10.07,2.26,14.08,5.3c1.35,1.07,2.61,2.23,3.75,3.64l-1.82,0.06&#xA;&#x9;&#x9;&#x9;&#x9;c3.95-5.42,10.36-10.28,17.38-9.15c-6.52,0.69-11.82,5.29-15.52,10.39c0,0-0.88,1.28-0.88,1.28c-2.12-2.99-5.06-5.46-8.11-7.53&#xA;&#x9;&#x9;&#x9;&#x9;C1641,225.54,1638.1,224.01,1634.82,223.31L1634.82,223.31z"></path>
&#x9;&#x9;</g>
&#x9;</g>
&#x9;
&#x9;&#x9;<linearGradient id="SVGID_00000061436786894631231890000000614653712151437727_" gradientUnits="userSpaceOnUse" x1="883.3826" y1="187.8521" x2="1031.2239" y2="187.8521">
&#x9;&#x9;<stop offset="5.052579e-08" style="stop-color:#E9E8FA"></stop>
&#x9;&#x9;<stop offset="1" style="stop-color:#B3D2FF"></stop>
&#x9;</linearGradient>
&#x9;<path opacity="0.47" fill="url(#SVGID_00000061436786894631231890000000614653712151437727_)" d="M1004.35,200.75&#xA;&#x9;&#x9;c-0.66-3.26-3.01-6-6.16-7.15c-1.47-0.54-2.89-0.67-4.23-0.53c-0.57-8.21-7.41-14.7-15.77-14.7c-7.05,0-13.01,4.61-15.06,10.98&#xA;&#x9;&#x9;c-2.83-4.35-7.73-7.23-13.3-7.23c-2.9,0-5.61,0.79-7.94,2.15c-2.88-8.5-10.92-14.61-20.39-14.61c-11.89,0-21.53,9.64-21.53,21.53&#xA;&#x9;&#x9;c0,3.61,0.89,7.01,2.46,10c-10.15,1.1-17.28,2.86-19.03,4.89h86.11h32.98h28.75C1025.69,203.18,1015.85,201.14,1004.35,200.75z"></path>
&#x9;
&#x9;&#x9;<linearGradient id="SVGID_00000054262842536903362000000016788138224992731031_" gradientUnits="userSpaceOnUse" x1="147.8218" y1="618.4478" x2="295.6631" y2="618.4478">
&#x9;&#x9;<stop offset="5.052579e-08" style="stop-color:#E9E8FA"></stop>
&#x9;&#x9;<stop offset="1" style="stop-color:#B3D2FF"></stop>
&#x9;</linearGradient>
&#x9;<path opacity="0.47" fill="url(#SVGID_00000054262842536903362000000016788138224992731031_)" d="M268.78,631.35&#xA;&#x9;&#x9;c-0.66-3.26-3.01-6-6.16-7.15c-1.47-0.54-2.89-0.67-4.23-0.53c-0.57-8.21-7.41-14.7-15.77-14.7c-7.05,0-13.01,4.61-15.06,10.98&#xA;&#x9;&#x9;c-2.83-4.35-7.73-7.23-13.3-7.23c-2.9,0-5.61,0.79-7.94,2.15c-2.88-8.5-10.92-14.61-20.39-14.61c-11.89,0-21.53,9.64-21.53,21.53&#xA;&#x9;&#x9;c0,3.61,0.89,7.01,2.46,10c-10.15,1.1-17.28,2.86-19.03,4.89h86.11h32.98h28.75C290.13,633.77,280.29,631.73,268.78,631.35z"></path>
</g>
<g id="part_2">
&#x9;<g>
&#x9;&#x9;<g>
&#x9;&#x9;&#x9;<g>
&#x9;&#x9;&#x9;&#x9;
&#x9;&#x9;&#x9;&#x9;&#x9;
&#x9;&#x9;&#x9;&#x9;<g>
&#x9;&#x9;&#x9;&#x9;&#x9;<path fill="#FBFBFD" d="M1558.8,329.38v444.24c0,20.27-16.43,36.7-36.7,36.7H379.95c-20.27,0-36.7-16.43-36.7-36.7V329.38&#xA;&#x9;&#x9;&#x9;&#x9;&#x9;&#x9;c0-20.27,16.43-36.71,36.7-36.71H1522.1C1542.37,292.67,1558.8,309.11,1558.8,329.38z"></path>
&#x9;&#x9;&#x9;&#x9;</g>
&#x9;&#x9;&#x9;</g>
&#x9;&#x9;&#x9;<g>
&#x9;&#x9;&#x9;&#x9;
&#x9;&#x9;&#x9;&#x9;&#x9;
&#x9;&#x9;&#x9;&#x9;<g>
&#x9;&#x9;&#x9;&#x9;&#x9;<path fill="#FBFBFD" d="M1558.8,329.38v444.24c0,20.27-16.43,36.7-36.7,36.7H379.95c-20.27,0-36.7-16.43-36.7-36.7V329.38&#xA;&#x9;&#x9;&#x9;&#x9;&#x9;&#x9;c0-20.27,16.43-36.71,36.7-36.71H1522.1C1542.37,292.67,1558.8,309.11,1558.8,329.38z"></path>
&#x9;&#x9;&#x9;&#x9;</g>
&#x9;&#x9;&#x9;</g>
&#x9;&#x9;&#x9;<path fill="#0840A3" d="M1544.54,375.21H360.6v-40.39c0-16.51,13.38-29.89,29.89-29.89h1124.16c16.51,0,29.89,13.38,29.89,29.89&#xA;&#x9;&#x9;&#x9;&#x9;V375.21z"></path>
&#x9;&#x9;&#x9;
&#x9;&#x9;&#x9;&#x9;<linearGradient id="SVGID_00000163038491188221399810000005816309246312952765_" gradientUnits="userSpaceOnUse" x1="1147.0487" y1="264.5768" x2="1147.0487" y2="1125.3003">
&#x9;&#x9;&#x9;&#x9;<stop offset="0.2896" style="stop-color:#C9E5F8"></stop>
&#x9;&#x9;&#x9;&#x9;<stop offset="0.4827" style="stop-color:#D6EBF9;stop-opacity:0.6137"></stop>
&#x9;&#x9;&#x9;&#x9;<stop offset="0.7895" style="stop-color:#F3F7FB;stop-opacity:0"></stop>
&#x9;&#x9;&#x9;&#x9;<stop offset="0.9532" style="stop-color:#F3F7FA;stop-opacity:0"></stop>
&#x9;&#x9;&#x9;</linearGradient>
&#x9;&#x9;&#x9;<path fill="url(#SVGID_00000163038491188221399810000005816309246312952765_)" d="M1147.05,860.12L1147.05,860.12&#xA;&#x9;&#x9;&#x9;&#x9;c-1.78,0-3.23-1.45-3.23-3.23V401.62c0-1.78,1.45-3.23,3.23-3.23l0,0c1.78,0,3.23,1.45,3.23,3.23v455.27&#xA;&#x9;&#x9;&#x9;&#x9;C1150.28,858.68,1148.83,860.12,1147.05,860.12z"></path>
&#x9;&#x9;&#x9;
&#x9;&#x9;&#x9;&#x9;<linearGradient id="SVGID_00000054953372505690736910000009904974415389802427_" gradientUnits="userSpaceOnUse" x1="761.0061" y1="264.5768" x2="761.0061" y2="1125.3003">
&#x9;&#x9;&#x9;&#x9;<stop offset="0.2896" style="stop-color:#C9E5F8"></stop>
&#x9;&#x9;&#x9;&#x9;<stop offset="0.4827" style="stop-color:#D6EBF9;stop-opacity:0.6137"></stop>
&#x9;&#x9;&#x9;&#x9;<stop offset="0.7895" style="stop-color:#F3F7FB;stop-opacity:0"></stop>
&#x9;&#x9;&#x9;&#x9;<stop offset="0.9532" style="stop-color:#F3F7FA;stop-opacity:0"></stop>
&#x9;&#x9;&#x9;</linearGradient>
&#x9;&#x9;&#x9;<path fill="url(#SVGID_00000054953372505690736910000009904974415389802427_)" d="M761.01,860.12L761.01,860.12&#xA;&#x9;&#x9;&#x9;&#x9;c-1.78,0-3.23-1.45-3.23-3.23V401.62c0-1.78,1.45-3.23,3.23-3.23h0c1.78,0,3.23,1.45,3.23,3.23v455.27&#xA;&#x9;&#x9;&#x9;&#x9;C764.24,858.68,762.79,860.12,761.01,860.12z"></path>
&#x9;&#x9;</g>
&#x9;&#x9;<g id="digit_x5f_2">
&#x9;&#x9;</g>
&#x9;</g>
</g>
<g id="part_3">
&#x9;<g id="nmbr">
&#x9;&#x9;<text transform="matrix(1 0 0 1 392.325 523.2764)" fill="#0840A3" font-family="DM Sans" font-size="40px"> Wait to debrief</text>
&#x9;</g>
&#x9;<g id="nmbr_2">
&#x9;&#x9;<text transform="matrix(1 0 0 1 403.2449 680.1915)" fill="#6084F0" font-family="DM Sans" font-size="40px"> Shout at crew</text>
&#x9;</g>
</g>
<g id="part_4">
&#x9;<g id="digit_x5f_2_2">
&#x9;&#x9;<text transform="matrix(1 0 0 1 853.0359 520.7888)" fill="#0F2B5F" font-family="DM Sans" font-size="30.3135px">Positive (+)</text>
&#x9;</g>
&#x9;<g id="digit_x5f_2_3">
&#x9;&#x9;<text transform="matrix(1 0 0 1 846.033 677.7038)" fill="#0F2B5F" font-family="DM Sans" font-size="30.3135px">Negative (-)</text>
&#x9;</g>
&#x9;<g id="digit_x5f_2_4">
&#x9;&#x9;<text transform="matrix(1 0 0 1 1233.5247 520.7889)" fill="#0F2B5F" font-family="DM Sans" font-size="30.3135px">Rational solving</text>
&#x9;</g>
&#x9;<g id="digit_x5f_2_5">
&#x9;&#x9;<text transform="matrix(1 0 0 1 1227.675 677.7039)" fill="#0F2B5F" font-family="DM Sans" font-size="30.3135px">Aggressive push</text>
&#x9;</g>
</g>
<g id="part_5">
&#x9;<g id="location">
&#x9;&#x9;<text transform="matrix(1 0 0 1 495.1092 350.8327)" fill="#FFFFFF" font-family="DM Sans" font-size="30px">Action</text>
&#x9;</g>
</g>
<g id="part_6">
&#x9;<g id="observation">
&#x9;&#x9;<text transform="matrix(1 0 0 1 819.4651 350.8327)" fill="#FFFFFF" font-family="DM Sans" font-size="30px">Behaviour Type</text>
&#x9;</g>
&#x9;<g id="observation_2">
&#x9;&#x9;<text transform="matrix(1 0 0 1 1236.0383 350.8327)" fill="#FFFFFF" font-family="DM Sans" font-size="30px">Influence style</text>
&#x9;</g>
</g>
<g id="part_7">
&#x9;
&#x9;&#x9;
</g>
<g id="ch4_x5f_bg">
&#x9;<g>
&#x9;&#x9;<g>
&#x9;&#x9;&#x9;<g>
&#x9;&#x9;&#x9;&#x9;
&#x9;&#x9;&#x9;&#x9;&#x9;<rect x="1352.26" y="920" fill="#F4F6F9" stroke="#0840A5" stroke-width="0.75" stroke-miterlimit="10" width="34.18" height="61.03"></rect>
&#x9;&#x9;&#x9;&#x9;
&#x9;&#x9;&#x9;&#x9;&#x9;<rect x="1407.1" y="940.45" fill="#F4F6F9" stroke="#0840A5" stroke-width="0.75" stroke-miterlimit="10" width="72.04" height="42.1"></rect>
&#x9;&#x9;&#x9;&#x9;<path fill="#F4F6F9" stroke="#0840A5" stroke-width="0.75" stroke-miterlimit="10" d="M1320.52,1019.6c0,0-1.46-41.99,0-40.52&#xA;&#x9;&#x9;&#x9;&#x9;&#x9;s157.21,0,157.21,0l29.78,11.72h82.51l36.62,30.76h-306.62"></path>
&#x9;&#x9;&#x9;&#x9;<rect x="1414.26" y="952.39" fill="#18469D" width="13.67" height="10.85"></rect>
&#x9;&#x9;&#x9;&#x9;<rect x="1434.23" y="951.74" fill="#18469D" width="14.76" height="11.28"></rect>
&#x9;&#x9;&#x9;&#x9;<circle fill="#18469D" cx="1353.83" cy="998.07" r="3.8"></circle>
&#x9;&#x9;&#x9;&#x9;<circle fill="#18469D" cx="1381.71" cy="998.07" r="3.8"></circle>
&#x9;&#x9;&#x9;&#x9;<circle fill="#18469D" cx="1412.31" cy="998.07" r="3.8"></circle>
&#x9;&#x9;&#x9;&#x9;<circle fill="#18469D" cx="1532.96" cy="999.26" r="3.8"></circle>
&#x9;&#x9;&#x9;&#x9;<circle fill="#18469D" cx="1560.74" cy="999.26" r="3.8"></circle>
&#x9;&#x9;&#x9;&#x9;<g>
&#x9;&#x9;&#x9;&#x9;&#x9;
&#x9;&#x9;&#x9;&#x9;&#x9;&#x9;<rect x="1541.94" y="964.85" transform="matrix(-1 -4.484869e-11 4.484869e-11 -1 3092.5847 1954.9116)" fill="#C2E5F7" stroke="#0840A5" stroke-width="0.75" stroke-linecap="round" stroke-miterlimit="10" width="8.7" height="25.22"></rect>
&#x9;&#x9;&#x9;&#x9;&#x9;<path fill="#C2E5F7" stroke="#0840A5" stroke-width="0.75" stroke-linecap="round" stroke-miterlimit="10" d="M1533.24,964.6&#xA;&#x9;&#x9;&#x9;&#x9;&#x9;&#x9;h5.8v-12.86h-5.8c-2.92,0-5.3,2.37-5.3,5.3v2.27C1527.95,962.22,1530.32,964.6,1533.24,964.6z"></path>
&#x9;&#x9;&#x9;&#x9;&#x9;<path fill="#C2E5F7" stroke="#0840A5" stroke-width="0.75" stroke-linecap="round" stroke-miterlimit="10" d="M1534.68,968.38&#xA;&#x9;&#x9;&#x9;&#x9;&#x9;&#x9;c5.71-0.94,11.28-0.83,16.49-0.09c18.13,2.56,31.92,12.7,31.92,12.7l-0.84-49.1c-8.78,7.75-20.88,11.83-30.68,13.98&#xA;&#x9;&#x9;&#x9;&#x9;&#x9;&#x9;c-9.54,2.09-16.9,2.33-16.9,2.33C1529.29,959.47,1534.68,968.38,1534.68,968.38z"></path>
&#x9;&#x9;&#x9;&#x9;&#x9;<path fill="#C2E5F7" stroke="#0840A5" stroke-width="0.75" stroke-linecap="round" stroke-miterlimit="10" d="M1576.37,956.58&#xA;&#x9;&#x9;&#x9;&#x9;&#x9;&#x9;c0.25,11.21,2.7,20.61,5.82,23.38c0.62,0.56,1.28,0.86,1.94,0.84c3.99-0.09,6.99-11.08,6.69-24.54&#xA;&#x9;&#x9;&#x9;&#x9;&#x9;&#x9;c-0.29-13.47-3.77-24.31-7.76-24.23c-0.73,0.02-1.43,0.4-2.09,1.11C1578.08,936.25,1576.13,945.58,1576.37,956.58z"></path>
&#x9;&#x9;&#x9;&#x9;&#x9;<path fill="#386EC1" d="M1576.37,956.58c0.05,2.46,0.21,4.83,0.46,7.06c0.9,7.96,2.93,14.16,5.36,16.32&#xA;&#x9;&#x9;&#x9;&#x9;&#x9;&#x9;c2.9-3.11,4.84-12.45,4.6-23.44c-0.25-11.22-2.7-20.61-5.82-23.38c-2.4,2.58-4.15,9.43-4.55,17.97&#xA;&#x9;&#x9;&#x9;&#x9;&#x9;&#x9;C1576.34,952.87,1576.33,954.7,1576.37,956.58z"></path>
&#x9;&#x9;&#x9;&#x9;&#x9;<path fill="#C2E5F7" stroke="#0840A5" stroke-width="0.75" stroke-linecap="round" stroke-miterlimit="10" d="M1576.37,956.58&#xA;&#x9;&#x9;&#x9;&#x9;&#x9;&#x9;c0.05,2.46,0.21,4.83,0.46,7.06c0.55,0.17,1.12,0.26,1.71,0.25c3.25-0.07,5.82-3.07,5.74-6.7c-0.08-3.63-2.78-6.52-6.03-6.45&#xA;&#x9;&#x9;&#x9;&#x9;&#x9;&#x9;c-0.64,0.01-1.26,0.14-1.83,0.37C1576.34,952.87,1576.33,954.7,1576.37,956.58z"></path>
&#x9;&#x9;&#x9;&#x9;&#x9;<path fill="#386EC1" d="M1534.83,968.1c5.66-0.92,11.17-0.81,16.34-0.09c-4.84-9.48-1.69-17.98,0.4-21.91&#xA;&#x9;&#x9;&#x9;&#x9;&#x9;&#x9;c-9.45,2.05-16.74,2.28-16.74,2.28C1529.5,959.4,1534.83,968.1,1534.83,968.1z"></path>
&#x9;&#x9;&#x9;&#x9;</g>
&#x9;&#x9;&#x9;</g>
&#x9;&#x9;&#x9;
&#x9;&#x9;&#x9;&#x9;<rect x="1318.57" y="1020.58" fill="#F4F6F9" stroke="#0840A5" stroke-width="0.75" stroke-miterlimit="10" width="502.89" height="8.79"></rect>
&#x9;&#x9;&#x9;
&#x9;&#x9;&#x9;&#x9;<rect x="1318.57" y="952.21" fill="#F4F6F9" stroke="#0840A5" stroke-width="0.75" stroke-miterlimit="10" width="502.89" height="8.79"></rect>
&#x9;&#x9;</g>
&#x9;&#x9;
&#x9;&#x9;&#x9;<rect x="1608.14" y="961.05" fill="#F4F6F9" stroke="#0840A5" stroke-width="0.75" stroke-miterlimit="10" width="7.37" height="60.61"></rect>
&#x9;&#x9;
&#x9;&#x9;&#x9;<rect x="1524.35" y="961.05" fill="#F4F6F9" stroke="#0840A5" stroke-width="0.75" stroke-miterlimit="10" width="7.37" height="60.61"></rect>
&#x9;&#x9;
&#x9;&#x9;&#x9;<rect x="1392.31" y="961.05" fill="#F4F6F9" stroke="#0840A5" stroke-width="0.75" stroke-miterlimit="10" width="7.37" height="60.61"></rect>
&#x9;&#x9;
&#x9;&#x9;&#x9;<rect x="1716.05" y="961.05" fill="#F4F6F9" stroke="#0840A5" stroke-width="0.75" stroke-miterlimit="10" width="7.37" height="60.61"></rect>
&#x9;&#x9;
&#x9;&#x9;&#x9;<rect x="1777.05" y="961.05" fill="#F4F6F9" stroke="#0840A5" stroke-width="0.75" stroke-miterlimit="10" width="7.37" height="60.61"></rect>
&#x9;</g>
</g>
<g id="ch4_x5f_leg2">
&#x9;<g>
&#x9;&#x9;<g>
&#x9;&#x9;&#x9;<g>
&#x9;&#x9;&#x9;&#x9;<path fill="#1B1959" d="M1650.1,1019.23c0,0-0.15,3.55-3.09,4.94c-2.93,1.39-12.05,4.02-12.97,7.1&#xA;&#x9;&#x9;&#x9;&#x9;&#x9;c-0.93,3.09,0.15,4.79,0.15,4.79s9.57,1.85,21-0.77c0,0,1.08-1.54,2.93-1.7c1.85-0.15,2.16,2.16,2.16,2.16s7.41,0.46,9.11-1.54&#xA;&#x9;&#x9;&#x9;&#x9;&#x9;c0,0,0.46-15.13,0.31-14.52S1650.1,1019.23,1650.1,1019.23z"></path>
&#x9;&#x9;&#x9;&#x9;
&#x9;&#x9;&#x9;&#x9;&#x9;<linearGradient id="SVGID_00000094594400551677450590000016262507599372394892_" gradientUnits="userSpaceOnUse" x1="1660.5626" y1="925.5789" x2="1660.8481" y2="1016.9357">
&#x9;&#x9;&#x9;&#x9;&#x9;<stop offset="0.1909" style="stop-color:#C5E2F9"></stop>
&#x9;&#x9;&#x9;&#x9;&#x9;<stop offset="0.2977" style="stop-color:#D1E7F9"></stop>
&#x9;&#x9;&#x9;&#x9;&#x9;<stop offset="0.5281" style="stop-color:#E4EFF9"></stop>
&#x9;&#x9;&#x9;&#x9;&#x9;<stop offset="0.7614" style="stop-color:#F0F4F9"></stop>
&#x9;&#x9;&#x9;&#x9;&#x9;<stop offset="1" style="stop-color:#F4F6F9"></stop>
&#x9;&#x9;&#x9;&#x9;</linearGradient>
&#x9;&#x9;&#x9;&#x9;
&#x9;&#x9;&#x9;&#x9;&#x9;<path fill="url(#SVGID_00000094594400551677450590000016262507599372394892_)" stroke="#0840A5" stroke-width="0.75" stroke-linecap="round" stroke-linejoin="round" stroke-miterlimit="10" d="&#xA;&#x9;&#x9;&#x9;&#x9;&#x9;M1645.47,934.76c-0.28,0.37,3.24,85.09,3.24,85.09s14.52,5.1,23.32,1.39c0,0,3.86-84.94,3.71-84.47&#xA;&#x9;&#x9;&#x9;&#x9;&#x9;S1656.12,921.01,1645.47,934.76z"></path>
&#x9;&#x9;&#x9;</g>
&#x9;&#x9;</g>
&#x9;&#x9;<path fill="#71AFD8" d="M1647.71,986.81c3.09,0.89,15.76,2.6,25.46-1.04l-0.46,9.18c0,0-15.99,3.87-24.48,0.69L1647.71,986.81z"></path>
&#x9;</g>
</g>
<g id="ch4_x5f_leg1">
&#x9;<g>
&#x9;&#x9;<g>
&#x9;&#x9;&#x9;<path fill="#1B1959" d="M1687.47,1021.08v14.36c0,0,3.55,4.17,13.74,4.79c10.19,0.62,12.82-1.08,12.51-3.55&#xA;&#x9;&#x9;&#x9;&#x9;s-7.72-8.34-8.03-11.43c-0.31-3.09-0.62-5.25-0.62-5.25L1687.47,1021.08z"></path>
&#x9;&#x9;&#x9;
&#x9;&#x9;&#x9;&#x9;<linearGradient id="SVGID_00000089558024818804966900000009636852194443544200_" gradientUnits="userSpaceOnUse" x1="1684.6239" y1="925.5037" x2="1684.9094" y2="1016.8605">
&#x9;&#x9;&#x9;&#x9;<stop offset="0.1909" style="stop-color:#C5E2F9"></stop>
&#x9;&#x9;&#x9;&#x9;<stop offset="0.2977" style="stop-color:#D1E7F9"></stop>
&#x9;&#x9;&#x9;&#x9;<stop offset="0.5281" style="stop-color:#E4EFF9"></stop>
&#x9;&#x9;&#x9;&#x9;<stop offset="0.7614" style="stop-color:#F0F4F9"></stop>
&#x9;&#x9;&#x9;&#x9;<stop offset="1" style="stop-color:#F4F6F9"></stop>
&#x9;&#x9;&#x9;</linearGradient>
&#x9;&#x9;&#x9;
&#x9;&#x9;&#x9;&#x9;<path fill="url(#SVGID_00000089558024818804966900000009636852194443544200_)" stroke="#0840A5" stroke-width="0.75" stroke-linecap="round" stroke-linejoin="round" stroke-miterlimit="10" d="&#xA;&#x9;&#x9;&#x9;&#x9;M1668.1,946.93c2.16,1.1,7.63,3.89,7.63,3.89l9.11,71.35c0,0,15.75,4.17,23.32-0.93l-0.93-94.98c0,0-45.53-3.08-45.86-2.63"></path>
&#x9;&#x9;</g>
&#x9;&#x9;<path fill="#71AFD8" d="M1680.96,988.54c3.09,0.89,16.68,2.48,26.38-1.15l0.17,8.37c0,0-16.97,4.27-25.46,1.1L1680.96,988.54z"></path>
&#x9;</g>
</g>
<g id="ch4_x5f_torso">
&#x9;<g>
&#x9;&#x9;<g>
&#x9;&#x9;&#x9;
&#x9;&#x9;&#x9;&#x9;<linearGradient id="SVGID_00000035490193877350780630000013911510289063755679_" gradientUnits="userSpaceOnUse" x1="1676.3239" y1="837.947" x2="1676.3239" y2="945.3536">
&#x9;&#x9;&#x9;&#x9;<stop offset="0.1909" style="stop-color:#C5E2F9"></stop>
&#x9;&#x9;&#x9;&#x9;<stop offset="0.2977" style="stop-color:#D1E7F9"></stop>
&#x9;&#x9;&#x9;&#x9;<stop offset="0.5281" style="stop-color:#E4EFF9"></stop>
&#x9;&#x9;&#x9;&#x9;<stop offset="0.7614" style="stop-color:#F0F4F9"></stop>
&#x9;&#x9;&#x9;&#x9;<stop offset="1" style="stop-color:#F4F6F9"></stop>
&#x9;&#x9;&#x9;</linearGradient>
&#x9;&#x9;&#x9;
&#x9;&#x9;&#x9;&#x9;<path fill="url(#SVGID_00000035490193877350780630000013911510289063755679_)" stroke="#0840A5" stroke-width="0.75" stroke-linecap="round" stroke-linejoin="round" stroke-miterlimit="10" d="&#xA;&#x9;&#x9;&#x9;&#x9;M1688.4,936.7c9.28-0.63,19.53-1.32,20.75-1.87c1.3-0.58,2.07-1.93,1.94-3.35c-0.47-4.78-1.74-18.02-1.99-22.04&#xA;&#x9;&#x9;&#x9;&#x9;c-0.26-4.1-0.62-42.27-0.74-55.11c-0.02-2.72-1.75-5.12-4.31-6c-3.29-1.14-8.71-2.62-17.03-3.9&#xA;&#x9;&#x9;&#x9;&#x9;c-16.06-2.47-22.39-1.54-22.39-1.54s-16.83,4.63-19,7.57c-2.16,2.93-0.62,20.23-0.46,32.43s-0.77,33.05-2.01,37.53&#xA;&#x9;&#x9;&#x9;&#x9;c-1.24,4.48-2.47,10.81-0.77,12.51c0.91,0.91,20.09,2.4,33.55,3.59L1688.4,936.7z"></path>
&#x9;&#x9;&#x9;<g>
&#x9;&#x9;&#x9;&#x9;<path fill="#FAFAFF" stroke="#0840A5" stroke-width="0.75" stroke-linecap="round" stroke-miterlimit="10" d="M1669.56,928.89&#xA;&#x9;&#x9;&#x9;&#x9;&#x9;c0,0-0.77-46.18,1.08-60.23"></path>
&#x9;&#x9;&#x9;</g>
&#x9;&#x9;</g>
&#x9;&#x9;<path fill="#71AFD8" d="M1702.2,848.04c-1,3.08-2.34,7.74-2.76,11.64l-5.08-0.24c0,0,1.09-7.16,2.83-12.6&#xA;&#x9;&#x9;&#x9;C1697.9,846.99,1700.69,847.55,1702.2,848.04z"></path>
&#x9;&#x9;<path fill="#71AFD8" d="M1656.57,845.8c-0.88,2.79-1.82,6.33-2.16,9.49l-5.16,0.83c0,0,0.58-3.86,1.56-8.1&#xA;&#x9;&#x9;&#x9;C1652.43,847.36,1654.9,846.37,1656.57,845.8z"></path>
&#x9;</g>
</g>
<g id="ch4_x5f_bisep2">
&#x9;<g>
&#x9;&#x9;
&#x9;&#x9;&#x9;<linearGradient id="SVGID_00000026148659804942732850000003483505709584193158_" gradientUnits="userSpaceOnUse" x1="1874.7433" y1="898.7891" x2="2030.045" y2="762.5363" gradientTransform="matrix(0.9716 0.2369 -0.2368 0.9715 19.1232 -428.907)">
&#x9;&#x9;&#x9;<stop offset="0.1909" style="stop-color:#C5E2F9"></stop>
&#x9;&#x9;&#x9;<stop offset="0.2977" style="stop-color:#D1E7F9"></stop>
&#x9;&#x9;&#x9;<stop offset="0.5281" style="stop-color:#E4EFF9"></stop>
&#x9;&#x9;&#x9;<stop offset="0.7614" style="stop-color:#F0F4F9"></stop>
&#x9;&#x9;&#x9;<stop offset="1" style="stop-color:#F4F6F9"></stop>
&#x9;&#x9;</linearGradient>
&#x9;&#x9;
&#x9;&#x9;&#x9;<path fill="url(#SVGID_00000026148659804942732850000003483505709584193158_)" stroke="#0840A5" stroke-width="0.75" stroke-linecap="round" stroke-linejoin="round" stroke-miterlimit="10" d="&#xA;&#x9;&#x9;&#x9;M1649.88,851.16c0,0-8.34-4.3-13.49,11.91c-5.15,16.2-12.6,47.04-1.88,48.69s12.02-19.7,12.02-19.7l5.42-34.41&#xA;&#x9;&#x9;&#x9;c0.38-2.43,0.28-7.73-1.39-9.35L1649.88,851.16z"></path>
&#x9;&#x9;<g>
&#x9;&#x9;&#x9;<path fill="#71AFD8" d="M1648.13,879.23l-0.96,6.66c0,0-8.66,0.29-15.97-1.31l1.41-6.43&#xA;&#x9;&#x9;&#x9;&#x9;C1636.57,878.99,1642.03,880.62,1648.13,879.23z"></path>
&#x9;&#x9;</g>
&#x9;</g>
</g>
<g id="ch4_x5f_head">
&#x9;<g>
&#x9;&#x9;<g>
&#x9;&#x9;&#x9;<g>
&#x9;&#x9;&#x9;&#x9;<polygon fill="#71AFD8" points="1665.54,856 1665.76,856.53 1670.64,868.66 1683.92,847.19 1663.07,846.88 &#x9;&#x9;&#x9;&#x9;"></polygon>
&#x9;&#x9;&#x9;</g>
&#x9;&#x9;&#x9;<path fill="#FDFDFF" stroke="#0840A5" stroke-width="0.75" stroke-linecap="round" stroke-miterlimit="10" d="M1687.65,823.6&#xA;&#x9;&#x9;&#x9;&#x9;v17.48c0,0-1.96,8.55-11.07,10.75c-9.11,2.2-12.59-4.72-12.59-4.72l0-11.37C1663.99,835.75,1673.41,822.03,1687.65,823.6z"></path>
&#x9;&#x9;&#x9;<path fill="#FDFDFF" stroke="#0840A5" stroke-width="0.75" stroke-linecap="round" stroke-miterlimit="10" d="M1687.65,812.82&#xA;&#x9;&#x9;&#x9;&#x9;c0,0,0.15-0.09,0.42-0.22c1.19-0.57,4.63-1.9,6.6,0.84c2.41,3.35-1.26,11.2-7.01,10.57c0,0-0.63,9-10.05,14.03&#xA;&#x9;&#x9;&#x9;&#x9;c-9.42,5.02-20.62,1.88-23.87-3.98c-2.48-4.48-3.87-14.34-3.77-31.2l0.73-4.71c0,0,7.22-9.95,23.66-5.23&#xA;&#x9;&#x9;&#x9;&#x9;C1690.79,797.64,1687.65,812.82,1687.65,812.82z"></path>
&#x9;&#x9;&#x9;<path fill="#1B1959" d="M1646.39,784.65c0,0-1.54,3.55-0.31,6.64c1.24,3.09,4.61,6.87,4.61,6.87l4.81-3.32&#xA;&#x9;&#x9;&#x9;&#x9;c0,0,11.89,4.02,24.71,0.46c0,0,2.16,2.78,2.47,4.32c0.31,1.54,0,5.56,0,5.56s1.39,0.31,1.85,1.7c0.46,1.39,0,8.8,0,8.8&#xA;&#x9;&#x9;&#x9;&#x9;l2.32,0.31l6.49-3.86l1.24-15.91c0,0,0.77-3.55-5.71-5.56c0,0-1.7-5.25-7.57-5.71c-5.87-0.46-19.92-2.01-22.24-5.41&#xA;&#x9;&#x9;&#x9;&#x9;c0,0-4.17,2.47-2.78,7.26C1656.28,786.81,1647.63,783.57,1646.39,784.65z"></path>
&#x9;&#x9;&#x9;
&#x9;&#x9;&#x9;&#x9;<linearGradient id="SVGID_00000044891076579887466560000001222530553160910756_" gradientUnits="userSpaceOnUse" x1="1661.605" y1="834.1499" x2="1661.605" y2="922.4845">
&#x9;&#x9;&#x9;&#x9;<stop offset="0.1909" style="stop-color:#C5E2F9"></stop>
&#x9;&#x9;&#x9;&#x9;<stop offset="0.2977" style="stop-color:#D1E7F9"></stop>
&#x9;&#x9;&#x9;&#x9;<stop offset="0.5281" style="stop-color:#E4EFF9"></stop>
&#x9;&#x9;&#x9;&#x9;<stop offset="0.7614" style="stop-color:#F0F4F9"></stop>
&#x9;&#x9;&#x9;&#x9;<stop offset="1" style="stop-color:#F4F6F9"></stop>
&#x9;&#x9;&#x9;</linearGradient>
&#x9;&#x9;&#x9;
&#x9;&#x9;&#x9;&#x9;<polygon fill="url(#SVGID_00000044891076579887466560000001222530553160910756_)" stroke="#0840A5" stroke-width="0.75" stroke-linecap="round" stroke-linejoin="round" stroke-miterlimit="10" points="&#xA;&#x9;&#x9;&#x9;&#x9;1663.38,842.87 1658.44,846.11 1657.05,861.09 1666.16,856.77 &#x9;&#x9;&#x9;"></polygon>
&#x9;&#x9;&#x9;
&#x9;&#x9;&#x9;&#x9;<linearGradient id="SVGID_00000023283156914999111570000016939154596415531399_" gradientUnits="userSpaceOnUse" x1="1683.9977" y1="834.1499" x2="1683.9977" y2="922.4845">
&#x9;&#x9;&#x9;&#x9;<stop offset="0.1909" style="stop-color:#C5E2F9"></stop>
&#x9;&#x9;&#x9;&#x9;<stop offset="0.2977" style="stop-color:#D1E7F9"></stop>
&#x9;&#x9;&#x9;&#x9;<stop offset="0.5281" style="stop-color:#E4EFF9"></stop>
&#x9;&#x9;&#x9;&#x9;<stop offset="0.7614" style="stop-color:#F0F4F9"></stop>
&#x9;&#x9;&#x9;&#x9;<stop offset="1" style="stop-color:#F4F6F9"></stop>
&#x9;&#x9;&#x9;</linearGradient>
&#x9;&#x9;&#x9;
&#x9;&#x9;&#x9;&#x9;<path fill="url(#SVGID_00000023283156914999111570000016939154596415531399_)" stroke="#0840A5" stroke-width="0.75" stroke-linecap="round" stroke-linejoin="round" stroke-miterlimit="10" d="&#xA;&#x9;&#x9;&#x9;&#x9;M1692.41,845.65c0,0-4.94-6.49-5.1-6.02c-0.15,0.46-11.74,19.77-11.74,19.77s3.71-2.47,5.71-2.01c2.01,0.46,6.64,4.79,6.64,4.79&#xA;&#x9;&#x9;&#x9;&#x9;L1692.41,845.65z"></path>
&#x9;&#x9;</g>
&#x9;&#x9;<ellipse fill="#1B1959" cx="1667.08" cy="813.5" rx="1.1" ry="2.04"></ellipse>
&#x9;&#x9;<ellipse fill="#1B1959" cx="1653.58" cy="813.5" rx="1.1" ry="2.04"></ellipse>
&#x9;&#x9;<path fill="#FAFAFF" stroke="#0840A5" stroke-width="0.75" stroke-linecap="round" stroke-miterlimit="10" d="M1662.96,807.31&#xA;&#x9;&#x9;&#x9;c0,0,4.34,2.42,10,0.08"></path>
&#x9;&#x9;<path fill="#FAFAFF" stroke="#0840A5" stroke-width="0.75" stroke-linecap="round" stroke-miterlimit="10" d="M1650.09,807.69&#xA;&#x9;&#x9;&#x9;c0,0,4.12,1.93,7.44,0.05"></path>
&#x9;&#x9;<path fill="#FAFAFF" stroke="#0840A5" stroke-width="0.75" stroke-linecap="round" stroke-miterlimit="10" d="M1657.92,811.56&#xA;&#x9;&#x9;&#x9;c0,0-0.18,6.36-2.72,10.56c-0.46,0.76-0.25,1.74,0.51,2.19c0.97,0.56,2.59,1.03,5.14,0.54"></path>
&#x9;&#x9;<path fill="#1B1959" d="M1657.06,832.22c0.35-0.13,4.9-2.92,10.86-0.84"></path>
&#x9;</g>
</g>
<g id="ch4_x5f_palm2">
&#x9;<path fill="#FDFDFF" stroke="#0840A5" stroke-width="0.75" stroke-linecap="round" stroke-miterlimit="10" d="M1684.85,882.24&#xA;&#x9;&#x9;c0.58-0.16,6.26-0.69,10.51,0.16c5.55,1.1,7.44,5.5,7.44,5.5l-1.46,7.54l-12.85-1.26L1684.85,882.24z"></path>
</g>
<g id="ch4_x5f_palm1">
&#x9;<g>
&#x9;&#x9;<path fill="#FDFDFF" stroke="#0840A5" stroke-width="0.75" stroke-linecap="round" stroke-miterlimit="10" d="M1647.48,876.43&#xA;&#x9;&#x9;&#x9;l0.58,16.02c0,0,5.69,3.46,8.76,2.51c3.07-0.94,4.53-6.13,3.5-8.17c-0.78-1.55-6.96-7.01-10.52-9.33&#xA;&#x9;&#x9;&#x9;C1648.69,876.74,1647.83,876.32,1647.48,876.43z"></path>
&#x9;&#x9;<path fill="#FDFDFF" stroke="#0840A5" stroke-width="0.75" stroke-linecap="round" stroke-miterlimit="10" d="M1650.79,878.27&#xA;&#x9;&#x9;&#x9;c-0.58-0.46-1.55-1.13-1.55-1.13s-4.96-2.98-8.32-2.04c-3.36,0.94-4.6,3.85-4.09,5.5c0,0-1.61,1.88,0.15,4.48&#xA;&#x9;&#x9;&#x9;c0,0-0.07,3.14,1.9,3.61c0,0-0.1,0.65,0.09,1.37c0.3,1.17,1.57,1.72,2.55,1.13c0.7-0.42,1.66-0.89,2.47-0.93&#xA;&#x9;&#x9;&#x9;c1.46-0.08,4.53,2.51,4.53,2.51s0.36-0.22,0.85-0.8"></path>
&#x9;&#x9;<path fill="#FDFDFF" stroke="#0840A5" stroke-width="0.75" stroke-linecap="round" stroke-miterlimit="10" d="M1647.12,886.17&#xA;&#x9;&#x9;&#x9;l-2.96-0.06c-0.5-0.01-1,0.12-1.44,0.37l-3.85,2.2"></path>
&#x9;&#x9;<path fill="#FDFDFF" stroke="#0840A5" stroke-width="0.75" stroke-linecap="round" stroke-miterlimit="10" d="M1646.24,882.48&#xA;&#x9;&#x9;&#x9;l-3.22,0.07c-0.43,0.01-0.85,0.11-1.25,0.29l-4.8,2.24"></path>
&#x9;&#x9;<path fill="#FDFDFF" stroke="#0840A5" stroke-width="0.75" stroke-linecap="round" stroke-miterlimit="10" d="M1646.24,879.02&#xA;&#x9;&#x9;&#x9;l-3.79-0.25c-0.58-0.04-1.17,0.05-1.72,0.27l-3.91,1.55"></path>
&#x9;</g>
</g>
<g id="ch4_x5f_arm2">
&#x9;
&#x9;&#x9;<linearGradient id="SVGID_00000003093970572192138250000005840896633329183913_" gradientUnits="userSpaceOnUse" x1="1718.3405" y1="931.1886" x2="1611.8754" y2="836.8525">
&#x9;&#x9;<stop offset="0.1909" style="stop-color:#C5E2F9"></stop>
&#x9;&#x9;<stop offset="0.2977" style="stop-color:#D1E7F9"></stop>
&#x9;&#x9;<stop offset="0.5281" style="stop-color:#E4EFF9"></stop>
&#x9;&#x9;<stop offset="0.7614" style="stop-color:#F0F4F9"></stop>
&#x9;&#x9;<stop offset="1" style="stop-color:#F4F6F9"></stop>
&#x9;</linearGradient>
&#x9;
&#x9;&#x9;<path fill="url(#SVGID_00000003093970572192138250000005840896633329183913_)" stroke="#0840A5" stroke-width="0.75" stroke-linecap="round" stroke-linejoin="round" stroke-miterlimit="10" d="&#xA;&#x9;&#x9;M1701.9,894.48c-13.85-4.46-37.49-7.05-37.49-7.05l-3.8,14.76c0,0,33.12,14.52,52.83,10.91c0.9-0.38,0.56-0.25,0.54-0.31"></path>
</g>
<g id="ch4_x5f_arm1">
&#x9;
&#x9;&#x9;<linearGradient id="SVGID_00000150061967428726193720000006595838429214452146_" gradientUnits="userSpaceOnUse" x1="1641.9894" y1="913.3009" x2="1794.8907" y2="779.154">
&#x9;&#x9;<stop offset="0.1909" style="stop-color:#C5E2F9"></stop>
&#x9;&#x9;<stop offset="0.2977" style="stop-color:#D1E7F9"></stop>
&#x9;&#x9;<stop offset="0.5281" style="stop-color:#E4EFF9"></stop>
&#x9;&#x9;<stop offset="0.7614" style="stop-color:#F0F4F9"></stop>
&#x9;&#x9;<stop offset="1" style="stop-color:#F4F6F9"></stop>
&#x9;</linearGradient>
&#x9;
&#x9;&#x9;<path fill="url(#SVGID_00000150061967428726193720000006595838429214452146_)" stroke="#0840A5" stroke-width="0.75" stroke-linecap="round" stroke-linejoin="round" stroke-miterlimit="10" d="&#xA;&#x9;&#x9;M1631.53,910.69c1.61,1.46,5.19,3.05,13.03,2.02c13.14-1.73,44.96-16.49,44.96-16.49s0.44-13.19-6.57-16.02l-41.46,10.68&#xA;&#x9;&#x9;c0,0-2.54,0.51-5.2,2.79"></path>
</g>
<g id="ch4_x5f_bisep1">
&#x9;<g>
&#x9;&#x9;
&#x9;&#x9;&#x9;<linearGradient id="SVGID_00000044881097892293235160000013841637981299774859_" gradientUnits="userSpaceOnUse" x1="1736.9205" y1="908.157" x2="1634.0543" y2="817.0098">
&#x9;&#x9;&#x9;<stop offset="0.1909" style="stop-color:#C5E2F9"></stop>
&#x9;&#x9;&#x9;<stop offset="0.2977" style="stop-color:#D1E7F9"></stop>
&#x9;&#x9;&#x9;<stop offset="0.5281" style="stop-color:#E4EFF9"></stop>
&#x9;&#x9;&#x9;<stop offset="0.7614" style="stop-color:#F0F4F9"></stop>
&#x9;&#x9;&#x9;<stop offset="1" style="stop-color:#F4F6F9"></stop>
&#x9;&#x9;</linearGradient>
&#x9;&#x9;
&#x9;&#x9;&#x9;<path fill="url(#SVGID_00000044881097892293235160000013841637981299774859_)" stroke="#0840A5" stroke-width="0.75" stroke-linecap="round" stroke-linejoin="round" stroke-miterlimit="10" d="&#xA;&#x9;&#x9;&#x9;M1705.06,849.27c0.02-0.4,0.03-0.63,0.03-0.63s6.07,2.22,10.74,11.96c4.55,9.48,10.67,43.02-2.59,52.49&#xA;&#x9;&#x9;&#x9;c-0.71,0.51-1.6,0.72-2.46,0.58c-3.04-0.48-10.41-2.47-11.68-10.53c0,0,4.52-14.6,4.81-29.87"></path>
&#x9;&#x9;<path fill="#71AFD8" d="M1703.96,880.17c3.09,0.89,8.64,2.33,16.45,1.21l0.46,7.51c0,0-10.54,0.46-17.86-1.66L1703.96,880.17z"></path>
&#x9;</g>
</g>
<g id="ch3_x5f_hand">
&#x9;<g>
&#x9;&#x9;<g>
&#x9;&#x9;&#x9;<g>
&#x9;&#x9;&#x9;&#x9;<path fill="#F4F6F9" stroke="#0840A5" stroke-width="0.75" stroke-miterlimit="10" d="M1592.16,877.27c0,0,2.44-2.51,3.13-5.2&#xA;&#x9;&#x9;&#x9;&#x9;&#x9;c0.69-2.68-1.62-9.13-1.62-9.13s-12.58,3.75-12.46,4.17c0.12,0.42,1.87,6.46,1.87,6.46L1592.16,877.27z"></path>
&#x9;&#x9;&#x9;&#x9;<path fill="#F4F6F9" stroke="#0840A5" stroke-width="0.75" stroke-miterlimit="10" d="M1605.19,853.62&#xA;&#x9;&#x9;&#x9;&#x9;&#x9;c-0.29-0.19-39.73,11.04-39.73,11.04s-0.53,7.95,1.82,10.99c2.35,3.05,20.64,4.98,23.68,3.77s2.78-3.29,0.88-3.98&#xA;&#x9;&#x9;&#x9;&#x9;&#x9;c-1.9-0.69-7.03-2.03-6.43-5.03c0.39-1.96,2.08-4.54,7.89-5.9C1601.36,862.64,1612.32,858.34,1605.19,853.62z"></path>
&#x9;&#x9;&#x9;</g>
&#x9;&#x9;</g>
&#x9;&#x9;<g>
&#x9;&#x9;&#x9;
&#x9;&#x9;&#x9;&#x9;<linearGradient id="SVGID_00000173135800949044843480000005249267959927070652_" gradientUnits="userSpaceOnUse" x1="518.9099" y1="-56.5943" x2="490.2423" y2="155.2965" gradientTransform="matrix(0.2169 -0.9759 0.9766 0.2169 1398.174 1363.1687)">
&#x9;&#x9;&#x9;&#x9;<stop offset="0.3567" style="stop-color:#C5E2F9"></stop>
&#x9;&#x9;&#x9;&#x9;<stop offset="0.3862" style="stop-color:#CFE6F9"></stop>
&#x9;&#x9;&#x9;&#x9;<stop offset="0.4556" style="stop-color:#E0EDF9"></stop>
&#x9;&#x9;&#x9;&#x9;<stop offset="0.5421" style="stop-color:#EBF2F9"></stop>
&#x9;&#x9;&#x9;&#x9;<stop offset="0.6633" style="stop-color:#F2F5F9"></stop>
&#x9;&#x9;&#x9;&#x9;<stop offset="1" style="stop-color:#F4F6F9"></stop>
&#x9;&#x9;&#x9;</linearGradient>
&#x9;&#x9;&#x9;
&#x9;&#x9;&#x9;&#x9;<path fill="url(#SVGID_00000173135800949044843480000005249267959927070652_)" stroke="#0840A5" stroke-width="0.75" stroke-linecap="round" stroke-linejoin="round" stroke-miterlimit="10" d="&#xA;&#x9;&#x9;&#x9;&#x9;M1569.41,885.12c0,0,4.56-15.92-0.63-23.8c0,0-16.17,1.1-22.33,0.34c-6.16-0.76-34.93-10.75-42.8-13.93&#xA;&#x9;&#x9;&#x9;&#x9;c-7.87-3.18-10.08,1.98-13.13,3.75c-3.05,1.77-4.61,27.75,5.68,32.89C1506.49,889.52,1553.09,885.98,1569.41,885.12z"></path>
&#x9;&#x9;</g>
&#x9;&#x9;<path fill="none" stroke="#0840A5" stroke-width="0.75" stroke-linecap="round" stroke-miterlimit="10" d="M1557.17,883.09&#xA;&#x9;&#x9;&#x9;c0.24-3.93,0.61-14.53-1.58-21.24"></path>
&#x9;&#x9;<path fill="none" stroke="#0840A5" stroke-width="0.75" stroke-linecap="round" stroke-miterlimit="10" d="M1564.26,883.79&#xA;&#x9;&#x9;&#x9;c0.18-4.49,0.34-15.46-2.14-21.91"></path>
&#x9;</g>
</g>
<g id="ch3_x5f_leg2">
&#x9;<g>
&#x9;&#x9;<path fill="#1B1959" d="M1410.03,1024.09c0,0,0,3.98-1.39,6.77c-1.39,2.79-6.57,8.37-6.18,11.16s4.18,5.38,11.95,5.18&#xA;&#x9;&#x9;&#x9;s14.74-5.98,14.74-5.98s0.4-18.53,0.4-17.73C1429.56,1024.29,1410.03,1024.09,1410.03,1024.09z"></path>
&#x9;&#x9;<g>
&#x9;&#x9;&#x9;<path fill="#18469D" d="M1454.66,955.36l-23.31,71.32c0,0-1.59,1.39-10.16,1.79c-8.57,0.4-12.95-2.79-12.95-2.79&#xA;&#x9;&#x9;&#x9;&#x9;s5.78-24.7,7.17-41.44c1.04-12.47,2.63-30.91,3.38-39.83c0,0,2.15-16.4,19.13-17S1454.66,955.36,1454.66,955.36z"></path>
&#x9;&#x9;</g>
&#x9;</g>
</g>
<g id="ch3_x5f_leg1">
&#x9;<g>
&#x9;&#x9;<g>
&#x9;&#x9;&#x9;<g>
&#x9;&#x9;&#x9;&#x9;<path fill="#1B1959" d="M1476.77,1024.89l-0.4,16.54c0,0,7.77,1.59,12.55,0.2l1-1.39c0,0,1,0.6,4.98,1.79&#xA;&#x9;&#x9;&#x9;&#x9;&#x9;c3.98,1.2,20.32,0.6,21.52-0.8c1.2-1.39,1.2-4.58-2.19-5.78c-3.39-1.2-16.14-4.78-18.33-11.55S1476.77,1024.89,1476.77,1024.89z&#xA;&#x9;&#x9;&#x9;&#x9;&#x9;"></path>
&#x9;&#x9;&#x9;</g>
&#x9;&#x9;&#x9;<path fill="#18469D" d="M1491.42,946.16c1.31,7.82,3.04,18.69,3.28,22.95c0.4,6.97,2.59,56.58,2.59,56.58&#xA;&#x9;&#x9;&#x9;&#x9;c-9.96,5.78-22.11,0.6-22.11,0.6s-0.6-13.55-3.59-30.88s-9.16-40.64-9.16-40.64s-8.13-15.43,2-23.17&#xA;&#x9;&#x9;&#x9;&#x9;c10.13-7.75,20.56-0.6,24.13,3.28C1492.13,938.74,1491.42,946.16,1491.42,946.16z"></path>
&#x9;&#x9;</g>
&#x9;</g>
</g>
<g id="ch3_x5f_pelvis">
&#x9;<g>
&#x9;&#x9;<path fill="#18469D" d="M1491.3,945.44c-0.78-4.62-1.38-8-1.38-8l-20.12-8.37l-47.21,3.19l-3.39,6.97c0,0.14-1.7,2.09-0.21,2.75&#xA;&#x9;&#x9;&#x9;c0.75,0.34,35.65,13.45,35.65,13.45c0.02-0.05,0.02-0.07,0.02-0.07l7.77-0.6c0,0,0.03,0.11,0.08,0.32L1491.3,945.44z"></path>
&#x9;</g>
</g>
<g id="ch3_x5f_torso">
&#x9;<g>
&#x9;&#x9;<g>
&#x9;&#x9;&#x9;
&#x9;&#x9;&#x9;&#x9;<linearGradient id="SVGID_00000142168050725734186160000007637363170160874377_" gradientUnits="userSpaceOnUse" x1="1474.7424" y1="812.4908" x2="1446.1548" y2="1023.7913">
&#x9;&#x9;&#x9;&#x9;<stop offset="0.3567" style="stop-color:#C5E2F9"></stop>
&#x9;&#x9;&#x9;&#x9;<stop offset="0.3862" style="stop-color:#CFE6F9"></stop>
&#x9;&#x9;&#x9;&#x9;<stop offset="0.4556" style="stop-color:#E0EDF9"></stop>
&#x9;&#x9;&#x9;&#x9;<stop offset="0.5421" style="stop-color:#EBF2F9"></stop>
&#x9;&#x9;&#x9;&#x9;<stop offset="0.6633" style="stop-color:#F2F5F9"></stop>
&#x9;&#x9;&#x9;&#x9;<stop offset="1" style="stop-color:#F4F6F9"></stop>
&#x9;&#x9;&#x9;</linearGradient>
&#x9;&#x9;&#x9;
&#x9;&#x9;&#x9;&#x9;<path fill="url(#SVGID_00000142168050725734186160000007637363170160874377_)" stroke="#0840A5" stroke-width="0.75" stroke-linecap="round" stroke-linejoin="round" stroke-miterlimit="10" d="&#xA;&#x9;&#x9;&#x9;&#x9;M1511.4,851.31c-1.05-2.18-4.03-1.56-9.32-5.91c-6.77-5.58-28.09-12.15-28.09-12.15s-27.69,0-29.48,1.39&#xA;&#x9;&#x9;&#x9;&#x9;c-1.79,1.39-15.74,45.02-21.71,67.34c-5.98,22.31-6.97,37.85-6.97,37.85s26.89,10.36,49.41,7.77c0,0,5.18-9.16,6.97-12.55&#xA;&#x9;&#x9;&#x9;&#x9;l3.79,12.55c0,0,14.34-2.59,19.12-6.18c0,0-4.38-23.11-2.39-25.7c1.99-2.59,2.79-0.8,2.39-3.79c-0.4-2.99-1-9.96-1-9.96&#xA;&#x9;&#x9;&#x9;&#x9;s10.96-28.29,12.23-31.57"></path>
&#x9;&#x9;</g>
&#x9;&#x9;
&#x9;&#x9;&#x9;<linearGradient id="SVGID_00000005962271774827882750000004130347384119136664_" gradientUnits="userSpaceOnUse" x1="1496.4066" y1="835.7189" x2="1491.1586" y2="909.7432">
&#x9;&#x9;&#x9;<stop offset="0.3567" style="stop-color:#C5E2F9"></stop>
&#x9;&#x9;&#x9;<stop offset="0.3862" style="stop-color:#CFE6F9"></stop>
&#x9;&#x9;&#x9;<stop offset="0.4556" style="stop-color:#E0EDF9"></stop>
&#x9;&#x9;&#x9;<stop offset="0.5421" style="stop-color:#EBF2F9"></stop>
&#x9;&#x9;&#x9;<stop offset="0.6633" style="stop-color:#F2F5F9"></stop>
&#x9;&#x9;&#x9;<stop offset="1" style="stop-color:#F4F6F9"></stop>
&#x9;&#x9;</linearGradient>
&#x9;&#x9;
&#x9;&#x9;&#x9;<path fill="url(#SVGID_00000005962271774827882750000004130347384119136664_)" stroke="#0840A5" stroke-width="0.75" stroke-linecap="round" stroke-linejoin="round" stroke-miterlimit="10" d="&#xA;&#x9;&#x9;&#x9;M1501.07,844.64c0,0.6-7.76,16.69-10.55,22.27c-2.79,5.58-5.98,10.96-5.98,10.96l14.34-9.76l-1.39-6.77h5.98l0.02-15.93&#xA;&#x9;&#x9;&#x9;l-1.01-5.18L1501.07,844.64z"></path>
&#x9;&#x9;<g>
&#x9;&#x9;&#x9;
&#x9;&#x9;&#x9;&#x9;<linearGradient id="SVGID_00000155129564253046447890000012742956072914927755_" gradientUnits="userSpaceOnUse" x1="1477.491" y1="834.3779" x2="1472.2429" y2="908.4022">
&#x9;&#x9;&#x9;&#x9;<stop offset="0.3567" style="stop-color:#C5E2F9"></stop>
&#x9;&#x9;&#x9;&#x9;<stop offset="0.3862" style="stop-color:#CFE6F9"></stop>
&#x9;&#x9;&#x9;&#x9;<stop offset="0.4556" style="stop-color:#E0EDF9"></stop>
&#x9;&#x9;&#x9;&#x9;<stop offset="0.5421" style="stop-color:#EBF2F9"></stop>
&#x9;&#x9;&#x9;&#x9;<stop offset="0.6633" style="stop-color:#F2F5F9"></stop>
&#x9;&#x9;&#x9;&#x9;<stop offset="1" style="stop-color:#F4F6F9"></stop>
&#x9;&#x9;&#x9;</linearGradient>
&#x9;&#x9;&#x9;
&#x9;&#x9;&#x9;&#x9;<path fill="url(#SVGID_00000155129564253046447890000012742956072914927755_)" stroke="#0840A5" stroke-width="0.75" stroke-linecap="round" stroke-linejoin="round" stroke-miterlimit="10" d="&#xA;&#x9;&#x9;&#x9;&#x9;M1473.98,833.24l-6.57,0.4l0.8,22.11l9.76-1l-4.38,8.17l10.96,14.94c0,0,0-10.76-1.59-18.93&#xA;&#x9;&#x9;&#x9;&#x9;C1481.35,850.77,1473.98,833.24,1473.98,833.24z"></path>
&#x9;&#x9;</g>
&#x9;&#x9;<g>
&#x9;&#x9;&#x9;<path fill="#71AFD8" d="M1455.85,867.51c-0.2,0.8-4.78,19.12-4.78,19.12s9.96,6.57,18.53,5.58l6.18-20.12L1455.85,867.51z"></path>
&#x9;&#x9;&#x9;<path fill="none" stroke="#0840A5" stroke-width="0.75" stroke-miterlimit="10" d="M1454.18,872.67&#xA;&#x9;&#x9;&#x9;&#x9;c3.43,1.56,11.1,4.88,20.59,4.48"></path>
&#x9;&#x9;</g>
&#x9;&#x9;<path fill="none" stroke="#0840A5" stroke-width="0.75" stroke-linecap="round" stroke-miterlimit="10" d="M1473.19,927.67&#xA;&#x9;&#x9;&#x9;c1-4.78,1.79-13.95,1.99-17.13c0.2-3.19,5.58-15.14,7.37-20.92s1.99-11.75,1.99-11.75"></path>
&#x9;&#x9;<path fill="none" stroke="#0840A5" stroke-width="0.75" stroke-linecap="round" stroke-miterlimit="10" d="M1458.84,916.72&#xA;&#x9;&#x9;&#x9;c0.6-0.4,18.33,3.19,26.3-3.19"></path>
&#x9;&#x9;<path fill="none" stroke="#0840A5" stroke-width="0.75" stroke-linecap="round" stroke-miterlimit="10" d="M1461.43,926.48&#xA;&#x9;&#x9;&#x9;c0,0,20.32-1.39,24.3-5.18"></path>
&#x9;&#x9;<ellipse fill="#18469D" cx="1476.87" cy="893.41" rx="0.7" ry="1"></ellipse>
&#x9;&#x9;<ellipse fill="#18469D" cx="1471.39" cy="908.15" rx="1.2" ry="0.8"></ellipse>
&#x9;</g>
</g>
<g id="ch3_x5f_bisep1">
&#x9;
&#x9;&#x9;<linearGradient id="SVGID_00000114057189215162075770000007723084920087283845_" gradientUnits="userSpaceOnUse" x1="1428.9093" y1="815.158" x2="1410.3938" y2="952.0117">
&#x9;&#x9;<stop offset="0.3567" style="stop-color:#C5E2F9"></stop>
&#x9;&#x9;<stop offset="0.3862" style="stop-color:#CFE6F9"></stop>
&#x9;&#x9;<stop offset="0.4556" style="stop-color:#E0EDF9"></stop>
&#x9;&#x9;<stop offset="0.5421" style="stop-color:#EBF2F9"></stop>
&#x9;&#x9;<stop offset="0.6633" style="stop-color:#F2F5F9"></stop>
&#x9;&#x9;<stop offset="1" style="stop-color:#F4F6F9"></stop>
&#x9;</linearGradient>
&#x9;
&#x9;&#x9;<path fill="url(#SVGID_00000114057189215162075770000007723084920087283845_)" stroke="#0840A5" stroke-width="0.75" stroke-linecap="round" stroke-linejoin="round" stroke-miterlimit="10" d="&#xA;&#x9;&#x9;M1448.13,834.05c-1.94-0.18-7.06,0.22-17.17,6.17c-13.55,7.97-30.08,23.71-33.47,33.07c-0.04,0.1-0.07,0.2-0.11,0.31&#xA;&#x9;&#x9;c0,0-2.81,7.36,4.2,13.16c7,5.81,18.62,1.79,18.62,1.79l2.95-5.39c3.3-3.5,18.2-13.64,22.75-17.51"></path>
</g>
<g id="ch3_x5f_head">
&#x9;<g>
&#x9;&#x9;<path fill="#FDFDFF" stroke="#0840A5" stroke-width="0.75" stroke-miterlimit="10" d="M1481.16,817.51l-6.97,16.34&#xA;&#x9;&#x9;&#x9;c0,0,1.59,10.76,8.77,15.54c7.17,4.78,10.56,3.98,14.14,3.79l5.38-12.95L1481.16,817.51z"></path>
&#x9;&#x9;<path fill="#1B1959" d="M1477.57,797.18l0.2,8.57l6.97,8.77c0,0,6.97-3.39,6.97-4.58s3.59-11.95,3.59-11.95l1-7.97&#xA;&#x9;&#x9;&#x9;c0,0,1.2-4.78,0.6-4.58S1477.57,797.18,1477.57,797.18z"></path>
&#x9;&#x9;<g>
&#x9;&#x9;&#x9;<path fill="#FDFDFF" stroke="#0840A5" stroke-width="0.75" stroke-linecap="round" stroke-miterlimit="10" d="M1487.32,838.06&#xA;&#x9;&#x9;&#x9;&#x9;c4.01,3.81,10.61,7.35,17.54,7.94c9.36,0.8,11.36-1.99,12.75-4.18c1.39-2.19,3.98-9.56,5.98-18.33&#xA;&#x9;&#x9;&#x9;&#x9;c1.99-8.77,2.79-19.92,0.8-28.69c-1.99-8.77-15.74-12.55-23.31-9.36c-7.57,3.19-9.76,8.17-9.76,13.35l-2.39,2.39l-0.6,8.17&#xA;&#x9;&#x9;&#x9;&#x9;l-3.39,0.6c0,0-0.8-3.98-3.79-5.18c-2.99-1.2-9.36,1.79-6.97,8.57c2.39,6.77,6.97,5.38,6.97,5.38"></path>
&#x9;&#x9;</g>
&#x9;&#x9;<g>
&#x9;&#x9;&#x9;<g>
&#x9;&#x9;&#x9;&#x9;<g>
&#x9;&#x9;&#x9;&#x9;&#x9;<g>
&#x9;&#x9;&#x9;&#x9;&#x9;&#x9;<path fill="#F4F6F9" stroke="#0840A5" stroke-width="0.75" stroke-miterlimit="10" d="M1477.08,796.19&#xA;&#x9;&#x9;&#x9;&#x9;&#x9;&#x9;&#x9;c0,0-7.66-0.24-7.78-5.19s2-4.36,8.96-7.66s23.7-13.91,28.53-17.1c4.83-3.18,13.21-1.77,18.51,1.77&#xA;&#x9;&#x9;&#x9;&#x9;&#x9;&#x9;&#x9;c5.31,3.54,4.95,8.96,4.01,11.56c-0.94,2.59-3.18,3.89-3.18,3.89l-26.65,2.36L1477.08,796.19z"></path>
&#x9;&#x9;&#x9;&#x9;&#x9;</g>
&#x9;&#x9;&#x9;&#x9;&#x9;<path fill="#F4F6F9" stroke="#0840A5" stroke-width="0.75" stroke-miterlimit="10" d="M1491.34,795.37c0,0,4.6,2.48,18.98,2.95&#xA;&#x9;&#x9;&#x9;&#x9;&#x9;&#x9;c14.39,0.47,25.47-0.35,25.82-2.12c0.35-1.77-11.32-6.96-11.32-6.96S1499.71,786.05,1491.34,795.37z"></path>
&#x9;&#x9;&#x9;&#x9;</g>
&#x9;&#x9;&#x9;</g>
&#x9;&#x9;&#x9;<path fill="#18469D" d="M1477.08,801.61v-5.42c0,0,11.44-16.27,49.41-13.32l0.12,7.07&#xA;&#x9;&#x9;&#x9;&#x9;C1526.6,789.94,1507.85,785.34,1477.08,801.61z"></path>
&#x9;&#x9;&#x9;
&#x9;&#x9;&#x9;&#x9;<ellipse fill="#F4F6F9" stroke="#0840A5" stroke-width="0.75" stroke-miterlimit="10" cx="1517.81" cy="781.33" rx="4.42" ry="6.13"></ellipse>
&#x9;&#x9;</g>
&#x9;</g>
</g>
<g id="ch3_x5f_arm1">
&#x9;<g>
&#x9;&#x9;<g>
&#x9;&#x9;&#x9;<g>
&#x9;&#x9;&#x9;&#x9;<path fill="#FDFDFF" stroke="#0840A5" stroke-width="0.75" stroke-linecap="round" stroke-miterlimit="10" d="M1410.83,919.9&#xA;&#x9;&#x9;&#x9;&#x9;&#x9;c-0.38,0.46,0.4,4.98,3.59,12.35c3.19,7.37,7.12,12.1,11.16,10.91c0,0,5.3,2.84,7.47,0.3c0,0,1.72,1.34,4.41,0.15&#xA;&#x9;&#x9;&#x9;&#x9;&#x9;c0,0,1.42-0.97,1.72-2.02c0,0,2.91,0.9,4.33-1.42c1.42-2.32,0.3-4.11-0.3-5.01s-6.2-9.11-6.2-9.11s3.44,1.87,5.3,0.15&#xA;&#x9;&#x9;&#x9;&#x9;&#x9;c1.87-1.72,1.72-3.59,0.82-4.48s-14.49-9.64-14.49-9.64S1417.83,911.59,1410.83,919.9z"></path>
&#x9;&#x9;&#x9;&#x9;<g>
&#x9;&#x9;&#x9;&#x9;&#x9;<path fill="#FDFDFF" stroke="#0840A5" stroke-width="0.75" stroke-linecap="round" stroke-miterlimit="10" d="M1432.07,932.7&#xA;&#x9;&#x9;&#x9;&#x9;&#x9;&#x9;c0,0,2.54,4.78,7.1,8.89"></path>
&#x9;&#x9;&#x9;&#x9;&#x9;<path fill="#FDFDFF" stroke="#0840A5" stroke-width="0.75" stroke-linecap="round" stroke-miterlimit="10" d="M1426.99,935.62&#xA;&#x9;&#x9;&#x9;&#x9;&#x9;&#x9;c0,0,2.02,4.03,6.05,7.84"></path>
&#x9;&#x9;&#x9;&#x9;&#x9;<path fill="#FDFDFF" stroke="#0840A5" stroke-width="0.75" stroke-linecap="round" stroke-miterlimit="10" d="M1422.29,937.78&#xA;&#x9;&#x9;&#x9;&#x9;&#x9;&#x9;c0,0,1.51,3.44,3.3,5.6"></path>
&#x9;&#x9;&#x9;&#x9;</g>
&#x9;&#x9;&#x9;</g>
&#x9;&#x9;&#x9;
&#x9;&#x9;&#x9;&#x9;<linearGradient id="SVGID_00000140735255028255681300000008794693398037536128_" gradientUnits="userSpaceOnUse" x1="1418.7432" y1="854.4306" x2="1403.413" y2="967.741">
&#x9;&#x9;&#x9;&#x9;<stop offset="0" style="stop-color:#F4F6F9"></stop>
&#x9;&#x9;&#x9;&#x9;<stop offset="0.3866" style="stop-color:#C5E2F9"></stop>
&#x9;&#x9;&#x9;</linearGradient>
&#x9;&#x9;&#x9;
&#x9;&#x9;&#x9;&#x9;<path fill="url(#SVGID_00000140735255028255681300000008794693398037536128_)" stroke="#0840A5" stroke-width="0.75" stroke-linecap="round" stroke-linejoin="round" stroke-miterlimit="10" d="&#xA;&#x9;&#x9;&#x9;&#x9;M1422.59,883.52c0.02,0.18,0.02,0.28,0.02,0.28c-0.01,0.01,7.35,28.73,7.35,28.73c-4.18,4.78-19.72,10.56-19.72,10.56&#xA;&#x9;&#x9;&#x9;&#x9;s-5.18-6.77-7.97-15.34c-2.79-8.57-8.17-25.1-4.78-34.46c0.26-0.73,0.6-1.49,1.02-2.28"></path>
&#x9;&#x9;&#x9;<g>
&#x9;&#x9;&#x9;&#x9;<path fill="none" stroke="#0840A5" stroke-width="0.75" stroke-linecap="round" stroke-miterlimit="10" d="M1402.96,909.44&#xA;&#x9;&#x9;&#x9;&#x9;&#x9;c0.2-0.3,15.04-3.88,22.71-11.26"></path>
&#x9;&#x9;&#x9;&#x9;<path fill="none" stroke="#0840A5" stroke-width="0.75" stroke-linecap="round" stroke-miterlimit="10" d="M1406.45,917.11&#xA;&#x9;&#x9;&#x9;&#x9;&#x9;c0,0,15.74-5.58,21.32-10.76"></path>
&#x9;&#x9;&#x9;</g>
&#x9;&#x9;</g>
&#x9;</g>
</g>
<g id="ch3_x5f_nose">
&#x9;<path fill="#FAFAFF" stroke="#0840A5" stroke-width="0.75" stroke-linecap="round" stroke-miterlimit="10" d="M1514.92,822.59&#xA;&#x9;&#x9;l8.96,1.64c3.44-0.6,2.84-3.74,2.84-3.74l-8.67-16.58c0,0,0.75-0.75,3.74-0.15s4.48-1.05,4.48-1.05"></path>
</g>
<g id="ch3_x5f_eyebrow">
&#x9;<path fill="none" stroke="#0840A5" stroke-width="0.75" stroke-linecap="round" stroke-miterlimit="10" d="M1500.43,800.62&#xA;&#x9;&#x9;c0,0,2.24-0.75,4.33,0.45c2.09,1.2,6.13,4.18,8.52,3.29"></path>
</g>
<g id="ch3_x5f_eye1">
&#x9;<ellipse fill="#1B1959" cx="1508.35" cy="808.02" rx="1.79" ry="1.72"></ellipse>
</g>
<g id="ch3_x5f_eye2">
&#x9;<ellipse fill="#1B1959" cx="1523.66" cy="808.32" rx="1.27" ry="1.42"></ellipse>
</g>
<g id="ch3_x5f_mouth">
&#x9;<g>
&#x9;&#x9;<path fill="none" stroke="#0840A5" stroke-width="0.75" stroke-miterlimit="10" d="M1518.07,827.77&#xA;&#x9;&#x9;&#x9;c-0.04,0.19-0.09,0.39-0.16,0.58c-0.33,0.93-0.98,1.8-1.64,2.46c-1.35,1.35-1.2,3.59-1.2,3.59c-0.91,1.17-3.3,0.41-5.78-0.1&#xA;&#x9;&#x9;&#x9;c-0.16-0.03-0.32-0.06-0.49-0.09c-0.2-0.04-0.4-0.08-0.61-0.11c-2.84-0.45-7.47,0.6-8.67-0.75s1.35-4.78,1.35-4.78&#xA;&#x9;&#x9;&#x9;c0.09-0.11,0.19-0.21,0.29-0.31c0.49-0.53,1-1,1.53-1.42c0.4-0.32,0.81-0.62,1.23-0.88c0.4-0.26,0.81-0.49,1.22-0.7&#xA;&#x9;&#x9;&#x9;c5.38-2.74,11.14-1.24,12.31,0.17C1518.07,826.16,1518.21,826.97,1518.07,827.77z"></path>
&#x9;&#x9;<path fill="#1B1959" d="M1518.07,827.77c-0.04,0.19-0.09,0.39-0.16,0.58c-0.33,0.93-0.98,1.8-1.64,2.46&#xA;&#x9;&#x9;&#x9;c-1.35,1.35-1.2,3.59-1.2,3.59c-0.91,1.17-3.3,0.41-5.78-0.1c-0.94-2.14-2.56-5.05-4.93-5.78c-1.09-0.33-2.19-0.37-3.2-0.26&#xA;&#x9;&#x9;&#x9;c0.49-0.53,1-1,1.53-1.42c0.4-0.32,0.81-0.62,1.23-0.88c0.4-0.26,0.81-0.49,1.22-0.7c1.07,0.29,2.47,0.73,4.24,1.31&#xA;&#x9;&#x9;&#x9;C1512.85,827.71,1516.35,827.8,1518.07,827.77z"></path>
&#x9;</g>
</g>
<g id="part_8">
&#x9;<g>
&#x9;&#x9;
&#x9;&#x9;&#x9;<line fill="none" stroke="#0840A5" stroke-width="0.75" stroke-linecap="round" stroke-linejoin="round" stroke-miterlimit="10" x1="1458.67" y1="801.56" x2="1438.11" y2="805.13"></line>
&#x9;&#x9;
&#x9;&#x9;&#x9;<line fill="none" stroke="#0840A5" stroke-width="0.75" stroke-linecap="round" stroke-linejoin="round" stroke-miterlimit="10" x1="1459.56" y1="813.18" x2="1434.54" y2="825.69"></line>
&#x9;&#x9;
&#x9;&#x9;&#x9;<line fill="none" stroke="#0840A5" stroke-width="0.75" stroke-linecap="round" stroke-linejoin="round" stroke-miterlimit="10" x1="1531.06" y1="757.77" x2="1539.99" y2="733.64"></line>
&#x9;&#x9;
&#x9;&#x9;&#x9;<line fill="none" stroke="#0840A5" stroke-width="0.75" stroke-linecap="round" stroke-linejoin="round" stroke-miterlimit="10" x1="1538.21" y1="762.24" x2="1551.61" y2="749.72"></line>
&#x9;&#x9;
&#x9;&#x9;&#x9;<line fill="none" stroke="#0840A5" stroke-width="0.75" stroke-linecap="round" stroke-linejoin="round" stroke-miterlimit="10" x1="1640.98" y1="768.49" x2="1629.37" y2="755.98"></line>
&#x9;&#x9;
&#x9;&#x9;&#x9;<line fill="none" stroke="#0840A5" stroke-width="0.75" stroke-linecap="round" stroke-linejoin="round" stroke-miterlimit="10" x1="1636.51" y1="776.54" x2="1621.32" y2="776.54"></line>
&#x9;</g>
</g>
<g id="part_9">
&#x9;<g>
&#x9;&#x9;<path fill="#3660B7" d="M1720.31,759.67c0,0.62-12.24,21.54-12.24,21.54l4.18,1.39l-7.59,8.06l14.1-8.52l-4.49-3.1l15.65-19.06&#xA;&#x9;&#x9;&#x9;L1720.31,759.67z"></path>
&#x9;&#x9;<path fill="#3660B7" d="M1726.19,779.66l-17.97,16.27l7.13,4.03l-8.37,8.52l16.58-7.75c0,0-8.37-5.58-7.9-5.73&#xA;&#x9;&#x9;&#x9;s18.44-12.24,18.44-12.24L1726.19,779.66z"></path>
&#x9;</g>
</g>
<g id="part_10">
&#x9;<g>
&#x9;&#x9;<path fill="#FDFDFF" stroke="#0840A5" stroke-width="0.75" stroke-linecap="round" stroke-miterlimit="10" d="M1573.96,747.81&#xA;&#x9;&#x9;&#x9;c-13.99,0-25.32,8.97-25.32,20.04c0,6.94,4.46,13.05,11.23,16.65c-0.1,2.13-0.63,5.86-2.95,9.05c0,0,6.71-3.36,9.27-6.63&#xA;&#x9;&#x9;&#x9;c2.45,0.62,5.06,0.96,7.77,0.96c13.99,0,25.32-8.97,25.32-20.04C1599.29,756.78,1587.95,747.81,1573.96,747.81z"></path>
&#x9;&#x9;<path fill="#FAFAFF" stroke="#0840A5" stroke-width="0.75" stroke-linecap="round" stroke-miterlimit="10" d="M1555.32,778.3&#xA;&#x9;&#x9;&#x9;c-1.47-3.74-0.92-8.13,1.12-11.59c2.05-3.46,5.47-6,9.26-7.33s7.93-1.5,11.9-0.88c2.23,0.34,4.46,0.95,6.32,2.21&#xA;&#x9;&#x9;&#x9;c1.87,1.26,3.33,3.26,3.53,5.5c0.15,1.66-0.39,3.3-1.05,4.82c-0.32,0.74-0.68,1.48-1.21,2.08c-0.97,1.1-2.41,1.66-3.84,2.03&#xA;&#x9;&#x9;&#x9;c-4.2,1.09-8.73,0.86-12.79-0.65c-1.68-0.62-3.3-1.48-4.54-2.78c-1.23-1.3-2.03-3.08-1.86-4.86c0.16-1.57,1.04-2.99,2.1-4.16&#xA;&#x9;&#x9;&#x9;c3.62-4,9.64-5.64,14.78-4.02c1.9,0.6,3.72,1.65,4.84,3.29c1.12,1.64,1.41,3.93,0.36,5.62c-0.55,0.88-1.4,1.53-2.3,2.04&#xA;&#x9;&#x9;&#x9;c-3.86,2.2-8.96,2-12.63-0.48c-1.42-0.96-2.7-2.39-2.74-4.1c-0.05-2.13,1.83-3.83,3.78-4.7c3.53-1.59,7.8-1.45,11.22,0.35&#xA;&#x9;&#x9;&#x9;c1.4,0.74,2.76,1.91,2.92,3.48c0.19,1.83-1.33,3.41-2.95,4.31c-2.64,1.47-5.83,1.88-8.79,1.26c-2.96-0.62-5.68-2.26-7.72-4.49&#xA;&#x9;&#x9;&#x9;c-2.05-2.24-3.45-5.51-2.26-8.3c1.1-2.59,4.06-3.89,6.85-4.24c3.56-0.44,7.36,0.33,10.12,2.62s4.24,6.21,3.16,9.63&#xA;&#x9;&#x9;&#x9;c-0.55,1.75-1.7,3.26-3.07,4.47c-1.72,1.51-3.93,2.6-6.21,2.44c-3.45-0.25-6.07-3.22-7.72-6.26c-0.93-1.71-1.7-3.54-1.93-5.47&#xA;&#x9;&#x9;&#x9;c-0.23-1.93,0.12-3.98,1.26-5.56c0.85-1.17,2.08-2.02,3.39-2.65c3.11-1.5,6.77-1.84,10.11-0.93c3.34,0.9,6.32,3.04,8.25,5.91&#xA;&#x9;&#x9;&#x9;c1.01,1.5,1.75,3.24,1.82,5.05c0.11,2.87-1.46,5.57-3.45,7.65c-3.8,3.96-9.25,6.18-14.74,6.42c-0.9,0.04-1.82,0.03-2.67-0.27&#xA;&#x9;&#x9;&#x9;s-1.62-0.92-1.9-1.78c-0.35-1.07,0.14-2.23,0.7-3.21c2.12-3.66,5.45-6.48,9.04-8.71c3.52-2.19,7.44-3.89,11.58-4.15&#xA;&#x9;&#x9;&#x9;c1.86-0.12,3.94,0.17,5.14,1.6c1.23,1.47,1.09,3.69,0.33,5.44c-0.88,2.01-2.44,3.64-4.14,5.02c-3.84,3.12-8.56,5.14-13.47,5.77&#xA;&#x9;&#x9;&#x9;c-1.11,0.14-2.56,0-2.87-1.08c-0.13-0.45,0.01-0.93,0.22-1.36c0.5-1.04,1.37-1.86,2.27-2.58c3.79-3,8.68-4.59,13.51-4.41&#xA;&#x9;&#x9;&#x9;c1.67,0.06,3.37,0.35,4.8,1.2c1.43,0.85,2.55,2.36,2.6,4.03c0.05,1.99-1.38,3.71-2.98,4.9c-4.64,3.43-10.87,3.81-16.6,3.13&#xA;&#x9;&#x9;&#x9;c-4.41-0.52-8.82-1.61-12.65-3.86c-1.99-1.17-3.96-2.96-4.01-5.26c-0.06-2.47,2.12-4.42,4.33-5.51c4.29-2.11,9.47-2.35,13.94-0.64&#xA;&#x9;&#x9;&#x9;c3.29,1.26,6.4,3.94,6.68,7.45c0.22,2.65-1.24,5.2-3.18,7.03c-2.02,1.9-4.55,3.19-7.18,4.07c-1.98,0.66-4.08,1.1-6.15,0.83&#xA;&#x9;&#x9;&#x9;c-2.55-0.33-4.87-1.74-6.64-3.6c-1.77-1.86-3.03-4.15-4.02-6.52c-0.77-1.84-1.4-3.84-1.02-5.8c0.36-1.8,1.58-3.36,3.12-4.37&#xA;&#x9;&#x9;&#x9;s3.36-1.51,5.19-1.7c2.58-0.27,5.22,0.06,7.66,0.95c1.33,0.49,2.73,1.29,3.13,2.65c0.51,1.75-0.86,3.48-2.3,4.59&#xA;&#x9;&#x9;&#x9;c-2.94,2.29-6.54,3.6-10.19,4.36c-2.04,0.42-4.15,0.69-6.19,0.28c-2.04-0.41-4.01-1.59-4.94-3.45c-0.84-1.65-0.76-3.67-0.08-5.39&#xA;&#x9;&#x9;&#x9;c0.69-1.72,1.93-3.16,3.35-4.35c4.54-3.81,11.08-5.09,16.72-3.27c1.83,0.59,3.58,1.5,4.97,2.83c1.12,1.07,2.02,2.52,1.95,4.07&#xA;&#x9;&#x9;&#x9;c-0.08,1.6-1.22,3.01-2.63,3.75c-1.41,0.75-3.06,0.92-4.66,0.87c-3.88-0.12-7.88-1.63-10.24-4.72s-2.59-7.88,0.05-10.72&#xA;&#x9;&#x9;&#x9;c1.54-1.65,3.82-2.48,6.07-2.57c2.25-0.09,4.49,0.49,6.59,1.31c4.18,1.63,7.97,4.24,10.98,7.56c1.15,1.27,2.24,2.75,2.37,4.47&#xA;&#x9;&#x9;&#x9;c0.19,2.59-1.83,4.79-3.89,6.38c-3.15,2.42-6.86,4.3-10.82,4.62c-1.8,0.15-3.86-0.16-4.9-1.62c-0.66-0.93-0.77-2.16-0.5-3.27&#xA;&#x9;&#x9;&#x9;s0.87-2.1,1.54-3.02c3.17-4.33,8.06-7.29,13.31-8.39c3.47-0.72,7.5-0.5,9.97,2.03c2.27,2.33,2.56,6.15,1.18,9.09&#xA;&#x9;&#x9;&#x9;s-4.17,5.05-7.2,6.23c-2.96,1.14-6.22,1.49-9.35,1c-2.13-0.33-4.34-1.16-5.55-2.94c-1.33-1.95-1.14-4.63-0.1-6.75&#xA;&#x9;&#x9;&#x9;c0.6-1.22,1.48-2.35,2.67-3.02c1.18-0.67,2.7-0.85,3.92-0.26c1.23,0.59,2.06,2.03,1.76,3.36c-0.35,1.59-2.17,2.55-3.79,2.36&#xA;&#x9;&#x9;&#x9;s-3.02-1.25-4.08-2.49c-0.58-0.68-1.1-1.45-1.29-2.33c-0.19-0.88,0.02-1.88,0.7-2.47c0.45-0.39,1.06-0.56,1.65-0.65&#xA;&#x9;&#x9;&#x9;c1.4-0.2,2.86,0.01,4.14,0.61c0.21,0.1,0.43,0.22,0.54,0.42c0.3,0.54-0.33,1.12-0.89,1.39c-2.47,1.21-5.23,1.82-7.98,1.75&#xA;&#x9;&#x9;&#x9;c2.68-1.55,5.58-2.71,8.59-3.44c0.64-0.15,1.32-0.29,1.96-0.14c0.64,0.15,1.25,0.67,1.28,1.34c0.03,0.5-0.27,0.96-0.57,1.37&#xA;&#x9;&#x9;&#x9;c-2.07,2.81-4.95,5.01-8.21,6.26c-0.96,0.37-1.99,0.66-3.01,0.52c-2.03-0.28-3.52-2.32-3.65-4.37c-0.13-2.05,0.84-4.04,2.16-5.61&#xA;&#x9;&#x9;&#x9;c3.82-4.6,10.65-6.22,16.31-4.3c1.7,0.58,3.34,1.46,4.55,2.79c1.21,1.33,1.94,3.15,1.72,4.94c-0.2,1.61-1.15,3.03-2.23,4.24&#xA;&#x9;&#x9;&#x9;c-4.33,4.86-11.4,7.1-17.74,5.62c-2.33-0.54-4.69-1.66-5.92-3.72c-0.26-0.44-0.47-0.93-0.48-1.44c-0.01-1.05,0.81-1.91,1.66-2.52&#xA;&#x9;&#x9;&#x9;c3.06-2.2,6.99-2.73,10.76-2.91c4.74-0.23,9.6,0.01,14.02,1.74c1.08,0.42,2.14,0.95,2.99,1.74s1.46,1.89,1.47,3.05&#xA;&#x9;&#x9;&#x9;c0.01,1.71-1.25,3.17-2.65,4.16c-2,1.42-4.38,2.21-6.76,2.78c-3.42,0.81-6.95,1.18-10.47,1.11c-1.9-0.04-3.84-0.22-5.58-1&#xA;&#x9;&#x9;&#x9;c-1.01-0.45-1.97-1.13-2.46-2.12c-0.66-1.35-0.33-3,0.39-4.31c1.14-2.1,3.23-3.67,5.57-4.18"></path>
&#x9;</g>
</g>
<g id="ch_x5f_2shadow">
&#x9;<ellipse opacity="0.2" fill="#1A4A9A" cx="291.43" cy="340.19" rx="43.02" ry="7.01"></ellipse>
</g>
<g id="ch_x5f_2bisep2">
&#x9;
&#x9;&#x9;<linearGradient id="SVGID_00000150073215077360059610000002962024962354737035_" gradientUnits="userSpaceOnUse" x1="291.0582" y1="182.5426" x2="223.808" y2="241.881">
&#x9;&#x9;<stop offset="0.1985" style="stop-color:#C5E2F9"></stop>
&#x9;&#x9;<stop offset="0.2295" style="stop-color:#CFE6F9"></stop>
&#x9;&#x9;<stop offset="0.3024" style="stop-color:#E0EDF9"></stop>
&#x9;&#x9;<stop offset="0.3932" style="stop-color:#EBF2F9"></stop>
&#x9;&#x9;<stop offset="0.5205" style="stop-color:#F2F5F9"></stop>
&#x9;&#x9;<stop offset="0.8741" style="stop-color:#F4F6F9"></stop>
&#x9;</linearGradient>
&#x9;
&#x9;&#x9;<path fill="url(#SVGID_00000150073215077360059610000002962024962354737035_)" stroke="#0840A5" stroke-width="0.6456" stroke-linecap="round" stroke-linejoin="round" stroke-miterlimit="10" d="&#xA;&#x9;&#x9;M282.08,175.93c0,0-3.8-2.24-7.42,4.14s-14.16,24.17-14.16,24.17s-2.76,5.7,0.35,11.74c3.11,6.04,6.56,5.35,6.56,5.35l14.68-14.68&#xA;&#x9;&#x9;V175.93z"></path>
</g>
<g id="ch_x5f_2leg2">
&#x9;<g>
&#x9;&#x9;<path fill="#1B1959" d="M299.21,323.48l-0.13,9.85c0,0-3.63,2.07-9.07,1.04l-0.13-1.17l-1.43,0.26l-0.26,1.56&#xA;&#x9;&#x9;&#x9;c0,0-11.54,1.94-19.19,0.26c0,0-0.91-2.85,0.26-4.41c1.17-1.56,6.48-2.59,9.2-3.5c2.72-0.91,5.19-3.89,5.19-5.44s15.69,0,15.69,0&#xA;&#x9;&#x9;&#x9;L299.21,323.48z"></path>
&#x9;&#x9;<path fill="#18469D" d="M282.49,322.31l-2.72-71.04c0,0,1.17-9.98,12.06-11.15c10.89-1.17,9.85,19.84,9.85,19.84l-1.3,63.78&#xA;&#x9;&#x9;&#x9;C300.38,323.74,289.1,325.81,282.49,322.31z"></path>
&#x9;</g>
</g>
<g id="ch_x5f_2leg1">
&#x9;<g>
&#x9;&#x9;<g>
&#x9;&#x9;&#x9;<path fill="#1B1959" d="M311.66,324c0,0.52-0.39,11.41-0.39,11.41s2.46,3.37,9.59,4.67s11.28-0.65,11.02-2.85&#xA;&#x9;&#x9;&#x9;&#x9;c-0.26-2.2-5.96-9.07-5.96-9.07s0.13-5.44,0-5.06C325.79,323.48,311.66,324,311.66,324z"></path>
&#x9;&#x9;&#x9;<path fill="#18469D" d="M279.71,251.57c-0.14-2.45-0.49-8.55-0.49-8.55l-0.37-6.39l48.74-1.17v89.19&#xA;&#x9;&#x9;&#x9;&#x9;c-7,4.02-18.41,0.26-18.41,0.26l-7.51-64.95c0,0-2.1-0.71-4.99-1.68"></path>
&#x9;&#x9;</g>
&#x9;&#x9;<g>
&#x9;&#x9;&#x9;<path fill="#1B1959" d="M327.6,234.43v7.31c-27.22,8.33-44.64,1.78-48.38,0.25l-0.37-6.39L327.6,234.43z"></path>
&#x9;&#x9;&#x9;
&#x9;&#x9;&#x9;&#x9;<rect x="292.86" y="240.4" fill="#F4F6F9" stroke="#0840A5" stroke-width="0.6463" stroke-miterlimit="10" width="8.94" height="4.15"></rect>
&#x9;&#x9;</g>
&#x9;</g>
</g>
<g id="ch_x5f_2torso">
&#x9;<g>
&#x9;&#x9;
&#x9;&#x9;&#x9;<linearGradient id="SVGID_00000099643683172446074740000010865918016786969006_" gradientUnits="userSpaceOnUse" x1="301.9576" y1="176.5609" x2="301.9576" y2="319.7386">
&#x9;&#x9;&#x9;<stop offset="0.1985" style="stop-color:#C5E2F9"></stop>
&#x9;&#x9;&#x9;<stop offset="0.2295" style="stop-color:#CFE6F9"></stop>
&#x9;&#x9;&#x9;<stop offset="0.3024" style="stop-color:#E0EDF9"></stop>
&#x9;&#x9;&#x9;<stop offset="0.3932" style="stop-color:#EBF2F9"></stop>
&#x9;&#x9;&#x9;<stop offset="0.5205" style="stop-color:#F2F5F9"></stop>
&#x9;&#x9;&#x9;<stop offset="0.8741" style="stop-color:#F4F6F9"></stop>
&#x9;&#x9;</linearGradient>
&#x9;&#x9;
&#x9;&#x9;&#x9;<path fill="url(#SVGID_00000099643683172446074740000010865918016786969006_)" stroke="#0840A5" stroke-width="0.6456" stroke-linecap="round" stroke-linejoin="round" stroke-miterlimit="10" d="&#xA;&#x9;&#x9;&#x9;M307.02,168.53c0.75,0.09,1.53,0.2,2.34,0.32c13.47,2.07,17.27,4.83,17.27,4.83s2.07,58.01,2.42,60.43s-0.52,3.28-11.22,5.53&#xA;&#x9;&#x9;&#x9;s-30.22,2.07-36.09-0.35s-5.01-6.73-3.97-9.84c1.04-3.11,1.21-24.69,0-30.91s-2.76-14.33-2.94-16.58&#xA;&#x9;&#x9;&#x9;c-0.17-2.24,2.24-4.83,2.24-4.83c3.66-3.52,9.54-6.19,11.91-7.18l1.04,4.07c0,0,2.97,2.35,7.37,1.91c4.4-0.44,5.71-2.42,6.59-3.3&#xA;&#x9;&#x9;&#x9;S307.02,168.53,307.02,168.53z"></path>
&#x9;&#x9;
&#x9;&#x9;&#x9;<linearGradient id="SVGID_00000025415293531664813120000007673343831659906732_" gradientUnits="userSpaceOnUse" x1="303.0811" y1="185.723" x2="301.1032" y2="257.3686">
&#x9;&#x9;&#x9;<stop offset="0.1985" style="stop-color:#C5E2F9"></stop>
&#x9;&#x9;&#x9;<stop offset="0.2295" style="stop-color:#CFE6F9"></stop>
&#x9;&#x9;&#x9;<stop offset="0.3024" style="stop-color:#E0EDF9"></stop>
&#x9;&#x9;&#x9;<stop offset="0.3932" style="stop-color:#EBF2F9"></stop>
&#x9;&#x9;&#x9;<stop offset="0.5205" style="stop-color:#F2F5F9"></stop>
&#x9;&#x9;&#x9;<stop offset="0.8741" style="stop-color:#F4F6F9"></stop>
&#x9;&#x9;</linearGradient>
&#x9;&#x9;
&#x9;&#x9;&#x9;<polygon fill="url(#SVGID_00000025415293531664813120000007673343831659906732_)" stroke="#0840A5" stroke-width="0.6456" stroke-linecap="round" stroke-linejoin="round" stroke-miterlimit="10" points="&#xA;&#x9;&#x9;&#x9;306.94,166.09 311.43,169.54 309.53,184.74 304,181.11 295.03,191.3 307.46,169.89 &#x9;&#x9;"></polygon>
&#x9;&#x9;<path fill="#18469D" d="M311,169.41l-1.04,5.18l13.34,3.37l2.72-4.66C326.02,173.3,315.79,168.25,311,169.41z"></path>
&#x9;&#x9;<path fill="#18469D" d="M276.16,178.09l3.5,2.33c0,0,5.44-5.31,8.42-6.99l-1.55-2.46C286.52,170.97,279.53,174.59,276.16,178.09z"></path>
&#x9;&#x9;<g>
&#x9;&#x9;&#x9;
&#x9;&#x9;&#x9;&#x9;<linearGradient id="SVGID_00000101807722840951860820000007503091226149633666_" gradientUnits="userSpaceOnUse" x1="289.3391" y1="196.5823" x2="287.3612" y2="268.2279">
&#x9;&#x9;&#x9;&#x9;<stop offset="0.1985" style="stop-color:#C5E2F9"></stop>
&#x9;&#x9;&#x9;&#x9;<stop offset="0.2295" style="stop-color:#CFE6F9"></stop>
&#x9;&#x9;&#x9;&#x9;<stop offset="0.3024" style="stop-color:#E0EDF9"></stop>
&#x9;&#x9;&#x9;&#x9;<stop offset="0.3932" style="stop-color:#EBF2F9"></stop>
&#x9;&#x9;&#x9;&#x9;<stop offset="0.5205" style="stop-color:#F2F5F9"></stop>
&#x9;&#x9;&#x9;&#x9;<stop offset="0.8741" style="stop-color:#F4F6F9"></stop>
&#x9;&#x9;&#x9;</linearGradient>
&#x9;&#x9;&#x9;
&#x9;&#x9;&#x9;&#x9;<polygon fill="url(#SVGID_00000101807722840951860820000007503091226149633666_)" stroke="#0840A5" stroke-width="0.6456" stroke-linecap="round" stroke-linejoin="round" stroke-miterlimit="10" points="&#xA;&#x9;&#x9;&#x9;&#x9;288.81,169.72 286.74,171.79 284.15,183.87 288.29,180.94 295.03,191.3 290.02,174.03 &#x9;&#x9;&#x9;"></polygon>
&#x9;&#x9;</g>
&#x9;</g>
</g>
<g id="ch_x5f_2arm2">
&#x9;<g>
&#x9;&#x9;
&#x9;&#x9;&#x9;<linearGradient id="SVGID_00000011738837223948213940000007497255291185518485_" gradientUnits="userSpaceOnUse" x1="290.8104" y1="182.2617" x2="223.5602" y2="241.6001">
&#x9;&#x9;&#x9;<stop offset="0.1985" style="stop-color:#C5E2F9"></stop>
&#x9;&#x9;&#x9;<stop offset="0.2295" style="stop-color:#CFE6F9"></stop>
&#x9;&#x9;&#x9;<stop offset="0.3024" style="stop-color:#E0EDF9"></stop>
&#x9;&#x9;&#x9;<stop offset="0.3932" style="stop-color:#EBF2F9"></stop>
&#x9;&#x9;&#x9;<stop offset="0.5205" style="stop-color:#F2F5F9"></stop>
&#x9;&#x9;&#x9;<stop offset="0.8741" style="stop-color:#F4F6F9"></stop>
&#x9;&#x9;</linearGradient>
&#x9;&#x9;
&#x9;&#x9;&#x9;<path fill="url(#SVGID_00000011738837223948213940000007497255291185518485_)" stroke="#0840A5" stroke-width="0.6456" stroke-linecap="round" stroke-linejoin="round" stroke-miterlimit="10" d="&#xA;&#x9;&#x9;&#x9;M267.38,221.36c-0.19,0.15-1.87,1.37-6.89,1.37c-5.35,0-18.82-4.66-18.82-4.66l4.32-14.68c0,0,16.23-1.73,17.78,3.11&#xA;&#x9;&#x9;&#x9;c0.02,0.06,0.04,0.13,0.06,0.19"></path>
&#x9;&#x9;<path fill="#F4F6F9" stroke="#0840A5" stroke-width="0.6456" stroke-miterlimit="10" d="M237.01,187.97&#xA;&#x9;&#x9;&#x9;c1.68-1.24,3.99,0.29,3.58,2.34c-0.27,1.34-0.47,3.18-0.04,4.75c0.78,2.85,3.88,6.86,4.92,9.32s0,10.75-3.11,12.3&#xA;&#x9;&#x9;&#x9;c-3.11,1.55-10.49,1.17-10.49,1.17l-1.04-17.48c0,0,3.63,0,3.88-0.78c0.26-0.78-1.29-6.09,0.13-8.94&#xA;&#x9;&#x9;&#x9;C235.4,189.55,236.17,188.59,237.01,187.97z"></path>
&#x9;&#x9;<path fill="#F4F6F9" stroke="#0840A5" stroke-width="0.6456" stroke-miterlimit="10" d="M236.93,201.14c0,0-6.86-2.33-9.45-0.91&#xA;&#x9;&#x9;&#x9;c-2.59,1.42-2.2,3.63-1.17,4.53c1.04,0.91,8.68,1.68,10.49,0.65S239.39,202.31,236.93,201.14z"></path>
&#x9;&#x9;<path fill="#F4F6F9" stroke="#0840A5" stroke-width="0.6456" stroke-miterlimit="10" d="M238.09,209.17c0,0-0.26,1.68-5.7,1.68&#xA;&#x9;&#x9;&#x9;c-2.46,0-7.25-0.78-7.25-2.46s-0.13-3.11,3.24-2.98C231.75,205.54,239.65,205.41,238.09,209.17z"></path>
&#x9;&#x9;<path fill="#F4F6F9" stroke="#0840A5" stroke-width="0.6456" stroke-miterlimit="10" d="M238.09,214.09c0,0-2.33,0.78-5.7,1.04&#xA;&#x9;&#x9;&#x9;c-3.37,0.26-6.35-0.78-6.35-0.78s-2.85-2.85,0.13-4.53c2.98-1.68,11.01-0.26,12.04,1.68S238.09,214.09,238.09,214.09z"></path>
&#x9;&#x9;<path fill="#F4F6F9" stroke="#0840A5" stroke-width="0.6456" stroke-miterlimit="10" d="M237.57,217.72c0,0,0.26,2.2-4.14,2.46&#xA;&#x9;&#x9;&#x9;c-4.4,0.26-8.94-2.98-6.73-5.31C228.9,212.54,239.26,214.22,237.57,217.72z"></path>
&#x9;</g>
</g>
<g id="ch_x5f_2_head">
&#x9;<g>
&#x9;&#x9;<path fill="none" stroke="#0840A5" stroke-width="0.6456" stroke-miterlimit="10" d="M299.61,164.88&#xA;&#x9;&#x9;&#x9;c-0.17,0.1-0.34,0.19-0.52,0.29c-7.23,3.86-15.84,1.45-18.33-3.05c-1.9-3.44-2.97-11.01-2.89-23.95l0.56-3.62&#xA;&#x9;&#x9;&#x9;c0,0,5.55-7.64,18.17-4.02c12.62,3.62,10.21,15.27,10.21,15.27s0.12-0.07,0.32-0.17c0.91-0.44,3.55-1.46,5.07,0.65&#xA;&#x9;&#x9;&#x9;c1.85,2.57-0.96,8.59-5.38,8.12"></path>
&#x9;&#x9;<path fill="#F4F6F9" stroke="#0840A5" stroke-width="0.6456" stroke-miterlimit="10" d="M311.23,136.56c0,0,5.22-0.16,5.31-3.54&#xA;&#x9;&#x9;&#x9;s-1.37-2.97-6.11-5.22c-4.74-2.25-16.16-9.49-19.45-11.66s-9-1.21-12.62,1.21c-3.62,2.41-3.38,6.11-2.73,7.88s2.17,2.65,2.17,2.65&#xA;&#x9;&#x9;&#x9;l18.17,1.61L311.23,136.56z"></path>
&#x9;&#x9;<path fill="#F4F6F9" stroke="#0840A5" stroke-width="0.6456" stroke-miterlimit="10" d="M301.5,135.99c0,0-3.13,1.69-12.94,2.01&#xA;&#x9;&#x9;&#x9;c-9.81,0.32-17.36-0.24-17.6-1.45s7.72-4.74,7.72-4.74S295.79,129.64,301.5,135.99z"></path>
&#x9;&#x9;<path fill="#1B1959" d="M310.74,137.6c0,0.32,0.13,7.55,0.13,7.55l-1.24-0.49l0,0c-2.24,1.04-4.29,2.43-6.09,4.12l-0.68,0.64&#xA;&#x9;&#x9;&#x9;v-6.19c0,0-2.01-1.04-2.25-2.09c-0.24-1.04,1.85-3.86,1.05-4.74c-0.8-0.88-1.37-1.85-1.37-1.85l10.45,2.73V137.6z"></path>
&#x9;&#x9;<ellipse fill="#1B1959" cx="291.01" cy="146.32" rx="0.84" ry="1.57"></ellipse>
&#x9;&#x9;<ellipse fill="#1B1959" cx="280.64" cy="146.32" rx="0.84" ry="1.57"></ellipse>
&#x9;&#x9;<path fill="none" stroke="#0840A5" stroke-width="0.6456" stroke-linecap="round" stroke-miterlimit="10" d="M295.79,142.99&#xA;&#x9;&#x9;&#x9;c0,0-3.13-2.17-7.64-0.8"></path>
&#x9;&#x9;<path fill="none" stroke="#0840A5" stroke-width="0.6456" stroke-linecap="round" stroke-miterlimit="10" d="M283.74,142.66&#xA;&#x9;&#x9;&#x9;c0,0-3.22-1.37-5.71,0.16"></path>
&#x9;&#x9;<path fill="none" stroke="#0840A5" stroke-width="0.6456" stroke-linecap="round" stroke-miterlimit="10" d="M283.98,144.84&#xA;&#x9;&#x9;&#x9;c0,0-0.14,4.89-2.09,8.11c-0.35,0.58-0.19,1.34,0.39,1.68c0.75,0.43,1.99,0.79,3.95,0.42"></path>
&#x9;&#x9;<g>
&#x9;&#x9;&#x9;<path fill="#242058" d="M294.43,157.38c-1.84,2.27-5.13,3.35-7.96,2.57C289.38,159.77,291.96,158.93,294.43,157.38L294.43,157.38&#xA;&#x9;&#x9;&#x9;&#x9;z"></path>
&#x9;&#x9;</g>
&#x9;&#x9;<path fill="none" stroke="#0840A5" stroke-width="0.6456" stroke-miterlimit="10" d="M306.81,154.46c0,2.18,0,13.04,0,13.04&#xA;&#x9;&#x9;&#x9;s-1.51,6.57-8.5,8.26s-8.37-1.99-8.37-1.99s-1.39-4.87-1.39-7.19"></path>
&#x9;&#x9;<path fill="#18469D" d="M311.23,140.25v-3.7c0,0-7.8-11.09-33.68-9.08l-0.08,4.82C277.47,132.3,290.25,129.16,311.23,140.25z"></path>
&#x9;&#x9;
&#x9;&#x9;&#x9;<ellipse fill="#F4F6F9" stroke="#0840A5" stroke-width="0.6456" stroke-miterlimit="10" cx="283.45" cy="126.43" rx="3.01" ry="4.18"></ellipse>
&#x9;</g>
</g>
<g id="ch_x5f_2bisep1">
&#x9;
&#x9;&#x9;<linearGradient id="SVGID_00000147901841698655289630000004780903435286157488_" gradientUnits="userSpaceOnUse" x1="320.1553" y1="171.2227" x2="352.9273" y2="241.8255">
&#x9;&#x9;<stop offset="0.1985" style="stop-color:#C5E2F9"></stop>
&#x9;&#x9;<stop offset="0.2295" style="stop-color:#CFE6F9"></stop>
&#x9;&#x9;<stop offset="0.3024" style="stop-color:#E0EDF9"></stop>
&#x9;&#x9;<stop offset="0.3932" style="stop-color:#EBF2F9"></stop>
&#x9;&#x9;<stop offset="0.5205" style="stop-color:#F2F5F9"></stop>
&#x9;&#x9;<stop offset="0.8741" style="stop-color:#F4F6F9"></stop>
&#x9;</linearGradient>
&#x9;
&#x9;&#x9;<path fill="url(#SVGID_00000147901841698655289630000004780903435286157488_)" stroke="#0840A5" stroke-width="0.6456" stroke-linecap="round" stroke-linejoin="round" stroke-miterlimit="10" d="&#xA;&#x9;&#x9;M340.9,220.55c6.95-4.5,5.22-14.91,4.03-16.69c-1.29-1.94-12.56-25.64-15.28-28.49c-2.72-2.85-6.99-3.11-6.99-3.11&#xA;&#x9;&#x9;c-7.51,7.25-1.68,21.5-1.68,21.5s6.39,11.93,6.23,11.95l4.86,9.07c0,0,2.8,5.27,5.11,6.26C339.47,222.04,340.9,220.55,340.9,220.55&#xA;&#x9;&#x9;z"></path>
</g>
<g id="ch_x5f_2arm1">
&#x9;<g>
&#x9;&#x9;<path fill="#F4F6F9" stroke="#0840A5" stroke-width="0.6456" stroke-miterlimit="10" d="M307.42,195.81&#xA;&#x9;&#x9;&#x9;c-0.04-0.73-0.61-1.32-1.34-1.35c-1.3-0.06-3.25,0.29-4.15,2.67c-1.42,3.76,0.65,7.77,0.65,7.77h-5.78&#xA;&#x9;&#x9;&#x9;c-1.34,0-2.61,0.75-3.14,1.98c-0.13,0.3-0.23,0.63-0.28,1c-0.26,1.94,1.29,3.37,1.29,3.37s-1.42,0.78-1.17,2.59&#xA;&#x9;&#x9;&#x9;c0.26,1.81,1.68,2.72,1.68,2.72s-1.55,1.55-0.13,3.24c0,0-0.52,2.85,2.46,3.88s13.08-0.13,15.28-1.55s2.85-5.18,2.85-5.18&#xA;&#x9;&#x9;&#x9;l-0.39-6.73c0,0-7.25-8.94-7.51-10.36C307.59,198.93,307.48,197.03,307.42,195.81z"></path>
&#x9;&#x9;
&#x9;&#x9;&#x9;<linearGradient id="SVGID_00000024701870746442668490000018136770359903463593_" gradientUnits="userSpaceOnUse" x1="323.7753" y1="202.5256" x2="338.2393" y2="233.6865">
&#x9;&#x9;&#x9;<stop offset="0.1985" style="stop-color:#C5E2F9"></stop>
&#x9;&#x9;&#x9;<stop offset="0.2295" style="stop-color:#CFE6F9"></stop>
&#x9;&#x9;&#x9;<stop offset="0.3024" style="stop-color:#E0EDF9"></stop>
&#x9;&#x9;&#x9;<stop offset="0.3932" style="stop-color:#EBF2F9"></stop>
&#x9;&#x9;&#x9;<stop offset="0.5205" style="stop-color:#F2F5F9"></stop>
&#x9;&#x9;&#x9;<stop offset="0.8741" style="stop-color:#F4F6F9"></stop>
&#x9;&#x9;</linearGradient>
&#x9;&#x9;
&#x9;&#x9;&#x9;<path fill="url(#SVGID_00000024701870746442668490000018136770359903463593_)" stroke="#0840A5" stroke-width="0.6456" stroke-linecap="round" stroke-linejoin="round" stroke-miterlimit="10" d="&#xA;&#x9;&#x9;&#x9;M346.02,210.33c-0.15,4.19-1.77,9.16-7.18,11.27l-24.34,1.04l0.13-14.89l12.82-2.07c0,0,3.42-0.46,6.76-0.92"></path>
&#x9;</g>
</g>
<g id="ch_x5f_1shadow">
&#x9;<ellipse opacity="0.2" fill="#1A4A9A" cx="158.99" cy="343.39" rx="43.02" ry="7.01"></ellipse>
</g>
<g id="ch_x5f_1leg1">
&#x9;<g>
&#x9;&#x9;<path fill="#1B1959" d="M161.57,328.27v13.21c0,0,5.7,0.91,8.94,0v-1.04c0,0,1.55-0.13,2.98,0.78c1.42,0.91,14.37,2.2,21.37,0.39&#xA;&#x9;&#x9;&#x9;c0,0,1.17-1.81,0.39-3.76c0,0,0.65-1.42-6.99-3.37c-7.64-1.94-9.06-5.83-9.45-7.64C178.41,325.03,161.57,328.27,161.57,328.27z"></path>
&#x9;&#x9;<path fill="#18469D" d="M156.78,253.29c0.13,0.91,3.63,75.75,3.63,75.75s13.34,3.37,19.94-0.91l3.37-88.96L156,238.4&#xA;&#x9;&#x9;&#x9;L156.78,253.29z"></path>
&#x9;</g>
</g>
<g id="ch_x5f_1leg2">
&#x9;<g>
&#x9;&#x9;<path fill="#1B1959" d="M122.98,328.78c0,0-2.07,7.38-2.85,9.58c-0.78,2.2-3.24,7.25-0.52,9.45c2.72,2.2,10.75,2.33,14.24,0.78&#xA;&#x9;&#x9;&#x9;s4.92-3.37,4.79-4.4c-0.13-1.04-0.13-15.8-0.26-15.02C138.26,329.95,122.98,328.78,122.98,328.78z"></path>
&#x9;&#x9;<path fill="#18469D" d="M168.72,237.86c0-0.01-0.01-0.01-0.03,0.02c-0.39,0.65-41.57,1.17-41.57,1.17s-0.39,40.14-1.94,57.11&#xA;&#x9;&#x9;&#x9;c-1.55,16.96-4.01,33.54-4.01,33.54s12.82,5.18,19.55,0.26l16.96-74.33l8.03-3.63c0,0,0.1-0.42,0.25-1.12"></path>
&#x9;</g>
</g>
<g id="ch_x5f_1hand1">
&#x9;<g>
&#x9;&#x9;<path fill="#F4F6F9" stroke="#0840A5" stroke-width="0.6456" stroke-linecap="round" stroke-miterlimit="10" d="M256.84,184.31&#xA;&#x9;&#x9;&#x9;c0,0,2.42-1.38,3.54-3.28s0.78-7.34,0.78-7.34s-10.45,0.09-10.45,0.43s0,5.35,0,5.35L256.84,184.31z"></path>
&#x9;&#x9;<path fill="#F4F6F9" stroke="#0840A5" stroke-width="0.6456" stroke-linecap="round" stroke-miterlimit="10" d="M272.03,169.12&#xA;&#x9;&#x9;&#x9;c-0.18-0.21-32.81-0.35-32.81-0.35s-2.16,5.96-1.04,8.81c1.12,2.85,14.68,8.37,17.27,8.11s2.85-1.9,1.55-2.85&#xA;&#x9;&#x9;&#x9;c-1.29-0.95-4.92-3.11-3.8-5.27c0.73-1.41,2.6-3.01,7.34-2.76C267.11,175.16,276.43,174.3,272.03,169.12z"></path>
&#x9;&#x9;
&#x9;&#x9;&#x9;<linearGradient id="SVGID_00000097478143059437281380000013810370630860011944_" gradientUnits="userSpaceOnUse" x1="185.0348" y1="174.2545" x2="242.3432" y2="174.2545">
&#x9;&#x9;&#x9;<stop offset="0.1985" style="stop-color:#C5E2F9"></stop>
&#x9;&#x9;&#x9;<stop offset="0.3359" style="stop-color:#D6E9F9"></stop>
&#x9;&#x9;&#x9;<stop offset="0.5258" style="stop-color:#E7F0F9"></stop>
&#x9;&#x9;&#x9;<stop offset="0.7352" style="stop-color:#F1F5F9"></stop>
&#x9;&#x9;&#x9;<stop offset="1" style="stop-color:#F4F6F9"></stop>
&#x9;&#x9;</linearGradient>
&#x9;&#x9;
&#x9;&#x9;&#x9;<path fill="url(#SVGID_00000097478143059437281380000013810370630860011944_)" stroke="#0840A5" stroke-width="0.6456" stroke-linecap="round" stroke-linejoin="round" stroke-miterlimit="10" d="&#xA;&#x9;&#x9;&#x9;M240.82,183.75l-53.74,2.2c0,0-4.49-16.88-0.17-23.4c0,0,36.3,5.14,53.78,5.01C240.69,167.56,244.32,174.43,240.82,183.75z"></path>
&#x9;&#x9;<path fill="none" stroke="#0840A5" stroke-width="0.6863" stroke-linecap="round" stroke-miterlimit="10" d="M234.87,167.82&#xA;&#x9;&#x9;&#x9;c0,0,2.33,10.36-2.07,16.19"></path>
&#x9;</g>
</g>
<g id="ch_x5f_1torso">
&#x9;<g>
&#x9;&#x9;
&#x9;&#x9;&#x9;<linearGradient id="SVGID_00000030473007495261084250000005157950097505574329_" gradientUnits="userSpaceOnUse" x1="155.797" y1="154.4583" x2="156.7739" y2="270.3828">
&#x9;&#x9;&#x9;<stop offset="0.1985" style="stop-color:#C5E2F9"></stop>
&#x9;&#x9;&#x9;<stop offset="0.3359" style="stop-color:#D6E9F9"></stop>
&#x9;&#x9;&#x9;<stop offset="0.5258" style="stop-color:#E7F0F9"></stop>
&#x9;&#x9;&#x9;<stop offset="0.7352" style="stop-color:#F1F5F9"></stop>
&#x9;&#x9;&#x9;<stop offset="1" style="stop-color:#F4F6F9"></stop>
&#x9;&#x9;</linearGradient>
&#x9;&#x9;
&#x9;&#x9;&#x9;<path fill="url(#SVGID_00000030473007495261084250000005157950097505574329_)" stroke="#0840A5" stroke-width="0.6456" stroke-linecap="round" stroke-linejoin="round" stroke-miterlimit="10" d="&#xA;&#x9;&#x9;&#x9;M187.47,181.89c-0.02,7.92-0.24,16.07-0.73,20.03c-1.04,8.29-1.21,37.98-1.21,37.98c-3.11,3.63-15.19,6.22-15.19,6.22l-3.11-7.08&#xA;&#x9;&#x9;&#x9;l-4.14,6.73c-21.41,2.94-37.98-3.28-37.98-3.28s2.24-22.96,2.94-31.6c0.69-8.63-2.07-32.81-1.21-42.3&#xA;&#x9;&#x9;&#x9;c0.86-9.5,20.63-9.67,20.63-9.67c0.17-0.07,0.34-0.13,0.52-0.2l21.67,23.81l8.13-22.23c4.58,0.99,8.01,1.93,8.91,2.18"></path>
&#x9;&#x9;<path fill="none" stroke="#0840A5" stroke-width="0.6863" stroke-linecap="round" stroke-miterlimit="10" d="M170.51,187.07&#xA;&#x9;&#x9;&#x9;c0,0,0.52,35.91-2.24,47.48"></path>
&#x9;&#x9;<rect x="144.95" y="186.21" fill="#18469D" width="14.5" height="3.8"></rect>
&#x9;&#x9;<rect x="177.07" y="185.18" fill="#18469D" width="9.84" height="3.11"></rect>
&#x9;&#x9;<path fill="#F4F6F9" stroke="#0840A5" stroke-width="0.6862" stroke-linecap="round" stroke-miterlimit="10" d="M130.28,163.59&#xA;&#x9;&#x9;&#x9;l5.27,4.58c0,0,6.65-3.28,13.99-3.88l-1.81-5.44C147.72,158.84,133.73,159.71,130.28,163.59z"></path>
&#x9;&#x9;
&#x9;&#x9;&#x9;<line fill="none" stroke="#0840A5" stroke-width="0.6863" stroke-linecap="round" stroke-miterlimit="10" x1="139.34" y1="166.53" x2="133.82" y2="161.26"></line>
&#x9;&#x9;<path fill="#F4F6F9" stroke="#0840A5" stroke-width="0.6862" stroke-linecap="round" stroke-miterlimit="10" d="M177.33,160.4&#xA;&#x9;&#x9;&#x9;v5.78l10.96,1.04l0.17-4.23C188.46,162.99,180.95,160.74,177.33,160.4z"></path>
&#x9;</g>
</g>
<g id="ch_x5f_1bisep1">
&#x9;
&#x9;&#x9;<linearGradient id="SVGID_00000057110251941790126580000012416258633152838335_" gradientUnits="userSpaceOnUse" x1="146.708" y1="147.6224" x2="91.3174" y2="235.9308">
&#x9;&#x9;<stop offset="0.1985" style="stop-color:#C5E2F9"></stop>
&#x9;&#x9;<stop offset="0.3359" style="stop-color:#D6E9F9"></stop>
&#x9;&#x9;<stop offset="0.5258" style="stop-color:#E7F0F9"></stop>
&#x9;&#x9;<stop offset="0.7352" style="stop-color:#F1F5F9"></stop>
&#x9;&#x9;<stop offset="1" style="stop-color:#F4F6F9"></stop>
&#x9;</linearGradient>
&#x9;
&#x9;&#x9;<path fill="url(#SVGID_00000057110251941790126580000012416258633152838335_)" stroke="#0840A5" stroke-width="0.6456" stroke-linecap="round" stroke-linejoin="round" stroke-miterlimit="10" d="&#xA;&#x9;&#x9;M129.62,163.89c-1.62,1.07-4.25,3.35-8.45,8.08c-9.19,10.36-20.46,26.42-20.46,26.42s-1.68,4.27,5.83,8.16&#xA;&#x9;&#x9;c7.51,3.88,14.76-2.2,14.76-2.2s7.45-8.07,12.47-13.52"></path>
</g>
<g id="ch_x5f_1arm1">
&#x9;<g>
&#x9;&#x9;<path fill="#F4F6F9" stroke="#0840A5" stroke-width="0.6456" stroke-linecap="round" stroke-miterlimit="10" d="M129.33,236.58&#xA;&#x9;&#x9;&#x9;c0,0,3.5,3.24,5.05,3.11c1.55-0.13,1.55-2.07,1.55-2.07s-3.5-6.73-9.84-7.12c-6.35-0.39-13.21,5.96-13.34,6.35&#xA;&#x9;&#x9;&#x9;c-0.13,0.39,0.26,10.36,4.79,13.08c4.53,2.72,5.44,0.91,5.44,0.91s2.46,1.94,4.53,0.65c0,0,2.59,0.13,4.14-1.55&#xA;&#x9;&#x9;&#x9;c0,0,3.24-0.39,4.27-2.46c1.04-2.07,0.39-4.53-0.39-4.4c-0.78,0.13-2.59,1.81-2.59,1.81S128.68,240.86,129.33,236.58z"></path>
&#x9;&#x9;
&#x9;&#x9;&#x9;<linearGradient id="SVGID_00000114059173582215777740000018165932402945692804_" gradientUnits="userSpaceOnUse" x1="153.4076" y1="150.5445" x2="96.8393" y2="240.7305">
&#x9;&#x9;&#x9;<stop offset="0.1985" style="stop-color:#C5E2F9"></stop>
&#x9;&#x9;&#x9;<stop offset="0.3359" style="stop-color:#D6E9F9"></stop>
&#x9;&#x9;&#x9;<stop offset="0.5258" style="stop-color:#E7F0F9"></stop>
&#x9;&#x9;&#x9;<stop offset="0.7352" style="stop-color:#F1F5F9"></stop>
&#x9;&#x9;&#x9;<stop offset="1" style="stop-color:#F4F6F9"></stop>
&#x9;&#x9;</linearGradient>
&#x9;&#x9;
&#x9;&#x9;&#x9;<path fill="url(#SVGID_00000114059173582215777740000018165932402945692804_)" stroke="#0840A5" stroke-width="0.6456" stroke-linecap="round" stroke-linejoin="round" stroke-miterlimit="10" d="&#xA;&#x9;&#x9;&#x9;M119.29,201.78c2.63,5.11,6.8,28.72,6.8,28.72s-3.63,4.53-14.24,5.7c0,0-6.22-12.82-9.32-22.92c-3.11-10.1-2.85-14.76-0.78-16.45&#xA;&#x9;&#x9;&#x9;c0.05-0.04,0.1-0.08,0.16-0.11"></path>
&#x9;&#x9;<path fill="none" stroke="#0840A5" stroke-width="0.6863" stroke-linecap="round" stroke-miterlimit="10" d="M108.61,228.56&#xA;&#x9;&#x9;&#x9;c0,0,9.84,0.78,16.19-5.96"></path>
&#x9;</g>
</g>
<g id="ch_x5f_1_head">
&#x9;<g>
&#x9;&#x9;<g>
&#x9;&#x9;&#x9;<path fill="none" stroke="#0840A5" stroke-width="0.6862" stroke-linecap="round" stroke-miterlimit="10" d="M162.9,153.58&#xA;&#x9;&#x9;&#x9;&#x9;c0.18,0.1,0.36,0.21,0.55,0.31c7.69,4.1,16.83,1.54,19.48-3.25c2.02-3.65,3.16-11.71,3.08-25.46l-0.6-3.85&#xA;&#x9;&#x9;&#x9;&#x9;c0,0-5.9-8.12-19.31-4.27c-13.42,3.85-10.85,16.23-10.85,16.23s-0.12-0.07-0.34-0.18c-0.97-0.47-3.78-1.55-5.39,0.69&#xA;&#x9;&#x9;&#x9;&#x9;c-1.96,2.73,1.02,9.14,5.72,8.63"></path>
&#x9;&#x9;&#x9;<path fill="#F4F6F9" stroke="#0840A5" stroke-width="0.6862" stroke-linecap="round" stroke-miterlimit="10" d="M150.55,123.47&#xA;&#x9;&#x9;&#x9;&#x9;c0,0-5.55-0.17-5.64-3.76c-0.09-3.59,1.45-3.16,6.49-5.55c5.04-2.39,17.17-10.08,20.68-12.39c3.5-2.31,9.57-1.28,13.42,1.28&#xA;&#x9;&#x9;&#x9;&#x9;c3.85,2.56,3.59,6.49,2.91,8.37c-0.68,1.88-2.31,2.82-2.31,2.82l-19.31,1.71L150.55,123.47z"></path>
&#x9;&#x9;&#x9;<path fill="#F4F6F9" stroke="#0840A5" stroke-width="0.6862" stroke-linecap="round" stroke-miterlimit="10" d="M160.89,122.87&#xA;&#x9;&#x9;&#x9;&#x9;c0,0,3.33,1.79,13.76,2.14s18.46-0.26,18.71-1.54c0.26-1.28-8.2-5.04-8.2-5.04S166.96,116.12,160.89,122.87z"></path>
&#x9;&#x9;&#x9;<path fill="#1B1959" d="M151.07,124.58c0,0.34-0.14,8.02-0.14,8.02l1.31-0.53l0,0c2.38,1.1,4.56,2.58,6.47,4.38l0.73,0.68v-6.58&#xA;&#x9;&#x9;&#x9;&#x9;c0,0,2.14-1.11,2.39-2.22c0.26-1.11-1.97-4.1-1.11-5.04s1.45-1.97,1.45-1.97l-11.11,2.91V124.58z"></path>
&#x9;&#x9;&#x9;<path fill="none" stroke="#0840A5" stroke-width="0.6862" stroke-linecap="round" stroke-miterlimit="10" d="M155.25,142.5&#xA;&#x9;&#x9;&#x9;&#x9;c0,2.32,0,13.87,0,13.87s1.6,6.98,9.03,8.78s10.28-3.85,10.28-3.85s0.1-3.44,0.1-5.91"></path>
&#x9;&#x9;&#x9;<path fill="#18469D" d="M150.55,127.4v-3.93c0,0,8.29-11.79,35.8-9.66l0.09,5.13C186.44,118.94,172.86,115.61,150.55,127.4z"></path>
&#x9;&#x9;&#x9;
&#x9;&#x9;&#x9;&#x9;<ellipse fill="#F4F6F9" stroke="#0840A5" stroke-width="0.6862" stroke-linecap="round" stroke-miterlimit="10" cx="180.08" cy="112.71" rx="3.2" ry="4.44"></ellipse>
&#x9;&#x9;</g>
&#x9;&#x9;<polygon fill="#18469D" points="165.15,167.56 167.66,169.98 170.94,169.98 172.58,167.05 168.52,163.16 167.4,163.07 &#x9;&#x9;"></polygon>
&#x9;&#x9;<polygon fill="#18469D" points="166.54,181.55 167.66,169.98 170.94,169.98 173.44,182.76 171.63,186.82 &#x9;&#x9;"></polygon>
&#x9;&#x9;<polygon fill="#F4F6F9" stroke="#0840A5" stroke-width="0.6862" stroke-linecap="round" stroke-miterlimit="10" points="&#xA;&#x9;&#x9;&#x9;155.05,153.23 151,156.95 162.56,171.88 167.4,163.07 155.05,155.65 &#x9;&#x9;"></polygon>
&#x9;&#x9;<polygon fill="#F4F6F9" stroke="#0840A5" stroke-width="0.6862" stroke-linecap="round" stroke-miterlimit="10" points="&#xA;&#x9;&#x9;&#x9;168.52,163.16 174.31,168.77 175.34,159.62 174.92,156.4 &#x9;&#x9;"></polygon>
&#x9;&#x9;
&#x9;&#x9;&#x9;<linearGradient id="SVGID_00000152240050417819744150000016328824153354828187_" gradientUnits="userSpaceOnUse" x1="157.5074" y1="147.3592" x2="162.4523" y2="209.3348">
&#x9;&#x9;&#x9;<stop offset="0.1985" style="stop-color:#C5E2F9"></stop>
&#x9;&#x9;&#x9;<stop offset="0.2295" style="stop-color:#CFE6F9"></stop>
&#x9;&#x9;&#x9;<stop offset="0.3024" style="stop-color:#E0EDF9"></stop>
&#x9;&#x9;&#x9;<stop offset="0.3932" style="stop-color:#EBF2F9"></stop>
&#x9;&#x9;&#x9;<stop offset="0.5205" style="stop-color:#F2F5F9"></stop>
&#x9;&#x9;&#x9;<stop offset="0.8741" style="stop-color:#F4F6F9"></stop>
&#x9;&#x9;</linearGradient>
&#x9;&#x9;
&#x9;&#x9;&#x9;<polygon fill="url(#SVGID_00000152240050417819744150000016328824153354828187_)" stroke="#0840A5" stroke-width="0.6456" stroke-linecap="round" stroke-linejoin="round" stroke-miterlimit="10" points="&#xA;&#x9;&#x9;&#x9;152.38,156.17 147.46,158.93 152.03,174.38 159.11,171.71 158.25,178.96 171.63,186.82 &#x9;&#x9;"></polygon>
&#x9;&#x9;
&#x9;&#x9;&#x9;<linearGradient id="SVGID_00000034791468106915438210000013363438290297459609_" gradientUnits="userSpaceOnUse" x1="173.9026" y1="146.5155" x2="178.9978" y2="210.3756">
&#x9;&#x9;&#x9;<stop offset="0.1985" style="stop-color:#C5E2F9"></stop>
&#x9;&#x9;&#x9;<stop offset="0.2295" style="stop-color:#CFE6F9"></stop>
&#x9;&#x9;&#x9;<stop offset="0.3024" style="stop-color:#E0EDF9"></stop>
&#x9;&#x9;&#x9;<stop offset="0.3932" style="stop-color:#EBF2F9"></stop>
&#x9;&#x9;&#x9;<stop offset="0.5205" style="stop-color:#F2F5F9"></stop>
&#x9;&#x9;&#x9;<stop offset="0.8741" style="stop-color:#F4F6F9"></stop>
&#x9;&#x9;</linearGradient>
&#x9;&#x9;
&#x9;&#x9;&#x9;<path fill="url(#SVGID_00000034791468106915438210000013363438290297459609_)" stroke="#0840A5" stroke-width="0.6456" stroke-linecap="round" stroke-linejoin="round" stroke-miterlimit="10" d="&#xA;&#x9;&#x9;&#x9;M175.08,157.16l-3.45,29.65l7.42-9.15l-2.76-6.65l5.01-0.6C181.3,170.41,177.5,156.3,175.08,157.16z"></path>
&#x9;</g>
</g>
<g id="ch_x5f_1eye1">
&#x9;<ellipse fill="#1B1959" cx="172.04" cy="133.85" rx="0.9" ry="1.67"></ellipse>
</g>
<g id="ch_x5f_1eye2">
&#x9;<ellipse fill="#1B1959" cx="183.07" cy="133.85" rx="0.9" ry="1.67"></ellipse>
</g>
<g id="ch_x5f_1eyebrow1">
&#x9;<path fill="none" stroke="#0840A5" stroke-width="0.6862" stroke-linecap="round" stroke-miterlimit="10" d="M179.78,129.97&#xA;&#x9;&#x9;c0,0,3.42-1.45,6.07,0.17"></path>
</g>
<g id="ch_x5f_1eyebrow2">
&#x9;<path fill="none" stroke="#0840A5" stroke-width="0.6862" stroke-linecap="round" stroke-miterlimit="10" d="M168.42,129.45&#xA;&#x9;&#x9;c0,0,3.42-1.45,6.07,0.17"></path>
</g>
<g id="ch_x5f_1nose">
&#x9;<path fill="none" stroke="#0840A5" stroke-width="0.6862" stroke-linecap="round" stroke-miterlimit="10" d="M179.52,132.27&#xA;&#x9;&#x9;c0,0,0.14,5.19,2.22,8.62c0.37,0.62,0.21,1.42-0.42,1.79c-0.79,0.46-2.12,0.84-4.2,0.44"></path>
</g>
<g id="ch_x5f_1lip">
&#x9;<g>
&#x9;&#x9;<path fill="#242058" d="M168.41,145.6c2.62,1.66,5.36,2.55,8.46,2.73C173.86,149.16,170.37,148.01,168.41,145.6L168.41,145.6z"></path>
&#x9;</g>
</g>
<g id="icon3">
&#x9;<g>
&#x9;&#x9;<path fill="#71AFD8" d="M349.91,178.53c-1.22-0.28-2.38-0.71-3.45-1.34c-0.66-0.39-0.88-0.86-0.75-1.63&#xA;&#x9;&#x9;&#x9;c0.31-1.72-1-3.33-2.74-3.37c-1.09-0.02-1.45-0.29-1.75-1.3c-0.29-0.97-0.42-1.96-0.37-2.98c0.03-0.66,0.36-1.11,0.99-1.33&#xA;&#x9;&#x9;&#x9;c1.62-0.56,2.42-1.98,2.01-3.56c-0.05-0.2-0.14-0.39-0.23-0.57c-0.28-0.58-0.22-1.12,0.19-1.6c0.73-0.86,1.6-1.58,2.56-2.17&#xA;&#x9;&#x9;&#x9;c0.54-0.33,1.03-0.26,1.57,0.2c1.11,0.93,2.66,0.88,3.64-0.12c0.19-0.2,0.35-0.44,0.5-0.67c0.32-0.49,0.79-0.7,1.36-0.57&#xA;&#x9;&#x9;&#x9;c1.19,0.27,2.31,0.72,3.35,1.36c0.52,0.32,0.75,0.78,0.68,1.4c-0.19,1.86,1,3.22,2.88,3.32c0.65,0.03,1.09,0.34,1.33,0.96&#xA;&#x9;&#x9;&#x9;c0.41,1.07,0.59,2.16,0.55,3.3c-0.03,0.73-0.32,1.13-1,1.39c-1.22,0.47-1.93,1.34-1.97,2.65c-0.01,0.45,0.13,0.94,0.31,1.37&#xA;&#x9;&#x9;&#x9;c0.29,0.7,0.27,1.19-0.22,1.77c-0.68,0.8-1.47,1.5-2.34,2.08c-0.58,0.38-1.11,0.35-1.63-0.11c-1.46-1.28-3.38-0.91-4.31,0.8&#xA;&#x9;&#x9;&#x9;c-0.14,0.26-0.42,0.44-0.64,0.66C350.25,178.48,350.08,178.5,349.91,178.53z M352.11,171.52c1.94-0.32,3.28-2.15,2.98-4.08&#xA;&#x9;&#x9;&#x9;c-0.31-1.96-2.17-3.3-4.14-2.98c-1.93,0.31-3.25,2.17-2.93,4.11C348.33,170.5,350.18,171.83,352.11,171.52z"></path>
&#x9;&#x9;<path fill="#3660B7" d="M371.36,150.11c0,0.26,0,0.51-0.01,0.77c-0.01,0.57-0.27,0.94-0.8,1.13c-1.44,0.54-2.01,1.95-1.34,3.31&#xA;&#x9;&#x9;&#x9;c0.22,0.46,0.19,0.88-0.13,1.27c-0.57,0.7-1.24,1.29-2,1.79c-0.43,0.28-0.86,0.23-1.25-0.1c-1.23-1.04-2.71-0.78-3.48,0.63&#xA;&#x9;&#x9;&#x9;c-0.26,0.48-0.63,0.65-1.16,0.53c-0.95-0.21-1.83-0.57-2.66-1.08c-0.44-0.27-0.61-0.67-0.52-1.19c0.26-1.52-0.76-2.74-2.31-2.77&#xA;&#x9;&#x9;&#x9;c-0.68-0.01-1-0.24-1.23-0.88c-0.29-0.83-0.4-1.68-0.36-2.55c0.03-0.59,0.27-0.92,0.83-1.1c1.48-0.48,2.08-2.1,1.4-3.35&#xA;&#x9;&#x9;&#x9;c-0.24-0.43-0.17-0.86,0.14-1.24c0.59-0.71,1.3-1.3,2.09-1.78c0.4-0.25,0.83-0.23,1.17,0.1c1.02,0.98,2.73,0.73,3.43-0.56&#xA;&#x9;&#x9;&#x9;c0.23-0.43,0.62-0.58,1.1-0.47c0.94,0.21,1.81,0.57,2.63,1.06c0.48,0.28,0.67,0.69,0.61,1.25c-0.15,1.33,0.79,2.45,2.11,2.58&#xA;&#x9;&#x9;&#x9;c0.9,0.08,1.15,0.28,1.41,1.15c0.04,0.12,0.09,0.24,0.13,0.36C371.24,149.34,371.3,149.72,371.36,150.11z M363.19,153.84&#xA;&#x9;&#x9;&#x9;c1.57-0.25,2.65-1.71,2.4-3.27c-0.25-1.59-1.73-2.67-3.32-2.43c-1.54,0.23-2.63,1.74-2.38,3.29&#xA;&#x9;&#x9;&#x9;C360.13,153.02,361.61,154.1,363.19,153.84z"></path>
&#x9;&#x9;<path fill="#3660B7" d="M374.02,166.11c-0.23,0.58-0.44,1.16-0.7,1.73c-0.16,0.36-0.49,0.45-0.87,0.39&#xA;&#x9;&#x9;&#x9;c-1.01-0.17-1.73,0.38-1.86,1.4c-0.04,0.35-0.22,0.6-0.56,0.68c-0.56,0.12-1.12,0.22-1.69,0.29c-0.32,0.04-0.54-0.15-0.66-0.46&#xA;&#x9;&#x9;&#x9;c-0.43-1.09-1.15-1.37-2.2-0.85c-0.29,0.15-0.59,0.13-0.8-0.13c-0.39-0.49-0.76-0.99-1.11-1.51c-0.18-0.27-0.12-0.57,0.09-0.84&#xA;&#x9;&#x9;&#x9;c0.69-0.86,0.55-1.78-0.35-2.39c-0.35-0.24-0.49-0.49-0.35-0.88c0.18-0.53,0.42-1.04,0.66-1.54c0.17-0.34,0.48-0.43,0.85-0.37&#xA;&#x9;&#x9;&#x9;c1.06,0.19,1.78-0.32,1.93-1.37c0.05-0.36,0.24-0.61,0.6-0.68c0.51-0.1,1.02-0.19,1.53-0.24c0.47-0.05,0.66,0.11,0.82,0.55&#xA;&#x9;&#x9;&#x9;c0.29,0.82,1.16,1.19,1.95,0.82c0.5-0.23,0.69-0.21,1.05,0.22c0.37,0.45,0.69,0.93,1.03,1.4c0.02,0.15,0.05,0.3,0.07,0.45&#xA;&#x9;&#x9;&#x9;c-0.09,0.15-0.16,0.3-0.26,0.44c-0.5,0.7-0.36,1.61,0.32,2.14c0.15,0.12,0.29,0.25,0.44,0.37&#xA;&#x9;&#x9;&#x9;C373.98,165.85,374,165.98,374.02,166.11z M370.31,164.65c-0.18-1.04-1.15-1.74-2.18-1.56c-1.03,0.17-1.72,1.16-1.55,2.19&#xA;&#x9;&#x9;&#x9;c0.17,1.03,1.16,1.73,2.18,1.56C369.79,166.67,370.48,165.69,370.31,164.65z"></path>
&#x9;</g>
</g>
<g id="icon2">
&#x9;<g>
&#x9;&#x9;<path fill="#18469D" d="M231.5,112.77c0.17,0,0.31-0.14,0.31-0.31v-4.27c0-0.17-0.14-0.31-0.31-0.31s-0.31,0.14-0.31,0.31v4.27&#xA;&#x9;&#x9;&#x9;C231.18,112.63,231.32,112.77,231.5,112.77z"></path>
&#x9;&#x9;<path fill="#18469D" d="M224.21,114.5c0.06,0.1,0.16,0.16,0.27,0.16c0.05,0,0.11-0.01,0.16-0.04c0.15-0.09,0.2-0.28,0.11-0.43&#xA;&#x9;&#x9;&#x9;l-2.13-3.69c-0.09-0.15-0.28-0.2-0.43-0.11c-0.15,0.09-0.2,0.28-0.11,0.43L224.21,114.5z"></path>
&#x9;&#x9;<path fill="#18469D" d="M215.49,117.62l3.69,2.13c0.05,0.03,0.1,0.04,0.16,0.04c0.11,0,0.21-0.06,0.27-0.16&#xA;&#x9;&#x9;&#x9;c0.09-0.15,0.04-0.34-0.11-0.43l-3.69-2.13c-0.15-0.09-0.34-0.04-0.43,0.11C215.29,117.34,215.34,117.53,215.49,117.62z"></path>
&#x9;&#x9;<path fill="#18469D" d="M217.78,126.5c0-0.17-0.14-0.31-0.31-0.31h-4.27c-0.17,0-0.31,0.14-0.31,0.31c0,0.17,0.14,0.31,0.31,0.31&#xA;&#x9;&#x9;&#x9;h4.27C217.64,126.81,217.78,126.67,217.78,126.5z"></path>
&#x9;&#x9;<path fill="#18469D" d="M219.19,133.24l-3.69,2.13c-0.15,0.09-0.2,0.28-0.11,0.43c0.06,0.1,0.16,0.16,0.27,0.16&#xA;&#x9;&#x9;&#x9;c0.05,0,0.11-0.01,0.16-0.04l3.69-2.13c0.15-0.09,0.2-0.28,0.11-0.43C219.53,133.21,219.34,133.16,219.19,133.24z"></path>
&#x9;&#x9;<path fill="#18469D" d="M247.5,135.37l-3.69-2.13c-0.15-0.09-0.34-0.04-0.43,0.11c-0.09,0.15-0.04,0.34,0.11,0.43l3.69,2.13&#xA;&#x9;&#x9;&#x9;c0.05,0.03,0.1,0.04,0.16,0.04c0.11,0,0.21-0.06,0.27-0.16C247.7,135.65,247.65,135.46,247.5,135.37z"></path>
&#x9;&#x9;<path fill="#18469D" d="M249.8,126.18h-4.27c-0.17,0-0.31,0.14-0.31,0.31c0,0.17,0.14,0.31,0.31,0.31h4.27&#xA;&#x9;&#x9;&#x9;c0.17,0,0.31-0.14,0.31-0.31C250.11,126.32,249.97,126.18,249.8,126.18z"></path>
&#x9;&#x9;<path fill="#18469D" d="M243.65,119.79c0.05,0,0.11-0.01,0.16-0.04l3.69-2.13c0.15-0.09,0.2-0.28,0.11-0.43&#xA;&#x9;&#x9;&#x9;c-0.09-0.15-0.28-0.2-0.43-0.11l-3.69,2.13c-0.15,0.09-0.2,0.28-0.11,0.43C243.44,119.74,243.54,119.79,243.65,119.79z"></path>
&#x9;&#x9;<path fill="#18469D" d="M238.36,114.61c0.05,0.03,0.1,0.04,0.16,0.04c0.11,0,0.21-0.06,0.27-0.16l2.13-3.69&#xA;&#x9;&#x9;&#x9;c0.09-0.15,0.04-0.34-0.11-0.43c-0.15-0.09-0.34-0.04-0.43,0.11l-2.13,3.69C238.16,114.34,238.21,114.53,238.36,114.61z"></path>
&#x9;&#x9;<path fill="#18469D" d="M238.17,141.67v-0.07c0-2.42,0.9-4.7,2.53-6.43c2.19-2.32,3.41-5.35,3.45-8.54&#xA;&#x9;&#x9;&#x9;c0.04-3.38-1.27-6.58-3.67-9.01c-2.4-2.43-5.58-3.77-8.96-3.78c-0.01,0-0.02,0-0.02,0c-3.37,0-6.55,1.31-8.94,3.7&#xA;&#x9;&#x9;&#x9;c-2.39,2.39-3.71,5.57-3.71,8.95c0,3.22,1.21,6.28,3.4,8.63c1.66,1.78,2.58,4.08,2.58,6.47v0.07c0,0.62,0.26,1.18,0.67,1.58&#xA;&#x9;&#x9;&#x9;c-0.62,0.08-1.1,0.61-1.1,1.26c0,0.66,0.51,1.21,1.16,1.26c-0.11,0.19-0.18,0.41-0.18,0.65c0,0.66,0.51,1.21,1.16,1.26&#xA;&#x9;&#x9;&#x9;c-0.11,0.19-0.18,0.41-0.18,0.65c0,0.7,0.57,1.27,1.27,1.27h0.03l0.96,1.06c0.35,0.39,0.85,0.61,1.38,0.61h3&#xA;&#x9;&#x9;&#x9;c0.52,0,1.03-0.22,1.38-0.61l0.96-1.06h0.03c0.7,0,1.27-0.57,1.27-1.27c0-0.24-0.07-0.46-0.18-0.65c0.65-0.05,1.16-0.6,1.16-1.26&#xA;&#x9;&#x9;&#x9;c0-0.24-0.07-0.46-0.18-0.65c0.65-0.05,1.16-0.6,1.16-1.26c0-0.64-0.48-1.17-1.1-1.26C237.91,142.85,238.17,142.29,238.17,141.67z&#xA;&#x9;&#x9;&#x9; M233.91,150.23c-0.23,0.26-0.57,0.41-0.91,0.41h-3c-0.35,0-0.68-0.15-0.91-0.41l-0.49-0.54h5.8L233.91,150.23z M225.46,141.67&#xA;&#x9;&#x9;&#x9;v-0.07c0-2.55-0.98-5.01-2.75-6.9c-2.09-2.23-3.23-5.15-3.23-8.2c0-3.22,1.25-6.24,3.53-8.51c2.27-2.27,5.29-3.51,8.49-3.51&#xA;&#x9;&#x9;&#x9;c0.01,0,0.02,0,0.02,0c3.21,0.01,6.23,1.28,8.51,3.59c2.28,2.31,3.52,5.35,3.49,8.56c-0.03,3.03-1.2,5.91-3.28,8.12&#xA;&#x9;&#x9;&#x9;c-1.74,1.85-2.7,4.28-2.7,6.86v0.07c0,0.86-0.7,1.57-1.57,1.57h-8.95C226.16,143.24,225.46,142.53,225.46,141.67z M235.36,148.96&#xA;&#x9;&#x9;&#x9;h-7.73c-0.35,0-0.64-0.29-0.64-0.64s0.29-0.64,0.64-0.64h7.73c0.35,0,0.64,0.29,0.64,0.64S235.71,148.96,235.36,148.96z&#xA;&#x9;&#x9;&#x9; M236.35,147.05h-0.98h-7.73h-0.98c-0.35,0-0.64-0.29-0.64-0.64c0-0.35,0.29-0.64,0.64-0.64h9.7c0.35,0,0.64,0.29,0.64,0.64&#xA;&#x9;&#x9;&#x9;C236.99,146.77,236.7,147.05,236.35,147.05z M237.33,143.87c0.35,0,0.64,0.29,0.64,0.64c0,0.35-0.29,0.64-0.64,0.64h-0.98h-9.7&#xA;&#x9;&#x9;&#x9;h-0.98c-0.35,0-0.64-0.29-0.64-0.64c0-0.35,0.29-0.64,0.64-0.64h1.36h8.95H237.33z"></path>
&#x9;&#x9;<path fill="#18469D" d="M227.95,117.5c0.07-0.03,0.12-0.12,0.09-0.2c-0.03-0.09-0.12-0.13-0.21-0.11&#xA;&#x9;&#x9;&#x9;c-0.12,0.04-0.23,0.08-0.34,0.12c-0.33,0.13-0.65,0.29-0.95,0.46c-1.68,0.93-3.08,2.39-3.93,4.13c-0.67,1.33-1.01,2.8-1.13,4.28&#xA;&#x9;&#x9;&#x9;c-0.06,0.63,0.49,1.18,1.12,1.12c0.57-0.05,0.99-0.55,0.94-1.12c-0.08-0.94-0.05-1.9,0.14-2.83c0.14-0.73,0.38-1.44,0.7-2.11&#xA;&#x9;&#x9;&#x9;C225.14,119.7,226.42,118.33,227.95,117.5z"></path>
&#x9;</g>
</g>
<g id="icon1">
&#x9;<g>
&#x9;&#x9;<g>
&#x9;&#x9;&#x9;<path fill="#71AFD8" stroke="#2D5FBB" stroke-width="0.2697" stroke-miterlimit="10" d="M206.35,231.2l3.51,2.79l1.81-2.41&#xA;&#x9;&#x9;&#x9;&#x9;l-3.27-2.78c0.42-0.22,0.88-0.38,1.38-0.46c2.33-0.36,4.5,1.17,4.85,3.42c0.12,0.75,0.01,1.48-0.26,2.14l9.39,8.55&#xA;&#x9;&#x9;&#x9;&#x9;c0.23-0.06,0.47-0.09,0.72-0.1c1.92-0.07,3.53,1.37,3.6,3.23c0.02,0.53-0.09,1.04-0.3,1.49l-2.58-2.59l-1.69,1.78l2.38,2.56&#xA;&#x9;&#x9;&#x9;&#x9;c-0.36,0.14-0.75,0.22-1.16,0.24c-1.92,0.07-3.53-1.37-3.6-3.23c-0.01-0.33,0.03-0.65,0.11-0.96l-9.23-8.66&#xA;&#x9;&#x9;&#x9;&#x9;c-0.3,0.12-0.62,0.21-0.96,0.27c-2.33,0.36-4.5-1.17-4.85-3.42C206.1,232.41,206.16,231.78,206.35,231.2z"></path>
&#x9;&#x9;</g>
&#x9;</g>
</g>
<g id="part_11">
&#x9;<g>
&#x9;&#x9;<rect x="0" fill="none" stroke="#9ac7fd" stroke-width="0.5" stroke-miterlimit="10" width="1920" height="1080"></rect>
&#x9;&#x9;
&#x9;&#x9;&#x9;<rect x="520" y="-320" transform="matrix(-1.836970e-16 1 -1 -1.836970e-16 1500 -420)" fill="none" stroke="#9ac7fd" stroke-width="0.5" stroke-miterlimit="10" width="880" height="1720"></rect>
&#x9;&#x9;<g>
&#x9;&#x9;&#x9;<g>
&#x9;&#x9;&#x9;&#x9;<line fill="none" stroke="#9ac7fd" stroke-width="0.5" stroke-miterlimit="10" x1="960" y1="0" x2="960" y2="195.69"></line>
&#x9;&#x9;&#x9;</g>
&#x9;&#x9;&#x9;<g>
&#x9;&#x9;&#x9;&#x9;<line fill="none" stroke="#9ac7fd" stroke-width="0.5" stroke-miterlimit="10" x1="960" y1="884.31" x2="960" y2="1080"></line>
&#x9;&#x9;&#x9;</g>
&#x9;&#x9;&#x9;<g>
&#x9;&#x9;&#x9;&#x9;<line fill="none" stroke="#9ac7fd" stroke-width="0.5" stroke-miterlimit="10" x1="1724.31" y1="540" x2="1920" y2="540"></line>
&#x9;&#x9;&#x9;</g>
&#x9;&#x9;&#x9;<g>
&#x9;&#x9;&#x9;&#x9;<line fill="none" stroke="#9ac7fd" stroke-width="0.5" stroke-miterlimit="10" x1="0" y1="540" x2="195.69" y2="540"></line>
&#x9;&#x9;&#x9;</g>
&#x9;&#x9;</g>
&#x9;</g>
</g>

</g>
</svg>